<svg width="400" height="300" viewBox="0 0 400 300" fill="none" xmlns="http://www.w3.org/2000/svg">
<path d="M233.926 173.69C217.728 185.63 194.25 192 174.036 192C145.692 192 120.175 181.516 100.871 164.081C99.3539 162.709 100.713 160.841 102.533 161.909C123.366 174.03 149.125 181.322 175.734 181.322C193.68 181.322 213.421 177.609 231.573 169.905C234.315 168.74 236.608 171.7 233.926 173.69Z" fill="#FF9900"/>
<path d="M240.661 165.986C238.598 163.341 226.974 164.736 221.757 165.355C220.167 165.549 219.924 164.166 221.356 163.171C230.614 156.655 245.805 158.536 247.577 160.72C249.348 162.916 247.116 178.144 238.416 185.412C237.081 186.528 235.807 185.934 236.402 184.453C238.355 179.576 242.735 168.643 240.661 165.986" fill="#FF9900"/>
<path d="M222.121 117.173V110.839C222.121 109.881 222.849 109.238 223.722 109.238H252.078C252.988 109.238 253.716 109.893 253.716 110.839V116.263C253.704 117.173 252.94 118.362 251.581 120.243L236.887 141.222C242.347 141.088 248.111 141.901 253.061 144.692C254.178 145.323 254.481 146.245 254.566 147.155V153.913C254.566 154.835 253.547 155.915 252.479 155.357C243.755 150.783 232.167 150.285 222.521 155.406C221.538 155.94 220.507 154.872 220.507 153.95V147.531C220.507 146.5 220.519 144.74 221.551 143.175L238.574 118.763H223.759C222.849 118.763 222.121 118.12 222.121 117.173" fill="#221F1F"/>
<path d="M118.682 156.692H110.055C109.23 156.631 108.575 156.013 108.515 155.224V110.949C108.515 110.063 109.255 109.359 110.177 109.359H118.221C119.059 109.396 119.726 110.039 119.787 110.84V116.627H119.944C122.043 111.034 125.987 108.425 131.301 108.425C136.701 108.425 140.074 111.034 142.5 116.627C144.587 111.034 149.332 108.425 154.416 108.425C158.031 108.425 161.987 109.917 164.401 113.266C167.131 116.991 166.573 122.403 166.573 127.147L166.561 155.09C166.561 155.976 165.821 156.692 164.899 156.692H156.284C155.423 156.631 154.731 155.94 154.731 155.09V131.624C154.731 129.756 154.901 125.096 154.488 123.325C153.845 120.352 151.916 119.515 149.417 119.515C147.33 119.515 145.146 120.91 144.26 123.143C143.374 125.376 143.459 129.113 143.459 131.624V155.09C143.459 155.976 142.719 156.692 141.797 156.692H133.182C132.308 156.631 131.629 155.94 131.629 155.09L131.617 131.624C131.617 126.686 132.43 119.418 126.302 119.418C120.102 119.418 120.345 126.504 120.345 131.624V155.09C120.345 155.976 119.605 156.692 118.682 156.692Z" fill="#221F1F"/>
<path d="M278.129 108.425C290.93 108.425 297.858 119.418 297.858 133.396C297.858 146.9 290.202 157.614 278.129 157.614C265.559 157.614 258.715 146.621 258.715 132.923C258.715 119.139 265.643 108.425 278.129 108.425M278.202 117.464C271.844 117.464 271.443 126.128 271.443 131.527C271.443 136.939 271.358 148.49 278.129 148.49C284.814 148.49 285.13 139.171 285.13 133.493C285.13 129.756 284.972 125.291 283.844 121.748C282.873 118.666 280.944 117.464 278.202 117.464" fill="#221F1F"/>
<path d="M314.457 156.692H305.866C305.005 156.631 304.313 155.94 304.313 155.09L304.301 110.803C304.374 109.99 305.089 109.359 305.963 109.359H313.959C314.711 109.396 315.33 109.905 315.5 110.597V117.367H315.658C318.072 111.313 321.458 108.425 327.415 108.425C331.286 108.425 335.059 109.82 337.486 113.642C339.743 117.185 339.743 123.143 339.743 127.426V155.297C339.646 156.073 338.93 156.692 338.08 156.692H329.429C328.641 156.631 327.985 156.049 327.9 155.297V131.248C327.9 126.407 328.459 119.321 322.501 119.321C320.402 119.321 318.473 120.728 317.514 122.864C316.301 125.57 316.143 128.263 316.143 131.248V155.09C316.131 155.976 315.379 156.692 314.457 156.692" fill="#221F1F"/>
<path d="M199.516 135.543V133.674C193.279 133.674 186.691 135.009 186.691 142.362C186.691 146.087 188.62 148.611 191.932 148.611C194.359 148.611 196.531 147.118 197.902 144.692C199.601 141.707 199.516 138.904 199.516 135.543M208.216 156.57C207.645 157.08 206.82 157.116 206.177 156.777C203.314 154.398 202.804 153.294 201.227 151.025C196.495 155.854 193.146 157.298 187.006 157.298C179.75 157.298 174.096 152.821 174.096 143.854C174.096 136.853 177.894 132.085 183.293 129.755C187.977 127.693 194.517 127.329 199.516 126.758V125.642C199.516 123.592 199.674 121.165 198.472 119.393C197.417 117.804 195.403 117.149 193.631 117.149C190.343 117.149 187.407 118.835 186.691 122.33C186.545 123.106 185.975 123.871 185.198 123.907L176.826 123.009C176.122 122.851 175.346 122.281 175.54 121.201C177.469 111.058 186.63 108 194.832 108C199.03 108 204.515 109.116 207.827 112.295C212.025 116.214 211.625 121.444 211.625 127.135V140.578C211.625 144.619 213.299 146.39 214.877 148.574C215.435 149.351 215.556 150.285 214.853 150.868C213.093 152.336 209.963 155.066 208.24 156.595L208.216 156.57" fill="#221F1F"/>
<path d="M86.4197 135.543V133.674C80.183 133.674 73.5946 135.009 73.5946 142.362C73.5946 146.087 75.5238 148.611 78.8362 148.611C81.2629 148.611 83.4348 147.118 84.8059 144.692C86.5046 141.707 86.4197 138.904 86.4197 135.543M95.1194 156.57C94.5491 157.08 93.724 157.116 93.0809 156.777C90.2174 154.398 89.7078 153.294 88.1305 151.025C83.3984 155.854 80.0496 157.298 73.91 157.298C66.6542 157.298 61 152.821 61 143.854C61 136.853 64.7978 132.085 70.1972 129.755C74.8807 127.693 81.4207 127.329 86.4197 126.758V125.642C86.4197 123.592 86.5774 121.165 85.3762 119.393C84.3206 117.804 82.3064 117.149 80.5349 117.149C77.2467 117.149 74.3104 118.835 73.5946 122.33C73.4489 123.106 72.8787 123.871 72.1021 123.907L63.73 123.009C63.0263 122.851 62.2497 122.281 62.4439 121.201C64.3731 111.058 73.5339 108 81.7361 108C85.9343 108 91.4186 109.116 94.7311 112.295C98.9293 116.214 98.5289 121.444 98.5289 127.135V140.578C98.5289 144.619 100.203 146.39 101.781 148.574C102.339 149.351 102.46 150.285 101.756 150.868C99.997 152.336 96.8666 155.066 95.1436 156.595L95.1194 156.57" fill="#221F1F"/>
</svg>
