<?xml version="1.0" encoding="utf-8"?>
<!-- Generator: Adobe Illustrator 26.3.1, SVG Export Plug-In . SVG Version: 6.00 Build 0)  -->
<svg version="1.1" id="Layer_1" xmlns="http://www.w3.org/2000/svg" xmlns:xlink="http://www.w3.org/1999/xlink" x="0px" y="0px"
	 viewBox="0 0 100 90" style="enable-background:new 0 0 100 90;" xml:space="preserve">
<style type="text/css">
	.st0{fill:#FF9900;}
	.st1{fill:#221F1F;}
</style>
<g>
	<path class="st0" d="M60.2,51.9c-4.7,3.5-11.6,5.4-17.5,5.4c-8.3,0-15.8-3.1-21.4-8.2c-0.4-0.4,0-0.9,0.5-0.6
		c6.1,3.6,13.6,5.7,21.4,5.7c5.3,0,11-1.1,16.4-3.3C60.3,50.5,61,51.4,60.2,51.9z"/>
	<path class="st0" d="M62.2,49.7c-0.6-0.8-4-0.4-5.5-0.2c-0.5,0.1-0.5-0.3-0.1-0.6c2.7-1.9,7.2-1.4,7.7-0.7c0.5,0.6-0.1,5.1-2.7,7.2
		c-0.4,0.3-0.8,0.2-0.6-0.3C61.5,53.7,62.8,50.5,62.2,49.7"/>
	<path class="st1" d="M56.7,35.4v-1.9c0-0.3,0.2-0.5,0.5-0.5h8.3c0.3,0,0.5,0.2,0.5,0.5v1.6c0,0.3-0.2,0.6-0.6,1.2l-4.3,6.1
		c1.6,0,3.3,0.2,4.7,1c0.3,0.2,0.4,0.5,0.4,0.7v2c0,0.3-0.3,0.6-0.6,0.4c-2.6-1.3-6-1.5-8.8,0c-0.3,0.2-0.6-0.2-0.6-0.4v-1.9
		c0-0.3,0-0.8,0.3-1.3l5-7.2h-4.3C57,35.8,56.7,35.7,56.7,35.4"/>
	<path class="st1" d="M26.4,47h-2.5c-0.2,0-0.4-0.2-0.5-0.4v-13c0-0.3,0.2-0.5,0.5-0.5h2.4c0.2,0,0.4,0.2,0.5,0.4v1.7h0
		c0.6-1.6,1.8-2.4,3.3-2.4c1.6,0,2.6,0.8,3.3,2.4c0.6-1.6,2-2.4,3.5-2.4c1.1,0,2.2,0.4,2.9,1.4c0.8,1.1,0.6,2.7,0.6,4.1l0,8.2
		c0,0.3-0.2,0.5-0.5,0.5h-2.5c-0.3,0-0.5-0.2-0.5-0.5v-6.9c0-0.5,0-1.9-0.1-2.4c-0.2-0.9-0.8-1.1-1.5-1.1c-0.6,0-1.3,0.4-1.5,1.1
		c-0.3,0.7-0.2,1.7-0.2,2.5v6.9c0,0.3-0.2,0.5-0.5,0.5h-2.5c-0.3,0-0.5-0.2-0.5-0.5l0-6.9c0-1.4,0.2-3.6-1.6-3.6
		c-1.8,0-1.7,2.1-1.7,3.6v6.9C26.9,46.8,26.7,47,26.4,47z"/>
	<path class="st1" d="M73.2,32.8c3.8,0,5.8,3.2,5.8,7.3c0,4-2.2,7.1-5.8,7.1c-3.7,0-5.7-3.2-5.7-7.2C67.5,36,69.5,32.8,73.2,32.8
		 M73.2,35.5c-1.9,0-2,2.5-2,4.1c0,1.6,0,5,2,5c2,0,2.1-2.7,2.1-4.4c0-1.1,0-2.4-0.4-3.4C74.5,35.8,74,35.5,73.2,35.5"/>
	<path class="st1" d="M83.8,47h-2.5c-0.3,0-0.5-0.2-0.5-0.5l0-13c0-0.2,0.2-0.4,0.5-0.4h2.3c0.2,0,0.4,0.2,0.5,0.4v2h0
		c0.7-1.8,1.7-2.6,3.4-2.6c1.1,0,2.2,0.4,3,1.5c0.7,1,0.7,2.8,0.7,4v8.2c0,0.2-0.2,0.4-0.5,0.4h-2.5c-0.2,0-0.4-0.2-0.4-0.4v-7
		c0-1.4,0.2-3.5-1.6-3.5c-0.6,0-1.2,0.4-1.5,1c-0.4,0.8-0.4,1.6-0.4,2.5v7C84.3,46.8,84.1,47,83.8,47"/>
	<path class="st1" d="M50.1,40.8v-0.5c-1.8,0-3.8,0.4-3.8,2.5c0,1.1,0.6,1.8,1.5,1.8c0.7,0,1.3-0.4,1.7-1.1
		C50.1,42.6,50.1,41.7,50.1,40.8 M52.7,46.9c-0.2,0.1-0.4,0.2-0.6,0.1c-0.8-0.7-1-1-1.5-1.7c-1.4,1.4-2.4,1.8-4.2,1.8
		c-2.1,0-3.8-1.3-3.8-3.9c0-2.1,1.1-3.4,2.7-4.1c1.4-0.6,3.3-0.7,4.8-0.9v-0.3c0-0.6,0-1.3-0.3-1.8c-0.3-0.5-0.9-0.7-1.4-0.7
		c-1,0-1.8,0.5-2,1.5c0,0.2-0.2,0.5-0.4,0.5l-2.5-0.3c-0.2,0-0.4-0.2-0.4-0.5c0.6-3,3.2-3.9,5.7-3.9c1.2,0,2.8,0.3,3.8,1.3
		c1.2,1.1,1.1,2.7,1.1,4.3v3.9c0,1.2,0.5,1.7,1,2.3c0.2,0.2,0.2,0.5,0,0.7C54.1,45.7,53.2,46.5,52.7,46.9L52.7,46.9"/>
	<path class="st1" d="M17,40.8v-0.5c-1.8,0-3.8,0.4-3.8,2.5c0,1.1,0.6,1.8,1.5,1.8c0.7,0,1.3-0.4,1.7-1.1C17,42.6,17,41.7,17,40.8
		 M19.5,46.9c-0.2,0.1-0.4,0.2-0.6,0.1c-0.8-0.7-1-1-1.5-1.7c-1.4,1.4-2.4,1.8-4.2,1.8c-2.1,0-3.8-1.3-3.8-3.9
		c0-2.1,1.1-3.4,2.7-4.1c1.4-0.6,3.3-0.7,4.8-0.9v-0.3c0-0.6,0-1.3-0.3-1.8c-0.3-0.5-0.9-0.7-1.4-0.7c-1,0-1.8,0.5-2,1.5
		c0,0.2-0.2,0.5-0.4,0.5l-2.5-0.3c-0.2,0-0.4-0.2-0.4-0.5c0.6-3,3.2-3.9,5.7-3.9c1.2,0,2.8,0.3,3.8,1.3c1.2,1.1,1.1,2.7,1.1,4.3v3.9
		c0,1.2,0.5,1.7,1,2.3c0.2,0.2,0.2,0.5,0,0.7C21,45.7,20,46.5,19.5,46.9L19.5,46.9"/>
</g>
</svg>
