<svg width="220" height="66" viewBox="0 0 220 66" fill="none" xmlns="http://www.w3.org/2000/svg">
<path d="M218.541 57.5818C218.541 58.4023 218.379 59.2146 218.065 59.9725C217.751 60.7304 217.29 61.4189 216.709 61.9988C216.129 62.5786 215.44 63.0383 214.681 63.3517C213.923 63.6651 213.11 63.8259 212.289 63.825H7.71071C6.05259 63.8268 4.46167 63.17 3.28782 61.9993C2.11398 60.8285 1.45333 59.2395 1.45117 57.5818V7.79432C1.45333 6.13589 2.11372 4.5461 3.28733 3.37403C4.46094 2.20195 6.05184 1.5434 7.71071 1.54297H212.288C213.109 1.54297 213.922 1.70468 214.68 2.01886C215.439 2.33304 216.128 2.79353 216.709 3.37405C217.289 3.95456 217.75 4.64372 218.064 5.40216C218.378 6.1606 218.539 6.97346 218.539 7.79432L218.541 57.5818Z" fill="white"/>
<path d="M212.289 65.2775H7.71069C5.66808 65.2771 3.70906 64.4666 2.26349 63.0239C0.817924 61.5811 0.00388653 59.624 0 57.5819L0 7.79604C0.00302175 5.75296 0.816522 3.79449 2.26204 2.35027C3.70756 0.906051 5.66706 0.0940096 7.71069 0.0922852L212.288 0.0922852C214.331 0.09487 216.29 0.907188 217.735 2.35122C219.181 3.79526 219.995 5.75322 219.998 7.79604V57.5819C220.002 61.8267 216.537 65.2775 212.289 65.2775Z" fill="#A6A6A6"/>
<path d="M218.541 57.5818C218.541 58.4023 218.379 59.2146 218.065 59.9725C217.751 60.7304 217.29 61.4189 216.709 61.9988C216.129 62.5786 215.44 63.0383 214.681 63.3517C213.923 63.665 213.11 63.8259 212.289 63.825H7.71071C6.05259 63.8268 4.46167 63.17 3.28782 61.9992C2.11398 60.8285 1.45333 59.2395 1.45117 57.5818V7.79432C1.45333 6.13589 2.11372 4.5461 3.28733 3.37403C4.46094 2.20195 6.05184 1.5434 7.71071 1.54297H212.288C213.109 1.54297 213.922 1.70468 214.68 2.01886C215.439 2.33304 216.128 2.79353 216.709 3.37405C217.289 3.95456 217.75 4.64372 218.064 5.40216C218.378 6.1606 218.539 6.97346 218.539 7.79432L218.541 57.5818Z" fill="black"/>
<path d="M49.1241 32.3419C49.0768 27.0881 53.427 24.5321 53.6259 24.4131C51.1622 20.8221 47.3435 20.3314 46.0016 20.2923C42.7944 19.9549 39.6834 22.2109 38.0496 22.2109C36.3832 22.2109 33.8674 20.3249 31.1558 20.3803C27.6665 20.4341 24.4022 22.4538 22.6119 25.5901C18.9172 31.9849 21.6728 41.3823 25.2126 46.5513C26.9833 49.0844 29.0525 51.9093 31.7607 51.8099C34.4103 51.7023 35.4 50.1228 38.5975 50.1228C41.7656 50.1228 42.695 51.8099 45.457 51.7463C48.3007 51.7023 50.091 49.2034 51.7997 46.6491C53.846 43.7492 54.6678 40.89 54.7004 40.7433C54.6352 40.7205 49.1795 38.6372 49.1241 32.3419ZM43.9064 16.892C45.3315 15.1103 46.3065 12.6864 46.0359 10.2266C43.9733 10.3178 41.3938 11.6529 39.9084 13.3954C38.5942 14.931 37.4203 17.4478 37.7235 19.8147C40.0405 19.9875 42.4194 18.6459 43.9064 16.892Z" fill="white"/>
<path d="M212.289 0.0922852H102.711L145.631 65.2775H212.289C214.332 65.2758 216.291 64.4642 217.737 63.0207C219.182 61.5772 219.996 59.6196 220 57.577V7.79604C219.997 5.75309 219.183 3.79487 217.737 2.35075C216.292 0.90662 214.333 0.09444 212.289 0.0922852Z" fill="url(#paint0_linear_1299_96266)"/>
<path d="M87.5014 51.4464H83.7985L81.7701 45.0744H74.7198L72.7876 51.4464H69.1826L76.1693 29.7533H80.4836L87.5014 51.4464ZM81.1587 42.401L79.3243 36.7365C79.1303 36.1578 78.7651 34.7951 78.2303 32.6499H78.165C77.9498 33.5725 77.6058 34.9353 77.1346 36.7365L75.3312 42.401H81.1587ZM105.434 43.4329C105.434 46.0932 104.711 48.196 103.265 49.7397C101.971 51.1138 100.361 51.8001 98.4421 51.8001C96.3697 51.8001 94.8794 51.0617 93.9745 49.5815V57.789H90.4982V40.9454C90.4982 39.2745 90.4542 37.5613 90.3694 35.8041H93.4266L93.6207 38.2835H93.6859C94.8452 36.4154 96.6045 35.4814 98.9655 35.4814C100.811 35.4814 102.352 36.21 103.585 37.6689C104.816 39.1311 105.434 41.0513 105.434 43.4329ZM101.892 43.56C101.892 42.0375 101.55 40.7824 100.862 39.7929C100.11 38.7643 99.1008 38.2492 97.8355 38.2492C96.9779 38.2492 96.1985 38.5361 95.5023 39.1018C94.8044 39.6723 94.3479 40.4172 94.1343 41.3399C94.0389 41.6849 93.9847 42.04 93.9729 42.3978V45.0075C93.9729 46.1437 94.3218 47.1038 95.0196 47.8895C95.7175 48.672 96.6241 49.0648 97.7393 49.0648C99.0486 49.0648 100.068 48.5578 100.797 47.5521C101.527 46.5431 101.892 45.2129 101.892 43.56ZM123.43 43.4329C123.43 46.0932 122.707 48.196 121.261 49.7397C119.965 51.1138 118.357 51.8001 116.436 51.8001C114.364 51.8001 112.874 51.0617 111.969 49.5815V57.789H108.493V40.9454C108.493 39.2745 108.449 37.5613 108.364 35.8041H111.421L111.615 38.2835H111.68C112.838 36.4154 114.597 35.4814 116.96 35.4814C118.804 35.4814 120.345 36.21 121.581 37.6689C122.81 39.1311 123.43 41.0513 123.43 43.4329ZM119.887 43.56C119.887 42.0375 119.543 40.7824 118.854 39.7929C118.103 38.7643 117.097 38.2492 115.831 38.2492C114.974 38.2492 114.194 38.5361 113.495 39.1018C112.797 39.6723 112.342 40.4172 112.129 41.3399C112.023 41.7702 111.966 42.1207 111.966 42.3978V45.0075C111.966 46.1437 112.316 47.1038 113.011 47.8895C113.709 48.6703 114.615 49.0648 115.734 49.0648C117.045 49.0648 118.064 48.5578 118.791 47.5521C119.521 46.5431 119.887 45.2129 119.887 43.56ZM143.55 45.3613C143.55 47.2081 142.905 48.7094 141.621 49.8684C140.209 51.1334 138.238 51.7675 135.711 51.7675C133.376 51.7675 131.504 51.3176 130.092 50.4161L130.896 47.5195C132.42 48.4226 134.095 48.8725 135.918 48.8725C137.229 48.8725 138.248 48.5758 138.975 47.9873C139.704 47.3972 140.072 46.6083 140.072 45.6237C140.072 44.7418 139.767 44.0034 139.169 43.4019C138.567 42.802 137.573 42.2429 136.175 41.7294C132.376 40.3129 130.475 38.2411 130.475 35.5156C130.475 33.7355 131.147 32.2782 132.487 31.1388C133.827 30.001 135.605 29.4321 137.816 29.4321C139.79 29.4321 141.435 29.7761 142.741 30.4623L141.869 33.2954C140.64 32.6303 139.252 32.2978 137.7 32.2978C136.474 32.2978 135.512 32.5994 134.824 33.1992C134.245 33.7355 133.951 34.3892 133.951 35.1651C133.951 36.0209 134.286 36.7316 134.951 37.2891C135.528 37.8026 136.581 38.3617 138.104 38.9616C139.973 39.7147 141.346 40.5917 142.225 41.599C143.11 42.6064 143.55 43.8632 143.55 45.3613ZM155.073 38.4122H151.241V46.0068C151.241 47.9384 151.916 48.9018 153.27 48.9018C153.891 48.9018 154.406 48.8496 154.814 48.7404L154.91 51.3795C154.225 51.6354 153.323 51.7642 152.207 51.7642C150.834 51.7642 149.761 51.3453 148.986 50.5074C148.215 49.6696 147.827 48.2661 147.827 46.2904V38.4057H145.544V35.7976H147.827V32.9335L151.241 31.9033V35.7976H155.073V38.4122ZM172.327 43.4965C172.327 45.9008 171.639 47.8748 170.266 49.4185C168.83 51.0079 166.919 51.8001 164.537 51.8001C162.237 51.8001 160.41 51.0388 159.047 49.518C157.683 47.9938 157.002 46.0736 157.002 43.7573C157.002 41.3333 157.706 39.3479 159.11 37.8042C160.517 36.2589 162.412 35.4862 164.794 35.4862C167.09 35.4862 168.934 36.2491 170.33 37.7716C171.663 39.2485 172.327 41.1557 172.327 43.4965ZM168.724 43.5763C168.724 42.1435 168.414 40.9144 167.793 39.8858C167.064 38.6437 166.02 38.0226 164.669 38.0226C163.276 38.0226 162.208 38.6437 161.481 39.8858C160.858 40.9144 160.548 42.1647 160.548 43.6415C160.548 45.076 160.858 46.3083 161.481 47.3337C162.233 48.5758 163.281 49.1968 164.639 49.1968C165.968 49.1968 167.01 48.5627 167.763 47.3027C168.402 46.2497 168.724 45.0124 168.724 43.5763ZM183.631 38.8605C183.27 38.7953 182.903 38.7631 182.536 38.7643C181.313 38.7643 180.367 39.224 179.702 40.1499C179.125 40.9649 178.834 41.9952 178.834 43.2389V51.4464H175.358V40.7302C175.361 39.0882 175.328 37.4463 175.257 35.8057H178.285L178.412 38.7986H178.508C178.877 37.77 179.454 36.9403 180.246 36.3192C180.972 35.7765 181.853 35.4826 182.759 35.4814C183.08 35.4814 183.371 35.5042 183.628 35.5449L183.631 38.8605ZM199.178 42.8852C199.187 43.4135 199.145 43.9414 199.051 44.4615H188.622C188.662 46.0068 189.167 47.1902 190.136 48.0053C191.014 48.7323 192.151 49.0974 193.547 49.0974C195.091 49.0974 196.499 48.8529 197.766 48.359L198.311 50.7699C196.83 51.4154 195.082 51.7365 193.066 51.7365C190.639 51.7365 188.735 51.0225 187.349 49.5978C185.966 48.1715 185.273 46.2545 185.273 43.8534C185.273 41.4963 185.917 39.5321 187.207 37.9656C188.557 36.2931 190.382 35.4569 192.677 35.4569C194.932 35.4569 196.64 36.2931 197.799 37.9656C198.717 39.2908 199.178 40.934 199.178 42.8852ZM195.864 41.9837C195.888 40.9519 195.66 40.0635 195.188 39.312C194.587 38.3438 193.661 37.8613 192.42 37.8613C191.283 37.8613 190.357 38.3324 189.653 39.2778C189.074 40.0293 188.73 40.9323 188.624 41.9805L195.864 41.9837Z" fill="white"/>
<g filter="url(#filter0_d_1299_96266)">
<path d="M73.717 22.0837C72.7501 22.0837 71.9137 22.0364 71.2175 21.9565V11.4686C72.1912 11.3182 73.1752 11.2441 74.1605 11.2469C78.1471 11.2469 79.9831 13.2079 79.9831 16.4045C79.9831 20.0917 77.8145 22.0837 73.717 22.0837ZM74.3008 12.5917C73.7627 12.5917 73.3045 12.6243 72.9246 12.7026V20.6753C73.1301 20.7079 73.5246 20.7225 74.079 20.7225C76.6911 20.7225 78.1781 19.2359 78.1781 16.4517C78.1781 13.9691 76.8329 12.5917 74.3008 12.5917ZM85.7046 22.1635C83.4577 22.1635 82.0017 20.4862 82.0017 18.209C82.0017 15.8356 83.4887 14.1435 85.8317 14.1435C88.046 14.1435 89.5346 15.741 89.5346 18.0834C89.5346 20.4862 88.0003 22.1635 85.7046 22.1635ZM85.7698 15.3922C84.5355 15.3922 83.7447 16.5463 83.7447 18.1601C83.7447 19.7429 84.5518 20.897 85.7535 20.897C86.9552 20.897 87.7623 19.663 87.7623 18.1275C87.7623 16.5626 86.9715 15.3922 85.7698 15.3922ZM102.347 14.3017L99.9422 21.9891H98.3753L97.379 18.6507C97.1313 17.8341 96.9251 17.0055 96.7611 16.1681H96.7284C96.6029 17.006 96.3648 17.8455 96.1121 18.6507L95.0523 21.9891H93.4691L91.2059 14.3017H92.962L93.8327 17.9563C94.0381 18.8268 94.2109 19.6483 94.3544 20.4242H94.387C94.5126 19.7771 94.718 18.9686 95.0197 17.9726L96.1121 14.3033H97.5046L98.5497 17.8944C98.8025 18.7648 99.0079 19.619 99.1677 20.4259H99.2133C99.3242 19.6353 99.4987 18.7958 99.7351 17.8944L100.669 14.3033L102.347 14.3017ZM111.201 21.9891H109.492V17.5749C109.492 16.2154 108.97 15.534 107.941 15.534C106.929 15.534 106.233 16.4045 106.233 17.4167V21.9891H104.524V16.499C104.524 15.8193 104.508 15.0906 104.46 14.3H105.964L106.044 15.4867H106.091C106.551 14.6652 107.483 14.1435 108.528 14.1435C110.143 14.1435 111.202 15.3775 111.202 17.3858L111.201 21.9891ZM115.913 21.9891H114.203V10.7742H115.913V21.9891ZM122.143 22.1635C119.898 22.1635 118.44 20.4862 118.44 18.209C118.44 15.8356 119.927 14.1435 122.269 14.1435C124.485 14.1435 125.972 15.741 125.972 18.0834C125.973 20.4862 124.437 22.1635 122.143 22.1635ZM122.207 15.3922C120.973 15.3922 120.182 16.5463 120.182 18.1601C120.182 19.7429 120.99 20.897 122.189 20.897C123.392 20.897 124.198 19.663 124.198 18.1275C124.199 16.5626 123.41 15.3922 122.207 15.3922ZM132.709 21.9891L132.585 21.104H132.539C132.018 21.8163 131.256 22.1635 130.291 22.1635C128.913 22.1635 127.935 21.1985 127.935 19.901C127.935 18.0036 129.58 17.0223 132.428 17.0223V16.8804C132.428 15.8682 131.892 15.3612 130.832 15.3612C130.074 15.3612 129.409 15.5519 128.823 15.9317L128.476 14.8086C129.187 14.3652 130.074 14.1435 131.116 14.1435C133.125 14.1435 134.139 15.2031 134.139 17.3238V20.1553C134.139 20.9312 134.173 21.5327 134.25 21.9907L132.709 21.9891ZM132.474 18.1601C130.576 18.1601 129.624 18.6197 129.624 19.7103C129.624 20.5172 130.115 20.9116 130.796 20.9116C131.665 20.9116 132.474 20.2482 132.474 19.3468V18.1601ZM142.437 21.9891L142.357 20.7551H142.309C141.819 21.6876 140.994 22.1635 139.841 22.1635C137.987 22.1635 136.614 20.5335 136.614 18.2399C136.614 15.8356 138.037 14.1419 139.981 14.1419C141.01 14.1419 141.739 14.4891 142.15 15.1868H142.184V10.7742H143.894V19.9173C143.894 20.6606 143.912 21.3566 143.958 21.9891H142.437ZM142.184 17.4656C142.184 16.3898 141.471 15.4721 140.384 15.4721C139.117 15.4721 138.342 16.5952 138.342 18.1764C138.342 19.7266 139.146 20.7877 140.35 20.7877C141.424 20.7877 142.184 19.8537 142.184 18.7469V17.4656ZM154.739 22.1635C152.494 22.1635 151.038 20.4862 151.038 18.209C151.038 15.8356 152.525 14.1435 154.866 14.1435C157.082 14.1435 158.569 15.741 158.569 18.0834C158.57 20.4862 157.036 22.1635 154.739 22.1635ZM154.802 15.3922C153.57 15.3922 152.779 16.5463 152.779 18.1601C152.779 19.7429 153.586 20.897 154.786 20.897C155.989 20.897 156.795 19.663 156.795 18.1275C156.798 16.5626 156.007 15.3922 154.802 15.3922ZM167.758 21.9891H166.048V17.5749C166.048 16.2154 165.526 15.534 164.497 15.534C163.485 15.534 162.79 16.4045 162.79 17.4167V21.9891H161.08V16.499C161.08 15.8193 161.064 15.0906 161.016 14.3H162.52L162.599 15.4867H162.647C163.105 14.6652 164.039 14.1419 165.083 14.1419C166.697 14.1419 167.758 15.3759 167.758 17.3841V21.9891ZM179.255 15.5829H177.375V19.3158C177.375 20.2661 177.705 20.7405 178.37 20.7405C178.671 20.7405 178.924 20.7079 179.128 20.6606L179.175 21.9581C178.844 22.0853 178.401 22.1489 177.85 22.1489C176.503 22.1489 175.697 21.4055 175.697 19.4592V15.5829H174.576V14.3017H175.697V12.8933L177.375 12.3863V14.3H179.255V15.5829ZM188.301 21.9891H186.594V17.6075C186.594 16.2317 186.074 15.5356 185.043 15.5356C184.158 15.5356 183.333 16.1371 183.333 17.3548V21.9891H181.626V10.7742H183.333V15.3922H183.367C183.905 14.5543 184.685 14.1419 185.679 14.1419C187.307 14.1419 188.301 15.4069 188.301 17.4167V21.9891ZM197.569 18.5562H192.441C192.474 20.0118 193.437 20.8334 194.864 20.8334C195.622 20.8334 196.32 20.7062 196.936 20.4699L197.202 21.6566C196.475 21.9728 195.619 22.1309 194.623 22.1309C192.218 22.1309 190.794 20.6117 190.794 18.2562C190.794 15.8991 192.252 14.1272 194.43 14.1272C196.395 14.1272 197.628 15.5829 197.628 17.7819C197.639 18.0414 197.619 18.3013 197.569 18.5562ZM196.002 17.3385C196.002 16.1518 195.404 15.3139 194.311 15.3139C193.33 15.3139 192.554 16.1681 192.443 17.3385H196.002Z" fill="white"/>
</g>
<defs>
<filter id="filter0_d_1299_96266" x="67.2175" y="10.7742" width="134.413" height="19.3894" filterUnits="userSpaceOnUse" color-interpolation-filters="sRGB">
<feFlood flood-opacity="0" result="BackgroundImageFix"/>
<feColorMatrix in="SourceAlpha" type="matrix" values="0 0 0 0 0 0 0 0 0 0 0 0 0 0 0 0 0 0 127 0" result="hardAlpha"/>
<feOffset dy="4"/>
<feGaussianBlur stdDeviation="2"/>
<feComposite in2="hardAlpha" operator="out"/>
<feColorMatrix type="matrix" values="0 0 0 0 0 0 0 0 0 0 0 0 0 0 0 0 0 0 0.25 0"/>
<feBlend mode="normal" in2="BackgroundImageFix" result="effect1_dropShadow_1299_96266"/>
<feBlend mode="normal" in="SourceGraphic" in2="effect1_dropShadow_1299_96266" result="shape"/>
</filter>
<linearGradient id="paint0_linear_1299_96266" x1="161.354" y1="65.4506" x2="161.354" y2="-169.639" gradientUnits="userSpaceOnUse">
<stop stop-color="#1A1A1A" stop-opacity="0.1"/>
<stop offset="0.123" stop-color="#212121" stop-opacity="0.151"/>
<stop offset="0.308" stop-color="#353535" stop-opacity="0.227"/>
<stop offset="0.532" stop-color="#575757" stop-opacity="0.318"/>
<stop offset="0.783" stop-color="#858585" stop-opacity="0.421"/>
<stop offset="1" stop-color="#B3B3B3" stop-opacity="0.51"/>
</linearGradient>
</defs>
</svg>
