<svg width="148" height="36" viewBox="0 0 148 36" fill="none" xmlns="http://www.w3.org/2000/svg">
<path d="M20.6657 0.416504C22.7519 4.00038 24.8562 7.57371 26.9198 11.1711C23.5843 17.0549 20.2969 22.9673 16.8485 28.7864C15.5255 31.0201 14.2385 33.2749 12.9305 35.5162C8.68885 35.5418 4.44721 35.5402 0.205566 35.5342C0.335013 35.2437 0.462955 34.9517 0.619495 34.6748C7.29805 23.2533 14.0022 11.847 20.6657 0.416504Z" fill="#AE285D"/>
<path d="M112.963 9.22632C115.308 13.5974 117.651 17.967 119.993 22.3396C119.167 22.3561 118.341 22.314 117.516 22.3426C116.962 21.3793 116.482 20.3753 115.94 19.406C113.857 19.3442 111.772 19.3864 109.687 19.3819C109.185 20.3798 108.637 21.3522 108.104 22.3321C107.289 22.3245 106.475 22.3486 105.662 22.3411C108.062 17.9504 110.468 13.5628 112.963 9.22632ZM110.73 17.5124C112.151 17.532 113.574 17.529 114.996 17.541C114.284 16.2164 113.643 14.8542 112.88 13.5583C112.148 14.8693 111.432 16.1863 110.73 17.5124Z" fill="#AE285D"/>
<path d="M121.361 9.17578C124.901 12.2524 128.441 15.3305 131.938 18.4583C132.034 15.6361 131.926 12.8138 132.012 9.9916C132.769 10.0066 133.526 10.0187 134.283 10.0322C134.259 14.3792 134.271 18.7278 134.266 23.0748C131.941 21.1406 129.707 19.098 127.41 17.1277C126.132 16.035 124.866 14.9301 123.646 13.7757C123.616 16.634 123.659 19.4939 123.598 22.3523C122.845 22.3553 122.092 22.3357 121.341 22.3417C121.347 17.9526 121.31 13.5649 121.361 9.17578Z" fill="#AE285D"/>
<path d="M46.5356 22.3236C48.9816 17.9571 51.3643 13.5559 53.8659 9.22241C56.196 13.598 58.5396 17.9676 60.8967 22.3282C60.0583 22.3477 59.2214 22.3462 58.383 22.3297C57.8743 21.3528 57.3535 20.3819 56.8673 19.393C54.7766 19.3659 52.6874 19.3885 50.5967 19.3885C50.0518 20.3744 49.5596 21.3919 48.9711 22.3537C48.1582 22.3312 47.3469 22.3477 46.5356 22.3236ZM51.6127 17.5251C53.0411 17.5191 54.471 17.5386 55.901 17.5341C55.1815 16.2171 54.5493 14.8533 53.7771 13.5649C53.0501 14.8835 52.3322 16.2035 51.6127 17.5251Z" fill="#AE285D"/>
<path d="M81.3433 10.3536C82.5384 9.76505 83.9382 9.68828 85.2312 9.94868C86.351 10.185 87.2512 10.9812 87.9345 11.8633C87.3279 12.1704 86.7258 12.4819 86.1298 12.8086C85.326 11.5517 83.4129 11.1513 82.2464 12.1312C81.6277 12.5737 81.6774 13.6635 82.3758 14.0007C83.9412 14.8631 85.8453 15.0483 87.2331 16.2419C88.648 17.4415 88.5938 19.8393 87.2828 21.0977C85.8754 22.5246 83.6462 22.8347 81.7753 22.3003C80.2083 21.9045 79.0298 20.464 78.8206 18.8805C79.5777 18.7149 80.3423 18.578 81.1085 18.4591C81.2003 19.2011 81.4817 20.0184 82.1817 20.3917C83.2895 20.9863 84.8955 20.8373 85.6602 19.7641C86.199 19.034 86.0395 17.9127 85.3034 17.3783C83.7651 16.3473 81.7226 16.2841 80.3423 14.9851C79.6138 14.3649 79.3112 13.3294 79.5596 12.4097C79.7568 11.4719 80.5229 10.778 81.3433 10.3536Z" fill="#AE285D"/>
<path d="M61.6282 10.0767C62.4877 9.96377 63.3562 10.0029 64.2202 10.0119C65.1444 11.3877 66.0671 12.7634 66.9928 14.1377C67.9666 12.78 68.9134 11.4027 69.8737 10.036C70.7603 10.0074 71.6468 9.99237 72.5334 10.0195C71.1275 11.9747 69.7127 13.9254 68.3038 15.8792C69.7382 18.0542 71.3036 20.1434 72.705 22.341C71.8606 22.3455 71.0162 22.338 70.1717 22.3305C69.097 20.7846 68.0298 19.2328 66.9551 17.6869C65.8443 19.2388 64.7244 20.7831 63.6271 22.344C62.7722 22.3606 61.9157 22.3485 61.0608 22.35C62.5479 20.1705 64.1133 18.0467 65.6592 15.9078C64.3301 13.954 62.9754 12.0184 61.6282 10.0767Z" fill="#AE285D"/>
<path d="M74.6167 10.0223C75.3783 9.99975 76.1384 10.0013 76.9 10.0178C76.9045 14.1255 76.9015 18.2332 76.9015 22.3408C76.1279 22.3424 75.3557 22.3408 74.582 22.3408C74.6106 18.2347 74.5971 14.1285 74.6167 10.0223Z" fill="#AE285D"/>
<path d="M96.8389 10.0125C98.7927 10.0967 100.9 9.74302 102.7 10.7003C104.455 11.6396 104.86 14.4257 103.242 15.687C104.261 16.0889 105.247 16.846 105.515 17.9614C105.944 19.3296 105.187 20.8438 103.99 21.5528C101.809 22.7509 99.2397 22.1925 96.872 22.3551C96.7983 18.2414 96.8449 14.1277 96.8389 10.0125ZM99.1057 11.7856C99.1103 12.9596 99.1072 14.1322 99.0997 15.3047C99.9486 15.2701 100.889 15.3213 101.613 14.7975C102.352 14.1397 102.325 12.7775 101.51 12.192C100.796 11.7404 99.9155 11.7916 99.1057 11.7856ZM99.1193 16.9168C99.1103 18.1134 99.1148 19.3116 99.1373 20.5082C100.277 20.448 101.504 20.6587 102.554 20.0943C103.486 19.6367 103.657 18.1405 102.792 17.5294C101.749 16.7196 100.349 16.9424 99.1193 16.9168Z" fill="#AE285D"/>
<path d="M136.913 10.0122C137.672 10.0062 138.431 10.0092 139.191 10.0107C139.194 11.6333 139.176 13.2574 139.21 14.8816C141.08 13.2364 142.985 11.6333 144.865 10.0017C145.904 10.0077 146.943 10.0122 147.981 10.0092C145.738 11.8486 143.514 13.7075 141.31 15.592C143.478 17.8799 145.723 20.091 147.941 22.3308C146.911 22.3202 145.88 22.4015 144.855 22.2826C143.091 20.4824 141.339 18.6716 139.591 16.8564C139.463 17.025 139.337 17.1935 139.212 17.3621C139.167 19.0223 139.207 20.6811 139.179 22.3413C138.416 22.3368 137.652 22.3564 136.891 22.3518C136.897 18.2396 136.907 14.1259 136.913 10.0122Z" fill="#AE285D"/>
<path d="M20.667 22.2659C24.9237 22.2644 29.1804 22.2343 33.4371 22.3051C35.9718 26.7243 38.5879 31.0954 41.1 35.5267C36.8433 35.5478 32.5881 35.5312 28.3314 35.5282C25.7982 31.0939 23.1521 26.7273 20.667 22.2659Z" fill="#AE285D"/>
</svg>
