<svg width="400" height="300" viewBox="0 0 400 300" fill="none" xmlns="http://www.w3.org/2000/svg">
<path fill-rule="evenodd" clip-rule="evenodd" d="M162.163 83.1313C163.003 83.0084 163.853 82.9902 164.701 83.0039C188.311 83.0039 211.921 83.0054 235.532 83.0024C240.446 83.06 245.219 85.6825 247.962 89.7521C249.077 91.3932 249.876 93.2558 250.26 95.2049C250.556 96.6535 250.556 98.1384 250.553 99.6097C250.553 121.755 250.553 143.899 250.553 166.044C250.536 168.114 250.654 170.215 250.192 172.252C249.354 176.108 246.926 179.572 243.622 181.718C240.982 183.46 237.79 184.353 234.629 184.212C210.966 184.212 187.302 184.21 163.639 184.212C158.436 184.1 153.463 181.013 150.952 176.47C150.036 174.85 149.434 173.056 149.167 171.214C148.949 169.705 149.011 168.178 149.003 166.66C149.003 144.665 149.003 122.671 149.003 100.676C149.014 98.7558 148.912 96.8082 149.348 94.9213C150.068 91.4994 152.061 88.3794 154.816 86.2331C156.932 84.5722 159.493 83.4786 162.163 83.1313Z" fill="#A5CD39"/>
<path fill-rule="evenodd" clip-rule="evenodd" d="M163.373 95.672C167.836 95.6659 172.298 95.669 176.759 95.669C176.771 106.164 176.741 116.658 176.774 127.153C177.185 126.747 177.46 126.231 177.844 125.802C180.539 122.601 184.524 120.649 188.626 120.038C192.236 119.51 196.028 119.727 199.423 121.142C203.477 122.842 206.763 126.082 208.936 129.862C210.535 132.657 211.512 135.764 212.191 138.896C213.444 144.774 212.985 150.959 211.09 156.649C210.192 159.512 208.788 162.226 206.877 164.547C205.278 166.443 203.459 168.213 201.263 169.405C198.451 170.969 195.194 171.578 192 171.55C188.934 171.521 185.793 171.308 182.919 170.154C181.777 169.666 180.681 169.068 179.65 168.379C178.713 167.724 177.784 166.998 177.166 166.018C176.735 165.349 176.262 164.691 176.02 163.923C176.168 165.499 175.826 167.172 174.801 168.413C173.58 169.905 171.71 170.673 169.871 171.075C167.751 171.536 165.561 171.583 163.402 171.424C163.337 163.618 163.393 155.81 163.375 148.003C163.375 130.558 163.376 113.115 163.373 95.672ZM186.002 130.027C183.412 130.41 181.176 132.03 179.523 133.995C177.781 136.07 176.938 138.716 176.377 141.323C175.766 144.162 175.735 147.128 176.357 149.97C176.97 152.826 177.971 155.708 179.978 157.9C181.572 159.822 183.921 161.07 186.398 161.351C188.84 161.639 191.484 161.305 193.521 159.838C195.153 158.695 196.215 156.943 197.069 155.183C198.513 152.094 199.015 148.643 198.962 145.256C198.921 142.697 198.546 140.138 197.788 137.693C196.998 135.506 195.775 133.423 194.004 131.888C191.795 130.088 188.764 129.569 186.002 130.027ZM149.002 191.571C150.227 191.564 151.454 191.57 152.682 191.568C152.682 194.405 152.68 197.241 152.682 200.076C153.39 198.982 154.658 198.433 155.891 198.186C157.512 197.892 159.343 198.298 160.488 199.539C161.576 200.59 162.163 202.049 162.43 203.516C162.799 205.599 162.492 207.818 161.449 209.67C160.695 210.971 159.404 212.013 157.89 212.235C156.534 212.412 155.066 212.345 153.86 211.632C153.282 211.359 152.81 210.901 152.512 210.339C152.469 210.863 152.283 211.406 151.829 211.719C151.013 212.291 149.968 212.292 149.011 212.271C148.991 205.371 149.011 198.471 149.002 191.571ZM154.908 201.022C153.652 201.386 152.888 202.604 152.65 203.831C152.275 205.368 152.545 207.088 153.463 208.388C154.376 209.65 156.431 209.934 157.56 208.813C158.746 207.522 158.956 205.611 158.658 203.947C158.538 202.964 158.052 202.016 157.268 201.403C156.612 200.883 155.695 200.79 154.908 201.022ZM163.527 191.568C164.752 191.567 165.978 191.57 167.203 191.568C167.206 192.591 167.205 193.614 167.205 194.64C165.979 194.641 164.754 194.638 163.53 194.641C163.524 193.616 163.528 192.592 163.527 191.568ZM173.017 198.177C174.862 197.833 177.1 198.495 177.944 200.297C178.074 199.727 178.444 199.234 178.965 198.964C179.732 198.533 180.639 198.48 181.501 198.508C181.501 202.551 181.499 206.595 181.502 210.639C181.537 211.716 181.358 212.805 180.95 213.804C180.111 215.626 178.141 216.694 176.208 216.912C174.299 217.132 172.194 216.996 170.589 215.831C169.525 215.142 168.813 213.952 168.723 212.687C169.941 212.694 171.161 212.682 172.38 212.694C172.541 213.214 172.826 213.723 173.308 214.009C174.144 214.488 175.169 214.546 176.095 214.341C177.172 214.102 177.797 213.002 177.945 211.981C178.015 211.132 177.947 210.278 177.983 209.428C177.422 210.477 176.357 211.215 175.189 211.414C173.73 211.663 172.133 211.516 170.872 210.683C169.403 209.714 168.577 207.98 168.411 206.263C168.273 204.717 168.262 203.093 168.893 201.644C169.598 199.921 171.117 198.432 173.017 198.177ZM174.168 201.012C173.44 201.192 172.821 201.716 172.498 202.389C171.934 203.372 171.995 204.553 172.043 205.646C172.166 206.924 172.888 208.396 174.267 208.652C175.508 208.955 176.891 208.329 177.486 207.203C178.18 205.612 178.156 203.662 177.302 202.137C176.698 201.072 175.297 200.699 174.168 201.012ZM163.527 198.509C164.752 198.508 165.979 198.504 167.206 198.509C167.205 203.109 167.205 207.708 167.206 212.307C165.979 212.312 164.752 212.31 163.527 212.309C163.527 207.708 163.527 203.109 163.527 198.509Z" fill="#EC1C24"/>
<path fill-rule="evenodd" clip-rule="evenodd" d="M194.014 95.6705C196.719 95.6675 199.425 95.6675 202.129 95.6705C202.129 103.79 202.126 111.909 202.13 120.029C199.72 118.486 196.899 117.493 194.014 117.544C194.014 110.253 194.016 102.962 194.014 95.6705ZM205.22 122.369C208.101 120.696 211.418 119.747 214.755 119.745C219.698 119.663 224.581 121.664 228.204 124.995C230.454 127.033 232.234 129.574 233.445 132.356C235.712 137.798 236.639 143.817 235.923 149.68C235.565 152.649 234.813 155.563 233.753 158.355C232.78 160.871 231.351 163.209 229.562 165.226C228.027 166.948 226.276 168.522 224.207 169.575C221.457 171.029 218.31 171.578 215.22 171.548C211.465 171.53 207.539 171.157 204.242 169.199C206.112 167.65 207.797 165.875 209.2 163.891C211.835 164.83 214.782 164.968 217.47 164.164C219.625 163.529 221.511 162.148 222.908 160.403C224.485 158.435 225.498 156.075 226.163 153.657C227.082 150.251 227.332 146.685 227.077 143.172C226.822 139.943 226.137 136.71 224.723 133.78C223.614 131.508 221.972 129.428 219.762 128.147C216.701 126.361 212.862 126.241 209.542 127.324C208.305 125.507 206.849 123.843 205.22 122.369ZM183.245 191.568C184.029 191.568 184.812 191.568 185.596 191.568C185.593 194.453 185.602 197.338 185.591 200.223C186.133 199.366 186.938 198.671 187.909 198.351C189.756 197.748 191.951 198.207 193.318 199.618C194.583 200.922 195.085 202.777 195.146 204.553C195.17 206.44 194.833 208.403 193.811 210.02C192.496 212.218 189.456 213.061 187.155 212.013C186.413 211.657 185.863 211.006 185.45 210.311C185.475 210.803 185.412 211.356 185.016 211.704C184.546 212.165 183.839 212.027 183.245 212.043C183.245 205.219 183.245 198.394 183.245 191.568ZM188.281 200.262C187.474 200.41 186.779 200.943 186.354 201.635C185.716 202.651 185.544 203.875 185.469 205.052C185.382 206.307 185.475 207.651 186.147 208.75C186.781 209.826 188.033 210.487 189.28 210.42C190.397 210.428 191.428 209.747 191.979 208.797C192.664 207.617 192.819 206.213 192.799 204.874C192.751 203.633 192.597 202.289 191.774 201.3C190.946 200.297 189.508 200.017 188.281 200.262ZM221.353 191.57C222.085 191.565 222.82 191.568 223.552 191.568C223.557 195.893 223.551 200.217 223.555 204.541C225.155 202.968 226.766 201.408 228.374 199.844C228.891 199.292 229.604 198.849 230.385 198.879C230.893 198.853 231.318 199.172 231.7 199.466C230.212 200.981 228.662 202.433 227.142 203.916C228.955 206.774 230.807 209.607 232.627 212.461C231.64 212.462 230.652 212.461 229.666 212.462C228.265 210.179 226.859 207.9 225.456 205.618C224.811 206.175 224.18 206.747 223.551 207.322C223.558 209.034 223.552 210.748 223.554 212.462C222.82 212.462 222.087 212.462 221.354 212.462C221.353 205.498 221.356 198.535 221.353 191.57ZM246.08 191.568C246.836 191.568 247.593 191.568 248.352 191.567C248.355 193.936 248.352 196.305 248.355 198.673C248.987 198.746 249.676 198.888 250.125 199.38C250.448 199.697 250.531 200.159 250.574 200.592C249.834 200.593 249.093 200.592 248.353 200.593C248.352 203.49 248.355 206.389 248.352 209.287C248.346 209.647 248.437 210.081 248.793 210.257C249.336 210.531 249.966 210.378 250.55 210.411C250.554 211.023 250.554 211.634 250.55 212.247C249.45 212.351 248.267 212.68 247.229 212.13C246.386 211.729 246.11 210.734 246.083 209.874C246.072 206.782 246.081 203.687 246.078 200.593C245.458 200.592 244.839 200.593 244.22 200.593C244.22 199.961 244.22 199.328 244.22 198.697C244.839 198.697 245.458 198.696 246.077 198.697C246.08 196.32 246.077 193.943 246.08 191.568ZM197.815 199.317C199.054 198.266 200.764 198.075 202.328 198.1C203.675 198.165 205.106 198.47 206.123 199.413C206.723 200.008 207.077 200.845 207.06 201.693C207.055 204.224 207.062 206.756 207.057 209.287C207.065 209.67 207.045 210.173 207.456 210.366C207.817 210.474 208.204 210.379 208.575 210.372C208.575 210.93 208.575 211.49 208.575 212.048C207.668 212.385 206.588 212.461 205.734 211.946C205.146 211.597 204.988 210.882 204.917 210.254C204.081 211.192 203.01 211.963 201.771 212.251C200.198 212.635 198.376 212.529 197.083 211.464C195.114 209.833 195.36 206.243 197.598 204.961C198.971 204.144 200.618 204.199 202.149 203.96C202.843 203.838 203.579 203.872 204.243 203.613C204.888 203.234 204.93 202.366 204.814 201.709C204.657 200.798 203.769 200.241 202.915 200.1C201.862 199.921 200.673 199.867 199.738 200.464C199.076 200.875 198.889 201.728 198.226 202.133C197.714 202.48 197.073 202.582 196.467 202.5C196.54 201.332 196.887 200.097 197.815 199.317ZM201.847 205.875C200.826 206.038 199.693 206.057 198.841 206.718C197.977 207.385 198.034 208.7 198.513 209.579C199.156 210.565 200.494 210.599 201.536 210.407C202.886 210.135 204.313 209.316 204.72 207.919C204.864 207.015 204.742 206.09 204.786 205.178C203.867 205.618 202.837 205.702 201.847 205.875ZM210.468 199.375C211.51 198.45 212.939 198.121 214.301 198.092C215.496 198.096 216.746 198.294 217.755 198.975C218.771 199.644 219.434 200.792 219.548 201.999C218.862 202.125 218.136 202.016 217.558 201.614C216.922 201.256 216.572 200.496 215.821 200.332C214.659 200.024 213.332 199.976 212.252 200.575C211.553 200.956 211.219 201.887 211.551 202.617C211.855 203.163 212.498 203.351 213.054 203.53C214.28 203.874 215.513 204.186 216.746 204.509C217.726 204.795 218.767 205.168 219.423 205.996C220.042 206.789 220.076 207.863 219.927 208.817C219.701 210.114 218.785 211.227 217.611 211.796C216.171 212.529 214.491 212.555 212.925 212.325C211.75 212.14 210.541 211.687 209.772 210.737C209.05 209.882 208.818 208.738 208.75 207.651C209.507 207.642 210.264 207.649 211.02 207.645C211.078 208.396 211.287 209.208 211.909 209.694C212.786 210.402 213.983 210.458 215.061 210.408C215.888 210.337 216.786 210.079 217.301 209.383C217.649 208.939 217.72 208.326 217.588 207.792C217.382 207.161 216.707 206.882 216.129 206.691C214.668 206.243 213.159 205.973 211.7 205.524C210.65 205.197 209.637 204.456 209.337 203.352C208.986 201.958 209.375 200.346 210.468 199.375ZM233.568 200.017C234.587 198.847 236.119 198.225 237.648 198.124C239.299 197.957 241.104 198.407 242.238 199.686C243.788 201.368 244.109 203.778 244.15 205.978C240.845 205.981 237.54 205.975 234.235 205.981C234.262 207.159 234.475 208.436 235.307 209.331C236.041 210.152 237.193 210.464 238.264 210.419C239.838 210.436 241.358 209.274 241.682 207.719C242.441 207.724 243.199 207.721 243.958 207.722C243.694 209.271 242.776 210.709 241.441 211.547C240.302 212.351 238.847 212.486 237.494 212.442C235.941 212.385 234.388 211.725 233.376 210.525C232.228 209.183 231.75 207.373 231.778 205.632C231.753 203.645 232.225 201.541 233.568 200.017ZM235.591 201.144C234.526 202.09 234.126 203.569 234.241 204.957C234.913 204.214 235.952 204.083 236.898 204.156C238.511 204.158 240.122 204.161 241.734 204.155C241.64 203.15 241.425 202.098 240.759 201.306C239.485 199.844 236.974 199.812 235.591 201.144Z" fill="#231F20"/>
</svg>
