<svg width="400" height="300" viewBox="0 0 400 300" fill="none" xmlns="http://www.w3.org/2000/svg">
<path d="M238.88 83H162.12C146.59 83 134 95.5898 134 111.12V187.88C134 203.41 146.59 216 162.12 216H238.88C254.41 216 267 203.41 267 187.88V111.12C267 95.5898 254.41 83 238.88 83Z" fill="#FFE141"/>
<path d="M157.957 141.681C159.881 141.681 161.599 142.161 163.111 143.123C164.636 144.071 165.832 145.417 166.697 147.161C167.536 148.837 167.955 150.808 167.955 153.075C167.955 155.273 167.536 157.237 166.697 158.968C165.859 160.698 164.677 162.051 163.152 163.026C161.613 164.016 159.881 164.51 157.957 164.51C156.556 164.51 155.237 164.222 154 163.645C152.763 163.068 151.705 162.257 150.825 161.213V163.995H143.652V134.49H150.825V144.957C151.705 143.913 152.763 143.109 154 142.546C155.237 141.969 156.556 141.681 157.957 141.681ZM155.814 158.555C156.831 158.555 157.738 158.322 158.535 157.855C159.332 157.388 159.957 156.736 160.41 155.898C160.864 155.073 161.091 154.133 161.091 153.075C161.091 152.044 160.864 151.11 160.41 150.273C159.957 149.435 159.332 148.782 158.535 148.315C157.738 147.848 156.831 147.615 155.814 147.615C154.852 147.615 153.993 147.848 153.237 148.315C152.481 148.768 151.89 149.407 151.464 150.231C151.038 151.069 150.825 152.017 150.825 153.075C150.825 154.133 151.038 155.08 151.464 155.918C151.89 156.742 152.481 157.388 153.237 157.855C153.993 158.322 154.852 158.555 155.814 158.555Z" fill="black"/>
<path d="M168.937 163.995V134.49H176.11V163.995H168.937Z" fill="black"/>
<path d="M178.143 163.995V142.175H185.276V163.995H178.143Z" fill="black"/>
<path d="M200.77 141.681C202.295 141.681 203.669 142.038 204.892 142.752C206.115 143.453 207.077 144.442 207.778 145.719C208.451 147.01 208.788 148.473 208.788 150.108V163.995H201.944V151.715C201.944 150.918 201.786 150.211 201.47 149.593C201.168 148.961 200.735 148.473 200.172 148.13C199.622 147.787 198.976 147.615 198.234 147.615C197.533 147.615 196.887 147.787 196.297 148.13C195.706 148.459 195.245 148.913 194.915 149.49C194.572 150.039 194.4 150.685 194.4 151.427L194.359 163.995H187.227V142.175H194.359V144.668C195.032 143.734 195.932 143.006 197.059 142.484C198.186 141.949 199.423 141.681 200.77 141.681Z" fill="black"/>
<path d="M224.549 151.715L232.651 163.995H224.549L219.809 156.269L217.624 158.803V163.995H210.45V134.49H217.624V150.788L224.508 142.175H232.609L224.549 151.715Z" fill="black"/>
<path d="M178.14 134.492H185.295V140.086H178.14V134.492Z" fill="black"/>
<path d="M233.789 163.929V142.11H240.921V163.929H233.789Z" fill="#0C831F"/>
<path d="M256.002 157.769L257.424 162.364C256.778 162.982 255.961 163.483 254.971 163.868C253.995 164.252 253.04 164.445 252.106 164.445C250.759 164.445 249.557 164.149 248.499 163.558C247.44 162.954 246.616 162.116 246.025 161.045C245.434 160.001 245.139 158.799 245.139 157.439V147.817H242.273V142.11H245.139V134.492H251.982V142.11H256.496V147.817H251.982V156.121C251.982 156.821 252.167 157.391 252.539 157.831C252.91 158.27 253.384 158.49 253.961 158.49C254.373 158.49 254.758 158.428 255.116 158.305C255.473 158.181 255.768 158.002 256.002 157.769Z" fill="#0C831F"/>
<path d="M233.733 134.492H240.888V140.086H233.733V134.492Z" fill="#0C831F"/>
</svg>
