<?xml version="1.0" encoding="utf-8"?>
<!-- Generator: Adobe Illustrator 26.3.1, SVG Export Plug-In . SVG Version: 6.00 Build 0)  -->
<svg version="1.1" id="Layer_1" xmlns="http://www.w3.org/2000/svg" xmlns:xlink="http://www.w3.org/1999/xlink" x="0px" y="0px"
	 viewBox="0 0 100 90" style="enable-background:new 0 0 100 90;" xml:space="preserve">
<style type="text/css">
	.st0{fill:#FFE141;}
	.st1{fill:#0C831F;}
</style>
<g>
	<path class="st0" d="M70.3,9.8H29.7c-8.2,0-14.9,6.7-14.9,14.9v40.7c0,8.2,6.7,14.9,14.9,14.9h40.7c8.2,0,14.9-6.7,14.9-14.9V24.7
		C85.2,16.4,78.6,9.8,70.3,9.8z"/>
	<path d="M27.4,40.9c1,0,1.9,0.3,2.7,0.8c0.8,0.5,1.4,1.2,1.9,2.1c0.4,0.9,0.7,1.9,0.7,3.1c0,1.2-0.2,2.2-0.7,3.1
		c-0.4,0.9-1.1,1.6-1.9,2.2c-0.8,0.5-1.7,0.8-2.8,0.8c-0.7,0-1.4-0.2-2.1-0.5c-0.7-0.3-1.2-0.7-1.7-1.3v1.5h-3.8V37h3.8v5.5
		c0.5-0.6,1-1,1.7-1.3C26,41,26.7,40.9,27.4,40.9z M26.3,49.8c0.5,0,1-0.1,1.4-0.4c0.4-0.2,0.8-0.6,1-1c0.2-0.4,0.4-0.9,0.4-1.5
		c0-0.5-0.1-1-0.4-1.5c-0.2-0.4-0.6-0.8-1-1c-0.4-0.2-0.9-0.4-1.4-0.4c-0.5,0-1,0.1-1.4,0.4c-0.4,0.2-0.7,0.6-0.9,1
		c-0.2,0.4-0.3,0.9-0.3,1.5c0,0.6,0.1,1.1,0.3,1.5c0.2,0.4,0.5,0.8,0.9,1C25.3,49.7,25.8,49.8,26.3,49.8z"/>
	<path d="M33.3,52.7V37h3.8v15.6H33.3z"/>
	<path d="M38.1,52.7V41.1h3.8v11.6H38.1z"/>
	<path d="M50.1,40.9c0.8,0,1.5,0.2,2.2,0.6c0.6,0.4,1.2,0.9,1.5,1.6c0.4,0.7,0.5,1.5,0.5,2.3v7.4h-3.6v-6.5c0-0.4-0.1-0.8-0.3-1.1
		c-0.2-0.3-0.4-0.6-0.7-0.8c-0.3-0.2-0.6-0.3-1-0.3c-0.4,0-0.7,0.1-1,0.3c-0.3,0.2-0.6,0.4-0.7,0.7c-0.2,0.3-0.3,0.6-0.3,1l0,6.7H43
		V41.1h3.8v1.3c0.4-0.5,0.8-0.9,1.4-1.2C48.8,41,49.4,40.9,50.1,40.9z"/>
	<path d="M62.7,46.2l4.3,6.5h-4.3l-2.5-4.1l-1.2,1.3v2.8h-3.8V37h3.8v8.6l3.6-4.6H67L62.7,46.2z"/>
	<path d="M38.1,37h3.8v3h-3.8V37z"/>
	<path class="st1" d="M67.6,52.6V41.1h3.8v11.6H67.6z"/>
	<path class="st1" d="M79.4,49.4l0.8,2.4c-0.3,0.3-0.8,0.6-1.3,0.8c-0.5,0.2-1,0.3-1.5,0.3c-0.7,0-1.4-0.2-1.9-0.5
		c-0.6-0.3-1-0.8-1.3-1.3c-0.3-0.6-0.5-1.2-0.5-1.9v-5.1h-1.5v-3h1.5v-4h3.6v4h2.4v3h-2.4v4.4c0,0.4,0.1,0.7,0.3,0.9
		c0.2,0.2,0.4,0.3,0.8,0.3c0.2,0,0.4,0,0.6-0.1C79.1,49.6,79.3,49.5,79.4,49.4z"/>
	<path class="st1" d="M67.6,37h3.8v3h-3.8V37z"/>
</g>
</svg>
