<?xml version="1.0" encoding="utf-8"?>
<!-- Generator: Adobe Illustrator 26.3.1, SVG Export Plug-In . SVG Version: 6.00 Build 0)  -->
<svg version="1.1" id="Layer_1" xmlns="http://www.w3.org/2000/svg" xmlns:xlink="http://www.w3.org/1999/xlink" x="0px" y="0px"
	 viewBox="0 0 100 90" style="enable-background:new 0 0 100 90;" xml:space="preserve">
<style type="text/css">
	.st0{fill:#D70B17;}
	.st1{fill:#FFFFFF;}
	.st2{fill:#5B5B5B;}
</style>
<g>
	<path class="st0" d="M60.4,40.1l-1.3-2.3L56.7,39l-1.3-2.3l-2.3,1.2l-1.3-2.3l-2.3,1.2l-1.3-2.3l-2.3,1.2l-1.3-2.3l-2.3,1.2
		l-5,16.6l6,1.9c0.4-1.3,1.6-2.3,3.1-2.3c1.8,0,3.2,1.5,3.2,3.3v0.1c0,0.3,0,0.6-0.1,0.9l6.1,1.9"/>
	<path class="st1" d="M42.3,49.6c-0.3-0.1-0.5-0.3-0.5-0.7v-8.2c0-0.4,0.3-0.7,0.7-0.7h5.7c0.1,0,0.3,0,0.4,0
		c1.2,0.2,2.1,1.3,2.1,2.6V49c0,0.2-0.1,0.4-0.2,0.5c-0.1,0.1-0.3,0.2-0.5,0.2l-0.1,0c-0.3-0.1-0.5-0.3-0.5-0.7v-6.2
		c0-0.6-0.4-1.2-1-1.3l-0.2,0h-1.2V49c0,0.2-0.1,0.4-0.2,0.5c-0.1,0.1-0.3,0.2-0.5,0.2l-0.1,0c-0.3-0.1-0.5-0.3-0.5-0.7v-7.5h-2.5
		V49c0,0.2-0.1,0.4-0.2,0.5c-0.1,0.1-0.3,0.2-0.5,0.2L42.3,49.6z"/>
	<path class="st1" d="M51.8,53.2c-0.3-0.1-0.5-0.3-0.5-0.7c0-0.2,0.1-0.4,0.2-0.5c0.1-0.1,0.3-0.2,0.5-0.2c0.6,0,1-0.4,1.2-0.9
		l0.7-2.3l-2.2-7.7c-0.1-0.4,0.1-0.7,0.4-0.9l0.3,0c0.2,0,0.4,0.2,0.5,0.5l1.6,5.7l1.7-5.7c0.1-0.3,0.4-0.5,0.8-0.5l0,0
		c0.4,0.1,0.6,0.5,0.4,0.9l-2.3,7.9l-0.7,2.5c-0.2,0.6-0.5,1-0.9,1.4c-0.5,0.3-1,0.5-1.5,0.5L51.8,53.2z"/>
	<path class="st2" d="M10.7,49.5c-0.3-0.1-0.6-0.3-0.6-0.7V36.7c0-0.2,0.1-0.4,0.2-0.5c0.1-0.1,0.3-0.2,0.5-0.2l0.1,0
		c0.3,0.1,0.6,0.3,0.6,0.7v3.5h1.3c0.2,0,0.3,0,0.5,0c1.3,0.2,2.2,1.4,2.2,2.7v3.9c0,1.5-1.2,2.7-2.7,2.7h-2L10.7,49.5z M11.5,48.1
		h1.3c0.7,0,1.3-0.6,1.3-1.3v-3.9c0-0.7-0.5-1.2-1.1-1.3l-0.2,0h-1.3V48.1z"/>
	<path class="st2" d="M19.4,49.6c-1.3-0.2-2.2-1.4-2.2-2.7v-4.1c0-0.7,0.3-1.4,0.8-2c0.5-0.5,1.2-0.8,1.9-0.8c0.2,0,0.3,0,0.5,0
		c1.3,0.2,2.2,1.4,2.2,2.7v4.1c0,0.7-0.3,1.4-0.8,2c-0.5,0.5-1.2,0.8-1.9,0.8C19.8,49.6,19.6,49.6,19.4,49.6z M20.1,41.5l-0.2,0
		c-0.7,0-1.3,0.6-1.3,1.3v4.1c0,0.7,0.5,1.2,1.1,1.3l0.2,0c0.7,0,1.3-0.6,1.3-1.3v-4.1C21.2,42.1,20.8,41.6,20.1,41.5z"/>
	<path class="st2" d="M26.5,49.6c-1.3-0.2-2.2-1.4-2.2-2.7v-4.1c0-1.5,1.2-2.7,2.7-2.7c0.2,0,0.3,0,0.5,0c1.3,0.2,2.2,1.4,2.2,2.7
		v4.1c0,0.7-0.3,1.4-0.8,2c-0.5,0.5-1.2,0.8-1.9,0.8C26.8,49.6,26.7,49.6,26.5,49.6z M27.2,41.5l-0.2,0c-0.7,0-1.3,0.6-1.3,1.3v4.1
		c0,0.7,0.5,1.2,1.1,1.3l0.2,0c0.3,0,0.7-0.1,0.9-0.4c0.3-0.3,0.4-0.6,0.4-1v-4.1C28.3,42.1,27.8,41.6,27.2,41.5z"/>
	<path class="st2" d="M32,49.6c-0.3-0.1-0.6-0.3-0.6-0.7V36.7c0-0.2,0.1-0.4,0.2-0.5c0.1-0.1,0.3-0.2,0.5-0.2l0.1,0
		c0.3,0.1,0.6,0.3,0.6,0.7v7.3l3.1-3.6c0.2-0.2,0.4-0.3,0.6-0.2l0.3,0.2c0.3,0.3,0.3,0.7,0.1,1L34.6,44l2.5,4.6
		c0.1,0.2,0.1,0.3,0.1,0.5c-0.1,0.2-0.2,0.3-0.3,0.4c-0.1,0.1-0.3,0.1-0.5,0.1c-0.2,0-0.4-0.2-0.5-0.3l-2.2-4.2l-0.9,1v2.9
		c0,0.2-0.1,0.4-0.2,0.5c-0.1,0.1-0.3,0.2-0.5,0.2L32,49.6z"/>
	<path class="st2" d="M62.2,49.6c-0.8-0.1-1.4-0.6-1.8-1.3c-0.1-0.2-0.1-0.4-0.1-0.5c0.1-0.2,0.2-0.3,0.3-0.4
		c0.1-0.1,0.3-0.1,0.5-0.1c0.2,0,0.4,0.2,0.5,0.3c0.2,0.3,0.5,0.5,0.8,0.6c0.4,0.1,0.7,0,1-0.3c0.3-0.3,0.4-0.6,0.4-1
		c0-0.4-0.2-0.7-0.5-0.9l-1.8-1.4c-0.6-0.4-1-1.1-1-1.9c0-0.8,0.3-1.5,0.8-2c0.5-0.5,1.3-0.8,2-0.7c0.8,0.1,1.4,0.6,1.8,1.2
		c0.1,0.2,0.1,0.3,0.1,0.5c-0.1,0.2-0.2,0.3-0.3,0.4c-0.1,0.1-0.3,0.1-0.5,0.1c-0.2,0-0.4-0.2-0.5-0.3c-0.2-0.3-0.4-0.5-0.8-0.5
		c-0.3-0.1-0.7,0-0.9,0.3c-0.2,0.2-0.4,0.6-0.3,0.9c0,0.3,0.2,0.7,0.5,0.9l1.8,1.3c0.6,0.5,1,1.2,1.1,2c0.1,0.8-0.2,1.6-0.8,2.1
		C63.7,49.4,63,49.7,62.2,49.6"/>
	<path class="st2" d="M67.5,49.6c-0.3-0.1-0.6-0.4-0.6-0.7V36.7c0-0.2,0.1-0.4,0.2-0.5s0.3-0.2,0.5-0.2l0.1,0
		c0.3,0.1,0.6,0.3,0.6,0.7v3.5h1.3c0.2,0,0.3,0,0.5,0c1.3,0.2,2.2,1.4,2.2,2.7V49c0,0.4-0.3,0.7-0.7,0.7l-0.1,0
		c-0.3-0.1-0.6-0.3-0.6-0.7v-6.1c0-0.7-0.5-1.2-1.1-1.3l-0.2,0h-1.3V49C68.2,49.3,67.9,49.7,67.5,49.6L67.5,49.6z"/>
	<path class="st2" d="M76.2,49.6c-1.3-0.2-2.2-1.4-2.2-2.7v-4.1c0-1.5,1.2-2.7,2.7-2.7c0.2,0,0.3,0,0.5,0c1.3,0.2,2.2,1.4,2.2,2.7
		v4.1c0,0.7-0.3,1.4-0.8,2c-0.5,0.5-1.2,0.8-1.9,0.8C76.5,49.6,76.3,49.6,76.2,49.6z M76.9,41.5l-0.2,0c-0.3,0-0.7,0.1-0.9,0.4
		c-0.2,0.3-0.4,0.6-0.4,0.9v4.1c0,0.7,0.5,1.2,1.1,1.3l0.2,0c0.3,0,0.7-0.1,0.9-0.4c0.3-0.3,0.4-0.6,0.4-1v-4.1
		C77.9,42.2,77.5,41.6,76.9,41.5z"/>
	<path class="st2" d="M89.8,40.9c0-0.2,0-0.4-0.1-0.5c-0.1-0.2-0.3-0.3-0.4-0.3l-0.1,0c-0.3,0-0.6,0.2-0.7,0.5c0,0-0.7,3.1-1.3,5.4
		l0,0.1l0-0.1c-0.6-2.3-1.3-5.4-1.3-5.4c-0.1-0.3-0.3-0.5-0.5-0.5l-0.1,0c-0.3,0-0.6,0.2-0.7,0.5c0,0-0.7,3.1-1.3,5.4l0,0.1l0-0.1
		c-0.6-2.3-1.3-5.4-1.3-5.4c-0.1-0.3-0.3-0.5-0.5-0.5l-0.3,0c-0.4,0.1-0.6,0.5-0.5,0.8l2,8.2c0.1,0.3,0.3,0.5,0.5,0.5l0.1,0
		c0.3,0,0.6-0.2,0.7-0.5c0,0,0.8-3.1,1.3-5.4l0-0.1l0,0.1c0.6,2.4,1.3,5.4,1.3,5.4c0.1,0.3,0.3,0.5,0.5,0.5l0.1,0
		c0.3,0,0.6-0.2,0.7-0.5"/>
</g>
</svg>
