<svg width="400" height="300" viewBox="0 0 400 300" fill="none" xmlns="http://www.w3.org/2000/svg">
<path d="M231.278 135.412L227.369 128.582L220.421 132.016L216.512 125.186L209.563 128.621L205.655 121.791L198.706 125.226L194.798 118.395L187.849 121.83L183.94 115L176.992 118.435L162.186 167.865L180.111 173.511C181.295 169.523 184.927 166.602 189.191 166.602C194.442 166.602 198.706 170.984 198.706 176.393V176.591C198.746 177.459 198.667 178.367 198.39 179.236L216.631 185" fill="#D70B17"/>
<path d="M177.544 163.759C176.597 163.601 175.965 162.772 175.965 161.785V137.504C175.965 136.359 176.834 135.491 177.939 135.491H194.916C195.35 135.491 195.785 135.53 196.219 135.609C199.851 136.28 202.536 139.518 202.536 143.347V161.785C202.536 162.338 202.338 162.851 201.944 163.246C201.588 163.601 201.075 163.838 200.562 163.838L200.206 163.799C199.259 163.641 198.627 162.812 198.627 161.825V143.426C198.627 141.571 197.324 139.992 195.548 139.676L194.916 139.597H191.205V161.825C191.205 162.377 191.007 162.891 190.613 163.285C190.257 163.641 189.744 163.878 189.231 163.878L188.875 163.838C187.928 163.68 187.296 162.851 187.296 161.864V139.597H179.874V161.825C179.874 162.377 179.676 162.891 179.282 163.246C178.926 163.601 178.413 163.838 177.9 163.838L177.544 163.759Z" fill="white"/>
<path d="M205.773 174.34C204.826 174.182 204.194 173.353 204.194 172.366C204.194 171.813 204.391 171.3 204.747 170.945C205.102 170.589 205.615 170.352 206.129 170.352C207.787 170.352 209.208 169.247 209.682 167.628L211.695 160.68L205.102 137.899C204.786 136.833 205.378 135.688 206.405 135.333L207.273 135.293C207.984 135.412 208.576 135.964 208.813 136.675L213.709 153.652L218.684 136.675C218.92 135.728 219.907 135.096 220.934 135.293L221.052 135.333C222.118 135.688 222.711 136.833 222.355 137.899L215.565 161.272L213.433 168.773C212.88 170.51 211.932 171.892 210.669 172.84C209.327 173.866 207.747 174.419 206.089 174.419L205.773 174.34Z" fill="white"/>
<path d="M83.6582 163.522C82.6712 163.325 82 162.496 82 161.469V125.226C82 124.633 82.1974 124.12 82.5922 123.725C82.9475 123.33 83.5003 123.133 84.053 123.133L84.4083 123.173C85.3954 123.37 86.106 124.199 86.106 125.226V135.53H89.9752C90.449 135.53 90.8832 135.57 91.357 135.649C95.1472 136.32 97.9109 139.715 97.9109 143.703V155.389C97.9109 159.89 94.3576 163.562 89.9752 163.562H84.0925L83.6582 163.522ZM86.0666 159.337H89.9357C92.0677 159.337 93.8048 157.561 93.8048 155.35V143.663C93.8048 141.729 92.4625 140.07 90.6069 139.755L89.9357 139.676H86.0666V159.337Z" fill="#5B5B5B"/>
<path d="M109.597 163.68C105.807 163.009 103.083 159.614 103.083 155.626V143.466C103.083 141.255 103.912 139.242 105.412 137.662C106.913 136.122 108.887 135.254 111.019 135.254C111.492 135.254 111.927 135.293 112.4 135.372C116.191 136.044 118.954 139.439 118.954 143.426V155.587C118.954 157.758 118.125 159.811 116.625 161.39C115.125 162.93 113.151 163.759 111.058 163.759C110.545 163.799 110.071 163.759 109.597 163.68ZM111.65 139.518L110.979 139.439C108.808 139.439 107.11 141.176 107.11 143.426V155.587C107.11 157.521 108.452 159.179 110.268 159.495L110.94 159.574C113.072 159.574 114.809 157.798 114.809 155.587V143.426C114.848 141.492 113.506 139.873 111.65 139.518Z" fill="#5B5B5B"/>
<path d="M130.68 163.68C126.89 162.969 124.166 159.614 124.166 155.626V143.466C124.166 138.965 127.719 135.293 132.101 135.293C132.575 135.293 133.01 135.333 133.483 135.412C137.234 136.083 139.998 139.478 139.998 143.426V155.587C139.998 157.758 139.169 159.811 137.668 161.39C136.168 162.93 134.194 163.759 132.062 163.759C131.588 163.799 131.114 163.759 130.68 163.68ZM132.733 139.518L132.062 139.439C129.891 139.439 128.193 141.176 128.193 143.426V155.587C128.193 157.521 129.535 159.179 131.351 159.495L132.023 159.574C133.049 159.574 133.997 159.179 134.747 158.429C135.497 157.679 135.892 156.692 135.892 155.587V143.426C135.931 141.492 134.589 139.873 132.733 139.518Z" fill="#5B5B5B"/>
<path d="M146.867 163.759C145.88 163.601 145.209 162.733 145.209 161.706V125.226C145.209 124.633 145.407 124.12 145.801 123.725C146.196 123.33 146.71 123.133 147.262 123.133L147.618 123.173C148.605 123.37 149.315 124.199 149.315 125.226V146.822L158.672 136.004C159.146 135.491 159.857 135.214 160.567 135.372L161.594 135.846C162.423 136.636 162.502 137.938 161.752 138.807L154.606 146.901L161.949 160.719C162.226 161.193 162.265 161.746 162.147 162.259C161.989 162.772 161.633 163.246 161.16 163.522C160.765 163.759 160.291 163.838 159.817 163.759C159.186 163.641 158.712 163.285 158.396 162.772L151.803 150.296L149.276 153.139V161.706C149.276 162.259 149.078 162.812 148.684 163.206C148.289 163.601 147.776 163.799 147.262 163.799L146.867 163.759Z" fill="#5B5B5B"/>
<path d="M236.608 163.72C234.358 163.325 232.463 161.943 231.318 159.89C231.041 159.416 231.002 158.824 231.12 158.271C231.278 157.719 231.594 157.284 232.068 157.008C232.463 156.771 232.936 156.692 233.41 156.771C234.002 156.89 234.516 157.245 234.831 157.798C235.384 158.745 236.213 159.337 237.24 159.535C238.385 159.732 239.411 159.416 240.24 158.627C241.03 157.877 241.425 156.811 241.346 155.745C241.306 154.639 240.754 153.652 239.885 153.02L234.397 148.993C232.581 147.69 231.476 145.637 231.278 143.308C231.16 140.939 232.028 138.728 233.647 137.228C235.266 135.649 237.477 134.938 239.688 135.254C241.978 135.688 243.873 137.031 244.939 138.965C245.175 139.439 245.254 139.992 245.136 140.544C244.978 141.097 244.662 141.571 244.188 141.808C243.794 142.045 243.32 142.124 242.846 142.045C242.254 141.926 241.741 141.571 241.425 141.058C240.951 140.229 240.122 139.636 239.095 139.439C238.069 139.281 237.082 139.557 236.332 140.268C235.621 140.939 235.226 141.926 235.305 142.992C235.345 143.979 235.897 144.966 236.727 145.519L242.214 149.467C244.109 150.849 245.254 153.02 245.373 155.389C245.57 157.758 244.662 160.048 242.925 161.627C241.267 163.207 238.977 163.957 236.687 163.641" fill="#5B5B5B"/>
<path d="M252.361 163.799C251.374 163.601 250.663 162.733 250.663 161.746V125.265C250.663 124.712 250.9 124.16 251.295 123.765C251.69 123.37 252.203 123.173 252.716 123.173L253.072 123.212C254.059 123.409 254.73 124.239 254.73 125.265V135.57H258.599C259.073 135.57 259.547 135.609 259.981 135.688C263.771 136.359 266.495 139.755 266.495 143.742V161.746C266.495 162.93 265.587 163.838 264.482 163.838L264.126 163.799C263.139 163.641 262.429 162.772 262.429 161.746V143.742C262.429 141.808 261.086 140.149 259.27 139.834L258.56 139.755H254.69V161.746C254.69 162.93 253.782 163.838 252.637 163.838L252.361 163.799Z" fill="#5B5B5B"/>
<path d="M278.221 163.68C274.431 163.009 271.707 159.614 271.707 155.626V143.466C271.707 138.965 275.26 135.293 279.642 135.293C280.116 135.293 280.551 135.333 281.024 135.412C284.815 136.083 287.578 139.478 287.578 143.466V155.626C287.578 157.797 286.749 159.85 285.249 161.43C283.749 162.969 281.774 163.799 279.682 163.799C279.169 163.799 278.695 163.759 278.221 163.68ZM280.314 139.557L279.642 139.478C278.616 139.478 277.629 139.873 276.918 140.623C276.208 141.373 275.813 142.36 275.813 143.426V155.587C275.813 157.521 277.155 159.179 278.971 159.495L279.642 159.574C280.669 159.574 281.617 159.179 282.367 158.429C283.117 157.679 283.512 156.692 283.512 155.587V143.426C283.472 141.531 282.13 139.873 280.314 139.557Z" fill="#5B5B5B"/>
<path d="M318.847 137.86C318.965 137.307 318.886 136.794 318.65 136.32C318.373 135.846 317.899 135.491 317.347 135.372L316.991 135.333C316.083 135.333 315.254 135.964 315.017 136.912C315.017 136.991 312.806 146.111 311.109 153.06L311.069 153.218L311.03 153.06C309.372 146.151 307.121 137.03 307.082 136.912C306.924 136.083 306.332 135.491 305.502 135.372L305.147 135.333C304.239 135.333 303.489 135.964 303.212 136.912C303.173 136.991 301.002 146.111 299.304 153.06L299.264 153.218L299.225 153.06C297.567 146.111 295.316 137.03 295.316 136.912C295.119 136.122 294.487 135.491 293.737 135.372L292.947 135.412C291.881 135.688 291.21 136.794 291.487 137.899L297.369 162.219C297.606 163.009 298.198 163.641 298.949 163.759L299.264 163.799C300.212 163.799 301.002 163.167 301.199 162.219C301.238 162.14 303.449 153.02 305.147 146.072L305.187 145.914L305.226 146.072C306.963 153.06 309.135 162.219 309.135 162.219C309.372 163.009 309.964 163.601 310.714 163.759L311.03 163.799C311.977 163.799 312.767 163.167 312.964 162.219" fill="#5B5B5B"/>
</svg>
