<svg width="161" height="39" viewBox="0 0 161 39" fill="none" xmlns="http://www.w3.org/2000/svg">
<path d="M61.8787 20.0377C61.8787 12.6327 67.3619 7.25195 74.5619 7.25195C80.9163 7.25195 84.8366 11.1978 86.0921 15.3231L80.9932 17.3473C80.122 14.2726 78.021 12.2484 74.3569 12.2484C70.1292 12.2484 67.1569 15.3231 67.1569 20.0377C67.1569 24.6498 70.1292 27.827 74.3569 27.827C78.021 27.827 80.122 25.8028 80.9932 22.7281L86.0921 24.7523C84.7341 29.0825 80.8138 32.8234 74.4594 32.8234C67.3619 32.8234 61.8787 27.4426 61.8787 20.0377Z" fill="#00C197"/>
<path d="M106.385 20.5253V32.2605H101.184V21.5758C101.184 19.1673 99.6466 17.8349 97.5199 17.8349C95.3932 17.8349 93.779 19.2698 93.779 21.1915V32.2349H88.5007V6.30469H93.779V14.9652C95.0345 13.8121 96.8537 13.0435 99.1598 13.0435C103.593 13.2228 106.385 16.1951 106.385 20.5253Z" fill="#00C197"/>
<path d="M118.684 28.4169C120.991 28.4169 122.144 27.6482 123.015 26.1109L127.063 28.8013C125.628 30.9279 123.22 32.8496 118.608 32.8496C112.561 32.8496 108.615 28.6219 108.615 23.0362C108.615 17.6554 112.945 13.2227 118.223 13.2227C124.27 13.2227 127.832 17.9372 127.832 22.6518V24.676H113.688C114.277 27.0589 116.199 28.4169 118.684 28.4169ZM122.835 21.1913C122.349 18.7828 120.709 17.2454 118.326 17.2454C115.943 17.2454 114.098 18.6803 113.611 21.1913H122.835Z" fill="#00C197"/>
<path d="M155.991 27.9298H142.155C137.927 27.9298 134.571 24.5732 134.571 20.3455C134.571 16.1177 137.927 12.7612 142.155 12.7612C146.383 12.7612 149.739 16.1177 149.739 20.3455C149.739 20.6273 149.739 20.8323 149.739 21.0117C149.534 22.9334 148.689 24.5732 147.331 25.8288H153.583C153.685 25.5469 153.864 25.2394 153.967 24.9576C154.556 23.5227 154.838 21.8829 154.838 20.243C154.838 13.2224 149.073 7.45728 142.052 7.45728C135.032 7.45728 129.267 13.2224 129.267 20.243C129.267 27.2636 134.929 33.0287 142.052 33.0287H160.988C161.192 30.2359 158.886 27.9298 155.991 27.9298Z" fill="#00C197"/>
<path fill-rule="evenodd" clip-rule="evenodd" d="M34.6163 26.1876C35.7949 24.3427 36.333 22.1392 36.2049 19.91C35.8718 14.2218 30.9778 9.84027 25.2896 9.71216H8.81421C3.97152 9.71216 0 5.79189 0 0.897949H25.469C36.2561 0.897949 45.0703 9.71216 45.0703 20.4993C45.0703 22.4723 44.7372 24.3427 44.1992 26.1876H34.6163ZM15.4249 19.0901C15.758 24.8552 20.575 29.211 26.3401 29.211V29.2879H42.8155C47.6582 29.2879 51.6297 33.1826 51.6297 38.1021H26.1352C15.348 38.1021 6.53379 29.2879 6.53379 18.5007C6.53379 16.5278 6.86688 14.6573 7.40496 12.8125H17.0135C15.8092 14.6573 15.2968 16.8609 15.4249 19.0901Z" fill="#00C197"/>
</svg>
