<svg width="97" height="26" viewBox="0 0 97 26" fill="none" xmlns="http://www.w3.org/2000/svg">
<path d="M0 13.2091C0 6.09701 5.3623 0.924561 12.4179 0.924561C18.6269 0.924561 22.484 4.71153 23.707 8.68323L18.721 10.6229C17.8743 7.66722 15.8047 5.72755 12.2298 5.72755C8.09048 5.72755 5.17414 8.68323 5.17414 13.2091C5.17414 17.6427 8.09048 20.6907 12.2298 20.6907C15.8047 20.6907 17.8743 18.751 18.721 15.7954L23.707 17.735C22.3899 21.8915 18.5328 25.4937 12.3239 25.4937C5.36229 25.4937 0 20.3212 0 13.2091Z" fill="#00C197"/>
<path d="M43.5543 13.67V24.9386H38.4742V14.6861C38.4742 12.3769 36.969 11.0838 34.8993 11.0838C32.8297 11.0838 31.2304 12.4693 31.2304 14.3166V24.9386H26.0563V0H31.2304V8.31286C32.4534 7.20448 34.2408 6.46556 36.4986 6.46556C40.8261 6.65029 43.5543 9.51361 43.5543 13.67Z" fill="#00C197"/>
<path d="M55.5963 21.2436C57.8541 21.2436 58.983 20.5047 59.8297 19.0268L63.7808 21.6131C62.3697 23.6451 60.0178 25.4924 55.5022 25.4924C49.5755 25.4924 45.7184 21.4283 45.7184 16.0711C45.7184 10.8987 49.9518 6.6499 55.1259 6.6499C61.0527 6.6499 64.5334 11.1758 64.5334 15.7017V17.6414H50.7044C51.2688 19.9505 53.1503 21.2436 55.5963 21.2436ZM59.6415 14.3162C59.1712 12.0071 57.5719 10.5292 55.22 10.5292C52.8681 10.5292 51.0807 11.9147 50.6103 14.3162H59.6415Z" fill="#00C197"/>
<path d="M92.0976 20.7817H78.5507C74.4114 20.7817 71.1188 17.5489 71.1188 13.4848C71.1188 9.42077 74.4114 6.18799 78.5507 6.18799C82.6901 6.18799 85.9827 9.42077 85.9827 13.4848C85.9827 13.7619 85.9827 13.9467 85.9827 14.1314C85.7945 15.9787 84.9479 17.5489 83.6308 18.7497H89.7457C89.8398 18.4726 90.0279 18.1955 90.122 17.9184C90.6864 16.5329 90.9687 14.9627 90.9687 13.3925C90.9687 6.64982 85.3242 1.10791 78.4567 1.10791C71.5892 1.10791 65.9446 6.64982 65.9446 13.3925C65.9446 20.1351 71.4951 25.677 78.4567 25.677H96.9895C97.1776 22.9985 94.9198 20.7817 92.0976 20.7817Z" fill="#00C197"/>
</svg>
