<svg width="60" height="17" viewBox="0 0 60 17" fill="none" xmlns="http://www.w3.org/2000/svg">
<path d="M0.593384 8.69817C0.593384 4.39964 3.83433 1.27344 8.09874 1.27344C11.8514 1.27344 14.1826 3.56227 14.9218 5.96274L11.9083 7.13507C11.3965 5.34867 10.1456 4.17634 7.98502 4.17634C5.48323 4.17634 3.72061 5.96274 3.72061 8.69817C3.72061 11.3778 5.48323 13.22 7.98502 13.22C10.1456 13.22 11.3965 12.0477 11.9083 10.2613L14.9218 11.4336C14.1258 13.9457 11.7945 16.1229 8.04187 16.1229C3.83433 16.1229 0.593384 12.9967 0.593384 8.69817Z" fill="white"/>
<path d="M26.9173 8.97647V15.7871H23.847V9.59054C23.847 8.19492 22.9372 7.41337 21.6863 7.41337C20.4354 7.41337 19.4688 8.25074 19.4688 9.36724V15.7871H16.3416V0.714355H19.4688V5.73861C20.208 5.06871 21.2883 4.62211 22.6529 4.62211C25.2684 4.73376 26.9173 6.46434 26.9173 8.97647Z" fill="white"/>
<path d="M34.1954 13.5538C35.56 13.5538 36.2423 13.1072 36.754 12.214L39.1421 13.7771C38.2892 15.0052 36.8677 16.1217 34.1385 16.1217C30.5564 16.1217 28.2252 13.6654 28.2252 10.4276C28.2252 7.30135 30.7839 4.7334 33.9111 4.7334C37.4932 4.7334 39.597 7.46883 39.597 10.2043V11.3766H31.2387C31.5799 12.7722 32.7171 13.5538 34.1954 13.5538ZM36.6403 9.36688C36.356 7.97125 35.3894 7.07805 33.968 7.07805C32.5465 7.07805 31.4662 7.91543 31.1819 9.36688H36.6403Z" fill="white"/>
<path d="M56.2568 13.2745H48.0691C45.5674 13.2745 43.5773 11.3207 43.5773 8.86435C43.5773 6.40805 45.5674 4.45417 48.0691 4.45417C50.5709 4.45417 52.561 6.40805 52.561 8.86435C52.561 9.03183 52.561 9.14348 52.561 9.25513C52.4473 10.3716 51.9355 11.3207 51.1395 12.0464H54.8353C54.8922 11.8789 55.0059 11.7114 55.0628 11.544C55.4039 10.7066 55.5745 9.75755 55.5745 8.80853C55.5745 4.73329 52.163 1.38379 48.0123 1.38379C43.8616 1.38379 40.4501 4.73329 40.4501 8.80853C40.4501 12.8838 43.8047 16.2333 48.0123 16.2333H59.2134C59.3272 14.6143 57.9626 13.2745 56.2568 13.2745Z" fill="white"/>
</svg>
