<svg width="125" height="129" viewBox="0 0 125 129" fill="none" xmlns="http://www.w3.org/2000/svg">
<path d="M107.63 115.481C87.3614 136.278 49.6854 132.433 23.478 106.893C-2.72937 81.3519 -7.54396 43.7875 12.7243 22.9901C32.9926 2.19275 70.6686 6.03796 96.876 31.5786C123.083 57.1193 127.898 94.6837 107.63 115.481Z" fill="#911D00"/>
<path d="M111.612 106.308C91.3437 127.106 53.6677 123.26 27.4603 97.7197C1.25291 72.179 -3.56168 34.6146 16.7066 13.8173C36.9749 -6.98011 74.6509 -3.13491 100.858 22.4058C127.066 47.9464 131.88 85.5109 111.612 106.308Z" fill="#FEF64B"/>
<path d="M100.975 46.8872L90.1416 32.9177L102.488 29.3385C102.241 28.904 104.987 31.6378 107.008 34.2444C109.175 37.0382 112.187 41.6525 112.887 43.5554L100.975 46.8872Z" fill="white"/>
<path d="M24.456 56.0594L31.8498 73.0216L15.5988 74.7968C15.6075 75.2968 12.5867 69.6074 11.0843 65.8596C9.76871 62.578 9.62047 58.7469 9.91899 56.7414L24.456 56.0594Z" fill="white"/>
<path d="M115.114 47.4657L102.954 50.363L105.666 56.1352L117.027 53.8561L116.411 50.7544C116.165 49.5137 115.114 47.4657 115.114 47.4657Z" fill="white"/>
<path d="M22.2192 85.411L35.8592 82.0824L32.2079 76.6817L18.0731 79.1413C18.0932 79.5135 19.4266 81.518 20.0526 82.6172C20.7947 83.9203 21.7444 84.9141 22.2192 85.411Z" fill="white"/>
<path d="M98.9741 91.8596C84.5349 106.676 57.6944 103.936 39.0242 85.7411C20.354 67.5459 16.924 40.7849 31.3632 25.9688C45.8024 11.1526 72.6429 13.892 91.3131 32.0872C109.983 50.2825 113.413 77.0435 98.9741 91.8596Z" fill="#EC7C10"/>
<path d="M98.0443 93.073C84.17 107.309 57.7876 104.1 39.1173 85.9048C20.4471 67.7095 16.5592 41.4185 30.4334 27.1821C44.3076 12.9457 70.6901 16.155 89.3603 34.3503C108.031 52.5455 111.918 78.8366 98.0443 93.073Z" fill="#FFBA02"/>
<path d="M60.6749 69.193C55.5423 66.247 52.7874 59.6041 54.5074 54.0188C55.1768 51.8344 56.4131 50.0509 58.1235 48.9174L49.5692 44.0074C48.4488 45.4796 47.5053 47.0534 46.8105 48.921C43.0354 59.0683 47.8014 71.8517 57.4176 77.3712L80.1307 90.4079C81.8446 85.8011 79.6713 80.0965 75.3647 77.6245L60.6749 69.193Z" fill="#D8791D"/>
<path d="M72.7539 65.3989C72.0844 67.5833 70.8481 69.3668 69.1378 70.5003L77.692 75.4103C78.8125 73.9381 79.756 72.3643 80.4508 70.4967C84.2259 60.3494 79.4599 47.566 69.8437 42.0466L47.1306 29.0098C45.4167 33.6166 47.5899 39.3213 51.8966 41.7932L66.5863 50.2247C71.6136 53.2614 74.4507 59.8758 72.7539 65.3989Z" fill="#D8791D"/>
<path d="M61.4329 67.6104C56.3004 64.6645 53.5455 58.0216 55.2654 52.4362C55.9349 50.2519 57.1711 48.4684 58.8815 47.3348L50.3273 42.4249C49.2068 43.8971 48.2634 45.4709 47.5686 47.3385C43.7934 57.4858 48.5594 70.2691 58.1757 75.7886L80.8888 88.8254C82.6026 84.2186 80.4294 78.5139 76.1227 76.042L61.4329 67.6104Z" fill="white"/>
<path d="M73.5119 63.8164C72.8425 66.0007 71.6062 67.7842 69.8958 68.9178L78.4501 73.8277C79.5705 72.3556 80.514 70.7818 81.2088 68.9142C84.9839 58.7668 80.2179 45.9835 70.6017 40.464L47.8886 27.4273C46.1747 32.0341 48.348 37.7387 52.6546 40.2106L67.3444 48.6422C72.3717 51.6788 75.2087 58.2933 73.5119 63.8164Z" fill="white"/>
</svg>
