<svg width="138" height="116" viewBox="0 0 138 116" fill="none" xmlns="http://www.w3.org/2000/svg">
<path d="M135.899 43.5258C143.94 71.4305 121.953 102.266 86.7896 112.399C51.6261 122.532 16.6017 108.126 8.56032 80.2211C0.518989 52.3164 22.5059 21.4807 57.6694 11.3476C92.8329 1.21444 127.857 15.6211 135.899 43.5258Z" fill="#911D00"/>
<path d="M129.899 35.5258C137.94 63.4305 115.953 94.2662 80.7896 104.399C45.6261 114.532 10.6017 100.126 2.56032 72.2211C-5.48101 44.3164 16.5059 13.4807 51.6694 3.34756C86.8329 -6.78556 121.857 7.62113 129.899 35.5258Z" fill="#FEF64B"/>
<path d="M73.0002 15.3621L55.5002 17.8621L58.5002 5.36218C58.0002 5.36222 61.7349 4.32878 65.0002 3.86227C68.5002 3.36224 74.0002 3.02886 76.0002 3.3622L73.0002 15.3621Z" fill="white"/>
<path d="M43.1019 86.3925L61.5005 88.3622L55.0005 103.362C55.4392 103.602 49.0005 103.411 45.0003 102.862C41.4976 102.381 38.0953 100.614 36.5003 99.3621L43.1019 86.3925Z" fill="white"/>
<path d="M80.5002 3.3622L77.0002 15.3622L83.3581 15.8622L87.0002 4.86203L84.0002 3.86204C82.8002 3.46206 80.5002 3.3622 80.5002 3.3622Z" fill="white"/>
<path d="M67.5002 102.862L71.3581 89.3623L64.8581 89.8623L60.0002 103.362C60.3335 103.529 62.7353 103.362 64.0002 103.362C65.4999 103.362 66.8334 103.029 67.5002 102.862Z" fill="white"/>
<path d="M111.089 39.357C116.818 59.2364 101.154 81.2039 76.1037 88.4227C51.0531 95.6416 26.1016 85.3782 20.3729 65.4989C14.6442 45.6195 30.3077 23.652 55.3583 16.4331C80.409 9.21425 105.36 19.4776 111.089 39.357Z" fill="#EC7C10"/>
<path d="M111.683 40.7655C117.188 59.867 101.343 81.2039 76.292 88.4228C51.2414 95.6417 26.4715 86.0089 20.967 66.9073C15.4625 47.8058 31.3077 26.4689 56.3583 19.25C81.409 12.0311 106.179 21.6639 111.683 40.7655Z" fill="#FFBA02"/>
<path d="M72.4389 61.4197C67.3389 64.4217 60.2031 63.5281 56.2009 59.2694C54.6341 57.6067 53.6962 55.6498 53.5576 53.6025L45.0577 58.6059C45.7824 60.3081 46.6831 61.9068 47.9621 63.4348C54.9114 71.737 68.3781 73.922 77.9333 68.2975L100.502 55.0126C97.3473 51.2435 91.3147 50.3087 87.0354 52.8277L72.4389 61.4197Z" fill="#D8791D"/>
<path d="M75.1198 49.046C76.6866 50.7087 77.6245 52.6656 77.7631 54.7129L86.2631 49.7095C85.5383 48.0073 84.6377 46.4086 83.3587 44.8806C76.4094 36.5783 62.9426 34.3934 53.3874 40.0179L30.8186 53.3028C33.9735 57.0719 40.0061 58.0066 44.2854 55.4877L58.8819 46.8957C64.0085 44.03 71.1602 44.8382 75.1198 49.046Z" fill="#D8791D"/>
<path d="M71.4389 59.9778C66.3389 62.9798 59.2031 62.0862 55.2009 57.8275C53.6341 56.1648 52.6962 54.2079 52.5576 52.1606L44.0577 57.164C44.7824 58.8662 45.6831 60.4649 46.9621 61.9929C53.9114 70.2951 67.3781 72.4801 76.9333 66.8556L99.5022 53.5707C96.3473 49.8016 90.3147 48.8668 86.0354 51.3858L71.4389 59.9778Z" fill="white"/>
<path d="M74.1198 47.6041C75.6866 49.2668 76.6245 51.2237 76.7631 53.271L85.2631 48.2676C84.5383 46.5654 83.6377 44.9667 82.3587 43.4387C75.4094 35.1364 61.9426 32.9515 52.3874 38.576L29.8186 51.8609C32.9735 55.63 39.0061 56.5647 43.2854 54.0458L57.8819 45.4538C63.0085 42.5881 70.1602 43.3963 74.1198 47.6041Z" fill="white"/>
</svg>
