<svg width="101" height="94" viewBox="0 0 101 94" fill="none" xmlns="http://www.w3.org/2000/svg">
<path d="M92.3469 16.443C106.525 33.4863 100.609 61.7865 79.1325 79.6533C57.6558 97.5202 28.7515 98.1878 14.573 81.1446C0.394402 64.1014 6.31068 35.8012 27.7874 17.9343C49.264 0.0674934 78.1683 -0.600182 92.3469 16.443Z" fill="#911D00"/>
<path d="M85.699 12.6897C99.8776 29.7329 93.9613 58.0331 72.4846 75.9C51.008 93.7668 22.1037 94.4345 7.92511 77.3913C-6.25346 60.348 -0.337183 32.0478 21.1395 14.181C42.6162 -3.68586 71.5205 -4.35354 85.699 12.6897Z" fill="#FEF64B"/>
<path d="M39.7366 16.0399L28.2684 23.1539L26.5328 13.4949C26.1833 13.6482 28.4774 11.7805 30.6173 10.4531C32.9109 9.03027 36.6539 7.11068 38.1544 6.73045L39.7366 16.0399Z" fill="white"/>
<path d="M40.6145 74.8675L54.0814 70.6028L54.1367 83.0829C54.5169 83.116 49.9569 84.957 46.9919 85.7997C44.3956 86.5376 41.475 86.3454 39.9761 85.9592L40.6145 74.8675Z" fill="white"/>
<path d="M41.3005 5.35066L42.5332 14.8135L47.1315 13.2135L46.3047 4.40609L43.9007 4.62688C42.9391 4.71521 41.3005 5.35066 41.3005 5.35066Z" fill="white"/>
<path d="M62.7222 78.9003L61.2798 68.2792L56.8888 70.6219L57.632 81.5496C57.9162 81.5639 59.5442 80.711 60.4286 80.3231C61.477 79.8633 62.3071 79.2213 62.7222 78.9003Z" fill="white"/>
<path d="M73.7234 21.136C83.8243 33.2776 79.6095 53.4388 64.3094 66.1672C49.0094 78.8956 28.4179 79.3712 18.317 67.2296C8.21613 55.0879 12.4309 34.9268 27.731 22.1984C43.031 9.46996 63.6225 8.99431 73.7234 21.136Z" fill="#EC7C10"/>
<path d="M74.5708 21.9384C84.2764 33.605 79.7412 53.381 64.4412 66.1094C49.1411 78.8378 28.87 79.6986 19.1644 68.0321C9.45873 56.3655 13.9939 36.5895 29.294 23.8611C44.594 11.1327 64.8651 10.2719 74.5708 21.9384Z" fill="#FFBA02"/>
<path d="M53.4671 48.4122C50.8221 52.0748 45.5592 53.6381 41.4553 51.888C39.85 51.2059 38.5942 50.1254 37.8696 48.7366L33.4612 54.841C34.4899 55.8089 35.6098 56.6504 36.9725 57.3265C44.3768 60.9999 54.4618 58.398 59.4174 51.5358L71.1224 35.3275C67.7609 33.6598 63.2567 34.8561 61.0373 37.9294L53.4671 48.4122Z" fill="#D8791D"/>
<path d="M51.5472 38.9393C53.1524 39.6214 54.4082 40.7019 55.1329 42.0907L59.5412 35.9862C58.5126 35.0184 57.3927 34.1769 56.0299 33.5008C48.6257 29.8274 38.5407 32.4293 33.5851 39.2915L21.8801 55.4998C25.2416 57.1675 29.7458 55.9712 31.9652 52.8979L39.5354 42.4151C42.2408 38.8396 47.4886 37.2117 51.5472 38.9393Z" fill="#D8791D"/>
<path d="M52.3258 47.7109C49.6808 51.3735 44.4179 52.9368 40.3139 51.1867C38.7087 50.5047 37.4529 49.4241 36.7283 48.0353L32.3199 54.1397C33.3486 55.1076 34.4685 55.9491 35.8312 56.6252C43.2354 60.2986 53.3205 57.6968 58.2761 50.8345L69.981 34.6262C66.6196 32.9585 62.1154 34.1548 59.896 37.2281L52.3258 47.7109Z" fill="white"/>
<path d="M50.4059 38.238C52.0111 38.9201 53.2669 40.0006 53.9916 41.3894L58.3999 35.2849C57.3713 34.3171 56.2514 33.4756 54.8886 32.7995C47.4844 29.1261 37.3993 31.728 32.4437 38.5902L20.7388 54.7985C24.1002 56.4662 28.6045 55.2699 30.8238 52.1966L38.394 41.7138C41.0995 38.1383 46.3473 36.5104 50.4059 38.238Z" fill="white"/>
</svg>
