<svg width="400" height="300" viewBox="0 0 400 300" fill="none" xmlns="http://www.w3.org/2000/svg">
<path d="M292.143 189.926H108.896C107.323 189.926 106 188.641 106 187.05V112.857C106 111.266 107.323 110 108.896 110H292.143C293.715 110 295 111.266 295 112.857V187.05C295 188.641 293.715 189.926 292.143 189.926Z" fill="#51A9A4"/>
<path d="M146.097 149.33C145.79 151.766 144.985 153.76 143.7 155.352C141.61 157.94 138.829 159.244 135.205 159.149C130.468 159.053 127.899 157.327 124.965 154.489C122.453 152.073 120.957 148.161 120.957 145.188C120.957 143.175 121.475 141.909 122.357 139.761C123.335 137.518 124.447 136.425 125.981 134.987C128.8 132.34 132.079 131.113 135.588 131.113C138.407 131.113 140.747 131.803 142.588 133.184C144.083 134.315 144.812 135.677 144.812 137.269C144.812 138.151 144.505 138.879 144.007 139.474C143.451 140.049 142.76 140.356 141.993 140.356C141.188 140.356 140.497 140.049 139.941 139.416C139.385 138.803 139.098 138.074 139.098 137.192C139.098 136.31 139.558 135.37 140.421 134.373L140.632 133.798C140.632 132.705 138.925 132.244 135.55 132.149C132.041 132.033 130.008 132.973 128.627 134.507C127.228 136.137 127.055 139.512 127.055 144.21V147.24C127.055 150.653 127.132 153.146 127.956 154.872C128.934 157.02 131.331 158.228 134.745 158.228C137.563 158.228 139.865 157.461 141.706 155.908C143.489 154.335 144.659 152.149 145.157 149.292H146.097V149.33Z" fill="#FEFEFE"/>
<path d="M157.833 138.822C158.216 137.23 158.811 135.869 159.578 134.737C161.208 132.379 163.298 131.19 165.772 131.19C167.095 131.19 168.111 131.554 168.936 132.244C169.703 132.935 170.125 133.836 170.125 134.987C170.125 135.869 169.875 136.578 169.358 137.134C168.897 137.71 168.245 137.959 167.44 137.959C166.635 137.959 165.944 137.71 165.426 137.153C164.909 136.617 164.621 135.926 164.621 135.063C164.621 134.047 165.139 133.184 166.117 132.474C166.078 132.321 162.914 132.973 161.38 134.469C160.652 135.198 160.057 135.907 159.674 136.597C159.29 137.288 158.907 138.323 158.485 139.704C158.025 141.065 157.852 143.06 157.852 145.687V157.269H163.509V158.381H147.554V157.269H152.598V133.452H147.554V132.379H153.997C155.743 132.379 157.027 131.803 157.833 130.653V138.822Z" fill="#FEFEFE"/>
<path d="M191.334 149.829V140.432C191.334 138.515 191.257 137.153 191.027 136.329C190.854 135.542 190.394 134.795 189.742 134.066C188.284 132.589 186.252 131.861 183.51 131.861C180.652 131.861 178.524 132.551 177.201 133.951C175.801 135.312 175.11 137.441 175.11 140.356V149.656C175.11 152.801 175.801 155.025 177.201 156.349C177.718 156.866 178.601 157.307 179.809 157.633C181.055 157.998 182.282 158.17 183.567 158.17C185.025 158.17 186.348 157.959 187.46 157.518C188.649 157.096 189.512 156.502 190.01 155.773C190.912 154.546 191.334 152.552 191.334 149.829ZM183.701 130.902C186.655 130.902 189.55 132.072 192.273 134.411C195.61 137.307 197.316 140.797 197.316 144.9C197.316 148.659 195.917 151.976 193.04 154.891C190.221 157.691 187.019 159.129 183.433 159.129C179.598 159.129 176.299 157.672 173.442 154.795C172.081 153.434 171.007 151.881 170.24 150.193C169.473 148.467 169.089 146.78 169.089 145.111C169.089 143.251 169.549 141.372 170.489 139.512C171.429 137.671 172.752 136.041 174.42 134.641C177.335 132.167 180.441 130.902 183.701 130.902Z" fill="#FEFEFE"/>
<path d="M207.46 137.805C208.093 135.811 209.34 134.181 211.181 132.916C213.06 131.65 215.15 131.017 217.49 131.017C220.519 131.017 222.82 131.957 224.316 133.855C225.083 134.872 225.563 136.271 225.774 138.17C226.541 135.945 227.787 134.219 229.532 132.954C231.239 131.707 233.291 131.075 235.592 131.075C238.545 131.075 240.846 131.976 242.419 133.779C243.147 134.603 243.607 135.523 243.818 136.463C244.068 137.422 244.163 138.994 244.163 141.238V157.269H249.207V158.381H233.712V157.269H238.794V137.518C238.794 134.047 237.298 132.34 234.403 132.34C231.68 132.34 229.417 133.683 227.614 136.348C226.426 138.227 225.774 139.819 225.774 141.18V157.269H230.759V158.381H215.399V157.269H220.519V136.54C220.519 135.14 220.174 134.085 219.503 133.337C218.774 132.532 217.796 132.129 216.512 132.129C214.594 132.129 212.715 132.877 210.97 134.373C209.263 135.888 208.112 137.767 207.46 140.068V157.269H212.408V158.381H197.22V157.269H202.206V133.452H197.22V132.379H203.491C205.619 132.379 206.904 131.803 207.46 130.595V137.805Z" fill="#FEFEFE"/>
<path d="M268.825 144.23H268.441C262.899 144.23 259.217 144.92 257.434 146.262C256.188 147.183 255.651 148.813 255.651 151.21C255.651 153.492 256.034 155.122 256.84 156.08C257.645 157.02 259.026 157.499 260.943 157.499C262.727 157.499 264.318 157.078 265.814 156.253C267.214 155.428 268.249 154.316 268.844 152.974V144.23H268.825ZM268.825 143.232V136.828C268.825 135.332 268.614 134.258 268.23 133.644C267.808 132.992 267.041 132.513 265.891 132.206C264.951 131.995 263.801 131.88 262.382 131.88C260.157 131.88 258.489 132.187 257.262 132.839C256.111 133.453 255.516 134.181 255.516 135.025C255.516 135.351 255.766 135.735 256.245 136.118C257.108 136.789 257.607 137.575 257.607 138.477C257.607 139.34 257.3 140.049 256.84 140.586C256.322 141.123 255.651 141.391 254.884 141.391C253.982 141.391 253.311 141.085 252.793 140.49C252.237 139.877 251.93 139.11 251.93 138.17C251.93 136.176 252.947 134.469 254.999 133.031C257.051 131.593 259.428 130.864 262.247 130.864C265.526 130.864 269.074 131.439 271.586 133.069C273.043 133.932 273.504 134.718 273.887 135.524C274.232 136.31 274.347 137.345 274.347 138.707V150.251C274.424 153.549 274.693 155.467 274.769 155.985C275.019 157.078 275.843 157.576 276.783 157.519C277.761 157.442 278.355 156.943 278.911 154.853H279.985C278.969 158.593 277.262 159.034 274.865 159.053C273.235 159.053 271.663 158.535 270.761 157.806C269.86 157.039 269.266 156.004 269.055 154.604C268.192 156.023 266.888 157.116 265.162 157.883C263.455 158.669 261.825 159.053 259.563 159.053C256.322 159.053 253.925 158.362 252.391 157.001C250.895 155.735 250.128 154.201 250.128 152.552C250.128 151.114 250.684 149.695 251.7 148.352C252.774 146.972 254.097 145.994 255.67 145.38C257.3 144.747 258.949 144.249 261.384 143.865C263.781 143.482 266.121 143.29 268.384 143.29H268.825V143.232ZM253.465 123.654V126.511H273.906V123.654H253.465Z" fill="#FEFEFE"/>
<path d="M126.04 175.295V168.334C126.04 167.931 126.174 167.682 126.346 167.567L126.691 167.471L127.248 167.912L127.286 168.2V175.314C127.286 175.697 127.209 175.966 126.979 176.081L126.634 176.196L126.174 175.947L126.097 175.717L126.04 175.295ZM126.04 166.033V165.342L126.346 164.729L126.691 164.633L127.286 165.093V166.071L127.075 166.55L126.653 166.742C126.251 166.742 126.04 166.512 126.04 166.033Z" fill="#FEFEFE"/>
<path d="M129.318 175.467V168.219L129.568 167.567L129.951 167.471L130.411 167.778L130.488 168.008V168.353L130.737 168.065L131.198 167.797L131.888 167.567L132.617 167.49C133.422 167.49 134.074 167.739 134.572 168.257C135.033 168.756 135.301 169.408 135.301 170.213V175.371L134.994 176.119L134.649 176.234L134.131 175.908L134.055 175.429V170.462C134.055 169.906 133.978 169.484 133.748 169.197C133.537 168.928 133.192 168.736 132.674 168.679L132.329 168.641H132.156L131.945 168.679C130.967 168.871 130.45 169.465 130.45 170.443V175.467L130.066 176.177L129.817 176.234L129.357 175.985L129.318 175.467Z" fill="#FEFEFE"/>
<path d="M137.737 170.961H140.69C141.15 170.961 141.457 171.172 141.457 171.575C141.457 171.977 141.208 172.188 140.728 172.188H137.737L137.315 172.169L137.008 171.977L136.874 171.613L136.951 171.287C137.085 171.076 137.353 170.961 137.737 170.961Z" fill="#FEFEFE"/>
<path d="M142.377 174.432C142.377 174.029 142.549 173.799 142.933 173.799L143.144 173.837L143.355 173.952L143.604 174.201C143.987 174.527 144.371 174.758 144.85 174.911L145.79 175.045C146.25 175.045 146.653 174.949 146.941 174.738L147.497 173.971L147.573 173.588C147.573 172.974 147.152 172.572 146.289 172.38L145.694 172.226L145.483 172.188L145.023 172.111C144.218 171.92 143.623 171.651 143.24 171.306C142.856 170.961 142.683 170.501 142.683 169.925L142.722 169.407C142.798 168.832 143.105 168.372 143.661 167.988C144.179 167.605 144.85 167.432 145.617 167.432H145.867L146.212 167.452L146.634 167.528L147.094 167.682C147.612 167.873 147.995 168.104 148.244 168.391L148.456 169.081L147.899 169.523L147.727 169.503L147.554 169.407L147.247 169.216L146.787 168.851L146.327 168.66L146.193 168.64L145.943 168.583L145.56 168.564L144.927 168.64L144.409 168.928L143.93 169.791L144.448 170.635L144.831 170.807L145.522 170.98L145.905 171.057L146.365 171.153C147.995 171.536 148.762 172.303 148.762 173.454L148.686 174.259C148.551 174.815 148.168 175.295 147.669 175.659C147.113 176.023 146.48 176.215 145.656 176.215L144.889 176.157L143.949 175.889C143.393 175.64 143.009 175.39 142.76 175.141L142.377 174.432Z" fill="#FEFEFE"/>
<path d="M149.76 167.778H150.239L150.412 167.509V165.764L150.699 165.112L151.044 165.035L151.639 165.438V167.663L151.85 167.778H152.54L153.058 167.912L153.269 168.334L153.058 168.736L152.54 168.89H151.907L151.639 168.928V175.64L151.466 176.1L150.968 176.273L150.527 176.081L150.412 175.601V168.909L150.201 168.89H149.817L149.261 168.583L149.165 168.314L149.549 167.778H149.76Z" fill="#FEFEFE"/>
<path d="M154.765 171.843V172.361C154.765 173.32 154.937 174.029 155.283 174.432C155.589 174.834 156.088 175.045 156.778 175.045C157.469 175.045 157.929 174.854 158.274 174.432C158.619 174.01 158.734 173.32 158.734 172.361V171.325C158.734 170.366 158.6 169.676 158.274 169.273C157.929 168.832 157.469 168.641 156.778 168.641C156.088 168.641 155.589 168.851 155.283 169.273C154.937 169.676 154.765 170.366 154.765 171.325V171.843ZM153.557 171.843C153.557 170.443 153.729 169.427 154.113 168.794C154.535 168.161 155.187 167.758 156.069 167.586L156.414 167.548L156.759 167.528L157.181 167.567L157.43 167.586C158.37 167.758 159.06 168.238 159.386 168.967C159.77 169.714 159.942 170.961 159.942 172.725C159.942 173.741 159.731 174.508 159.309 175.026C158.888 175.563 158.293 175.889 157.43 176.043L156.74 176.119H156.356L156.05 176.043C155.148 175.87 154.516 175.467 154.094 174.873C153.729 174.278 153.557 173.262 153.557 171.843Z" fill="#FEFEFE"/>
<path d="M161.631 175.467V168.18C161.631 167.682 161.803 167.432 162.187 167.432L162.647 167.586L162.819 168.103V168.334L163.28 167.816L163.913 167.547L164.469 167.49L164.679 167.528C165.101 167.586 165.37 167.701 165.581 167.854L165.888 168.391L165.715 168.813L165.332 168.966L165.197 168.947L164.775 168.794L164.354 168.698L164.047 168.736C163.663 168.813 163.318 168.966 163.145 169.273C162.934 169.561 162.8 170.021 162.8 170.596V175.505L162.493 176.1L162.148 176.196L161.592 175.793V175.467H161.631Z" fill="#FEFEFE"/>
<path d="M170.681 171.114L171.026 171.038L171.103 170.481L171.065 170.213C170.988 169.676 170.758 169.254 170.47 168.986C170.164 168.679 169.78 168.545 169.32 168.545L168.725 168.621C168.035 168.794 167.613 169.312 167.44 170.136L167.402 170.443L167.364 170.711V170.903L167.44 171.095L167.651 171.114H170.681ZM171.698 172.188H167.383L167.345 172.418V173.07C167.345 173.569 167.479 174.01 167.766 174.317C168.073 174.662 168.399 174.873 168.879 174.969L169.396 175.026C170.087 175.026 170.681 174.681 171.103 173.952L171.41 173.53L171.717 173.415L172.177 173.53L172.311 174.048L172.1 174.623L171.583 175.256C171.161 175.697 170.605 175.966 169.914 176.081L169.569 176.119L169.186 176.158C167.134 176.158 166.117 174.681 166.117 171.766C166.117 170.29 166.367 169.216 166.884 168.506C167.441 167.797 168.246 167.471 169.32 167.471C170.259 167.471 170.988 167.778 171.544 168.391C172.062 169.024 172.311 169.944 172.311 171.172V171.459L172.235 172.054L171.851 172.188H171.698ZM178.198 164.901V176.004H179.176V164.901H178.198Z" fill="#FEFEFE"/>
<path d="M186.252 171.843V172.361C186.252 173.32 186.424 174.029 186.77 174.432C187.076 174.834 187.575 175.045 188.227 175.045C188.917 175.045 189.416 174.854 189.761 174.432C190.068 174.01 190.221 173.32 190.221 172.361V171.325C190.221 170.366 190.049 169.676 189.761 169.273C189.416 168.832 188.898 168.641 188.227 168.641C187.594 168.641 187.076 168.851 186.77 169.273C186.424 169.676 186.252 170.366 186.252 171.325V171.843ZM185.025 171.843C185.025 170.443 185.236 169.427 185.619 168.794C186.003 168.161 186.693 167.758 187.575 167.586L187.92 167.548L188.265 167.528L188.687 167.567L188.898 167.586C189.876 167.758 190.566 168.238 190.912 168.967C191.295 169.714 191.468 170.961 191.468 172.725C191.468 173.741 191.257 174.508 190.835 175.026C190.413 175.563 189.819 175.889 188.917 176.043L188.285 176.119H187.863L187.613 176.043C186.712 175.87 186.041 175.467 185.657 174.873C185.236 174.278 185.025 173.262 185.025 171.843Z" fill="#FEFEFE"/>
<path d="M193.118 175.467V168.219L193.424 167.567L193.77 167.471L194.287 167.778L194.326 168.008V168.353L194.575 168.065L195.035 167.797L195.764 167.567L196.493 167.49C197.298 167.49 197.95 167.739 198.41 168.257C198.871 168.756 199.139 169.408 199.139 170.213V175.371L198.89 176.119L198.506 176.234L197.988 175.908L197.912 175.429V170.462C197.912 169.906 197.835 169.484 197.605 169.197C197.394 168.928 197.049 168.736 196.589 168.679L196.205 168.641H196.032L195.86 168.679C194.844 168.871 194.326 169.465 194.326 170.443V175.467L193.981 176.177L193.731 176.234L193.214 175.985L193.118 175.467Z" fill="#FEFEFE"/>
<path d="M201.152 175.372V165.457C201.152 164.901 201.363 164.594 201.747 164.594L202.38 165.074V175.391C202.38 175.908 202.169 176.158 201.785 176.158C201.363 176.177 201.152 175.909 201.152 175.372Z" fill="#FEFEFE"/>
<path d="M204.354 175.295V168.334C204.354 167.931 204.489 167.682 204.661 167.567L205.006 167.471L205.562 167.912L205.601 168.2V175.314C205.601 175.697 205.524 175.966 205.294 176.081L204.949 176.196L204.489 175.947L204.412 175.717L204.354 175.295ZM204.354 166.033V165.342L204.7 164.729L205.045 164.633L205.601 165.093V166.071L205.428 166.55L204.968 166.742C204.565 166.742 204.354 166.512 204.354 166.033Z" fill="#FEFEFE"/>
<path d="M207.634 175.467V168.219L207.94 167.567L208.286 167.471L208.746 167.778L208.823 168.008V168.353L209.072 168.065L209.532 167.797L210.222 167.567L210.989 167.49C211.757 167.49 212.447 167.739 212.907 168.257C213.367 168.756 213.636 169.408 213.636 170.213V175.371L213.329 176.119L212.984 176.234L212.466 175.908L212.389 175.429V170.462C212.389 169.906 212.313 169.484 212.083 169.197C211.872 168.928 211.526 168.736 211.009 168.679L210.664 168.641H210.491L210.318 168.679C209.302 168.871 208.784 169.465 208.784 170.443V175.467L208.439 176.177L208.132 176.234L207.653 175.985L207.634 175.467Z" fill="#FEFEFE"/>
<path d="M219.887 171.114L220.232 171.038L220.27 170.481L220.232 170.213C220.155 169.676 219.983 169.254 219.676 168.986C219.369 168.679 218.986 168.545 218.525 168.545L217.931 168.621C217.241 168.794 216.819 169.312 216.646 170.136L216.569 170.443V170.884L216.608 171.076L216.857 171.095H219.887V171.114ZM220.865 172.188H216.589L216.55 172.418V173.07C216.55 173.569 216.685 174.01 216.972 174.317C217.279 174.662 217.605 174.873 218.046 174.969L218.564 175.026C219.292 175.026 219.849 174.681 220.27 173.952L220.577 173.53L220.884 173.415L221.402 173.53L221.536 174.048L221.287 174.623L220.807 175.256C220.347 175.697 219.791 175.966 219.101 176.081L218.756 176.119L218.372 176.158C216.32 176.158 215.304 174.681 215.304 171.766C215.304 170.29 215.553 169.216 216.109 168.506C216.665 167.797 217.432 167.471 218.506 167.471C219.484 167.471 220.213 167.778 220.769 168.391C221.287 169.024 221.536 169.944 221.536 171.172V171.459L221.459 172.054L221.076 172.188H220.865ZM227.404 164.901V176.004H228.382V164.901H227.404Z" fill="#FEFEFE"/>
<path d="M234.614 175.429V168.18L234.959 167.528L235.304 167.432L235.822 167.816V168.314L236.129 167.988L236.551 167.72L237.145 167.509L237.778 167.432L238.334 167.509L239.101 167.797L239.945 168.621L240.022 168.468C240.444 167.95 241 167.662 241.69 167.547L242.208 167.509C243.013 167.509 243.704 167.758 244.221 168.238C244.739 168.698 245.027 169.292 245.027 169.983V175.41C245.027 175.927 244.816 176.177 244.432 176.177C244.01 176.177 243.799 175.927 243.799 175.448V170.194C243.799 169.734 243.627 169.35 243.378 169.062C243.032 168.775 242.649 168.621 242.189 168.621H241.843L241.498 168.717L240.693 169.331C240.482 169.618 240.386 170.002 240.386 170.462V175.371C240.386 175.755 240.309 175.985 240.079 176.1L239.734 176.177L239.35 176.042L239.14 175.736V170.481C239.14 169.887 239.063 169.446 238.833 169.158C238.622 168.89 238.315 168.698 237.855 168.64H237.548L237.164 168.66C236.263 168.871 235.803 169.484 235.803 170.52V175.467C235.803 175.947 235.592 176.196 235.17 176.196C234.787 176.177 234.614 175.927 234.614 175.429Z" fill="#FEFEFE"/>
<path d="M247.846 171.843V172.361C247.846 173.32 248.018 174.029 248.363 174.432C248.709 174.834 249.169 175.045 249.859 175.045C250.549 175.045 251.01 174.854 251.355 174.432C251.662 174.01 251.815 173.32 251.815 172.361V171.325C251.815 170.366 251.642 169.676 251.355 169.273C251.01 168.832 250.549 168.641 249.859 168.641C249.169 168.641 248.709 168.851 248.363 169.273C248.018 169.676 247.846 170.366 247.846 171.325V171.843ZM246.637 171.843C246.637 170.443 246.81 169.427 247.232 168.794C247.615 168.161 248.248 167.758 249.188 167.586L249.495 167.548L249.84 167.528L250.3 167.567L250.511 167.586C251.451 167.758 252.141 168.238 252.467 168.967C252.851 169.714 253.023 170.961 253.023 172.725C253.023 173.741 252.812 174.508 252.429 175.026C252.007 175.563 251.355 175.889 250.511 176.043L249.821 176.119H249.437L249.188 176.043C248.248 175.87 247.615 175.467 247.232 174.873C246.81 174.278 246.637 173.262 246.637 171.843Z" fill="#FEFEFE"/>
<path d="M255.861 171.785V172.303C255.861 173.3 256.034 174.01 256.322 174.413C256.667 174.796 257.165 175.026 257.856 175.026C258.488 175.026 258.929 174.777 259.255 174.355C259.562 173.914 259.716 173.185 259.716 172.131V171.191C259.716 170.271 259.543 169.619 259.198 169.216C258.853 168.794 258.393 168.621 257.741 168.621C257.089 168.621 256.628 168.813 256.341 169.235C256.034 169.638 255.919 170.309 255.919 171.249L255.861 171.785ZM254.711 175.429V165.477C254.711 164.94 254.922 164.633 255.305 164.633L255.938 165.055V168.353L256.015 168.238L256.091 168.104L256.13 168.065L256.264 167.969C256.647 167.624 257.204 167.433 257.894 167.433L258.239 167.452L258.623 167.509C259.466 167.701 260.08 168.142 260.406 168.89C260.79 169.619 260.962 170.827 260.962 172.476C260.962 173.646 260.655 174.547 260.157 175.199C259.601 175.851 258.872 176.158 257.99 176.158L257.395 176.1L256.763 175.928L256.245 175.659L256.206 175.602L256.13 175.506L256.053 175.391L255.976 175.314V175.697L255.765 176.004L255.382 176.138L255.037 176.043L254.711 175.429Z" fill="#FEFEFE"/>
<path d="M262.612 175.295V168.334C262.612 167.931 262.746 167.682 262.918 167.567L263.264 167.471L263.82 167.912L263.858 168.2V175.314C263.858 175.697 263.781 175.966 263.609 176.081L263.225 176.196L262.803 175.947L262.669 175.717L262.612 175.295ZM262.612 166.033V165.342L262.957 164.729L263.264 164.633L263.858 165.093V166.071L263.685 166.55L263.225 166.742C262.823 166.742 262.612 166.512 262.612 166.033Z" fill="#FEFEFE"/>
<path d="M265.89 175.372V165.457C265.89 164.901 266.063 164.594 266.485 164.594L267.079 165.074V175.391C267.079 175.908 266.906 176.158 266.523 176.158C266.063 176.177 265.89 175.909 265.89 175.372Z" fill="#FEFEFE"/>
<path d="M273.35 171.114L273.657 171.038L273.734 170.481L273.696 170.213C273.561 169.676 273.389 169.254 273.101 168.986C272.794 168.679 272.411 168.545 271.95 168.545L271.356 168.621C270.666 168.794 270.244 169.312 270.071 170.136L270.033 170.443L269.995 170.711V170.903L270.071 171.095L270.282 171.114H273.35ZM274.29 172.188H270.014L269.975 172.418V173.07C269.975 173.569 270.11 174.01 270.397 174.317C270.704 174.662 271.03 174.873 271.471 174.969L272.027 175.026C272.718 175.026 273.274 174.681 273.696 173.952L274.041 173.53L274.29 173.415L274.808 173.53L274.942 174.048L274.731 174.623L274.213 175.256C273.753 175.697 273.197 175.966 272.545 176.081L272.161 176.119L271.816 176.158C269.764 176.158 268.748 174.681 268.748 171.766C268.748 170.29 268.997 169.216 269.515 168.506C270.071 167.797 270.877 167.471 271.95 167.471C272.89 167.471 273.619 167.778 274.175 168.391C274.693 169.024 274.942 169.945 274.942 171.172V171.459L274.865 172.054L274.482 172.188H274.29Z" fill="#FEFEFE"/>
</svg>
