<?xml version="1.0" encoding="utf-8"?>
<!-- Generator: Adobe Illustrator 26.3.1, SVG Export Plug-In . SVG Version: 6.00 Build 0)  -->
<svg version="1.1" id="Layer_1" xmlns="http://www.w3.org/2000/svg" xmlns:xlink="http://www.w3.org/1999/xlink" x="0px" y="0px"
	 viewBox="0 0 100 90" style="enable-background:new 0 0 100 90;" xml:space="preserve">
<style type="text/css">
	.st0{fill:#51A9A4;}
	.st1{fill:#FEFEFE;}
</style>
<g>
	<path class="st0" d="M88.6,61.8H11.4c-0.7,0-1.2-0.5-1.2-1.2V29.4c0-0.7,0.6-1.2,1.2-1.2h77.2c0.7,0,1.2,0.5,1.2,1.2v31.2
		C89.8,61.3,89.3,61.8,88.6,61.8z"/>
	<path class="st1" d="M27.1,44.7c-0.1,1-0.5,1.9-1,2.5c-0.9,1.1-2.1,1.6-3.6,1.6c-2,0-3.1-0.8-4.3-2c-1.1-1-1.7-2.7-1.7-3.9
		c0-0.8,0.2-1.4,0.6-2.3c0.4-0.9,0.9-1.4,1.5-2c1.2-1.1,2.6-1.6,4-1.6c1.2,0,2.2,0.3,2.9,0.9c0.6,0.5,0.9,1,0.9,1.7
		c0,0.4-0.1,0.7-0.3,0.9C26,40.8,25.7,41,25.4,41c-0.3,0-0.6-0.1-0.9-0.4c-0.2-0.3-0.4-0.6-0.4-0.9c0-0.4,0.2-0.8,0.6-1.2l0.1-0.2
		c0-0.5-0.7-0.7-2.1-0.7c-1.5,0-2.3,0.3-2.9,1c-0.6,0.7-0.7,2.1-0.7,4.1v1.3c0,1.4,0,2.5,0.4,3.2c0.4,0.9,1.4,1.4,2.9,1.4
		c1.2,0,2.2-0.3,2.9-1c0.8-0.7,1.2-1.6,1.5-2.8L27.1,44.7L27.1,44.7z"/>
	<path class="st1" d="M32,40.3c0.2-0.7,0.4-1.2,0.7-1.7c0.7-1,1.6-1.5,2.6-1.5c0.6,0,1,0.2,1.3,0.4c0.3,0.3,0.5,0.7,0.5,1.2
		c0,0.4-0.1,0.7-0.3,0.9c-0.2,0.2-0.5,0.3-0.8,0.3c-0.3,0-0.6-0.1-0.8-0.3c-0.2-0.2-0.3-0.5-0.3-0.9c0-0.4,0.2-0.8,0.6-1.1
		c0-0.1-1.3,0.2-2,0.8c-0.3,0.3-0.6,0.6-0.7,0.9c-0.2,0.3-0.3,0.7-0.5,1.3c-0.2,0.6-0.3,1.4-0.3,2.5v4.9h2.4v0.5h-6.7v-0.5h2.1V38
		h-2.1v-0.5h2.7c0.7,0,1.3-0.2,1.6-0.7V40.3z"/>
	<path class="st1" d="M46.1,44.9v-4c0-0.8,0-1.4-0.1-1.7c-0.1-0.3-0.3-0.6-0.5-1c-0.6-0.6-1.5-0.9-2.6-0.9c-1.2,0-2.1,0.3-2.7,0.9
		c-0.6,0.6-0.9,1.5-0.9,2.7v3.9c0,1.3,0.3,2.3,0.9,2.8c0.2,0.2,0.6,0.4,1.1,0.5c0.5,0.2,1,0.2,1.6,0.2c0.6,0,1.2-0.1,1.6-0.3
		c0.5-0.2,0.9-0.4,1.1-0.7C46,46.9,46.1,46.1,46.1,44.9z M42.9,37c1.2,0,2.5,0.5,3.6,1.5c1.4,1.2,2.1,2.7,2.1,4.4
		c0,1.6-0.6,3-1.8,4.2c-1.2,1.2-2.5,1.8-4,1.8c-1.6,0-3-0.6-4.2-1.8c-0.6-0.6-1-1.2-1.3-1.9c-0.3-0.7-0.5-1.4-0.5-2.1
		c0-0.8,0.2-1.6,0.6-2.4c0.4-0.8,1-1.5,1.7-2.1C40.2,37.5,41.6,37,42.9,37z"/>
	<path class="st1" d="M52.9,39.9c0.3-0.8,0.8-1.5,1.6-2.1c0.8-0.5,1.7-0.8,2.7-0.8c1.3,0,2.2,0.4,2.9,1.2c0.3,0.4,0.5,1,0.6,1.8
		c0.3-0.9,0.8-1.7,1.6-2.2c0.7-0.5,1.6-0.8,2.6-0.8c1.2,0,2.2,0.4,2.9,1.1c0.3,0.3,0.5,0.7,0.6,1.1c0.1,0.4,0.1,1.1,0.1,2v6.8h2.1
		v0.5H64v-0.5h2.1v-8.3c0-1.5-0.6-2.2-1.8-2.2c-1.1,0-2.1,0.6-2.9,1.7c-0.5,0.8-0.8,1.5-0.8,2v6.8h2.1v0.5h-6.5v-0.5h2.2v-8.7
		c0-0.6-0.1-1-0.4-1.3c-0.3-0.3-0.7-0.5-1.3-0.5c-0.8,0-1.6,0.3-2.3,0.9c-0.7,0.6-1.2,1.4-1.5,2.4v7.2H55v0.5h-6.4v-0.5h2.1V38h-2.1
		v-0.5h2.6c0.9,0,1.4-0.2,1.7-0.8V39.9z"/>
	<path class="st1" d="M78.8,42.6h-0.2c-2.3,0-3.9,0.3-4.6,0.9c-0.5,0.4-0.8,1.1-0.8,2.1c0,1,0.2,1.6,0.5,2.1
		c0.3,0.4,0.9,0.6,1.7,0.6c0.8,0,1.4-0.2,2.1-0.5c0.6-0.3,1-0.8,1.3-1.4L78.8,42.6L78.8,42.6z M78.8,42.2v-2.7
		c0-0.6-0.1-1.1-0.3-1.3c-0.2-0.3-0.5-0.5-1-0.6c-0.4-0.1-0.9-0.1-1.5-0.1c-0.9,0-1.6,0.1-2.2,0.4c-0.5,0.3-0.7,0.6-0.7,0.9
		c0,0.1,0.1,0.3,0.3,0.5c0.4,0.3,0.6,0.6,0.6,1c0,0.4-0.1,0.7-0.3,0.9c-0.2,0.2-0.5,0.3-0.8,0.3c-0.4,0-0.7-0.1-0.9-0.4
		c-0.2-0.3-0.4-0.6-0.4-1c0-0.8,0.4-1.6,1.3-2.2c0.9-0.6,1.9-0.9,3.1-0.9c1.4,0,2.9,0.2,3.9,0.9c0.6,0.4,0.8,0.7,1,1
		c0.1,0.3,0.2,0.8,0.2,1.3v4.9c0,1.4,0.1,2.2,0.2,2.4c0.1,0.5,0.5,0.7,0.8,0.6c0.4,0,0.7-0.2,0.9-1.1h0.5c-0.4,1.6-1.1,1.8-2.2,1.8
		c-0.7,0-1.3-0.2-1.7-0.5C79.2,48,79,47.5,78.9,47c-0.4,0.6-0.9,1.1-1.6,1.4c-0.7,0.3-1.4,0.5-2.4,0.5c-1.4,0-2.4-0.3-3-0.9
		c-0.6-0.5-1-1.2-1-1.9c0-0.6,0.2-1.2,0.7-1.8c0.5-0.6,1-1,1.7-1.3c0.7-0.3,1.4-0.5,2.4-0.6c1-0.2,2-0.2,2.9-0.2L78.8,42.2
		L78.8,42.2z M72.3,33.9v1.2h8.6v-1.2H72.3z"/>
	<path class="st1" d="M18.6,55.7v-2.9c0-0.2,0.1-0.3,0.1-0.3l0.1,0l0.2,0.2l0,0.1v3c0,0.2,0,0.3-0.1,0.3l-0.1,0l-0.2-0.1l0-0.1
		L18.6,55.7z M18.6,51.8v-0.3l0.1-0.3l0.1,0l0.3,0.2v0.4L19.1,52l-0.2,0.1C18.7,52.1,18.6,52,18.6,51.8z"/>
	<path class="st1" d="M20,55.7v-3.1l0.1-0.3l0.2,0l0.2,0.1l0,0.1v0.1l0.1-0.1l0.2-0.1l0.3-0.1l0.3,0c0.3,0,0.6,0.1,0.8,0.3
		c0.2,0.2,0.3,0.5,0.3,0.8v2.2L22.4,56l-0.1,0L22,55.9l0-0.2v-2.1c0-0.2,0-0.4-0.1-0.5c-0.1-0.1-0.2-0.2-0.5-0.2l-0.1,0h-0.1l-0.1,0
		c-0.4,0.1-0.6,0.3-0.6,0.7v2.1L20.3,56l-0.1,0L20,56L20,55.7z"/>
	<path class="st1" d="M23.6,53.8h1.2c0.2,0,0.3,0.1,0.3,0.3c0,0.2-0.1,0.3-0.3,0.3h-1.3l-0.2,0l-0.1-0.1l-0.1-0.2l0-0.1
		C23.3,53.9,23.4,53.8,23.6,53.8z"/>
	<path class="st1" d="M25.5,55.3c0-0.2,0.1-0.3,0.2-0.3l0.1,0l0.1,0l0.1,0.1c0.2,0.1,0.3,0.2,0.5,0.3l0.4,0.1c0.2,0,0.4,0,0.5-0.1
		l0.2-0.3l0-0.2c0-0.3-0.2-0.4-0.5-0.5l-0.3-0.1l-0.1,0l-0.2,0c-0.3-0.1-0.6-0.2-0.8-0.3c-0.2-0.1-0.2-0.3-0.2-0.6l0-0.2
		c0-0.2,0.2-0.4,0.4-0.6c0.2-0.2,0.5-0.2,0.8-0.2H27l0.1,0l0.2,0l0.2,0.1c0.2,0.1,0.4,0.2,0.5,0.3l0.1,0.3l-0.2,0.2l-0.1,0l-0.1,0
		l-0.1-0.1L27.4,53l-0.2-0.1l-0.1,0l-0.1,0l-0.2,0l-0.3,0L26.4,53l-0.2,0.4l0.2,0.4l0.2,0.1l0.3,0.1l0.2,0l0.2,0c0.7,0.2,1,0.5,1,1
		l0,0.3c-0.1,0.2-0.2,0.4-0.4,0.6c-0.2,0.2-0.5,0.2-0.8,0.2l-0.3,0l-0.4-0.1c-0.2-0.1-0.4-0.2-0.5-0.3L25.5,55.3z"/>
	<path class="st1" d="M28.6,52.5h0.2l0.1-0.1v-0.7l0.1-0.3l0.1,0l0.3,0.2v0.9l0.1,0h0.3l0.2,0.1l0.1,0.2L30,52.9L29.8,53h-0.3
		l-0.1,0v2.8L29.3,56l-0.2,0.1L29,56l0-0.2V53l-0.1,0h-0.2l-0.2-0.1l0-0.1L28.6,52.5L28.6,52.5z"/>
	<path class="st1" d="M30.7,54.2v0.2c0,0.4,0.1,0.7,0.2,0.9c0.1,0.2,0.3,0.3,0.6,0.3c0.3,0,0.5-0.1,0.6-0.3c0.1-0.2,0.2-0.5,0.2-0.9
		V54c0-0.4-0.1-0.7-0.2-0.9c-0.1-0.2-0.3-0.3-0.6-0.3c-0.3,0-0.5,0.1-0.6,0.3c-0.1,0.2-0.2,0.5-0.2,0.9V54.2z M30.2,54.2
		c0-0.6,0.1-1,0.2-1.3c0.2-0.3,0.5-0.4,0.8-0.5l0.1,0l0.1,0l0.2,0l0.1,0c0.4,0.1,0.7,0.3,0.8,0.6c0.2,0.3,0.2,0.8,0.2,1.6
		c0,0.4-0.1,0.8-0.3,1c-0.2,0.2-0.4,0.4-0.8,0.4l-0.3,0h-0.2l-0.1,0c-0.4-0.1-0.6-0.2-0.8-0.5C30.3,55.2,30.2,54.8,30.2,54.2z"/>
	<path class="st1" d="M33.6,55.7v-3.1c0-0.2,0.1-0.3,0.2-0.3l0.2,0.1l0.1,0.2v0.1l0.2-0.2l0.3-0.1l0.2,0l0.1,0
		c0.2,0,0.3,0.1,0.4,0.1l0.1,0.2l-0.1,0.2L35.2,53l-0.1,0L35,52.9l-0.2,0l-0.1,0c-0.2,0-0.3,0.1-0.4,0.2c-0.1,0.1-0.1,0.3-0.1,0.6
		v2.1L34,56l-0.1,0l-0.2-0.2L33.6,55.7L33.6,55.7z"/>
	<path class="st1" d="M37.4,53.9l0.1,0l0-0.2l0-0.1c0-0.2-0.1-0.4-0.3-0.5c-0.1-0.1-0.3-0.2-0.5-0.2l-0.3,0
		c-0.3,0.1-0.5,0.3-0.5,0.6l0,0.1l0,0.1v0.1l0,0.1l0.1,0H37.4z M37.9,54.4h-1.8l0,0.1v0.3c0,0.2,0.1,0.4,0.2,0.5
		c0.1,0.1,0.3,0.2,0.5,0.3l0.2,0c0.3,0,0.5-0.1,0.7-0.5l0.1-0.2l0.1,0l0.2,0l0.1,0.2L38,55.4l-0.2,0.3c-0.2,0.2-0.4,0.3-0.7,0.3
		L37,56l-0.2,0c-0.9,0-1.3-0.6-1.3-1.8c0-0.6,0.1-1.1,0.3-1.4c0.2-0.3,0.6-0.4,1-0.4c0.4,0,0.7,0.1,0.9,0.4c0.2,0.3,0.3,0.7,0.3,1.2
		v0.1l0,0.3L37.9,54.4L37.9,54.4z M40.6,51.3V56H41v-4.7H40.6z"/>
	<path class="st1" d="M44,54.2v0.2c0,0.4,0.1,0.7,0.2,0.9c0.1,0.2,0.3,0.3,0.6,0.3c0.3,0,0.5-0.1,0.6-0.3c0.1-0.2,0.2-0.5,0.2-0.9
		V54c0-0.4-0.1-0.7-0.2-0.9c-0.1-0.2-0.4-0.3-0.6-0.3c-0.3,0-0.5,0.1-0.6,0.3C44.1,53.3,44,53.6,44,54V54.2z M43.5,54.2
		c0-0.6,0.1-1,0.3-1.3c0.2-0.3,0.5-0.4,0.8-0.5l0.1,0l0.1,0l0.2,0l0.1,0c0.4,0.1,0.7,0.3,0.8,0.6c0.2,0.3,0.2,0.8,0.2,1.6
		c0,0.4-0.1,0.8-0.3,1c-0.2,0.2-0.4,0.4-0.8,0.4l-0.3,0h-0.2l-0.1,0c-0.4-0.1-0.7-0.2-0.8-0.5C43.6,55.2,43.5,54.8,43.5,54.2z"/>
	<path class="st1" d="M46.9,55.7v-3.1l0.1-0.3l0.1,0l0.2,0.1l0,0.1v0.1l0.1-0.1l0.2-0.1l0.3-0.1l0.3,0c0.3,0,0.6,0.1,0.8,0.3
		c0.2,0.2,0.3,0.5,0.3,0.8v2.2L49.3,56l-0.2,0l-0.2-0.1l0-0.2v-2.1c0-0.2,0-0.4-0.1-0.5c-0.1-0.1-0.2-0.2-0.4-0.2l-0.2,0h-0.1
		l-0.1,0c-0.4,0.1-0.6,0.3-0.6,0.7v2.1L47.3,56l-0.1,0L46.9,56L46.9,55.7z"/>
	<path class="st1" d="M50.3,55.7v-4.2c0-0.2,0.1-0.4,0.3-0.4l0.3,0.2v4.3c0,0.2-0.1,0.3-0.3,0.3C50.4,56,50.3,55.9,50.3,55.7z"/>
	<path class="st1" d="M51.6,55.7v-2.9c0-0.2,0.1-0.3,0.1-0.3l0.1,0l0.2,0.2l0,0.1v3c0,0.2,0,0.3-0.1,0.3l-0.1,0l-0.2-0.1l0-0.1
		L51.6,55.7z M51.6,51.8v-0.3l0.1-0.3l0.1,0l0.2,0.2v0.4L52.1,52l-0.2,0.1C51.7,52.1,51.6,52,51.6,51.8z"/>
	<path class="st1" d="M53,55.7v-3.1l0.1-0.3l0.1,0l0.2,0.1l0,0.1v0.1l0.1-0.1l0.2-0.1l0.3-0.1l0.3,0c0.3,0,0.6,0.1,0.8,0.3
		c0.2,0.2,0.3,0.5,0.3,0.8v2.2L55.4,56l-0.1,0L55,55.9l0-0.2v-2.1c0-0.2,0-0.4-0.1-0.5c-0.1-0.1-0.2-0.2-0.5-0.2l-0.1,0h-0.1l-0.1,0
		c-0.4,0.1-0.6,0.3-0.6,0.7v2.1L53.3,56l-0.1,0L53,56L53,55.7z"/>
	<path class="st1" d="M58.2,53.9l0.1,0l0-0.2l0-0.1c0-0.2-0.1-0.4-0.2-0.5c-0.1-0.1-0.3-0.2-0.5-0.2l-0.3,0
		c-0.3,0.1-0.5,0.3-0.5,0.6l0,0.1v0.2l0,0.1l0.1,0L58.2,53.9L58.2,53.9z M58.6,54.4h-1.8l0,0.1v0.3c0,0.2,0.1,0.4,0.2,0.5
		c0.1,0.1,0.3,0.2,0.5,0.3l0.2,0c0.3,0,0.5-0.1,0.7-0.5l0.1-0.2l0.1,0l0.2,0l0.1,0.2l-0.1,0.2l-0.2,0.3c-0.2,0.2-0.4,0.3-0.7,0.3
		l-0.1,0l-0.2,0c-0.9,0-1.3-0.6-1.3-1.8c0-0.6,0.1-1.1,0.3-1.4c0.2-0.3,0.6-0.4,1-0.4c0.4,0,0.7,0.1,1,0.4c0.2,0.3,0.3,0.7,0.3,1.2
		v0.1l0,0.3L58.6,54.4L58.6,54.4z M61.3,51.3V56h0.4v-4.7H61.3z"/>
	<path class="st1" d="M64.4,55.7v-3.1l0.1-0.3l0.1,0l0.2,0.2v0.2l0.1-0.1l0.2-0.1l0.3-0.1l0.3,0l0.2,0l0.3,0.1l0.4,0.3l0-0.1
		c0.2-0.2,0.4-0.3,0.7-0.4l0.2,0c0.3,0,0.6,0.1,0.8,0.3c0.2,0.2,0.3,0.4,0.3,0.7v2.3c0,0.2-0.1,0.3-0.3,0.3c-0.2,0-0.3-0.1-0.3-0.3
		v-2.2c0-0.2-0.1-0.4-0.2-0.5c-0.1-0.1-0.3-0.2-0.5-0.2h-0.1l-0.1,0l-0.3,0.3c-0.1,0.1-0.1,0.3-0.1,0.5v2.1c0,0.2,0,0.3-0.1,0.3
		l-0.1,0L66.4,56l-0.1-0.1v-2.2c0-0.3,0-0.4-0.1-0.6c-0.1-0.1-0.2-0.2-0.4-0.2h-0.1l-0.2,0c-0.4,0.1-0.6,0.3-0.6,0.8v2.1
		c0,0.2-0.1,0.3-0.3,0.3C64.4,56,64.4,55.9,64.4,55.7z"/>
	<path class="st1" d="M69.9,54.2v0.2c0,0.4,0.1,0.7,0.2,0.9c0.1,0.2,0.3,0.3,0.6,0.3s0.5-0.1,0.6-0.3c0.1-0.2,0.2-0.5,0.2-0.9V54
		c0-0.4-0.1-0.7-0.2-0.9c-0.1-0.2-0.3-0.3-0.6-0.3s-0.5,0.1-0.6,0.3c-0.1,0.2-0.2,0.5-0.2,0.9V54.2z M69.4,54.2c0-0.6,0.1-1,0.3-1.3
		c0.2-0.3,0.4-0.4,0.8-0.5l0.1,0l0.1,0l0.2,0l0.1,0c0.4,0.1,0.7,0.3,0.8,0.6c0.2,0.3,0.2,0.8,0.2,1.6c0,0.4-0.1,0.8-0.3,1
		c-0.2,0.2-0.5,0.4-0.8,0.4l-0.3,0h-0.2l-0.1,0c-0.4-0.1-0.7-0.2-0.8-0.5C69.5,55.2,69.4,54.8,69.4,54.2z"/>
	<path class="st1" d="M73.3,54.2v0.2c0,0.4,0.1,0.7,0.2,0.9c0.1,0.2,0.4,0.3,0.6,0.3c0.3,0,0.5-0.1,0.6-0.3c0.1-0.2,0.2-0.5,0.2-0.9
		v-0.4c0-0.4-0.1-0.7-0.2-0.8c-0.1-0.2-0.3-0.3-0.6-0.3s-0.5,0.1-0.6,0.3c-0.1,0.2-0.2,0.5-0.2,0.8L73.3,54.2z M72.8,55.7v-4.2
		c0-0.2,0.1-0.4,0.3-0.4l0.3,0.2v1.4l0,0l0-0.1l0,0l0.1,0c0.2-0.1,0.4-0.2,0.7-0.2l0.1,0l0.2,0c0.4,0.1,0.6,0.3,0.8,0.6
		c0.2,0.3,0.2,0.8,0.2,1.5c0,0.5-0.1,0.9-0.3,1.1c-0.2,0.3-0.5,0.4-0.9,0.4L74,56l-0.3-0.1l-0.2-0.1l0,0l0,0l0,0l0,0v0.2L73.3,56
		L73.1,56L73,56L72.8,55.7z"/>
	<path class="st1" d="M76.2,55.7v-2.9c0-0.2,0.1-0.3,0.1-0.3l0.1,0l0.2,0.2l0,0.1v3c0,0.2,0,0.3-0.1,0.3l-0.2,0l-0.2-0.1l-0.1-0.1
		L76.2,55.7z M76.2,51.8v-0.3l0.1-0.3l0.1,0l0.3,0.2v0.4L76.6,52l-0.2,0.1C76.2,52.1,76.2,52,76.2,51.8z"/>
	<path class="st1" d="M77.5,55.7v-4.2c0-0.2,0.1-0.4,0.3-0.4l0.3,0.2v4.3c0,0.2-0.1,0.3-0.2,0.3C77.6,56,77.5,55.9,77.5,55.7z"/>
	<path class="st1" d="M80.7,53.9l0.1,0l0-0.2l0-0.1c-0.1-0.2-0.1-0.4-0.3-0.5c-0.1-0.1-0.3-0.2-0.5-0.2l-0.3,0
		c-0.3,0.1-0.5,0.3-0.5,0.6l0,0.1l0,0.1v0.1l0,0.1l0.1,0H80.7z M81.1,54.4h-1.8l0,0.1v0.3c0,0.2,0.1,0.4,0.2,0.5
		c0.1,0.1,0.3,0.2,0.5,0.3l0.2,0c0.3,0,0.5-0.1,0.7-0.5l0.1-0.2l0.1,0l0.2,0l0.1,0.2l-0.1,0.2L81,55.7c-0.2,0.2-0.4,0.3-0.7,0.3
		l-0.2,0L80,56c-0.9,0-1.3-0.6-1.3-1.8c0-0.6,0.1-1.1,0.3-1.4c0.2-0.3,0.6-0.4,1-0.4c0.4,0,0.7,0.1,0.9,0.4c0.2,0.3,0.3,0.7,0.3,1.2
		v0.1l0,0.3L81.1,54.4L81.1,54.4z"/>
</g>
</svg>
