<?xml version="1.0" encoding="utf-8"?>
<!-- Generator: Adobe Illustrator 26.3.1, SVG Export Plug-In . SVG Version: 6.00 Build 0)  -->
<svg version="1.1" id="Layer_1" xmlns="http://www.w3.org/2000/svg" xmlns:xlink="http://www.w3.org/1999/xlink" x="0px" y="0px"
	 viewBox="0 0 100 90" style="enable-background:new 0 0 100 90;" xml:space="preserve">
<style type="text/css">
	.st0{fill:#01147C;}
	.st1{fill:url(#SVGID_1_);}
</style>
<g>
	<path class="st0" d="M70.3,62.7c1.6,0,3,0.6,3.9,1.9h0V63h2.1v11.2h-2.1v-1.7h0c-0.8,1.3-2.2,2-3.8,2c-3.3,0-5.9-2.5-5.9-5.7
		C64.4,65.2,67,62.7,70.3,62.7z M37,62.7c3.1,0,6,2.4,5.9,6c0,3-2.6,5.9-6.3,5.8c-3.1-0.1-5.8-2.8-5.7-5.9
		C30.9,65.2,33.6,62.7,37,62.7z M53.9,62.7c1.9,0,3.4,1.3,3.4,3.3h-2.1c-0.1-0.8-0.6-1.3-1.4-1.3c-0.8,0-1.3,0.5-1.3,1.2
		c0,0.9,1,1.2,2.1,1.6c1.6,0.5,3,1.4,3,3.5c0,2.2-1.6,3.6-3.7,3.6c-2,0-3.9-1.4-3.9-3.9h2.1c0.1,1.4,0.8,2,1.9,2
		c1,0,1.6-0.6,1.6-1.5c0-0.8-0.6-1.3-1.9-1.7c-2.7-0.9-3.2-2.1-3.2-3.3C50.4,64,52,62.7,53.9,62.7z M19,59.2c1.2,0,2.1,0.9,2.1,2.1
		v2.8h0c0.7-1,1.7-1.5,3.1-1.5c2.7,0,4.7,1.7,4.7,4.8v6.7h-2.1v-6.1c0-2.4-0.9-3.5-2.8-3.5c-1.8,0-2.9,1.3-2.9,3.5v6H19V59.2z
		 M47.4,59.2V63h1.8v1.9h-1.8v9.2c-1.2,0-2.1-0.9-2.1-2.1v-7.1h-0.9V63h0.9v-3.7H47.4L47.4,59.2z M61.9,59.2V63h1.8v1.9h-1.8v9.2
		c-1.2,0-2.1-0.9-2.1-2.1v-7.1H59V63h0.9v-3.7H61.9L61.9,59.2z M83.8,62.7v2.2c-1.8,0.1-2.7,1.2-2.7,3V72c0,1.2-0.9,2.1-2.1,2.1V63
		h2v1h0C81.5,63.2,82.4,62.8,83.8,62.7z M36.9,64.6c-2.4,0-4.4,2.3-3.8,4.9c0.4,1.8,2,3,3.9,3c2.1-0.1,3.9-1.8,3.9-4
		C40.8,66.3,39.1,64.6,36.9,64.6z M70.3,64.6c-2.2,0-4,2-3.8,4.4c0.2,1.9,1.8,3.5,3.7,3.6c2.2,0,4-1.8,4-3.9
		C74.2,66.4,72.7,64.6,70.3,64.6z"/>
	<path class="st0" d="M66.4,43.5c-1.1,0.3-4,0.4-4,0.4l-0.4,1.1c0,0,1.4-0.1,2.5,0c0,0,0.3,0,0.4,0.4c0,0.4,0,0.8,0,0.8
		s0,0.3-0.4,0.3c-0.4,0.1-3.1,0.2-3.1,0.2L61,48.2c0,0-0.2,0.3,0.2,0.2c0.3-0.1,3.2-0.6,3.6-0.6c0.4,0.1,0.8,0.6,0.7,1.1
		c-0.2,0.6-3,2.4-4.7,2.3c0,0-0.9,0.1-1.7-1.2c-0.7-1.2,0.3-3.4,0.3-3.4s-0.5-1-0.1-1.4c0,0,0.2-0.2,0.8-0.2l0.7-1.4
		c0,0-0.8,0.1-1.3-0.5c-0.4-0.6-0.5-0.8-0.1-1c0.4-0.2,3.7-0.8,5.9-0.7c0,0,0.8-0.1,1.5,1.3C66.7,42.8,67,43.4,66.4,43.5z
		 M57.9,49.1c-0.3,0.7-1.1,1.4-2,1c-0.9-0.5-2.5-3.5-2.5-3.5s-0.6-1.1-0.7-1.1c0,0-0.1-0.2-0.2,1c-0.1,1.3,0,3.7-0.5,4.1
		c-0.5,0.4-1,0.2-1.3-0.2c-0.3-0.4-0.4-1.5-0.2-3.3c0.2-1.9,0.6-3.8,1.2-4.4c0.6-0.6,1-0.2,1.2,0c0,0,0.7,0.7,1.9,2.6l0.2,0.4
		c0,0,1.1,1.9,1.2,1.8c0,0,0.1,0.1,0.2,0c0.1,0,0.1-0.6,0.1-0.6s-0.2-2-1.2-5.4c0,0-0.2-0.4,0-0.8c0.1-0.4,0.5-0.2,0.5-0.2
		s1.6,0.8,2.3,3.3C58.7,46.1,58.2,48.4,57.9,49.1z M50.2,42.6c-0.1,0.3-0.2,0.6-0.9,0.7c0,0-6.3,0.4-6.6,0.9c0,0-0.2,0.3,0.1,0.3
		c0.3,0.1,1.8,0.3,2.5,0.3c0.7,0,3.2,0,4.1,1.1c0,0,0.5,0.5,0.5,1.7c0,1.2-0.2,1.7-0.7,2.1c-0.5,0.4-4.8,2.3-7.5-0.6
		c0,0-1.3-1.4,0.4-2.5c0,0,1.2-0.7,4.4,0.1c0,0,0.9,0.3,0.9,0.7c-0.1,0.4-0.8,0.8-1.8,0.7c-1,0-1.8-0.5-1.6-0.4
		c0.1,0.1-1.1-0.6-1.5-0.2c-0.4,0.4-0.3,0.7,0.1,0.9c1,0.5,4.6,0.4,5.7-0.9c0,0,0.4-0.5-0.2-0.9c-0.7-0.4-2.6-0.6-3.3-0.7
		c-0.7,0-3.4,0-3.7-0.7c0,0-0.4-0.5,0-1.8c0.4-1.4,3.5-1.9,4.9-2.1c0,0,3.7-0.1,4.3,0.6C50.2,42.1,50.3,42.3,50.2,42.6z M39.8,50.8
		c-0.4,0.3-1.4,0.2-1.7-0.2c-0.3-0.3-0.4-1.6-0.3-3.7c0.1-2.1,0.1-4.6,0.5-5c0.5-0.4,0.8-0.1,0.9,0.2c0.2,0.3,0.4,0.6,0.5,1.2
		c0,0.7,0.2,4.1,0.2,4.1S40.2,50.5,39.8,50.8z M40.8,39.8c-1.3,0.4-2.2,0.3-2.9,0c-0.3,0.6-0.5,0.7-0.8,0.8c-0.4,0-0.7-0.6-0.8-0.7
		c-0.1-0.1-0.2-0.4,0-1c-0.7-0.7-0.8-1.5-0.7-2.1c0.2-0.7,1.4-3.3,5.2-3.6c0,0,1.8-0.1,2.2,0.8H43c0,0,1.8,0,1.8,1.6
		C44.8,37.1,42.8,39.1,40.8,39.8z M37.3,36.3c-0.4,0.6-0.4,1-0.2,1.2c0.4-0.7,1.2-1.7,2.4-2.5C38.5,35.1,37.8,35.5,37.3,36.3z
		 M42.5,35.2c-1.2,0.2-3,1.8-3.9,3.1c1.3,0.2,3.7,0.2,4.7-2C43.3,36.3,43.8,35,42.5,35.2z M74.6,47.6c-0.7,1.2-2.7,3.8-5.4,3.2
		c-0.9,2.1-1.6,4.3-2,7.5c0,0-0.1,0.6-0.6,0.4c-0.5-0.2-1.4-1-1.5-2.2c-0.2-1.6,0.5-4.2,1.9-7.2c-0.4-0.7-0.7-1.6-0.5-3
		c0,0,0.4-2.5,2.9-4.8c0,0,0.3-0.3,0.5-0.2c0.2,0.1,0.1,0.9-0.1,1.3c-0.2,0.4-1.3,2.4-1.3,2.4s-0.7,1.3-0.5,2.4
		c1.3-2.1,4.4-6.2,6.3-4.9c0.6,0.5,0.9,1.4,0.9,2.5C75.3,45.8,75,46.8,74.6,47.6z M74.1,44.3c0,0-0.1-0.8-0.9,0.1
		c-0.7,0.8-1.9,2.2-2.9,4.1c1-0.1,2.1-0.7,2.4-1C73.1,47.1,74.3,45.9,74.1,44.3z M37,45.3c-0.1,1.9-0.9,5-5.9,6.5
		c-3.3,1-6.5,0.5-8.2,0.1c0,0.7-0.1,1-0.2,1.1c-0.1,0.1-1.2,0.8-1.8-0.1c-0.3-0.4-0.4-1.2-0.5-1.9c-3.9-1.8-5.6-4.3-5.7-4.4
		c-0.1-0.1-1-1-0.1-2.1c0.8-1,3.5-2,6-2.4c0.1-2.1,0.3-3.6,0.6-4.4c0.4-0.8,0.8-0.1,1.2,0.5c0.3,0.4,0.5,2.2,0.5,3.7
		c1.6-0.1,2.5,0,4.3,0.4c2.3,0.4,3.9,1.6,3.7,2.9c-0.1,1.3-1.3,1.9-1.8,1.9c-0.5,0-1.2-0.3-1.2-0.3c-0.5-0.2,0-0.5,0.6-0.7
		c0.7-0.3,0.5-0.7,0.5-0.7c-0.3-0.7-3.2-1.2-6.2-1.2c0,1.6,0.1,4.4,0.1,6c2.1,0.4,3.6,0.3,3.6,0.3s7.6-0.2,7.8-5.1
		c0.2-4.9-7.6-9.5-13.4-11c-5.8-1.5-9.1-0.5-9.3-0.3c-0.3,0.2,0,0.2,0,0.2s0.3,0,0.9,0.2c0.6,0.2,0.1,0.5,0.1,0.5
		c-1,0.3-2.1,0.1-2.3-0.3c-0.2-0.5,0.1-0.9,0.6-1.4c0.4-0.6,0.9-0.6,0.9-0.6c7.1-2.5,15.9,2,15.9,2C35.7,38.6,37.1,43.5,37,45.3z
		 M15.4,45.1c-0.8,0.4-0.3,1-0.3,1c1.5,1.6,3.4,2.7,5.2,3.3c0.2-2.8,0.2-3.8,0.2-5.2C17.7,44.3,16.1,44.8,15.4,45.1z"/>
	<path class="st0" d="M89.8,44.5v1c0,0.2-0.2,0.4-0.4,0.4h-4.8c0,0.3,0,0.5,0,0.7c0,1.5-0.1,2.7-0.2,4.1c0,0.2-0.2,0.4-0.4,0.4h-1
		c-0.1,0-0.2,0-0.3-0.1c-0.1-0.1-0.1-0.2-0.1-0.3c0.1-1.4,0.2-2.6,0.2-4c0-0.2,0-0.4,0-0.7H78c-0.2,0-0.4-0.2-0.4-0.4v-1
		c0-0.2,0.2-0.4,0.4-0.4h4.7c-0.1-1.6-0.3-3.2-0.6-4.8c0-0.1,0-0.2,0.1-0.3c0.1-0.1,0.2-0.1,0.3-0.1h1.1c0.2,0,0.3,0.1,0.4,0.3
		c0.3,1.7,0.5,3.3,0.6,4.9h4.9C89.6,44.1,89.8,44.3,89.8,44.5z"/>
	
		<radialGradient id="SVGID_1_" cx="-159.2081" cy="625.2855" r="0.4902" gradientTransform="matrix(118.551 0 0 -118.551 18956.5352 74165.1875)" gradientUnits="userSpaceOnUse">
		<stop  offset="7.000001e-03" style="stop-color:#021192"/>
		<stop  offset="3.000000e-02" style="stop-color:#021096"/>
		<stop  offset="5.700000e-02" style="stop-color:#010CB4"/>
		<stop  offset="8.400000e-02" style="stop-color:#0008CE"/>
		<stop  offset="0.111" style="stop-color:#0006D7"/>
		<stop  offset="0.138" style="stop-color:#0004E1"/>
		<stop  offset="0.165" style="stop-color:#0001FA"/>
		<stop  offset="0.191" style="stop-color:#0000FE"/>
		<stop  offset="0.216" style="stop-color:#0F1EFF"/>
		<stop  offset="1" style="stop-color:#00FFFF;stop-opacity:0"/>
	</radialGradient>
	<path class="st1" d="M83.2,36.5c-2.5-6.1-6.7-11.3-12.1-15.1c-5.6-3.8-12.1-5.9-18.9-5.9c-11.3,0-21.7,5.6-27.9,15
		c-0.1,0.1-0.1,0.2,0,0.3c0,0.1,0.1,0.2,0.2,0.2l0.9,0.3c0.1,0,0.1,0,0.2,0c0.2,0,0.3-0.1,0.4-0.2c2.9-4.2,6.7-7.7,11.2-10.1
		c4.6-2.5,9.8-3.8,15.1-3.8c6.4,0,12.5,1.9,17.8,5.4c5.1,3.5,9.1,8.3,11.5,14c0.1,0.2,0.2,0.3,0.4,0.3h1c0.1,0,0.2-0.1,0.3-0.2
		C83.3,36.7,83.3,36.6,83.2,36.5z M25.4,31.2L25.4,31.2C25.5,31.2,25.4,31.2,25.4,31.2z M81.6,36.9C81.7,36.9,81.7,36.9,81.6,36.9
		C81.7,36.9,81.7,36.9,81.6,36.9z"/>
</g>
</svg>
