<svg width="400" height="300" viewBox="0 0 400 300" fill="none" xmlns="http://www.w3.org/2000/svg">
<path d="M241.516 186.046C244.842 186.046 247.636 187.279 249.404 189.868H249.485V186.664H253.758V209.425H249.485V205.892H249.404C247.801 208.602 244.924 210 241.679 210C235.024 210 229.601 204.987 229.601 198.414C229.601 191.142 234.819 186.046 241.516 186.046ZM173.581 186.046C179.865 186.046 185.782 190.977 185.701 198.209C185.618 204.409 180.324 210.223 172.823 209.992C166.463 209.799 161.057 204.333 161.131 197.971C161.212 191.107 166.649 186.046 173.581 186.046ZM208.011 186.046C211.792 186.046 214.873 188.677 214.997 192.703H210.724C210.518 191.061 209.574 189.951 207.806 189.951C206.162 189.951 205.136 191.061 205.136 192.373C205.136 194.306 207.111 194.881 209.368 195.58C212.573 196.565 215.531 198.496 215.531 202.728C215.531 207.123 212.325 210 207.889 210C203.781 210 199.835 207.206 199.835 201.946H204.11C204.315 204.701 205.711 206.097 207.97 206.097C209.943 206.097 211.258 204.823 211.258 202.974C211.258 201.413 210.067 200.387 207.395 199.524C201.808 197.756 200.863 195.332 200.863 192.743C200.863 188.716 204.272 186.046 208.011 186.046ZM136.987 179.022C139.347 179.022 141.26 180.935 141.26 183.295V189.088H141.344C142.699 187.074 144.877 186.048 147.712 186.048C153.135 186.048 157.203 189.498 157.203 195.744V209.425H152.929V197.059C152.929 192.17 151.04 189.951 147.26 189.951C143.52 189.951 141.26 192.662 141.26 197.1V209.425H136.987L136.987 179.022ZM194.822 179.022V186.664H198.563V190.567H194.82V209.425C192.462 209.425 190.547 207.512 190.547 205.152V190.567H188.783V186.664H190.547V179.022H194.82H194.822ZM224.503 179.022V186.664H228.244V190.567H224.505V209.425C222.145 209.425 220.232 207.512 220.232 205.152V190.567H218.466V186.664H220.232V179.022H224.505H224.503ZM269.126 186.048V190.443C265.428 190.567 263.538 192.825 263.538 196.648V205.152C263.538 207.512 261.625 209.425 259.265 209.425V186.664H263.251V188.716H263.333C264.359 187.198 266.127 186.213 269.126 186.048ZM173.375 189.951C168.475 189.951 164.33 194.705 165.652 200.002C166.55 203.593 169.824 206.196 173.526 206.095C177.896 205.973 181.426 202.482 181.426 197.963C181.426 193.523 177.852 189.951 173.375 189.951ZM241.638 189.951C237.127 189.951 233.487 194.025 233.905 198.838C234.252 202.807 237.495 206.016 241.476 206.095C245.991 206.186 249.569 202.451 249.569 198.085C249.569 193.647 246.362 189.951 241.638 189.951Z" fill="#01147C"/>
<path d="M233.685 146.989C231.439 147.503 225.528 147.8 225.528 147.8L224.779 150.139C224.779 150.139 227.727 149.89 229.879 150.108C229.879 150.108 230.581 150.03 230.659 150.903C230.69 151.714 230.597 152.588 230.597 152.588C230.597 152.588 230.55 153.118 229.802 153.243C228.991 153.383 223.438 153.586 223.438 153.586L222.534 156.627C222.534 156.627 222.206 157.329 222.955 157.126C223.657 156.939 229.474 155.847 230.238 156.003C231.049 156.206 231.954 157.282 231.689 158.28C231.377 159.497 225.575 163.209 222.035 162.944C222.035 162.944 220.179 163.068 218.603 160.557C217.137 158.171 219.165 153.633 219.165 153.633C219.165 153.633 218.245 151.512 218.915 150.81C218.915 150.81 219.321 150.451 220.475 150.357L221.894 147.41C221.894 147.41 220.272 147.519 219.305 146.334C218.401 145.195 218.338 144.68 219.024 144.369C219.757 144.01 226.511 142.778 231.158 142.934C231.158 142.934 232.78 142.778 234.168 145.585C234.153 145.585 234.839 146.724 233.685 146.989ZM216.202 158.312C215.609 159.715 214.034 161.213 212.084 160.277C210.15 159.341 207.078 153.056 207.078 153.056C207.078 153.056 205.908 150.716 205.69 150.763C205.69 150.763 205.44 150.311 205.284 152.868C205.128 155.426 205.315 160.402 204.302 161.181C203.335 161.961 202.165 161.649 201.557 160.729C201.011 159.824 200.777 157.672 201.073 153.898C201.432 150.124 202.305 146.1 203.428 144.836C204.551 143.589 205.456 144.493 205.799 144.821C205.799 144.821 207.296 146.178 209.776 150.17L210.213 150.903C210.213 150.903 212.458 154.678 212.692 154.662C212.692 154.662 212.88 154.834 213.035 154.709C213.269 154.647 213.176 153.43 213.176 153.43C213.176 153.43 212.708 149.328 210.665 142.372C210.665 142.372 210.353 141.499 210.571 140.688C210.774 139.861 211.601 140.251 211.601 140.251C211.601 140.251 214.782 141.842 216.311 147.02C217.824 152.245 216.794 156.908 216.202 158.312ZM200.574 145.008C200.309 145.538 200.153 146.302 198.812 146.505C198.812 146.505 185.976 147.379 185.368 148.283C185.368 148.283 184.915 148.813 185.617 148.969C186.319 149.11 189.22 149.5 190.624 149.578C192.121 149.593 197.174 149.64 198.983 151.902C198.983 151.902 200.059 152.978 200.013 155.411C199.966 157.906 199.529 158.779 198.562 159.684C197.548 160.526 188.846 164.425 183.231 158.436C183.231 158.436 180.642 155.551 184.12 153.368C184.12 153.368 186.631 151.855 193.01 153.633C193.01 153.633 194.944 154.335 194.85 155.036C194.741 155.785 193.259 156.58 191.107 156.534C189.017 156.471 187.489 155.473 187.785 155.629C188.066 155.738 185.539 154.413 184.759 155.317C183.98 156.144 184.167 156.658 184.931 157.173C186.881 158.28 194.414 157.891 196.659 155.395C196.659 155.395 197.548 154.381 196.192 153.555C194.835 152.775 190.951 152.307 189.438 152.229C187.988 152.151 182.592 152.245 181.812 150.81C181.812 150.81 181.032 149.843 181.89 147.098C182.794 144.228 189.08 143.121 191.793 142.871C191.793 142.871 199.264 142.606 200.636 144.135C200.621 144.135 200.808 144.493 200.574 145.008ZM179.363 161.836C178.459 162.507 176.54 162.211 175.994 161.462C175.448 160.791 175.261 158.124 175.37 153.945C175.48 149.718 175.573 144.478 176.478 143.651C177.445 142.809 178.037 143.542 178.412 144.119C178.817 144.68 179.301 145.304 179.41 146.63C179.503 147.956 179.815 154.912 179.815 154.912C179.815 154.912 180.221 161.181 179.363 161.836ZM181.313 139.409C178.677 140.282 176.868 139.986 175.339 139.331C174.669 140.501 174.279 140.859 173.764 140.937C173.015 141.015 172.345 139.814 172.22 139.424C172.095 139.128 171.737 138.629 172.173 137.444C170.676 136.102 170.567 134.293 170.816 133.077C171.191 131.673 173.717 126.339 181.406 125.715C181.406 125.715 185.165 125.435 185.804 127.447H185.914C185.914 127.447 189.563 127.462 189.485 130.706C189.438 133.966 185.43 138.021 181.313 139.409ZM174.138 132.188C173.359 133.436 173.327 134.184 173.686 134.699C174.575 133.342 176.197 131.205 178.583 129.583C176.743 129.739 175.199 130.535 174.138 132.188ZM184.759 130.098C182.342 130.457 178.599 133.701 176.821 136.352C179.55 136.851 184.37 136.664 186.506 132.313C186.491 132.313 187.52 129.614 184.759 130.098ZM250.389 155.224C248.938 157.75 244.868 163.022 239.44 161.79C237.646 166.141 236.149 170.523 235.291 177.105C235.291 177.105 235.104 178.384 234.044 177.932C232.999 177.557 231.252 175.811 230.909 173.393C230.535 170.212 231.954 164.831 234.839 158.67C233.997 157.298 233.42 155.333 233.919 152.541C233.919 152.541 234.652 147.363 239.846 142.684C239.846 142.684 240.469 142.138 240.828 142.31C241.234 142.481 241.046 144.166 240.719 144.977C240.391 145.788 238.068 149.812 238.068 149.812C238.068 149.812 236.617 152.525 237.023 154.662C239.752 150.467 245.959 141.998 249.812 144.665C251.106 145.585 251.699 147.597 251.699 149.765C251.683 151.683 251.231 153.711 250.389 155.224ZM249.266 148.58C249.266 148.58 249.047 146.911 247.425 148.751C246.022 150.295 243.495 153.212 241.452 157.157C243.589 156.924 245.647 155.754 246.271 155.161C247.285 154.257 249.64 151.824 249.266 148.58ZM173.546 150.701C173.249 154.475 171.799 160.823 161.521 163.957C154.737 166.001 148.326 165.018 144.833 164.129C144.755 165.517 144.599 166.11 144.381 166.344C144.084 166.64 141.87 167.919 140.653 166.11C140.107 165.252 139.827 163.692 139.671 162.304C131.81 158.686 128.192 153.477 128.051 153.243C127.88 153.071 126.086 151.2 127.88 148.907C129.564 146.833 135.07 144.758 140.029 143.916C140.201 139.674 140.7 136.477 141.293 135.011C142.01 133.311 142.915 134.839 143.694 135.993C144.349 136.851 144.739 140.547 144.771 143.495C148.015 143.339 149.933 143.573 153.551 144.228C158.261 145.086 161.412 147.488 161.131 150.217C160.928 152.9 158.464 154.007 157.528 154.085C156.546 154.163 155.017 153.461 155.017 153.461C153.972 152.962 154.939 152.525 156.203 151.98C157.575 151.309 157.263 150.623 157.263 150.623C156.748 149.125 150.635 148.08 144.552 148.08C144.521 151.434 144.693 157.002 144.771 160.246C149.028 161.057 152.21 160.901 152.21 160.901C152.21 160.901 167.744 160.464 168.212 150.545C168.695 140.61 152.725 131.08 140.918 128.055C129.127 124.967 122.452 127.119 121.875 127.415C121.251 127.727 121.828 127.821 121.828 127.821C121.828 127.821 122.468 127.914 123.575 128.289C124.745 128.663 123.84 129.271 123.84 129.271C121.828 129.911 119.567 129.505 119.13 128.585C118.694 127.665 119.427 126.838 120.269 125.653C121.111 124.405 122.031 124.452 122.031 124.452C136.614 119.399 154.378 128.538 154.378 128.538C171.019 136.976 173.858 146.864 173.546 150.701ZM129.533 150.186C127.88 150.997 129.018 152.167 129.018 152.167C132.122 155.504 135.943 157.594 139.577 158.889C139.998 153.134 139.936 151.106 139.982 148.205C134.305 148.595 131.03 149.5 129.533 150.186Z" fill="#01147C"/>
<path d="M281.269 149.001V151.06C281.269 151.512 280.91 151.871 280.458 151.871H270.648C270.648 152.385 270.664 152.838 270.664 153.259C270.664 156.3 270.539 158.78 270.243 161.571C270.196 161.993 269.853 162.304 269.447 162.304H267.326C267.108 162.304 266.905 162.211 266.765 162.055C266.624 161.899 266.546 161.681 266.577 161.462C266.874 158.686 267.014 156.238 267.014 153.259C267.014 152.822 267.014 152.37 266.998 151.871H257.298C256.845 151.871 256.487 151.512 256.487 151.06V149.001C256.487 148.549 256.845 148.19 257.298 148.19H266.858C266.655 144.837 266.25 141.608 265.595 138.333C265.564 138.13 265.61 137.927 265.735 137.772C265.86 137.616 266.047 137.522 266.25 137.522H268.543C268.901 137.522 269.198 137.772 269.276 138.13C269.915 141.515 270.32 144.805 270.523 148.19H280.458C280.895 148.19 281.269 148.564 281.269 149.001Z" fill="#01147C"/>
<path d="M267.919 132.671C262.85 120.21 254.288 109.589 243.152 101.947C231.751 94.133 218.385 90 204.504 90C181.547 90 160.242 101.401 147.531 120.506C147.391 120.709 147.36 120.974 147.438 121.208C147.516 121.458 147.703 121.629 147.937 121.707L149.715 122.316C149.824 122.347 149.933 122.362 150.027 122.362C150.354 122.362 150.666 122.191 150.853 121.926C156.686 113.348 164.578 106.22 173.686 101.292C183.091 96.2073 193.743 93.5092 204.489 93.5092C217.48 93.5092 230.004 97.3459 240.735 104.583C251.2 111.648 259.325 121.52 264.238 133.108C264.379 133.451 264.722 133.685 265.096 133.685H267.217C267.467 133.685 267.701 133.56 267.825 133.358C267.981 133.155 268.012 132.905 267.919 132.671ZM150.026 121.832H150.058C150.058 121.832 150.042 121.832 150.026 121.832ZM264.659 133.404C264.706 133.436 264.753 133.467 264.8 133.482C264.753 133.451 264.706 133.436 264.659 133.404Z" fill="url(#paint0_radial_12_87079)"/>
<defs>
<radialGradient id="paint0_radial_12_87079" cx="0" cy="0" r="1" gradientUnits="userSpaceOnUse" gradientTransform="translate(265.926 133.607) scale(118.551 118.551)">
<stop offset="0.007" stop-color="#021192"/>
<stop offset="0.03" stop-color="#021096"/>
<stop offset="0.057" stop-color="#010CB4"/>
<stop offset="0.084" stop-color="#0008CE"/>
<stop offset="0.111" stop-color="#0006D7"/>
<stop offset="0.138" stop-color="#0004E1"/>
<stop offset="0.165" stop-color="#0001FA"/>
<stop offset="0.191" stop-color="#0000FE"/>
<stop offset="0.216" stop-color="#0F1EFF"/>
<stop offset="1" stop-color="#00FFFF" stop-opacity="0"/>
</radialGradient>
</defs>
</svg>
