<svg width="400" height="300" viewBox="0 0 400 300" fill="none" xmlns="http://www.w3.org/2000/svg">
<path fill-rule="evenodd" clip-rule="evenodd" d="M207.625 186.56C209.93 186.56 211.779 188.409 211.779 190.713C211.779 193.018 209.93 194.867 207.625 194.867C205.321 194.867 203.445 193.018 203.445 190.713C203.445 188.409 205.321 186.56 207.625 186.56ZM263.763 201.86C263.977 194.867 275.205 194.223 281.716 198.162L279.304 202.905C277.054 201.351 275.124 200.628 272.659 200.815C270.301 201.003 270.06 203.548 273.865 203.468C279.787 203.307 283.002 206.442 282.681 210.435C282.172 216.893 271.989 219.546 263.066 213.892L266.362 209.068C268.854 210.515 271.319 211.775 273.811 211.48C276.41 211.185 277.697 209.095 273.088 208.613C266.791 207.943 263.656 205.933 263.763 201.86ZM214.806 216.973V197.064H222.068V199.851C224.882 195.188 235.815 195.108 235.815 202.396L235.841 216.946H228.606L228.526 206.952C228.499 202.932 227.025 202.557 225.069 202.798C223.435 202.986 221.988 203.575 221.988 206.952V216.946H214.806V216.973ZM211.377 196.715V216.973H203.847V196.715H211.377ZM167.136 216.973V197.064H174.398V199.851C176.569 196.233 184.929 194.465 187.341 200.065C190.77 194.974 200.739 195.188 200.739 202.128V216.946H193.048V206.094C193.048 203.173 192.539 202.905 190.074 203.013C188.064 203.093 187.609 204.781 187.609 206.657L187.555 217H180.347L180.266 207.005C180.213 202.986 179.355 202.664 177.372 202.852C175.443 203.039 174.586 203.307 174.586 207.005V217H167.136V216.973ZM154.06 195.59C159.982 195.59 164.752 200.36 164.752 206.282C164.752 212.204 159.982 216.973 154.06 216.973C148.165 216.973 143.368 212.204 143.368 206.282C143.395 200.387 148.165 195.59 154.06 195.59ZM154.06 202.477C156.177 202.477 157.865 204.192 157.865 206.282C157.865 208.399 156.15 210.087 154.06 210.087C151.943 210.087 150.255 208.372 150.255 206.282C150.282 204.192 151.97 202.477 154.06 202.477ZM114 216.973V188.784H122.387C125.04 188.784 127.318 188.945 129.193 189.213C131.069 189.507 132.623 189.963 133.802 190.552C136.294 191.812 138.197 193.527 139.537 195.644C140.876 197.761 141.546 200.172 141.546 202.879C141.546 205.585 140.876 207.97 139.563 210.087C138.224 212.204 136.321 213.892 133.802 215.178C132.57 215.794 131.042 216.25 129.167 216.518C127.291 216.812 124.772 216.946 121.637 216.946H114V216.973ZM122.36 209.551V196.26H125.79C126.889 196.26 127.8 196.34 128.577 196.474C129.354 196.608 129.97 196.823 130.453 197.117C131.471 197.734 132.248 198.538 132.811 199.529C133.347 200.521 133.615 201.673 133.615 202.932C133.615 204.192 133.347 205.344 132.811 206.335C132.275 207.327 131.498 208.131 130.453 208.747C129.944 209.042 129.327 209.256 128.55 209.39C127.773 209.524 126.755 209.578 125.469 209.578H122.36V209.551ZM248.489 195.59C254.384 195.59 259.181 200.36 259.181 206.282C259.181 212.204 254.384 216.973 248.489 216.973C242.594 216.973 237.797 212.204 237.797 206.282C237.797 200.387 242.594 195.59 248.489 195.59ZM248.489 202.477C250.606 202.477 252.294 204.192 252.294 206.282C252.294 208.399 250.606 210.087 248.489 210.087C246.372 210.087 244.684 208.372 244.684 206.282C244.684 204.192 246.372 202.477 248.489 202.477ZM261.405 186.613C263.066 186.613 264.486 187.605 265.103 189.025C265.585 190.124 265.638 191.49 265.317 192.669C264.888 194.465 263.361 196.206 260.199 197.841L259.315 196.662C259.931 196.153 260.574 195.59 260.815 195.215C261.297 194.518 260.681 194.679 260.172 194.518C258.538 194.009 257.332 192.482 257.332 190.66C257.358 188.436 259.181 186.613 261.405 186.613Z" fill="#0C6A93"/>
<path d="M285.226 196.528C285.521 196.528 285.789 196.608 286.084 196.742C286.352 196.903 286.593 197.117 286.727 197.385C286.888 197.653 286.968 197.948 286.968 198.27C286.968 198.564 286.888 198.859 286.754 199.154C286.593 199.422 286.379 199.663 286.111 199.797C285.816 199.958 285.548 200.011 285.226 200.011C284.932 200.011 284.61 199.931 284.342 199.797C284.074 199.636 283.833 199.422 283.699 199.154C283.538 198.859 283.485 198.591 283.485 198.27C283.485 197.975 283.565 197.653 283.699 197.385C283.86 197.091 284.074 196.876 284.369 196.742C284.637 196.608 284.932 196.528 285.226 196.528ZM285.226 196.823C284.958 196.823 284.744 196.876 284.503 197.01C284.288 197.144 284.101 197.305 283.967 197.546C283.833 197.76 283.779 198.028 283.779 198.27C283.779 198.538 283.833 198.779 283.967 198.993C284.101 199.234 284.262 199.422 284.503 199.529C284.717 199.663 284.985 199.717 285.226 199.717C285.494 199.717 285.735 199.663 285.95 199.529C286.164 199.395 286.352 199.234 286.486 198.993C286.62 198.779 286.673 198.511 286.673 198.27C286.673 198.002 286.593 197.76 286.486 197.546C286.352 197.305 286.164 197.117 285.923 197.01C285.709 196.876 285.468 196.823 285.226 196.823ZM284.449 199.261V197.359H285.092C285.307 197.359 285.468 197.385 285.575 197.412C285.655 197.439 285.735 197.492 285.789 197.6C285.843 197.68 285.869 197.787 285.869 197.868C285.869 198.002 285.816 198.136 285.709 198.243C285.628 198.35 285.494 198.404 285.307 198.404C285.387 198.43 285.441 198.457 285.468 198.511C285.548 198.591 285.628 198.698 285.762 198.886L285.977 199.261H285.601L285.441 198.966C285.307 198.725 285.2 198.564 285.119 198.538C285.066 198.484 284.985 198.457 284.878 198.457H284.69V199.261H284.449ZM284.744 198.189H285.119C285.28 198.189 285.414 198.162 285.468 198.109C285.548 198.055 285.575 197.975 285.575 197.894C285.575 197.841 285.548 197.787 285.521 197.734C285.494 197.68 285.441 197.653 285.387 197.626C285.334 197.6 285.226 197.6 285.092 197.6H284.744V198.189Z" fill="#0074AD"/>
<path fill-rule="evenodd" clip-rule="evenodd" d="M185.84 110.004L212.1 83.824C213.199 82.7253 214.994 82.7253 216.093 83.824L240.879 108.691C241.978 109.789 241.978 111.585 240.879 112.683L214.592 138.863L185.84 110.004ZM209.394 105.368C212.154 102.608 216.602 102.635 219.362 105.395C222.122 108.155 222.095 112.63 219.335 115.363C216.575 118.123 212.1 118.096 209.367 115.336C206.607 112.576 206.634 108.128 209.394 105.368Z" fill="#E92944"/>
<path fill-rule="evenodd" clip-rule="evenodd" d="M189.538 135.38C192.298 132.646 196.746 132.646 199.506 135.406C202.266 138.166 202.239 142.614 199.479 145.374C196.719 148.108 192.244 148.108 189.511 145.348C186.778 142.614 186.778 138.14 189.538 135.38ZM168.905 135.46C171.665 132.7 176.113 132.727 178.873 135.487C181.606 138.247 181.606 142.695 178.846 145.455C176.086 148.188 171.611 148.188 168.878 145.428C166.145 142.668 166.145 138.193 168.905 135.46ZM157.677 138.086L183.937 111.906L212.716 140.792L186.456 166.972C185.358 168.071 183.562 168.071 182.464 166.945L157.677 142.079C156.579 140.98 156.579 139.185 157.677 138.086Z" fill="#0C6A93"/>
<path d="M195.594 167.91V164.373H194.254V163.756H197.63V164.373H196.29V167.91H195.594ZM198.086 167.91V163.756H199.104L200.149 167.079L201.167 163.756H202.159V167.91H201.516V164.426L200.444 167.91H199.827L198.729 164.373V167.91H198.086Z" fill="#0C6A93"/>
</svg>
