<?xml version="1.0" encoding="utf-8"?>
<!-- Generator: Adobe Illustrator 26.3.1, SVG Export Plug-In . SVG Version: 6.00 Build 0)  -->
<svg version="1.1" id="Layer_1" xmlns="http://www.w3.org/2000/svg" xmlns:xlink="http://www.w3.org/1999/xlink" x="0px" y="0px"
	 viewBox="0 0 100 90" style="enable-background:new 0 0 100 90;" xml:space="preserve">
<style type="text/css">
	.st0{fill-rule:evenodd;clip-rule:evenodd;fill:#0C6A93;}
	.st1{fill:#0074AD;}
	.st2{fill-rule:evenodd;clip-rule:evenodd;fill:#E92944;}
	.st3{fill:#0C6A93;}
</style>
<g>
	<path class="st0" d="M53.3,61.8c1.1,0,1.9,0.9,1.9,1.9c0,1.1-0.9,1.9-1.9,1.9c-1.1,0-1.9-0.9-1.9-1.9
		C51.4,62.7,52.2,61.8,53.3,61.8z M79.1,68.9c0.1-3.2,5.3-3.5,8.3-1.7l-1.1,2.2c-1-0.7-1.9-1-3.1-1c-1.1,0.1-1.2,1.3,0.6,1.2
		c2.7-0.1,4.2,1.4,4.1,3.2c-0.2,3-4.9,4.2-9,1.6l1.5-2.2c1.1,0.7,2.3,1.2,3.4,1.1c1.2-0.1,1.8-1.1-0.3-1.3
		C80.5,71.7,79.1,70.8,79.1,68.9z M56.6,75.8v-9.2h3.3V68c1.3-2.1,6.3-2.2,6.3,1.2l0,6.7H63l0-4.6c0-1.9-0.7-2-1.6-1.9
		c-0.8,0.1-1.4,0.4-1.4,1.9v4.6L56.6,75.8L56.6,75.8z M55,66.5v9.3h-3.5v-9.3H55z M34.6,75.8v-9.2H38V68c1-1.7,4.8-2.5,6,0.1
		c1.6-2.3,6.2-2.2,6.2,1v6.8h-3.5v-5c0-1.3-0.2-1.5-1.4-1.4c-0.9,0-1.1,0.8-1.1,1.7l0,4.8h-3.3l0-4.6c0-1.9-0.4-2-1.3-1.9
		c-0.9,0.1-1.3,0.2-1.3,1.9v4.6L34.6,75.8L34.6,75.8z M28.6,66c2.7,0,4.9,2.2,4.9,4.9c0,2.7-2.2,4.9-4.9,4.9c-2.7,0-4.9-2.2-4.9-4.9
		C23.7,68.2,25.9,66,28.6,66z M28.6,69.2c1,0,1.8,0.8,1.8,1.8c0,1-0.8,1.8-1.8,1.8c-1,0-1.8-0.8-1.8-1.8
		C26.9,70,27.7,69.2,28.6,69.2z M10.2,75.8v-13H14c1.2,0,2.3,0.1,3.1,0.2c0.9,0.1,1.6,0.3,2.1,0.6c1.1,0.6,2,1.4,2.6,2.3
		c0.6,1,0.9,2.1,0.9,3.3c0,1.2-0.3,2.3-0.9,3.3c-0.6,1-1.5,1.8-2.7,2.3c-0.6,0.3-1.3,0.5-2.1,0.6c-0.9,0.1-2,0.2-3.5,0.2L10.2,75.8
		L10.2,75.8z M14,72.4v-6.1h1.6c0.5,0,0.9,0,1.3,0.1c0.4,0.1,0.6,0.2,0.9,0.3c0.5,0.3,0.8,0.7,1.1,1.1c0.2,0.5,0.4,1,0.4,1.6
		c0,0.6-0.1,1.1-0.4,1.6c-0.2,0.5-0.6,0.8-1.1,1.1c-0.2,0.1-0.5,0.2-0.9,0.3c-0.4,0.1-0.8,0.1-1.4,0.1L14,72.4L14,72.4z M72.1,66
		c2.7,0,4.9,2.2,4.9,4.9c0,2.7-2.2,4.9-4.9,4.9c-2.7,0-4.9-2.2-4.9-4.9C67.2,68.2,69.4,66,72.1,66z M72.1,69.2c1,0,1.8,0.8,1.8,1.8
		c0,1-0.8,1.8-1.8,1.8c-1,0-1.8-0.8-1.8-1.8S71.1,69.2,72.1,69.2z M78.1,61.9c0.8,0,1.4,0.5,1.7,1.1c0.2,0.5,0.2,1.1,0.1,1.7
		c-0.2,0.8-0.9,1.6-2.4,2.4l-0.4-0.5c0.3-0.2,0.6-0.5,0.7-0.7c0.2-0.3-0.1-0.2-0.3-0.3c-0.8-0.2-1.3-0.9-1.3-1.8
		C76.2,62.7,77,61.9,78.1,61.9z"/>
	<path class="st1" d="M89,66.4c0.1,0,0.3,0,0.4,0.1c0.1,0.1,0.2,0.2,0.3,0.3c0.1,0.1,0.1,0.3,0.1,0.4c0,0.1,0,0.3-0.1,0.4
		c-0.1,0.1-0.2,0.2-0.3,0.3C89.3,68,89.2,68,89,68c-0.1,0-0.3,0-0.4-0.1c-0.1-0.1-0.2-0.2-0.3-0.3c-0.1-0.1-0.1-0.3-0.1-0.4
		c0-0.1,0-0.3,0.1-0.4c0.1-0.1,0.2-0.2,0.3-0.3C88.8,66.5,88.9,66.4,89,66.4z M89,66.6c-0.1,0-0.2,0-0.3,0.1
		c-0.1,0.1-0.2,0.1-0.2,0.2c-0.1,0.1-0.1,0.2-0.1,0.3c0,0.1,0,0.2,0.1,0.3c0.1,0.1,0.1,0.2,0.2,0.2c0.1,0.1,0.2,0.1,0.3,0.1
		c0.1,0,0.2,0,0.3-0.1c0.1-0.1,0.2-0.1,0.2-0.2c0.1-0.1,0.1-0.2,0.1-0.3c0-0.1,0-0.2-0.1-0.3c-0.1-0.1-0.1-0.2-0.3-0.2
		C89.2,66.6,89.1,66.6,89,66.6z M88.7,67.7v-0.9H89c0.1,0,0.2,0,0.2,0c0,0,0.1,0,0.1,0.1c0,0,0,0.1,0,0.1c0,0.1,0,0.1-0.1,0.2
		c0,0-0.1,0.1-0.2,0.1c0,0,0.1,0,0.1,0c0,0,0.1,0.1,0.1,0.2l0.1,0.2h-0.2l-0.1-0.1c-0.1-0.1-0.1-0.2-0.1-0.2c0,0-0.1,0-0.1,0h-0.1
		v0.4H88.7z M88.8,67.2H89c0.1,0,0.1,0,0.2,0c0,0,0-0.1,0-0.1c0,0,0,0,0-0.1c0,0,0,0-0.1,0c0,0-0.1,0-0.1,0h-0.2V67.2z"/>
	<path class="st2" d="M43.3,26.6l12.1-12.1c0.5-0.5,1.3-0.5,1.8,0L68.6,26c0.5,0.5,0.5,1.3,0,1.8L56.5,39.9L43.3,26.6z M54.1,24.4
		c1.3-1.3,3.3-1.3,4.6,0c1.3,1.3,1.3,3.3,0,4.6c-1.3,1.3-3.3,1.3-4.6,0C52.8,27.8,52.8,25.7,54.1,24.4z"/>
	<path class="st0" d="M45,38.3c1.3-1.3,3.3-1.3,4.6,0c1.3,1.3,1.3,3.3,0,4.6c-1.3,1.3-3.3,1.3-4.6,0C43.7,41.6,43.7,39.5,45,38.3z
		 M35.5,38.3c1.3-1.3,3.3-1.3,4.6,0c1.3,1.3,1.3,3.3,0,4.6c-1.3,1.3-3.3,1.3-4.6,0C34.2,41.6,34.2,39.6,35.5,38.3z M30.3,39.5
		l12.1-12.1l13.3,13.3L43.5,52.8c-0.5,0.5-1.3,0.5-1.8,0L30.3,41.4C29.8,40.8,29.8,40,30.3,39.5z"/>
	<path class="st3" d="M47.7,53.2v-1.6h-0.6v-0.3h1.6v0.3h-0.6v1.6H47.7z M48.9,53.2v-1.9h0.5l0.5,1.5l0.5-1.5h0.5v1.9h-0.3v-1.6
		L50,53.2h-0.3l-0.5-1.6v1.6H48.9z"/>
</g>
</svg>
