<?xml version="1.0" encoding="utf-8"?>
<!-- Generator: Adobe Illustrator 26.3.1, SVG Export Plug-In . SVG Version: 6.00 Build 0)  -->
<svg version="1.1" id="Layer_1" xmlns="http://www.w3.org/2000/svg" xmlns:xlink="http://www.w3.org/1999/xlink" x="0px" y="0px"
	 viewBox="0 0 100 90" style="enable-background:new 0 0 100 90;" xml:space="preserve">
<style type="text/css">
	.st0{fill:url(#SVGID_1_);stroke:#FCD109;stroke-width:9.400000e-02;}
	.st1{fill:#F8F3B5;}
	.st2{fill:none;stroke:#F8F3B5;stroke-width:9.400000e-02;}
	.st3{fill:#F7B402;stroke:#F7B402;stroke-width:9.400000e-02;}
	.st4{fill:#BDA727;stroke:#BDA727;stroke-width:9.400000e-02;}
	.st5{fill:#F7E62D;stroke:#F7E62D;stroke-width:9.400000e-02;}
	.st6{fill:url(#SVGID_00000073712586975727581740000005083968509192214420_);stroke:#FCD109;stroke-width:9.400000e-02;}
	.st7{fill:url(#SVGID_00000174576493068215570470000004388446551304198784_);stroke:#FCD109;stroke-width:9.400000e-02;}
	.st8{fill:url(#SVGID_00000013876810426746884080000002491647864346658183_);stroke:#FCD109;stroke-width:9.400000e-02;}
	.st9{fill:#0D69B3;stroke:#0D69B3;stroke-width:9.400000e-02;}
	.st10{fill:#107BD4;stroke:#107BD4;stroke-width:9.400000e-02;}
	.st11{fill:#FFFFFF;stroke:#FFFFFF;stroke-width:9.400000e-02;}
	.st12{fill:none;stroke:#D1D1D1;stroke-width:2;}
	.st13{fill:#107BD4;stroke:#107BD4;stroke-width:0.101;}
</style>
<g>
	
		<linearGradient id="SVGID_1_" gradientUnits="userSpaceOnUse" x1="79.2941" y1="53.9634" x2="79.2941" y2="36.481" gradientTransform="matrix(1 0 0 -1 0 92)">
		<stop  offset="0" style="stop-color:#F7E830"/>
		<stop  offset="1" style="stop-color:#FDCB06"/>
	</linearGradient>
	<path class="st0" d="M89.9,38.1C89.9,38.1,89.9,38.1,89.9,38.1C82.8,38,75.8,38,68.7,38c0,0,0,0,0,0.1c0,5.5,0,10.9,0,16.4
		c0,0.3,0.2,0.6,0.4,0.8c0,0,0,0,0,0c0.1,0.1,0.3,0.2,0.4,0.2c0.1,0,0.2,0,0.3,0h8.7c0.1,0,0.2,0,0.2,0c0,0,0,0,0,0c0,0,0,0,0-0.1
		c0.2-1,0.4-2.1,0.6-3.1l0-0.1c-0.8,0-1.6,0-2.4,0c-0.2,0-0.4,0-0.6,0c-0.3,0-0.7,0-1,0c-0.4,0-0.8,0-1.2,0c-0.3,0-0.7,0-1,0
		c-0.2,0-0.4,0-0.7,0c-0.4,0-0.7,0-1.1-0.1c-0.4,0-0.7,0-1.1,0c0,0,0,0,0,0c0.1,0,0.2,0,0.4,0c0.3,0,0.6,0,0.8-0.1
		c0.3,0,0.6,0,0.9,0c0.3,0,0.5,0,0.8-0.1c0.3,0,0.6,0,0.9,0c0.2,0,0.5,0,0.7,0c0.3,0,0.6,0,0.9,0c0.3,0,0.6,0,0.9-0.1
		c0-0.1,0-0.2-0.1-0.3c0-0.1-0.1-0.1-0.2-0.1c-0.6-0.1-1.3-0.2-1.9-0.3c0,0,0.1,0,0.1,0c0.5,0,1-0.1,1.5-0.1c0.1,0,0.2,0,0.3,0
		c-0.1-0.2-0.1-0.3-0.1-0.5c-1.1-0.2-2.1-0.3-3.2-0.5c0.3,0,0.6-0.1,0.8-0.1l0,0c0.9-0.1,1.8-0.2,2.7-0.3c1.1,0,2.2,0,3.4,0
		c0,0,0.1,0,0.1,0c0.1-0.5,0.2-1,0.3-1.4c0.1-0.7,0.3-1.3,0.6-1.9c0.5-1,1.3-1.8,2.2-2.4c0.9-0.5,1.9-0.8,2.9-0.8c0.3,0,0.7,0,1,0
		c0.2,0.1,0.4,0.1,0.6,0.3c0.1,0.1,0.2,0.3,0.3,0.4c0.1,0.4,0.2,0.8,0.3,1.2c0,0.2,0,0.4-0.1,0.5c-0.1,0.1-0.3,0.2-0.4,0.3
		c-0.6,0.1-1.2,0-1.7,0.1c-0.5,0.1-0.9,0.4-1.2,0.7c-0.4,0.4-0.5,1-0.6,1.5c-0.1,0.5-0.2,1-0.3,1.5c0.6,0,1.1,0,1.7,0
		c0.2,0,0.5,0.1,0.6,0.3c0.1,0.3,0.1,0.6,0.1,0.9c0,0.3-0.1,0.6-0.3,0.9c-0.1,0.3-0.3,0.5-0.6,0.6c-0.1,0.1-0.3,0-0.4,0
		c-0.5,0-1,0-1.5,0c-0.1,0.4-0.1,0.7-0.2,1.1c-0.1,0.7-0.3,1.4-0.4,2.2c0,0,0,0.1,0,0.1c0.2,0,0.5,0,0.7,0c1.7,0,3.5,0,5.2,0
		c0.2,0,0.4,0,0.5-0.1c0.1,0,0.2-0.1,0.2-0.2c0.1,0,0.1-0.1,0.2-0.2c0.1-0.1,0.2-0.3,0.2-0.4c0,0,0,0,0,0
		C89.9,49.1,89.9,43.6,89.9,38.1z"/>
	<path class="st1" d="M71.5,34.5c0.3-0.1,0.5,0,0.8,0c4.9,0,9.7,0,14.6,0c0.3,0,0.5,0.2,0.8,0.2c0.2,0.1,0.4,0.2,0.7,0.2
		c0,0,0.1,0.1,0.1,0.1c0,0.4,0,0.8,0,1.2c0,0.1,0,0.2,0,0.3c0.1,0,0.1,0.1,0.1,0.1c0.2,0.1,0.4,0.2,0.5,0.4c0.3,0.2,0.6,0.4,0.8,0.6
		c0,0.1,0,0.2,0,0.2c0,0.1,0,0.2,0,0.3c-7,0-14.1,0-21.1,0c0-0.1,0-0.2,0-0.3c0-0.1,0-0.2,0-0.2c0.3-0.2,0.6-0.4,0.9-0.6
		c0.2-0.1,0.4-0.2,0.5-0.4c0-0.1,0-0.1,0-0.2c0-0.4,0-0.9,0-1.3c0.1-0.1,0.3-0.1,0.4-0.2C70.9,34.7,71.2,34.6,71.5,34.5 M71.5,34.6
		c-0.4,0.1-0.8,0.3-1.1,0.4c-0.1,0-0.1,0.1-0.1,0.1c0,0,0,0.1,0,0.1c0,0.4,0,0.7,0,1.1c0,0.1,0,0.2,0,0.3c0,0-0.1,0.1-0.1,0.1
		c-0.4,0.3-0.8,0.6-1.3,0.9c-0.1,0-0.2,0.1-0.1,0.2c0,0.1,0,0.1,0.1,0.1c0.9,0,1.9,0,2.8,0c1.4,0,2.8,0,4.2,0l0,0c0.1,0,0.1,0,0.2,0
		c2.5,0,5,0,7.6,0c0.8,0,1.6,0,2.4,0c1.3,0,2.6,0,3.9,0c0,0,0.1,0,0-0.1c0,0,0-0.1,0-0.1c-0.2-0.1-0.4-0.3-0.6-0.4
		c-0.1-0.1-0.2-0.1-0.2-0.2c-0.2-0.1-0.4-0.3-0.6-0.4c0,0-0.1-0.1-0.1-0.1c0-0.1,0-0.1,0-0.2c0-0.4,0-0.8,0-1.1c0-0.1,0-0.1,0-0.2
		c-0.4-0.1-0.7-0.3-1.1-0.4c-0.1-0.1-0.2-0.1-0.4-0.1H71.7C71.6,34.5,71.6,34.6,71.5,34.6L71.5,34.6z"/>
	<path class="st2" d="M71.5,34.5c0.3-0.1,0.5,0,0.8,0c4.9,0,9.7,0,14.6,0c0.3,0,0.5,0.2,0.8,0.2c0.2,0.1,0.4,0.2,0.7,0.2
		c0,0,0.1,0.1,0.1,0.1c0,0.4,0,0.8,0,1.2c0,0.1,0,0.2,0,0.3c0.1,0,0.1,0.1,0.1,0.1c0.2,0.1,0.4,0.2,0.5,0.4c0.3,0.2,0.6,0.4,0.8,0.6
		c0,0.1,0,0.2,0,0.2c0,0.1,0,0.2,0,0.3c-7,0-14.1,0-21.1,0c0-0.1,0-0.2,0-0.3c0-0.1,0-0.2,0-0.2c0.3-0.2,0.6-0.4,0.9-0.6
		c0.2-0.1,0.4-0.2,0.5-0.4c0-0.1,0-0.1,0-0.2c0-0.4,0-0.9,0-1.3c0.1-0.1,0.3-0.1,0.4-0.2C70.9,34.7,71.2,34.6,71.5,34.5 M71.5,34.6
		c-0.4,0.1-0.8,0.3-1.1,0.4c-0.1,0-0.1,0.1-0.1,0.1c0,0,0,0.1,0,0.1c0,0.4,0,0.7,0,1.1c0,0.1,0,0.2,0,0.3c0,0-0.1,0.1-0.1,0.1
		c-0.4,0.3-0.8,0.6-1.3,0.9c-0.1,0-0.2,0.1-0.1,0.2c0,0.1,0,0.1,0.1,0.1c0.9,0,1.9,0,2.8,0c1.4,0,2.8,0,4.2,0l0,0c0.1,0,0.1,0,0.2,0
		c2.5,0,5,0,7.6,0c0.8,0,1.6,0,2.4,0c1.3,0,2.6,0,3.9,0c0,0,0.1,0,0-0.1c0,0,0-0.1,0-0.1c-0.2-0.1-0.4-0.3-0.6-0.4
		c-0.1-0.1-0.2-0.1-0.2-0.2c-0.2-0.1-0.4-0.3-0.6-0.4c0,0-0.1-0.1-0.1-0.1c0-0.1,0-0.1,0-0.2c0-0.4,0-0.8,0-1.1c0-0.1,0-0.1,0-0.2
		c-0.4-0.1-0.7-0.3-1.1-0.4c-0.1-0.1-0.2-0.1-0.4-0.1H71.7C71.6,34.5,71.6,34.6,71.5,34.6L71.5,34.6z"/>
	<path class="st3" d="M70.2,35.2c0.3,0.1,0.5,0.2,0.8,0.3c0.1,0.1,0.2,0.2,0.2,0.3c-0.1,0.1-0.1,0.1-0.2,0.2
		c-0.3,0.2-0.6,0.4-0.8,0.6c0-0.1,0-0.2,0-0.3C70.2,35.9,70.2,35.5,70.2,35.2L70.2,35.2z M87.5,35.5c0.3-0.1,0.5-0.2,0.8-0.3
		c0,0.4,0,0.8,0,1.1c0,0.1,0,0.1,0,0.2c-0.2-0.2-0.5-0.3-0.7-0.5c-0.1-0.1-0.2-0.1-0.3-0.2C87.3,35.7,87.4,35.5,87.5,35.5L87.5,35.5
		z"/>
	<path class="st4" d="M74.8,35.6c0.3-0.1,0.7,0.2,0.7,0.6c0,0.3-0.4,0.6-0.7,0.5c-0.1,0-0.3-0.1-0.3-0.2c-0.1-0.2-0.1-0.4,0-0.5
		C74.5,35.7,74.6,35.6,74.8,35.6L74.8,35.6z M83.3,35.8c0.1-0.2,0.4-0.2,0.6-0.2c0.2,0,0.3,0.1,0.4,0.3c0.1,0.3,0,0.6-0.2,0.7
		c-0.2,0.1-0.5,0.1-0.7-0.1C83.1,36.3,83.1,36,83.3,35.8L83.3,35.8z"/>
	<path class="st5" d="M71.1,36c0.1,0,0.1-0.1,0.2-0.2l0,0c0,0.2,0,0.3,0,0.5c0,0.5,0,0.9,0,1.4c-0.9,0-1.7,0-2.6,0
		c0-0.1,0.1-0.2,0.1-0.2c0.4-0.3,0.8-0.6,1.3-0.9c0,0,0.1-0.1,0.1-0.1C70.5,36.3,70.8,36.2,71.1,36L71.1,36z M87.3,35.9
		c0,0,0-0.1,0-0.1c0.1,0.1,0.2,0.2,0.3,0.2c0.2,0.2,0.5,0.3,0.7,0.5c0,0,0.1,0.1,0.1,0.1c0.2,0.1,0.4,0.3,0.6,0.4
		c0.1,0.1,0.1,0.1,0.2,0.2c0.2,0.1,0.4,0.3,0.6,0.4c0.1,0,0,0.1,0,0.1c-0.9,0-1.7,0-2.6,0c0-0.1,0-0.2,0-0.4
		C87.3,36.9,87.3,36.4,87.3,35.9L87.3,35.9z"/>
	
		<radialGradient id="SVGID_00000013895883105961576690000015558704096202097582_" cx="-160.2952" cy="620.356" r="0.2861" gradientTransform="matrix(49.7111 0 0 -49.7111 8047.6543 30884.5879)" gradientUnits="userSpaceOnUse">
		<stop  offset="0.596" style="stop-color:#F29405"/>
		<stop  offset="0.736" style="stop-color:#F7D01E"/>
		<stop  offset="1" style="stop-color:#FDCB06"/>
	</radialGradient>
	
		<path style="fill:url(#SVGID_00000013895883105961576690000015558704096202097582_);stroke:#FCD109;stroke-width:9.400000e-02;" d="
		M89.9,37.7c-0.9,0-1.7,0-2.6,0c0-0.1,0-0.2,0-0.4c0-0.5,0-1,0-1.4c0,0,0-0.1,0-0.1c0.1-0.1,0.1-0.3,0.3-0.3
		c0.3-0.1,0.5-0.2,0.8-0.3c0-0.1,0-0.1,0-0.2c-0.4-0.1-0.7-0.3-1.1-0.4c-0.1-0.1-0.2-0.1-0.4-0.1H71.7c-0.1,0-0.1,0-0.2,0.1
		c-0.4,0.1-0.8,0.3-1.1,0.4c-0.1,0-0.1,0.1-0.1,0.1c0,0,0,0.1,0,0.1c0.3,0.1,0.5,0.2,0.8,0.3c0.1,0.1,0.2,0.2,0.2,0.3l0,0
		c0,0.2,0,0.3,0,0.5c0,0.5,0,0.9,0,1.4c-0.9,0-1.7,0-2.6,0c0,0.1,0,0.1,0.1,0.1c0.9,0,1.9,0,2.8,0c1.4,0,2.8,0,4.2,0l0,0
		c0.1,0,0.1,0,0.2,0c2.5,0,5,0,7.6,0c0.8,0,1.6,0,2.4,0C87.2,37.8,88.5,37.8,89.9,37.7C89.9,37.8,89.9,37.7,89.9,37.7L89.9,37.7z
		 M74.4,35.9c0.1-0.2,0.2-0.3,0.4-0.3c0.3-0.1,0.7,0.2,0.7,0.6c0,0.3-0.4,0.6-0.7,0.5c-0.1,0-0.3-0.1-0.3-0.2
		C74.3,36.3,74.3,36.1,74.4,35.9z M83.3,35.8c0.1-0.2,0.4-0.2,0.6-0.2c0.2,0,0.3,0.1,0.4,0.3c0.1,0.3,0,0.6-0.2,0.7
		c-0.2,0.1-0.5,0.1-0.7-0.1C83.1,36.3,83.1,36,83.3,35.8z"/>
	
		<linearGradient id="SVGID_00000169537404126132683330000000125535937712221867_" gradientUnits="userSpaceOnUse" x1="84.1586" y1="53.3325" x2="84.1635" y2="52.5043" gradientTransform="matrix(1 0 0 -1 0 92)">
		<stop  offset="0" style="stop-color:#FADA1C"/>
		<stop  offset="1" style="stop-color:#FDCB06"/>
	</linearGradient>
	
		<path style="fill:url(#SVGID_00000169537404126132683330000000125535937712221867_);stroke:#FCD109;stroke-width:9.400000e-02;" d="
		M84,39c0,0-0.2-0.2-0.2-0.3c0,0,0.2-0.1,0.4,0c0.2,0.1,0.2,0.4,0.1,0.5c0,0.1-0.1,0.2-0.2,0.3c0,0-0.1,0.1-0.2,0.1
		c0-0.1-0.1-0.2-0.1-0.3L84,39z"/>
	
		<linearGradient id="SVGID_00000178181567385543075100000015493851873843097507_" gradientUnits="userSpaceOnUse" x1="74.4209" y1="53.3722" x2="74.416" y2="52.5444" gradientTransform="matrix(1 0 0 -1 0 92)">
		<stop  offset="0" style="stop-color:#FADA1C"/>
		<stop  offset="1" style="stop-color:#FDCB06"/>
	</linearGradient>
	
		<path style="fill:url(#SVGID_00000178181567385543075100000015493851873843097507_);stroke:#FCD109;stroke-width:9.400000e-02;" d="
		M74.5,39.2c0,0.1-0.1,0.2-0.1,0.3c0,0-0.1,0-0.2-0.1c-0.1-0.1-0.1-0.1-0.2-0.3c0-0.1-0.1-0.4,0.1-0.5c0.2-0.1,0.4,0,0.4,0
		c0.1,0-0.2,0.3-0.2,0.3L74.5,39.2z"/>
	<path class="st4" d="M83.6,40.9c0,0,0.1,0,0.1,0c-0.4,0.8-0.8,1.5-1.4,2.1c-0.1,0.1-0.1,0.1-0.2,0.2c-0.1,0.1-0.1,0.1-0.2,0.2
		c-0.1,0-0.1,0.1-0.2,0.1c-0.2,0.1-0.3,0.2-0.5,0.3c-0.3,0.2-0.7,0.3-1.1,0.4c-0.1,0-0.3,0.1-0.4,0.1c-0.2,0.1-0.4,0-0.6,0
		c-0.1,0-0.2,0-0.3,0c-0.1,0-0.2,0-0.3,0c-0.1,0-0.2,0-0.3-0.1c-1.4-0.4-2.7-1.5-3.1-2.9c0-0.1,0-0.2,0-0.3c0,0.1,0.1,0.2,0.1,0.2
		c0.6,1.2,1.7,2.2,3,2.4c0.1,0,0.2,0,0.3,0.1c0.1,0,0.2,0,0.3,0c0.3,0,0.6,0,0.9,0c0,0,0.1,0,0.1,0c0.5,0,1-0.2,1.5-0.4
		c0.1,0,0.2-0.1,0.3-0.1c0.1,0,0.2-0.1,0.2-0.1c0.1,0,0.1-0.1,0.2-0.2c0.6-0.4,1-1,1.3-1.7C83.5,41.1,83.6,41,83.6,40.9z"/>
	<path class="st9" d="M83.2,43.5c0.9-0.5,1.9-0.8,2.9-0.8c0.3,0,0.7,0,1,0c0.2,0.1,0.4,0.1,0.6,0.3c-0.1,0-0.2,0-0.3,0
		c-0.2,0-0.5,0-0.7,0c-0.7,0-1.4,0.1-2.1,0.3c-0.4,0.1-0.7,0.2-1.1,0.4c-0.6,0.3-1.1,0.7-1.5,1.2c-0.7,0.9-1.2,1.9-1.4,3
		c-0.1,0.6-0.2,1.2-0.3,1.8c-0.1,0-0.3,0-0.4,0c-0.7,0-1.3,0-2,0c-0.1,0-0.3,0-0.4,0c-1.2,0-2.4,0-3.6,0l0,0
		c0.9-0.1,1.8-0.2,2.7-0.3c1.1,0,2.2,0,3.4,0c0,0,0.1,0,0.1,0c0.1-0.5,0.2-1,0.3-1.4c0.1-0.7,0.3-1.3,0.6-1.9
		C81.4,44.9,82.2,44.1,83.2,43.5z"/>
	<path class="st10" d="M84.5,43.2c0.7-0.2,1.4-0.3,2.1-0.3c0.2,0,0.5,0,0.7,0c0.1,0,0.2,0.1,0.3,0c0.1,0.1,0.2,0.3,0.3,0.4
		c0.1,0.4,0.2,0.8,0.3,1.2c0,0.2,0,0.4-0.1,0.5c-0.1,0.1-0.2,0.2-0.4,0.3c-0.6,0.1-1.2,0-1.7,0.1c-0.5,0.1-0.9,0.4-1.2,0.7
		c-0.4,0.4-0.5,1-0.6,1.5c-0.1,0.5-0.2,1-0.3,1.5c0,0.1-0.1,0.2-0.1,0.3c0.6,0,1.1,0,1.7,0c0.2,0,0.4,0,0.6,0
		c0.1,0.3,0.1,0.6,0.1,0.9c0,0.3-0.1,0.6-0.3,0.9c-0.1,0.3-0.3,0.5-0.6,0.6c-0.1,0.1-0.3,0-0.4,0c-0.5,0-1,0-1.5,0
		c-0.1,0.4-0.1,0.7-0.2,1.1c-0.1,0.7-0.3,1.4-0.4,2.2c0,0,0,0.1,0,0.1v0c-1.3,0-2.6,0-3.9,0c0,0,0,0,0,0c0,0,0,0,0-0.1
		c0,0,0,0.1,0,0.1c0.1,0,0.2,0.1,0.2-0.1c0.2-1.1,0.4-2.2,0.6-3.3c-0.1,0-0.2,0-0.2,0c0,0,0,0.1,0,0.1l0-0.1c-0.8,0-1.6,0-2.4,0
		c-0.2,0-0.4,0-0.6,0c-0.3,0-0.7,0-1,0c-0.4,0-0.8,0-1.2,0c-0.3,0-0.7,0-1,0c-0.2,0-0.4,0-0.7,0c-0.4,0-0.7,0-1.1-0.1
		c-0.4,0-0.7,0-1.1,0c0,0,0,0,0,0c0.1,0,0.2,0,0.4,0c0.3,0,0.6,0,0.8-0.1c0.3,0,0.6,0,0.9,0c0.3,0,0.5,0,0.8-0.1c0.3,0,0.6,0,0.9,0
		c0.2,0,0.5,0,0.7,0c0.3,0,0.6,0,0.9,0c0.3,0,0.6,0,0.9-0.1c0-0.1,0-0.2-0.1-0.3c0-0.1-0.1-0.1-0.2-0.1c-0.6-0.1-1.3-0.2-1.9-0.3
		c0,0,0.1,0,0.1,0c0.5,0,1-0.1,1.5-0.1c0.1,0,0.2,0,0.3,0c-0.1-0.2-0.1-0.3-0.1-0.5c-1.1-0.2-2.1-0.3-3.2-0.5c0.3,0,0.6-0.1,0.8-0.1
		c1.2,0,2.4,0,3.6,0c0.1,0,0.3,0,0.4,0c0.7,0,1.3,0,2,0c0.1,0,0.3,0,0.4,0c0.1-0.6,0.2-1.2,0.3-1.8c0.2-1.1,0.6-2.2,1.4-3
		c0.4-0.5,0.9-0.9,1.5-1.2C83.8,43.4,84.2,43.3,84.5,43.2z"/>
	<path class="st9" d="M83.9,49.3c0.6,0,1.1,0,1.7,0c0.2,0,0.5,0.1,0.6,0.3c-0.2,0-0.4,0-0.6,0c-0.6,0-1.1,0-1.7,0
		C83.8,49.6,83.9,49.4,83.9,49.3L83.9,49.3z M79.5,52.1c0.1,0,0.2,0,0.2,0c-0.2,1.1-0.4,2.2-0.6,3.3c0,0.1-0.2,0.1-0.2,0.1
		c0,0,0-0.1,0-0.1c0.2-1,0.4-2.1,0.6-3.1C79.5,52.2,79.5,52.2,79.5,52.1z"/>
	<path class="st11" d="M84.2,39.1c0,0,0-0.1,0-0.1l0,0c0-0.1-0.1-0.3-0.3-0.3c-0.1,0-0.2,0-0.3,0.1c-0.1,0.2-0.1,0.4-0.1,0.5
		c0,0,0,0,0,0c0,0.1,0,0.2,0,0.4c0,0,0,0.1,0,0.1c-0.1,0.3-0.2,0.6-0.3,0.8c0,0,0,0.1-0.1,0.1c-0.1,0.2-0.2,0.3-0.3,0.4
		c0,0,0,0,0,0.1c-0.1,0.1-0.2,0.2-0.2,0.3c0,0,0,0-0.1,0c-0.1,0.1-0.2,0.2-0.3,0.3c0,0,0,0,0,0c-0.8,0.5-1.7,0.7-2.6,0.7
		c-0.8,0-1.5-0.1-2.2-0.5c0,0,0,0-0.1,0C77,42,76.9,42,76.8,41.9c0,0,0,0-0.1,0c-0.1-0.1-0.2-0.1-0.3-0.2c0,0-0.1-0.1-0.1-0.1
		c-0.1-0.1-0.2-0.2-0.3-0.3c0,0,0-0.1-0.1-0.1c-0.3-0.3-0.6-0.7-0.7-1.2c-0.1-0.4-0.1-0.7-0.1-1.1c-0.1-0.2-0.3-0.3-0.5-0.2
		c-0.1,0.1-0.1,0.2-0.1,0.2c-0.1,1,0.3,2,1,2.7c0,0,0,0,0,0c0.1,0.1,0.2,0.2,0.4,0.3c0,0,0,0,0.1,0.1c0.1,0.1,0.2,0.2,0.4,0.3
		c0,0,0,0,0.1,0c0.2,0.1,0.3,0.2,0.5,0.3c0,0,0,0,0,0c0.6,0.3,1.2,0.5,1.8,0.5c0.1,0,0.1,0,0.2,0c0.3,0,0.6,0,0.9,0
		c0.9-0.1,1.9-0.3,2.6-0.8l0,0c0,0,0,0,0.1-0.1c0.1-0.1,0.2-0.2,0.4-0.3c0,0,0.1,0,0.1-0.1c0.1-0.1,0.3-0.3,0.4-0.4l0,0
		c0,0,0,0,0-0.1c0.1-0.1,0.2-0.3,0.3-0.4c0,0,0,0,0,0l0,0c0,0,0,0,0,0c0.2-0.3,0.3-0.7,0.4-1.1c0,0,0,0,0,0c0-0.1,0-0.2,0-0.4
		C84.2,39.4,84.2,39.2,84.2,39.1L84.2,39.1z"/>
	<path class="st12" d="M74.2,39c0.2,0.1,0.8-0.1,1,0.1 M74.4,39.7c0.2-0.1,0.7-0.3,0.9-0.2 M74.6,40.4c0.1,0,0.3-0.2,0.4-0.2
		c0.2-0.1,0.3-0.2,0.5-0.2 M74.9,41.2c0.1-0.2,0.3-0.3,0.4-0.4c0.2-0.1,0.6-0.4,0.8-0.3 M75.3,41.8c0.1-0.1,0.2-0.3,0.3-0.4
		c0.2-0.1,0.4-0.2,0.6-0.2 M75.8,42.2c0-0.3,0.3-0.6,0.6-0.6 M76.3,42.6c0.1,0,0.3-0.3,0.4-0.5c0.1-0.2,0.3-0.2,0.5-0.3 M77.1,42.9
		c0-0.2,0.2-0.8,0.5-0.8 M77.8,43.1c0-0.2,0.1-1,0.4-1 M78.4,43.5c-0.1-0.3-0.1-0.8,0.2-1.1 M79.2,43.6c0-0.3-0.3-0.9,0-1.1
		 M80.1,43.4c-0.1-0.2-0.2-0.8-0.2-1 M80.9,43.3c-0.1-0.2-0.2-0.4-0.3-0.6c0-0.1,0-0.3,0-0.4 M81.6,43c-0.2-0.1-0.3-0.7-0.2-0.9
		 M82.3,42.7c-0.2-0.3-0.3-0.6-0.3-1 M83,42c-0.3-0.2-0.6-0.5-0.5-0.8 M83.7,41.5c-0.4-0.1-0.8-0.4-1.1-0.7 M84,40.9
		c-0.3-0.1-1.2-0.4-1.1-0.8 M84.3,40.2c-0.4-0.1-0.9-0.3-1.2-0.5 M84.5,39.5c-0.2,0-0.6-0.1-0.8-0.1c-0.3,0-0.5-0.1-0.8-0.2
		 M84.2,38.9c-0.5,0-0.9-0.1-1.3-0.3"/>
	<path class="st13" d="M24.5,40.3c0.4-0.1,0.9-0.1,1.3,0.2c0.2,0.2,0.3,0.5,0.3,0.8c0,0.5-0.2,0.9-0.6,1.2c-0.4,0.2-0.8,0.2-1.2,0.2
		c-0.3,0-0.5-0.2-0.7-0.4C23.3,41.5,23.7,40.5,24.5,40.3z M11.6,40.9c0-0.2,0.2-0.5,0.5-0.5c1.9,0,3.7,0,5.6,0
		c0.2,0,0.4,0.1,0.5,0.3c0.1,0.2,0,0.5,0,0.8c-0.1,0.3,0,0.8-0.4,0.9c-1.4,0-2.7,0-4.1,0c-0.1,0.9-0.3,1.7-0.4,2.6c0,0,0,0.1,0,0.1
		c1,0,2,0,3,0c0.3,0,0.6,0.2,0.5,0.5c0,0.3-0.1,0.6-0.1,0.9c0,0.2-0.2,0.4-0.4,0.4c-1.1,0-2.2,0-3.4,0c-0.2,1.2-0.4,2.5-0.6,3.7
		c0,0.2-0.2,0.5-0.5,0.5c-0.5,0-0.9,0-1.4,0c-0.3,0-0.5-0.3-0.5-0.6C10.6,47.3,11.1,44.1,11.6,40.9L11.6,40.9z M19.9,40.4
		c0.4,0,0.9,0,1.3,0c0.3,0,0.5,0.2,0.5,0.5c0,0.2-0.1,0.4-0.1,0.6c-0.3,2.2-0.7,4.4-1,6.5c0,0.3-0.1,0.7,0,1.1
		c0.1,0.4,0.7,0.2,0.8,0.6c0.1,0.3,0,0.6,0,0.9c0,0.4-0.5,0.5-0.8,0.6c-0.7,0.1-1.5,0-2-0.5c-0.4-0.4-0.4-1-0.3-1.5
		c0.4-2.8,0.9-5.5,1.3-8.3C19.5,40.6,19.7,40.5,19.9,40.4L19.9,40.4z M36,40.9c0-0.2,0.2-0.5,0.5-0.5h1.2c0.3,0,0.6,0.3,0.5,0.6
		c-0.3,1.8-0.6,3.6-0.9,5.4c0.4-0.1,0.9-0.1,1.2-0.5c0.5-0.6,0.9-1.2,1.2-1.9c0.1-0.3,0.2-0.7,0.5-0.7c0.5,0,0.9,0,1.4,0
		c0.3,0,0.6,0.3,0.4,0.6c-0.1,0.4-0.3,0.8-0.5,1.2c-0.5,0.8-1,1.5-1.7,2.1c0.3,0.9,0.7,1.8,1,2.7c0.1,0.3,0.3,0.6,0.1,0.9
		c-0.3,0.3-0.7,0.2-1.1,0.2c-0.4,0-0.9,0.1-1.1-0.3c-0.4-0.9-0.7-1.8-1.1-2.7c-0.2,0-0.5,0-0.7,0c0,0,0,0.1-0.1,0.1
		c-0.1,0.8-0.3,1.6-0.4,2.4c0,0.2-0.2,0.4-0.4,0.4c-0.4,0-0.9,0-1.3,0c-0.2,0-0.4-0.1-0.4-0.3c-0.1-0.2,0-0.3,0-0.5
		C35,47.1,35.5,44,36,40.9L36,40.9z M58.6,41.7c0.1-0.2,0.3-0.4,0.5-0.4c0.3,0,0.7,0,1,0c0.3,0,0.5,0.3,0.4,0.5
		c0,0.5-0.2,0.9-0.2,1.4c0.3,0,0.6,0,1,0c0.3,0,0.5,0.3,0.5,0.6c0,0.3-0.1,0.5-0.1,0.7c0,0.2-0.2,0.4-0.4,0.4c-0.4,0-0.8,0-1.2,0
		c-0.2,1.1-0.3,2.2-0.5,3.3c0,0.3,0,0.5,0.1,0.8c0.2,0.3,0.6,0.2,0.9,0.2c0.2,0.1,0.4,0.3,0.4,0.6c0,0.3,0,0.6-0.1,0.8
		c-0.1,0.3-0.4,0.4-0.7,0.4c-0.7,0.2-1.6,0.2-2.3-0.2c-0.6-0.4-0.7-1.2-0.6-1.9c0.2-1.3,0.4-2.6,0.6-4c-0.2,0-0.5,0-0.7-0.2
		c-0.2-0.2-0.1-0.5-0.1-0.8c0-0.3,0-0.6,0.3-0.8c0.2-0.1,0.5,0,0.8-0.1C58.3,42.8,58.5,42.3,58.6,41.7L58.6,41.7z M54,44.4
		c0.5-0.5,1.1-0.9,1.8-1.1c0.3-0.1,0.7,0.1,0.7,0.5c-0.1,0.4-0.2,0.9-0.2,1.3c0,0.2-0.2,0.4-0.4,0.4c-0.8,0.1-1.5,0.6-2,1.2
		c-0.1,0.2-0.3,0.3-0.4,0.6c-0.2,1.1-0.3,2.3-0.5,3.4c0,0.2-0.2,0.5-0.5,0.5h-1.2c-0.3,0-0.5-0.3-0.5-0.6c0.4-2.3,0.7-4.5,1.1-6.7
		c0-0.2,0.2-0.4,0.4-0.5c0.3,0,0.6,0,0.9,0c0.2,0,0.5,0.2,0.5,0.5c0,0.3,0,0.7,0,1.1C53.8,44.7,53.9,44.5,54,44.4L54,44.4z
		 M23.6,43.3c0.4-0.1,0.9,0,1.3,0c0.3,0,0.5,0.1,0.6,0.4c0,0.2,0,0.4-0.1,0.7c-0.3,2.1-0.7,4.2-1,6.3c0,0.2-0.2,0.5-0.5,0.5
		c-0.4,0-0.9,0-1.3,0c-0.3,0-0.5-0.3-0.4-0.6c0.3-2.2,0.7-4.3,1-6.5C23.3,43.7,23.4,43.4,23.6,43.3L23.6,43.3z M50,43.5
		c-1.2-0.2-2.4-0.4-3.7-0.3c-1.1,0.1-2.2,0.6-2.9,1.5c-0.9,1.2-1.3,2.8-1,4.3c0.1,0.7,0.4,1.4,1,1.9c0.5,0.4,1.3,0.5,1.9,0.4
		c0.9-0.2,1.7-0.8,2.3-1.4c0,0.3,0,0.6,0,0.8c0,0.3,0.2,0.5,0.5,0.5h0.8c0.2,0,0.4-0.2,0.5-0.5c0.3-2.2,0.7-4.4,1-6.6
		C50.5,43.8,50.2,43.5,50,43.5L50,43.5z M47.7,47.3c-0.3,0.6-0.8,1.2-1.3,1.6c-0.3,0.2-0.7,0.5-1.1,0.4c-0.4-0.1-0.6-0.5-0.7-0.8
		c-0.2-0.9,0-1.9,0.5-2.7c0.2-0.4,0.6-0.6,1-0.8c0.6-0.1,1.2-0.1,1.8,0.1l0,0C47.9,45.9,47.8,46.6,47.7,47.3L47.7,47.3z M34,46.1
		c0-0.8-0.2-1.7-0.8-2.3c-0.4-0.4-1-0.7-1.5-0.6c-0.9,0-1.8,0.4-2.5,1c-0.2,0.1-0.3,0.3-0.4,0.4c0-0.3,0-0.5,0-0.8
		c0-0.3-0.2-0.5-0.5-0.5h-0.8c-0.3,0-0.5,0.2-0.5,0.5c-0.5,3.3-1,6.5-1.5,9.8c-0.1,0.3,0.2,0.6,0.5,0.6c0.5,0,0.9,0,1.4,0
		c0.4-0.1,0.3-0.5,0.4-0.8c0.1-0.7,0.2-1.4,0.3-2.2c1.6,0.3,3.5,0.1,4.7-1.1C33.6,49,34,47.5,34,46.1L34,46.1z M31.7,46.9
		c0,0.7-0.3,1.5-0.8,2c-0.7,0.6-1.7,0.6-2.5,0.3c0,0,0-0.1,0-0.1c0.1-0.7,0.2-1.4,0.4-2.1c0.5-0.7,1-1.5,1.8-1.9
		c0.3-0.1,0.7-0.1,0.9,0.2C31.7,45.7,31.8,46.3,31.7,46.9L31.7,46.9z"/>
</g>
</svg>
