<svg width="400" height="300" viewBox="0 0 400 300" fill="none" xmlns="http://www.w3.org/2000/svg">
<path d="M339.951 125.742C339.92 125.638 339.888 125.534 339.847 125.43C315.214 125.44 290.591 125.43 265.968 125.44C265.906 125.513 265.865 125.586 265.854 125.679C265.854 144.781 265.854 163.872 265.844 182.973C265.999 183.992 266.561 184.917 267.31 185.614C267.341 185.624 267.414 185.634 267.445 185.645C267.83 186.05 268.381 186.248 268.901 186.435C269.285 186.415 269.66 186.581 270.045 186.539H300.615C300.906 186.529 301.207 186.581 301.488 186.467C301.499 186.425 301.509 186.352 301.519 186.311C301.53 186.259 301.54 186.144 301.551 186.082C302.206 182.422 302.84 178.751 303.537 175.091L303.599 174.623C300.771 174.613 297.932 174.623 295.104 174.613C294.418 174.592 293.711 174.613 293.024 174.53C291.85 174.478 290.664 174.519 289.489 174.405C288.033 174.405 286.588 174.27 285.132 174.27C283.989 174.155 282.834 174.197 281.68 174.145C280.932 174.052 280.162 174.093 279.403 174.062C278.166 173.927 276.908 174.02 275.67 173.885C274.36 173.896 273.05 173.781 271.74 173.75C271.75 173.739 271.761 173.698 271.761 173.687C272.197 173.698 272.624 173.667 273.06 173.656C274.027 173.531 275.005 173.615 275.972 173.479C276.98 173.479 277.979 173.344 278.987 173.344C279.882 173.219 280.786 173.292 281.68 173.167C282.731 173.167 283.76 173.032 284.81 173.022C285.673 172.907 286.547 172.97 287.41 172.855C288.418 172.866 289.417 172.71 290.425 172.72C291.413 172.606 292.421 172.637 293.409 172.533C293.316 172.148 293.243 171.764 293.16 171.379C293.087 171.14 292.796 171.192 292.609 171.16C290.352 170.838 288.106 170.516 285.86 170.204C286.006 170.089 286.204 170.141 286.37 170.121C288.117 169.985 289.853 169.829 291.6 169.705C291.995 169.684 292.38 169.611 292.775 169.601C292.598 169.06 292.494 168.467 292.255 167.968C288.523 167.396 284.789 166.887 281.067 166.273C282.034 166.117 283.011 166.045 283.978 165.941L284.062 165.909C287.15 165.587 290.248 165.223 293.337 164.921C297.257 164.901 301.166 164.911 305.086 164.921C305.211 164.901 305.43 164.963 305.45 164.786C305.773 163.102 306.085 161.417 306.407 159.733C306.854 157.393 307.561 155.085 308.653 152.953C310.368 149.522 313.082 146.61 316.389 144.677C319.477 142.867 323.054 141.994 326.61 141.827C327.764 141.724 328.929 141.755 330.073 141.9C330.821 142.077 331.591 142.285 332.184 142.795C332.672 143.19 332.964 143.772 333.182 144.354C333.66 145.737 333.931 147.172 334.159 148.617C334.17 149.2 334.274 149.855 333.962 150.385C333.671 150.905 333.088 151.155 332.537 151.311C330.53 151.83 328.43 151.342 326.423 151.83C324.77 152.184 323.231 153.099 322.181 154.42C320.943 155.958 320.288 157.871 319.924 159.785C319.644 161.49 319.29 163.195 319.009 164.911C320.985 164.922 322.971 164.901 324.957 164.922C325.747 164.922 326.558 165.358 326.881 166.107C327.297 167.064 327.203 168.145 327.068 169.154C326.901 170.287 326.631 171.41 326.122 172.45C325.695 173.334 324.988 174.145 324.021 174.457C323.522 174.654 322.981 174.613 322.451 174.613C320.704 174.613 318.957 174.633 317.21 174.613C316.93 175.892 316.743 177.202 316.493 178.501C316.036 181.028 315.588 183.565 315.131 186.102C315.12 186.186 315.11 186.362 315.11 186.456C315.931 186.498 316.753 186.456 317.574 186.477C323.668 186.477 329.771 186.466 335.875 186.477C336.53 186.498 337.196 186.342 337.767 186.019C338.111 185.895 338.319 185.593 338.62 185.427C338.911 185.26 338.994 184.917 339.244 184.699C339.514 184.22 339.795 183.722 339.816 183.16C339.847 183.16 339.93 183.149 339.972 183.139C339.94 164.007 339.972 144.874 339.951 125.742Z" fill="url(#paint0_linear_8_87155)" stroke="#FCD109" stroke-width="0.094"/>
<path d="M275.545 113.16C276.429 112.88 277.354 113.067 278.259 113.004C295.239 113.015 312.219 113.004 329.199 113.004C330.208 112.963 331.092 113.535 332.027 113.826C332.776 114.127 333.556 114.366 334.305 114.689C334.461 114.751 334.575 114.886 334.689 115.001C334.679 116.373 334.689 117.756 334.689 119.139C334.7 119.503 334.637 119.877 334.762 120.231C334.98 120.262 335.095 120.429 335.24 120.564C335.927 120.876 336.509 121.385 337.133 121.801C338.068 122.467 339.067 123.049 339.982 123.735C340.023 124.005 339.992 124.286 339.909 124.536C339.816 124.827 339.878 125.139 339.847 125.43C315.214 125.44 290.591 125.43 265.968 125.44C265.916 125.097 266.01 124.754 265.864 124.432C265.843 124.161 265.75 123.808 266.01 123.621C267.05 122.893 268.152 122.238 269.171 121.468C269.805 121.063 270.418 120.647 271.032 120.231C271.157 120.023 271.115 119.763 271.115 119.534C271.115 118.027 271.115 116.519 271.125 115.011C271.479 114.554 272.093 114.502 272.581 114.273C273.569 113.899 274.568 113.535 275.545 113.16M275.607 113.337C274.277 113.847 272.935 114.335 271.604 114.845C271.427 114.876 271.334 115.032 271.24 115.167C271.251 115.25 271.261 115.396 271.261 115.479C271.25 116.727 271.261 117.975 271.25 119.222C271.261 119.534 271.219 119.846 271.334 120.127C271.198 120.262 271.053 120.397 270.887 120.501C269.379 121.479 267.923 122.539 266.415 123.506C266.155 123.662 265.864 123.87 265.947 124.213C265.895 124.401 265.989 124.557 266.187 124.505C269.452 124.484 272.706 124.525 275.971 124.473C280.827 124.473 285.673 124.484 290.529 124.473L290.601 124.442C290.82 124.494 291.038 124.473 291.267 124.473C300.064 124.473 308.86 124.484 317.667 124.473C320.433 124.484 323.21 124.473 325.986 124.473C330.561 124.473 335.147 124.515 339.722 124.494C339.857 124.463 339.899 124.369 339.847 124.203C339.836 124.037 339.899 123.808 339.722 123.704C338.994 123.361 338.37 122.83 337.673 122.415C337.424 122.207 337.101 122.092 336.914 121.811C336.197 121.406 335.531 120.907 334.824 120.46C334.689 120.377 334.585 120.241 334.471 120.127C334.533 119.909 334.554 119.669 334.554 119.441C334.544 118.12 334.554 116.8 334.544 115.479C334.575 115.271 334.564 115.032 334.377 114.897C333.129 114.45 331.892 113.971 330.654 113.514C330.27 113.327 329.843 113.223 329.427 113.16H276.283C276.055 113.171 275.836 113.285 275.607 113.337V113.337Z" fill="#F8F3B5"/>
<path d="M275.545 113.16C276.429 112.88 277.354 113.067 278.259 113.004C295.239 113.015 312.219 113.004 329.199 113.004C330.208 112.963 331.092 113.535 332.027 113.826C332.776 114.127 333.556 114.366 334.305 114.689C334.461 114.751 334.575 114.886 334.689 115.001C334.679 116.373 334.689 117.756 334.689 119.139C334.7 119.503 334.637 119.877 334.762 120.231C334.98 120.262 335.095 120.429 335.24 120.564C335.927 120.876 336.509 121.385 337.133 121.801C338.068 122.467 339.067 123.049 339.982 123.735C340.023 124.005 339.992 124.286 339.909 124.536C339.816 124.827 339.878 125.139 339.847 125.43C315.214 125.44 290.591 125.43 265.968 125.44C265.916 125.097 266.01 124.754 265.864 124.432C265.843 124.161 265.75 123.808 266.01 123.621C267.05 122.893 268.152 122.238 269.171 121.468C269.805 121.063 270.418 120.647 271.032 120.231C271.157 120.023 271.115 119.763 271.115 119.534C271.115 118.027 271.115 116.519 271.125 115.011C271.479 114.554 272.093 114.502 272.581 114.273C273.569 113.899 274.568 113.535 275.545 113.16M275.607 113.337C274.277 113.847 272.935 114.335 271.604 114.845C271.427 114.876 271.334 115.032 271.24 115.167C271.251 115.25 271.261 115.396 271.261 115.479C271.25 116.727 271.261 117.975 271.25 119.222C271.261 119.534 271.219 119.846 271.334 120.127C271.198 120.262 271.053 120.397 270.887 120.501C269.379 121.479 267.923 122.539 266.415 123.506C266.155 123.662 265.864 123.87 265.947 124.213C265.895 124.401 265.989 124.557 266.187 124.505C269.452 124.484 272.706 124.525 275.971 124.473C280.827 124.473 285.673 124.484 290.529 124.473L290.601 124.442C290.82 124.494 291.038 124.473 291.267 124.473C300.064 124.473 308.86 124.484 317.667 124.473C320.433 124.484 323.21 124.473 325.986 124.473C330.561 124.473 335.147 124.515 339.722 124.494C339.857 124.463 339.899 124.369 339.847 124.203C339.836 124.037 339.899 123.808 339.722 123.704C338.994 123.361 338.37 122.83 337.673 122.415C337.424 122.207 337.101 122.092 336.914 121.811C336.197 121.406 335.531 120.907 334.824 120.46C334.689 120.377 334.585 120.241 334.471 120.127C334.533 119.909 334.554 119.669 334.554 119.441C334.544 118.12 334.554 116.8 334.544 115.479C334.575 115.271 334.564 115.032 334.377 114.897C333.129 114.45 331.892 113.971 330.654 113.514C330.27 113.327 329.843 113.223 329.427 113.16H276.283C276.055 113.171 275.836 113.285 275.607 113.337V113.337Z" stroke="#F8F3B5" stroke-width="0.094"/>
<path d="M271.261 115.479C272.176 115.864 273.153 116.082 274.079 116.456C274.578 116.654 274.734 117.195 274.952 117.631C274.734 117.85 274.474 118.027 274.214 118.193C273.257 118.838 272.28 119.461 271.334 120.127C271.219 119.846 271.261 119.534 271.25 119.222C271.261 117.975 271.251 116.727 271.261 115.479V115.479ZM331.726 116.456C332.651 116.092 333.618 115.843 334.544 115.479C334.554 116.8 334.544 118.12 334.554 119.441C334.554 119.669 334.533 119.909 334.471 120.127C333.66 119.565 332.838 119.035 332.027 118.484C331.632 118.193 331.196 117.975 330.842 117.621C331.06 117.184 331.227 116.654 331.726 116.456V116.456Z" fill="#F7B402" stroke="#F7B402" stroke-width="0.094"/>
<path d="M287.129 116.883C288.273 116.613 289.551 117.632 289.458 118.828C289.468 120.003 288.231 120.959 287.098 120.689C286.64 120.533 286.203 120.294 285.923 119.888C285.559 119.337 285.475 118.599 285.767 117.996C285.975 117.414 286.536 117.018 287.129 116.883V116.883ZM316.794 117.538C317.273 117.008 318.032 116.706 318.739 116.894C319.269 117.05 319.789 117.393 320.018 117.913C320.475 118.807 320.122 120.013 319.228 120.481C318.437 120.918 317.439 120.71 316.836 120.075C316.223 119.379 316.181 118.235 316.794 117.538V117.538Z" fill="#BDA727" stroke="#BDA727" stroke-width="0.094"/>
<path d="M274.214 118.192C274.474 118.026 274.734 117.849 274.953 117.631L275.025 117.704C275.098 118.244 275.046 118.796 275.067 119.336C275.036 120.958 275.098 122.591 275.025 124.213C271.999 124.213 268.974 124.192 265.948 124.213C265.864 123.87 266.156 123.662 266.415 123.506C267.923 122.539 269.379 121.478 270.887 120.501C271.053 120.397 271.199 120.262 271.334 120.127C272.28 119.461 273.257 118.837 274.214 118.192V118.192ZM330.738 117.985C330.738 117.849 330.769 117.735 330.842 117.621C331.195 117.974 331.632 118.192 332.027 118.484C332.838 119.035 333.66 119.565 334.471 120.127C334.585 120.241 334.689 120.376 334.824 120.459C335.531 120.906 336.197 121.406 336.914 121.811C337.101 122.092 337.424 122.206 337.673 122.414C338.37 122.83 338.994 123.36 339.722 123.703C339.898 123.807 339.836 124.036 339.846 124.203C336.82 124.213 333.805 124.192 330.779 124.213C330.727 123.797 330.759 123.381 330.748 122.976C330.748 121.312 330.728 119.648 330.738 117.985V117.985Z" fill="#F7E62D" stroke="#F7E62D" stroke-width="0.094"/>
<path d="M339.847 124.203C336.821 124.214 333.805 124.193 330.78 124.214C330.728 123.798 330.759 123.382 330.748 122.976C330.748 121.313 330.728 119.649 330.738 117.985C330.738 117.85 330.769 117.736 330.842 117.621C331.06 117.185 331.227 116.654 331.726 116.457C332.651 116.093 333.618 115.843 334.544 115.479C334.575 115.271 334.565 115.032 334.377 114.897C333.129 114.45 331.892 113.972 330.655 113.514C330.27 113.327 329.844 113.223 329.428 113.161H276.283C276.054 113.171 275.836 113.285 275.607 113.337C274.276 113.847 272.935 114.336 271.604 114.845C271.427 114.876 271.333 115.032 271.24 115.167C271.251 115.251 271.261 115.396 271.261 115.479C272.176 115.864 273.153 116.083 274.079 116.457C274.578 116.654 274.734 117.195 274.952 117.632L275.025 117.705C275.098 118.245 275.046 118.796 275.066 119.337C275.035 120.959 275.098 122.592 275.025 124.214C271.999 124.214 268.973 124.193 265.947 124.214C265.895 124.401 265.989 124.557 266.186 124.505C269.451 124.484 272.706 124.526 275.971 124.474C280.827 124.474 285.673 124.484 290.529 124.474L290.601 124.443C290.82 124.495 291.038 124.474 291.267 124.474C300.063 124.474 308.86 124.484 317.667 124.474C320.433 124.484 323.209 124.474 325.986 124.474C330.561 124.474 335.146 124.515 339.722 124.495C339.857 124.463 339.899 124.37 339.847 124.203V124.203ZM285.766 117.996C285.974 117.413 286.536 117.018 287.129 116.883C288.272 116.613 289.551 117.632 289.458 118.828C289.468 120.003 288.231 120.959 287.097 120.689C286.64 120.533 286.203 120.294 285.922 119.888C285.558 119.337 285.475 118.599 285.766 117.996ZM316.794 117.538C317.273 117.008 318.032 116.706 318.739 116.894C319.269 117.05 319.789 117.393 320.018 117.913C320.475 118.807 320.122 120.013 319.227 120.481C318.437 120.918 317.439 120.71 316.836 120.075C316.222 119.379 316.181 118.235 316.794 117.538Z" fill="url(#paint1_radial_8_87155)" stroke="#FCD109" stroke-width="0.094"/>
<path d="M319.445 128.772C319.59 128.804 318.687 127.905 318.863 127.863C319.03 127.884 319.661 127.394 320.423 127.794C321.186 128.193 320.997 129.128 320.91 129.475C320.807 129.887 320.544 130.151 320.336 130.358C320.222 130.452 319.966 130.598 319.81 130.587C319.903 130.078 319.602 129.995 319.581 129.475L319.445 128.772Z" fill="url(#paint2_linear_8_87155)" stroke="#FCD109" stroke-width="0.094"/>
<path d="M286.205 129.336C286.184 129.856 285.882 129.939 285.976 130.448C285.82 130.459 285.563 130.313 285.449 130.22C285.241 130.012 284.979 129.748 284.876 129.336C284.789 128.989 284.6 128.054 285.363 127.655C286.125 127.255 286.756 127.745 286.922 127.724C287.099 127.766 286.196 128.665 286.341 128.634L286.205 129.336Z" fill="url(#paint3_linear_8_87155)" stroke="#FCD109" stroke-width="0.094"/>
<path d="M318.083 135.434C318.24 135.298 318.344 135.298 318.552 135.298C317.304 138.002 315.848 140.705 313.659 142.81C313.425 143.019 313.178 143.213 312.919 143.39C312.669 143.573 312.423 143.745 312.179 143.92C311.94 144.087 311.702 144.254 311.47 144.428C310.878 144.75 310.358 145.197 309.703 145.395C308.507 145.967 307.218 146.351 305.918 146.622C305.408 146.705 304.889 146.83 304.369 146.84C303.724 147.027 303.038 146.892 302.383 146.934C302.019 146.996 301.696 146.788 301.343 146.83C301.036 146.786 300.73 146.734 300.426 146.674C300.117 146.611 299.811 146.538 299.507 146.455C294.74 144.968 290.061 141.329 288.698 136.407C288.636 136.076 288.605 135.739 288.605 135.402C288.751 135.693 288.901 135.982 289.058 136.269C290.997 140.497 294.844 143.825 299.389 144.828C299.758 144.996 300.157 144.937 300.511 145.083C300.833 145.083 301.145 145.072 301.457 145.176C302.528 145.197 303.599 145.187 304.67 145.187C304.816 145.197 304.951 145.124 305.097 145.093C306.881 145.033 308.63 144.546 310.259 143.807C310.585 143.66 310.906 143.502 311.221 143.336C311.497 143.19 311.767 143.033 312.029 142.864C312.286 142.698 312.537 142.521 312.779 142.334C314.704 140.809 316.368 138.833 317.498 136.562C317.713 136.153 317.909 135.774 318.083 135.434Z" fill="#BDA727" stroke="#BDA727" stroke-width="0.094"/>
<path d="M316.388 144.677C319.477 142.868 323.054 141.994 326.61 141.828C327.764 141.724 328.929 141.755 330.073 141.901C330.821 142.077 331.591 142.285 332.183 142.795C331.882 142.816 331.591 142.68 331.289 142.639C330.437 142.473 329.553 142.535 328.69 142.514C326.183 142.514 323.657 142.712 321.234 143.398C319.966 143.783 318.697 144.23 317.543 144.895C315.546 145.997 313.748 147.453 312.292 149.2C309.692 152.184 308.164 155.969 307.426 159.827C307.072 161.896 306.666 163.955 306.344 166.034C305.824 166.086 305.294 166.055 304.774 166.055C302.486 166.045 300.199 166.034 297.911 166.014C297.423 166.034 296.944 165.92 296.456 165.951C292.296 165.972 288.137 165.941 283.978 165.941L284.061 165.91C287.149 165.587 290.248 165.223 293.336 164.922C297.256 164.901 301.166 164.911 305.086 164.922C305.211 164.901 305.429 164.963 305.45 164.786C305.772 163.102 306.084 161.418 306.406 159.733C306.854 157.394 307.561 155.085 308.653 152.954C310.368 149.522 313.082 146.611 316.388 144.677Z" fill="#0D69B3" stroke="#0D69B3" stroke-width="0.094"/>
<path d="M321.234 143.398C323.657 142.711 326.183 142.514 328.689 142.514C329.552 142.535 330.436 142.472 331.289 142.639C331.59 142.68 331.881 142.815 332.183 142.795C332.672 143.19 332.963 143.772 333.181 144.354C333.66 145.737 333.93 147.172 334.159 148.618C334.169 149.2 334.273 149.855 333.961 150.385C333.67 150.905 333.088 151.155 332.537 151.311C330.53 151.831 328.43 151.342 326.423 151.831C324.77 152.184 323.23 153.099 322.18 154.42C320.943 155.959 320.288 157.872 319.924 159.785C319.643 161.49 319.29 163.196 319.009 164.911C318.884 165.296 318.811 165.712 318.738 166.118C320.703 166.149 322.669 166.118 324.634 166.138C325.383 166.118 326.131 166.159 326.88 166.107C327.296 167.064 327.202 168.145 327.067 169.154C326.901 170.287 326.631 171.41 326.121 172.45C325.695 173.334 324.988 174.145 324.021 174.457C323.522 174.654 322.981 174.613 322.451 174.613C320.703 174.613 318.957 174.633 317.21 174.613C316.929 175.892 316.742 177.202 316.492 178.502C316.035 181.028 315.588 183.565 315.13 186.103C315.12 186.186 315.109 186.363 315.109 186.456V186.467C310.566 186.467 306.032 186.477 301.488 186.467C301.499 186.425 301.509 186.352 301.519 186.311C301.53 186.259 301.54 186.144 301.551 186.082C301.561 186.165 301.571 186.321 301.582 186.394C301.862 186.425 302.372 186.571 302.445 186.165C303.152 182.339 303.807 178.491 304.535 174.665C304.254 174.602 303.963 174.602 303.672 174.654C303.63 174.8 303.589 174.945 303.537 175.091L303.599 174.623C300.771 174.612 297.932 174.623 295.104 174.612C294.418 174.592 293.711 174.612 293.024 174.529C291.849 174.477 290.664 174.519 289.489 174.404C288.033 174.404 286.588 174.269 285.132 174.269C283.988 174.155 282.834 174.197 281.68 174.145C280.932 174.051 280.162 174.093 279.403 174.061C278.166 173.926 276.908 174.02 275.67 173.885C274.36 173.895 273.05 173.781 271.74 173.75C271.75 173.739 271.761 173.698 271.761 173.687C272.197 173.698 272.624 173.666 273.06 173.656C274.027 173.531 275.005 173.614 275.972 173.479C276.98 173.479 277.979 173.344 278.987 173.344C279.881 173.219 280.786 173.292 281.68 173.167C282.731 173.167 283.76 173.032 284.81 173.022C285.673 172.907 286.547 172.97 287.41 172.855C288.418 172.866 289.416 172.71 290.425 172.72C291.413 172.605 292.421 172.637 293.409 172.533C293.316 172.148 293.243 171.763 293.16 171.379C293.087 171.139 292.796 171.191 292.609 171.16C290.352 170.838 288.106 170.515 285.86 170.203C286.006 170.089 286.203 170.141 286.37 170.12C288.117 169.985 289.853 169.829 291.6 169.704C291.995 169.684 292.38 169.611 292.775 169.6C292.598 169.06 292.494 168.467 292.255 167.968C288.522 167.396 284.789 166.886 281.067 166.273C282.034 166.117 283.011 166.044 283.978 165.94C288.138 165.94 292.297 165.972 296.456 165.951C296.944 165.92 297.423 166.034 297.912 166.013C300.199 166.034 302.487 166.045 304.774 166.055C305.294 166.055 305.825 166.086 306.345 166.034C306.667 163.954 307.072 161.895 307.426 159.826C308.164 155.969 309.693 152.184 312.292 149.2C313.748 147.453 315.547 145.997 317.543 144.895C318.697 144.23 319.965 143.782 321.234 143.398Z" fill="#107BD4" stroke="#107BD4" stroke-width="0.094"/>
<path d="M319.009 164.912C320.985 164.922 322.971 164.901 324.957 164.922C325.747 164.922 326.558 165.359 326.88 166.107C326.132 166.159 325.383 166.118 324.634 166.139C322.669 166.118 320.704 166.149 318.739 166.118C318.811 165.712 318.884 165.296 319.009 164.912V164.912ZM303.672 174.655C303.963 174.603 304.254 174.603 304.535 174.665C303.807 178.492 303.152 182.339 302.445 186.166C302.372 186.571 301.862 186.426 301.582 186.394C301.571 186.322 301.561 186.166 301.551 186.082C302.206 182.422 302.84 178.752 303.537 175.092C303.589 174.946 303.63 174.8 303.672 174.655Z" fill="#0D69B3" stroke="#0D69B3" stroke-width="0.094"/>
<path d="M319.918 129.064C319.835 128.908 319.825 128.721 319.825 128.544L319.742 128.554C319.617 128.097 319.232 127.66 318.733 127.639C318.359 127.608 317.891 127.618 317.673 127.972C317.257 128.534 317.454 129.251 317.433 129.885C317.433 129.927 317.444 130 317.444 130.041C317.444 130.468 317.392 130.883 317.319 131.299C317.257 131.424 317.226 131.559 317.226 131.705C317.049 132.682 316.695 133.649 316.217 134.533C316.123 134.658 316.05 134.793 316.019 134.939C315.708 135.479 315.333 135.979 314.948 136.478C314.886 136.53 314.834 136.592 314.782 136.654C314.512 136.987 314.221 137.268 313.919 137.559C313.846 137.601 313.794 137.653 313.732 137.694C313.378 138.037 312.983 138.36 312.557 138.62C312.505 138.651 312.453 138.692 312.39 138.734C309.728 140.491 306.495 141.219 303.344 141.25C300.672 141.334 297.978 140.762 295.566 139.607C295.525 139.587 295.421 139.545 295.379 139.524C294.973 139.306 294.558 139.119 294.183 138.848C294.1 138.807 294.017 138.755 293.923 138.713C293.538 138.484 293.174 138.235 292.831 137.944C292.717 137.84 292.592 137.757 292.467 137.663C292.093 137.361 291.708 137.039 291.386 136.675C291.303 136.582 291.22 136.498 291.137 136.415C290.003 135.24 289.12 133.805 288.652 132.246C288.204 131.008 288.267 129.657 288.215 128.357C287.84 127.785 287.05 127.463 286.427 127.816C286.167 128.003 286.135 128.346 285.938 128.586C285.615 132.017 287.082 135.438 289.421 137.913C289.421 137.996 289.463 138.048 289.536 138.079C289.952 138.464 290.357 138.859 290.773 139.233C290.846 139.306 290.929 139.379 291.022 139.441C291.438 139.784 291.886 140.096 292.322 140.419C292.405 140.481 292.489 140.533 292.582 140.585C293.154 140.918 293.695 141.313 294.308 141.542C294.35 141.573 294.423 141.625 294.464 141.645C296.44 142.592 298.571 143.236 300.755 143.444C300.994 143.444 301.233 143.465 301.473 143.517C302.512 143.58 303.552 143.548 304.592 143.528C307.805 143.247 311.122 142.467 313.805 140.574L313.836 140.616C313.919 140.543 313.992 140.481 314.075 140.419C314.502 140.107 314.917 139.774 315.333 139.431C315.427 139.358 315.531 139.275 315.625 139.181C316.082 138.682 316.612 138.225 316.997 137.653L317.059 137.684C317.091 137.632 317.143 137.528 317.174 137.476C317.527 136.998 317.85 136.498 318.162 135.999C318.182 135.968 318.234 135.916 318.255 135.885L318.214 135.843C318.245 135.802 318.318 135.719 318.349 135.677C318.921 134.512 319.43 133.296 319.607 132.006C319.68 131.975 319.722 131.913 319.722 131.84C319.732 131.424 319.878 131.029 319.836 130.613C319.929 130.104 319.939 129.584 319.918 129.064V129.064Z" fill="white" stroke="white" stroke-width="0.094"/>
<path d="M285.139 128.712C285.982 128.977 287.919 128.311 288.467 128.92M285.625 131.277C286.432 130.996 288.164 130.33 288.883 130.722M286.456 133.842C286.847 133.968 287.617 133.282 287.999 133.081C288.568 132.782 289.151 132.553 289.784 132.455M287.704 136.545C288.107 135.973 288.589 135.498 289.171 135.091C289.747 134.688 291.325 133.612 292.002 133.98M288.883 138.486C289.34 138.123 289.526 137.48 290.006 137.098C290.586 136.636 291.476 136.554 292.071 136.268M290.841 139.925C290.978 138.919 291.998 137.706 292.972 137.793M292.349 141.328C292.863 141.277 293.299 140.125 293.647 139.734C294.168 139.149 294.709 138.969 295.399 138.764M295.329 142.576C295.296 141.849 296.048 139.763 296.924 139.873M297.548 143.269C297.511 142.41 297.956 139.824 299.003 139.734M299.835 144.656C299.636 143.454 299.649 141.714 300.598 140.843M302.677 144.933C302.572 143.931 301.576 141.905 302.677 141.12M305.727 144.24C305.252 143.689 304.976 141.514 305.173 140.912M308.639 143.755C308.272 143.089 307.818 142.464 307.679 141.691C307.596 141.229 307.741 140.571 307.668 140.219M311.065 142.715C310.27 142.195 310.049 140.283 310.303 139.457M313.422 141.675C312.856 140.461 312.253 139.52 312.243 138.14M315.71 139.457C314.83 138.865 313.709 137.79 313.838 136.615M318.136 137.585C316.8 137.289 315.197 136.094 314.392 135.02M319.245 135.298C318.281 135.091 315.098 133.849 315.294 132.594M320.285 132.871C318.942 132.379 316.989 131.937 315.917 131M320.978 130.653C320.132 130.725 318.921 130.316 318.061 130.168C317.107 130.003 316.222 129.682 315.294 129.474M320.146 128.504C318.515 128.602 316.985 128.044 315.502 127.534" stroke="#D1D1D1" stroke-width="2"/>
<path d="M111.461 133.504C112.968 133.277 114.702 133.135 115.981 134.073C116.777 134.67 117.062 135.75 117.005 136.717C117.062 138.309 116.322 140.014 114.901 140.839C113.65 141.521 112.144 141.578 110.75 141.436C109.812 141.322 108.874 140.811 108.391 139.958C107.31 137.484 108.647 133.988 111.461 133.504ZM66.3719 135.295C66.4571 134.442 67.2247 133.675 68.106 133.703C74.6734 133.703 81.2121 133.732 87.751 133.703C88.4617 133.646 89.2294 133.959 89.5703 134.584C90.0535 135.437 89.6272 136.376 89.5703 137.257C89.3715 138.451 89.4282 140.043 88.0353 140.498C83.2591 140.64 78.4828 140.498 73.7066 140.555C73.2518 143.568 72.8254 146.553 72.3703 149.538C72.3703 149.652 72.3989 149.908 72.3989 150.021C75.8957 149.993 79.3925 150.021 82.8892 149.993C83.8559 149.936 84.8792 150.761 84.794 151.784C84.7088 152.836 84.4813 153.859 84.3392 154.911C84.2253 155.622 83.6568 156.276 82.9176 156.418C79.0227 156.503 75.0709 156.333 71.1764 156.503C70.5508 160.796 69.8116 165.089 69.1576 169.382C69.0726 170.235 68.3901 170.974 67.5372 171.002C65.9169 171.031 64.2962 171.031 62.6759 171.002C61.624 171.031 60.7711 169.865 61.0553 168.87C62.79 157.669 64.5809 146.497 66.3719 135.295V135.295ZM95.2561 133.76C96.7346 133.646 98.2412 133.732 99.7197 133.703C100.629 133.646 101.539 134.357 101.624 135.295C101.624 136.034 101.425 136.774 101.34 137.513C100.146 145.132 98.9236 152.751 97.7294 160.37C97.5588 161.593 97.2462 162.9 97.6158 164.151C98.0422 165.402 99.9468 164.862 100.402 166.169C100.686 167.221 100.373 168.33 100.288 169.411C100.203 170.832 98.5822 171.145 97.4737 171.458C95.0573 171.912 92.1288 171.571 90.3946 169.581C89.1437 168.131 89.0583 166.084 89.3144 164.265C90.8211 154.599 92.3278 144.933 93.8632 135.238C93.9485 134.528 94.517 133.874 95.2561 133.76V133.76ZM151.689 135.295C151.774 134.442 152.541 133.703 153.394 133.703H157.716C158.796 133.675 159.677 134.84 159.421 135.864C158.426 142.175 157.403 148.487 156.408 154.798C157.915 154.57 159.621 154.286 160.673 153.064C162.435 151.073 163.885 148.771 164.965 146.354C165.335 145.416 165.534 144.052 166.756 143.881C168.377 143.824 170.026 143.852 171.646 143.881C172.755 143.852 173.579 145.103 173.21 146.127C172.783 147.634 172.073 149.027 171.334 150.363C169.685 153.035 167.865 155.679 165.477 157.783C166.529 160.938 167.865 164.009 169.031 167.108C169.372 168.131 170.197 169.325 169.429 170.32C168.547 171.514 166.898 170.917 165.676 171.059C164.397 170.917 162.549 171.571 161.838 170.121C160.502 167.022 159.393 163.839 158.028 160.74C157.232 160.768 156.408 160.796 155.612 160.711C155.555 160.825 155.441 161.052 155.384 161.166C154.958 164.009 154.503 166.852 154.048 169.695C153.878 170.377 153.337 170.974 152.598 171.031C151.092 171.088 149.556 171.059 148.021 171.059C147.367 171.059 146.77 170.633 146.486 170.064C146.202 169.495 146.372 168.842 146.458 168.217C148.22 157.243 149.954 146.269 151.689 135.295V135.295ZM230.694 138.394C230.893 137.598 231.661 137.058 232.457 137.086C233.594 137.115 234.76 137.058 235.925 137.115C236.863 137.143 237.602 138.081 237.489 138.991C237.318 140.612 236.92 142.232 236.806 143.852C237.915 143.852 239.052 143.824 240.161 143.852C241.156 143.852 241.981 144.876 241.81 145.842C241.668 146.724 241.469 147.577 241.326 148.458C241.184 149.197 240.559 149.794 239.848 149.908C238.484 149.993 237.148 149.851 235.811 149.993C235.243 153.802 234.617 157.612 234.02 161.422C233.935 162.303 233.878 163.298 234.39 164.066C235.157 165.004 236.493 164.662 237.574 164.776C238.427 165.032 238.967 165.971 238.825 166.824C238.683 167.79 238.654 168.757 238.427 169.695C238.086 170.746 236.863 170.946 235.925 171.201C233.338 171.884 230.353 171.884 228.05 170.377C225.918 168.927 225.577 166.112 225.804 163.724C226.401 159.119 227.339 154.542 227.851 149.908C227.055 149.936 226.088 150.05 225.492 149.339C224.809 148.628 225.15 147.576 225.264 146.695C225.435 145.757 225.406 144.534 226.43 144.023C227.254 143.71 228.192 143.937 229.074 143.824C229.614 142.004 230.125 140.185 230.694 138.394V138.394ZM214.631 147.605C216.422 145.814 218.583 144.336 221.056 143.597C222.137 143.113 223.53 144.023 223.501 145.217C223.302 146.781 222.933 148.316 222.677 149.851C222.563 150.619 221.909 151.273 221.142 151.358C218.355 151.841 215.939 153.518 214.006 155.508C213.523 156.106 212.812 156.674 212.727 157.498C212.13 161.478 211.504 165.459 210.879 169.439C210.794 170.291 210.054 171.116 209.173 171.059H204.851C203.857 171.116 202.975 170.121 203.089 169.126C204.34 161.251 205.591 153.405 206.813 145.53C206.87 144.734 207.439 143.966 208.263 143.881C209.315 143.824 210.367 143.852 211.447 143.852C212.3 143.852 213.096 144.62 213.096 145.501C213.096 146.724 212.982 147.974 212.954 149.225C213.636 148.799 214.063 148.117 214.631 147.605V147.605ZM108.362 143.995C109.897 143.682 111.489 143.938 113.025 143.852C113.906 143.739 114.844 144.307 114.986 145.189C115.1 145.985 114.872 146.752 114.787 147.52C113.622 154.827 112.456 162.133 111.319 169.439C111.233 170.264 110.551 171.088 109.67 171.059C108.135 171.059 106.599 171.088 105.036 171.031C104.069 170.917 103.358 169.809 103.614 168.87C104.837 161.28 106.003 153.718 107.225 146.127C107.282 145.302 107.509 144.336 108.362 143.995V143.995ZM200.36 144.364C196.124 143.568 191.803 143 187.51 143.426C183.672 143.909 179.805 145.644 177.446 148.799C174.176 152.95 173.067 158.522 173.806 163.696C174.205 166.17 175.285 168.672 177.304 170.207C179.18 171.657 181.71 171.855 183.985 171.486C187.168 170.86 189.869 168.814 192.087 166.539C192.2 167.506 191.973 168.473 192.03 169.411C192.087 170.292 192.883 171.116 193.764 171.059H196.664C197.517 171.059 198.228 170.264 198.285 169.439C199.507 161.735 200.729 154.059 201.923 146.383C202.094 145.416 201.327 144.478 200.36 144.364V144.364ZM192.371 157.755C191.234 159.887 189.642 161.82 187.851 163.469C186.827 164.322 185.519 165.203 184.127 164.919C182.762 164.634 182.108 163.213 181.796 161.99C181.085 158.806 181.739 155.338 183.529 152.58C184.326 151.301 185.605 150.334 187.083 149.936C189.158 149.425 191.348 149.68 193.366 150.249L193.48 150.363C193.224 152.836 192.741 155.281 192.371 157.755V157.755ZM144.553 153.49C144.524 150.647 143.757 147.662 141.767 145.53C140.402 144.023 138.355 143.256 136.365 143.284C133.067 143.17 129.969 144.791 127.552 146.951C127.012 147.378 126.642 148.003 126.046 148.344C126.046 147.406 126.131 146.468 126.102 145.501C126.131 144.62 125.306 143.852 124.453 143.852H121.553C120.644 143.852 119.905 144.649 119.848 145.53C118.057 156.902 116.237 168.273 114.446 179.645C114.19 180.697 115.1 181.777 116.181 181.749C117.772 181.721 119.393 181.863 120.957 181.635C122.208 181.294 122.179 179.844 122.378 178.792C122.833 176.29 123.146 173.788 123.43 171.258C129.031 172.338 135.541 171.6 139.72 167.363C143.131 163.639 144.723 158.494 144.553 153.49V153.49ZM136.593 156.361C136.422 158.977 135.484 161.621 133.665 163.525C131.305 165.772 127.723 165.459 124.823 164.691C124.766 164.606 124.681 164.435 124.652 164.35C125.107 161.877 125.335 159.375 125.903 156.93C127.495 154.315 129.428 151.67 132.186 150.221C133.21 149.738 134.603 149.851 135.342 150.789C136.593 152.353 136.706 154.457 136.593 156.361V156.361Z" fill="#107BD4" stroke="#107BD4" stroke-width="0.101"/>
<defs>
<linearGradient id="paint0_linear_8_87155" x1="302.908" y1="125.43" x2="302.908" y2="186.546" gradientUnits="userSpaceOnUse">
<stop stop-color="#F7E830"/>
<stop offset="1" stop-color="#FDCB06"/>
</linearGradient>
<radialGradient id="paint1_radial_8_87155" cx="0" cy="0" r="1" gradientUnits="userSpaceOnUse" gradientTransform="translate(302.589 153.305) scale(49.7111 49.7111)">
<stop offset="0.596" stop-color="#F29405"/>
<stop offset="0.736" stop-color="#F7D01E"/>
<stop offset="1" stop-color="#FDCB06"/>
</radialGradient>
<linearGradient id="paint2_linear_8_87155" x1="319.914" y1="127.635" x2="319.931" y2="130.53" gradientUnits="userSpaceOnUse">
<stop stop-color="#FADA1C"/>
<stop offset="1" stop-color="#FDCB06"/>
</linearGradient>
<linearGradient id="paint3_linear_8_87155" x1="285.872" y1="127.497" x2="285.855" y2="130.391" gradientUnits="userSpaceOnUse">
<stop stop-color="#FADA1C"/>
<stop offset="1" stop-color="#FDCB06"/>
</linearGradient>
</defs>
</svg>
