<svg width="220" height="67" viewBox="0 0 220 67" fill="none" xmlns="http://www.w3.org/2000/svg">
<path d="M211.852 66.1143H8.14826C3.66669 66.1143 0 62.4476 0 57.966V9.07648C0 4.59491 3.66669 0.928223 8.14826 0.928223H211.852C216.333 0.928223 220 4.59491 220 9.07648V57.966C220 62.4476 216.333 66.1143 211.852 66.1143Z" fill="#100F0D"/>
<path d="M211.852 0.928223H8.14826C3.66669 0.928223 0 4.59491 0 9.07648V57.966C0 62.4476 3.66669 66.1143 8.14826 66.1143H211.852C216.333 66.1143 220 62.4476 220 57.966V9.07648C220 4.59491 216.333 0.928223 211.852 0.928223ZM211.852 2.23128C215.626 2.23128 218.696 5.30224 218.696 9.07648V57.966C218.696 61.7403 215.626 64.8112 211.852 64.8112H8.14826C4.37401 64.8112 1.30441 61.7403 1.30441 57.966V9.07648C1.30441 5.30224 4.37401 2.23128 8.14826 2.23128H211.852Z" fill="#A2A2A1"/>
<path d="M174.267 49.8175H177.308V29.4434H174.267V49.8175ZM201.657 36.7832L198.171 45.6158H198.067L194.449 36.7832H191.173L196.6 49.1281L193.505 55.9954H196.677L205.038 36.7838L201.657 36.7832ZM184.41 47.5032C183.416 47.5032 182.026 47.0047 182.026 45.773C182.026 44.2005 183.757 43.5977 185.25 43.5977C186.586 43.5977 187.217 43.8855 188.028 44.2789C187.792 46.1663 186.167 47.5032 184.41 47.5032ZM184.779 36.3375C182.577 36.3375 180.297 37.3077 179.354 39.4569L182.052 40.5836C182.629 39.4569 183.703 39.0903 184.831 39.0903C186.403 39.0903 188.002 40.033 188.028 41.7111V41.9205C187.477 41.6059 186.298 41.1343 184.857 41.1343C181.946 41.1343 178.985 42.7327 178.985 45.7208C178.985 48.4467 181.371 50.203 184.044 50.203C186.087 50.203 187.217 49.2856 187.922 48.2105H188.028V49.7841H190.965V41.9726C190.965 38.3555 188.263 36.3375 184.779 36.3375ZM165.985 39.2633H161.66V32.2801H165.985C168.259 32.2801 169.549 34.1619 169.549 35.7716C169.549 37.3504 168.258 39.2633 165.985 39.2633ZM165.907 29.4439H158.62V49.8179H161.66V42.0994H165.907C169.277 42.0994 172.59 39.66 172.59 35.7724C172.59 31.8854 169.277 29.4439 165.907 29.4439ZM126.175 47.5066C124.074 47.5066 122.315 45.7471 122.315 43.3326C122.315 40.89 124.074 39.1056 126.175 39.1056C128.249 39.1056 129.876 40.8901 129.876 43.3326C129.876 45.7471 128.249 47.5066 126.175 47.5066ZM129.666 37.9237H129.561C128.879 37.11 127.565 36.3748 125.912 36.3748C122.446 36.3748 119.269 39.4208 119.269 43.3326C119.269 47.2177 122.446 50.2369 125.912 50.2369C127.565 50.2369 128.879 49.5016 129.561 48.662H129.666V49.6589C129.666 52.3116 128.249 53.7286 125.964 53.7286C124.101 53.7286 122.946 52.3898 122.473 51.2611L119.822 52.3636C120.582 54.2007 122.603 56.4594 125.965 56.4594C129.536 56.4594 132.555 54.3586 132.555 49.2386V36.7947H129.666L129.666 37.9237ZM134.656 49.8168H137.7V29.4428H134.656V49.8168ZM142.19 43.0958C142.111 40.4177 144.265 39.0528 145.813 39.0528C147.021 39.0528 148.044 39.6569 148.387 40.5227L142.19 43.0958ZM151.641 40.785C151.064 39.2369 149.305 36.3748 145.708 36.3748C142.137 36.3748 139.17 39.184 139.17 43.3059C139.17 47.1917 142.112 50.2371 146.049 50.2371C149.225 50.2371 151.064 48.2949 151.826 47.1655L149.463 45.59C148.675 46.7454 147.599 47.5068 146.049 47.5068C144.501 47.5068 143.397 46.7977 142.69 45.4062L151.956 41.5733L151.641 40.785ZM77.8051 38.5016V41.442H84.8411C84.631 43.096 84.0797 44.3034 83.2394 45.1437C82.2152 46.1673 80.6136 47.2966 77.805 47.2966C73.4729 47.2966 70.0863 43.805 70.0863 39.473C70.0863 35.1411 73.4729 31.6489 77.805 31.6489C80.1417 31.6489 81.8479 32.568 83.1081 33.7495L85.1828 31.6749C83.4232 29.9949 81.087 28.7085 77.805 28.7085C71.8706 28.7085 66.8824 33.5394 66.8824 39.473C66.8824 45.406 71.8706 50.2371 77.805 50.2371C81.0075 50.2371 83.4234 49.1867 85.3134 47.2178C87.2563 45.2749 87.8603 42.5446 87.8603 40.3389C87.8603 39.657 87.8074 39.0269 87.7024 38.5016H77.8051ZM95.8604 47.5066C93.7596 47.5066 91.948 45.7738 91.948 43.3059C91.948 40.8118 93.7596 39.1057 95.8604 39.1057C97.9604 39.1057 99.7721 40.8118 99.7721 43.3059C99.7721 45.7738 97.9604 47.5066 95.8604 47.5066ZM95.8604 36.3748C92.0262 36.3748 88.9024 39.289 88.9024 43.3059C88.9024 47.2967 92.0262 50.2371 95.8604 50.2371C99.6932 50.2371 102.818 47.2967 102.818 43.3059C102.818 39.289 99.6932 36.3748 95.8604 36.3748ZM111.037 47.5066C108.938 47.5066 107.126 45.7738 107.126 43.3059C107.126 40.8118 108.938 39.1057 111.037 39.1057C113.138 39.1057 114.949 40.8118 114.949 43.3059C114.949 45.7738 113.138 47.5066 111.037 47.5066ZM111.037 36.3748C107.205 36.3748 104.081 39.289 104.081 43.3059C104.081 47.2967 107.205 50.2371 111.037 50.2371C114.872 50.2371 117.995 47.2967 117.995 43.3059C117.995 39.289 114.872 36.3748 111.037 36.3748Z" fill="white"/>
<path d="M33.7572 32.5827L16.4083 50.9975C16.4089 51.0012 16.4102 51.0044 16.4108 51.0083C16.9429 53.008 18.7693 54.4803 20.9369 54.4803C21.8034 54.4803 22.6169 54.2461 23.3146 53.8348L23.37 53.8023L42.8994 42.533L33.7572 32.5827Z" fill="#EB3131"/>
<path d="M51.3103 29.4478L51.2937 29.4364L42.8622 24.5486L33.3631 33.0013L42.8952 42.5322L51.2822 37.693C52.7526 36.8992 53.7508 35.349 53.7508 33.5615C53.7508 31.7867 52.7661 30.2442 51.3103 29.4478Z" fill="#F6B60B"/>
<path d="M16.4058 16.0469C16.3015 16.4315 16.2467 16.8343 16.2467 17.2527V49.7931C16.2467 50.2107 16.3009 50.6149 16.4065 50.9981L34.3543 33.054L16.4058 16.0469Z" fill="#5778C5"/>
<path d="M33.8855 33.5228L42.8659 24.5451L23.3585 13.235C22.6494 12.8103 21.8219 12.5652 20.9363 12.5652C18.7688 12.5652 16.9399 14.0402 16.4077 16.0422C16.407 16.0441 16.407 16.0455 16.407 16.0472L33.8855 33.5228Z" fill="#3BAD49"/>
<path d="M77.2345 16.868H72.4805V18.0445H76.0429C75.9461 19.0045 75.5642 19.7582 74.9199 20.3057C74.2757 20.8532 73.4532 21.1282 72.4805 21.1282C71.4136 21.1282 70.5096 20.7564 69.7688 20.018C69.043 19.2643 68.6739 18.3323 68.6739 17.2094C68.6739 16.0866 69.043 15.1545 69.7688 14.4009C70.5097 13.6625 71.4136 13.2932 72.4805 13.2932C73.0281 13.2932 73.5501 13.3874 74.0287 13.5937C74.5075 13.7998 74.8919 14.0876 75.1924 14.4569L76.0964 13.553C75.6863 13.0869 75.167 12.7305 74.5226 12.4707C73.8784 12.2109 73.2062 12.0863 72.4804 12.0863C71.0571 12.0863 69.8502 12.5802 68.8647 13.5657C67.8792 14.5536 67.3853 15.7708 67.3853 17.2094C67.3853 18.648 67.8792 19.8678 68.8647 20.8534C69.8501 21.8386 71.0571 22.3328 72.4804 22.3328C73.9751 22.3328 75.1668 21.854 76.0835 20.8812C76.8907 20.0716 77.3032 18.9767 77.3032 17.6068C77.3032 17.375 77.2753 17.1278 77.2345 16.868ZM79.0762 12.305V22.1136H84.8028V20.9092H80.3367V17.7976H84.365V16.6212H80.3367V13.5121H84.8028V12.305L79.0762 12.305ZM92.8329 13.5121V12.305H86.0927V13.5121H88.8326V22.1136H90.0931V13.5121H92.8329ZM98.9351 12.305H97.6747V22.1136H98.9351V12.305ZM107.255 13.5121V12.305H100.514V13.5121H103.254V22.1136H104.515V13.5121H107.255ZM119.974 13.5809C119.001 12.5801 117.809 12.0862 116.386 12.0862C114.96 12.0862 113.768 12.5801 112.795 13.5656C111.823 14.5384 111.344 15.758 111.344 17.2093C111.344 18.6606 111.823 19.8805 112.795 20.8533C113.768 21.8386 114.96 22.3327 116.386 22.3327C117.796 22.3327 119.001 21.8386 119.974 20.8533C120.946 19.8805 121.425 18.6608 121.425 17.2093C121.425 15.7707 120.946 14.5535 119.974 13.5809ZM113.699 14.4008C114.425 13.6624 115.316 13.2931 116.386 13.2931C117.453 13.2931 118.344 13.6624 119.057 14.4008C119.782 15.1265 120.139 16.0736 120.139 17.2093C120.139 18.3476 119.782 19.2922 119.057 20.018C118.344 20.7564 117.453 21.1281 116.386 21.1281C115.316 21.1281 114.425 20.7563 113.699 20.018C112.989 19.277 112.632 18.3476 112.632 17.2093C112.632 16.0736 112.989 15.1417 113.699 14.4008ZM124.419 16.005L124.366 14.1129H124.419L129.405 22.1135H130.722V12.3049H129.461V18.0444L129.515 19.9364H129.461L124.694 12.3049H123.159V22.1135H124.419V16.005Z" fill="white" stroke="white" stroke-width="0.26666" stroke-miterlimit="10"/>
</svg>
