<svg width="154" height="38" viewBox="0 0 154 38" fill="none" xmlns="http://www.w3.org/2000/svg">
<g filter="url(#filter0_d_1555_98647)">
<path d="M30.6924 28.8057H35.6023L39.4514 14.4607H34.592L30.6924 28.8057Z" fill="#004A7F"/>
<path d="M55.8647 28.8057H60.7747L64.6238 14.4607H59.7138L55.8647 28.8057Z" fill="#004A7F"/>
<path d="M81.0835 28.8057H85.9453L89.7487 14.4607H84.8387L81.0835 28.8057Z" fill="#004A7F"/>
<path d="M51.2918 19.3712H56.2018C56.8754 16.1476 54.8065 14.5117 49.9928 14.5117C44.4092 14.5117 40.6564 17.2542 39.3573 21.9236C38.2483 26.2538 40.512 28.8543 45.7563 28.8543C51.0512 28.8543 54.1786 27.2184 55.4801 23.5113H50.5701C49.8484 25.1472 48.5975 25.9651 46.8654 25.9651C44.5054 25.9651 43.5432 24.5217 44.2649 21.7792C45.0347 18.9381 46.8654 17.3504 49.2229 17.3504C50.7625 17.3504 51.4361 18.024 51.2918 19.3712Z" fill="#004A7F"/>
<path d="M76.5128 19.3712H81.4227C82.0963 16.1476 79.9769 14.5117 75.1632 14.5117C69.6278 14.5117 65.8268 17.2542 64.5759 21.9236C63.4211 26.2538 65.6825 28.8543 70.9292 28.8543C76.176 28.8543 79.3034 27.2184 80.6505 23.5113H75.743C75.067 25.1472 73.7679 25.9651 72.0358 25.9651C69.6783 25.9651 68.716 24.5217 69.4834 21.7792C70.2075 18.9381 72.0358 17.3504 74.3934 17.3504C75.9354 17.3504 76.6571 18.024 76.5128 19.3712Z" fill="#004A7F"/>
<path d="M11.7764 6.52208C18.3222 0.0243804 26.2633 -1.66199 29.4412 2.76684C32.6191 7.19567 29.8261 16.1471 23.2803 22.6448C16.7345 29.1907 8.79336 30.8746 5.56736 26.3977C2.43999 21.9232 5.23297 13.0174 11.7764 6.52208Z" fill="#F06321"/>
<path d="M16.109 3.05569C15.3873 3.58493 14.6656 4.21041 13.9439 4.8864C8.21605 10.5638 5.80796 18.3605 8.64906 22.2601C11.584 26.1573 18.6109 24.7139 24.4831 18.986C27.661 15.9068 29.778 12.344 30.644 9.02415C30.8846 6.57037 30.5479 4.40286 29.4412 2.76701C26.9393 -0.697148 21.5483 -0.410876 16.109 3.05569Z" fill="#AE282E"/>
<path d="M24.3868 3.77745V3.92179C24.3387 4.73972 23.8575 5.75009 22.9915 6.61613C21.6924 7.86708 19.9603 8.34821 19.2362 7.62892C18.4183 6.8591 18.9019 5.17273 20.2009 3.82556C21.5481 2.5265 23.2802 2.09348 24.0019 2.8633C24.2424 3.10386 24.3868 3.39254 24.3868 3.77745ZM19.383 25.8687C16.3013 28.1781 13.1258 29.3352 10.0442 28.8541C11.3432 28.9022 12.4041 27.4564 13.2702 25.5319C14.1362 23.5592 14.6173 21.7309 15.0504 19.9964C15.6758 17.254 15.724 15.3295 15.3872 14.8964C14.8579 14.2204 13.7032 14.3672 12.3536 15.137C11.68 15.5219 10.814 15.2813 11.8268 14.0304C12.8853 12.7795 16.9749 9.79401 18.4183 9.31288C20.0565 8.87986 21.8849 9.50534 21.2594 11.2855C20.824 12.5846 15.1466 27.4083 19.383 25.8687Z" fill="white"/>
<path d="M97.1124 26.5424L98.219 22.4047H100.913V20.1915H98.8445L99.8067 16.6768H100.913V14.5093H97.2543L93.4534 28.8543H100.913V26.5424H97.1124ZM100.913 22.4047H101.443C103.899 22.4047 105.053 22.8377 104.572 24.5217C104.187 26.0132 102.985 26.5424 100.913 26.5424V28.8543C102.937 28.8543 104.428 28.6618 105.92 27.649C106.93 26.9754 107.654 25.9651 107.943 24.8103C108.47 22.8377 107.604 21.4881 105.342 21.2018C107.459 20.8169 108.809 19.7079 109.239 17.9758C109.624 16.6768 109.287 15.7145 108.373 15.089C107.604 14.5598 106.304 14.5093 104.572 14.5093H100.913V16.6768H102.792C105.102 16.6768 106.16 16.9655 105.823 18.4089C105.39 19.8041 104.139 20.1915 101.782 20.1915H100.913V22.4047Z" fill="#004A7F"/>
<path d="M114.39 18.7962V20.574C114.005 20.7688 113.668 21.1056 113.524 21.5868H110.637C111.116 20.1915 112.418 19.2268 114.39 18.7962ZM114.39 27.2184C114.053 27.3146 113.668 27.3627 113.284 27.3627C111.985 27.3627 111.407 26.8311 111.696 25.8688C111.985 24.7622 112.851 24.3773 114.39 24.233V22.549C111.068 22.7896 109.24 23.6556 108.662 25.8207C108.133 27.7934 109.386 29.0948 111.985 29.0948C112.851 29.0948 113.668 28.9505 114.39 28.6618V27.2184ZM117.183 24.233L117.135 24.3773C116.75 25.8688 115.737 26.8816 114.39 27.2184V28.6618C115.112 28.3707 115.737 27.9882 116.315 27.459L116.074 28.8543H118.963C119.108 28.1783 119.252 27.4085 119.444 26.6386L120.551 22.5971C120.647 22.2603 120.695 21.9235 120.695 21.5867V21.1056C120.599 19.4674 119.204 18.6013 116.606 18.6013C115.785 18.6013 115.064 18.6975 114.39 18.7962V20.574C114.823 20.3358 115.352 20.2396 116.028 20.2396C117.518 20.2396 118.097 20.9108 117.662 22.3566L117.616 22.5009H116.074C115.499 22.5009 114.919 22.549 114.39 22.549V24.233L117.183 24.233Z" fill="#004A7F"/>
<path d="M121.561 28.8543H124.499L125.894 23.7037C126.375 21.8754 128.059 20.574 129.839 20.574C131.571 20.574 132.199 21.5867 131.622 23.6075L130.224 28.8543H133.161L134.797 22.7415C135.471 20.1433 134.172 18.6013 131.285 18.6013C129.406 18.6013 127.915 19.2749 126.616 20.6221L126.952 18.8419H124.017C123.729 20.4296 123.536 21.3943 123.438 21.7792L121.561 28.8543Z" fill="#004A7F"/>
<path d="M135.76 28.8543H138.649L140.092 23.4632L143.992 28.8543H147.985L143.556 23.1264L149.525 18.8419H145.82L140.285 22.8377L142.498 14.5117H139.611L135.76 28.8543Z" fill="#004A7F"/>
</g>
<defs>
<filter id="filter0_d_1555_98647" x="0.285156" y="0.29541" width="153.24" height="36.7993" filterUnits="userSpaceOnUse" color-interpolation-filters="sRGB">
<feFlood flood-opacity="0" result="BackgroundImageFix"/>
<feColorMatrix in="SourceAlpha" type="matrix" values="0 0 0 0 0 0 0 0 0 0 0 0 0 0 0 0 0 0 127 0" result="hardAlpha"/>
<feOffset dy="4"/>
<feGaussianBlur stdDeviation="2"/>
<feComposite in2="hardAlpha" operator="out"/>
<feColorMatrix type="matrix" values="0 0 0 0 0 0 0 0 0 0 0 0 0 0 0 0 0 0 0.25 0"/>
<feBlend mode="normal" in2="BackgroundImageFix" result="effect1_dropShadow_1555_98647"/>
<feBlend mode="normal" in="SourceGraphic" in2="effect1_dropShadow_1555_98647" result="shape"/>
</filter>
</defs>
</svg>
