<svg width="121" height="46" viewBox="0 0 121 46" fill="none" xmlns="http://www.w3.org/2000/svg">
<path d="M61.0485 38.3866C59.395 38.3866 58.0702 37.9948 57.0741 37.2112C56.0382 36.4144 55.5203 35.2556 55.5203 33.735H58.6679C58.6679 34.233 58.8438 34.6779 59.1958 35.0697C59.5344 35.4482 60.1454 35.6375 61.0285 35.6375C61.759 35.6375 62.2969 35.4748 62.6422 35.1494C62.9941 34.8373 63.1701 34.4222 63.1701 33.9043C63.1701 33.373 62.9875 32.9447 62.6223 32.6193C62.2305 32.3072 61.6328 32.1512 60.8293 32.1512H59.5842V29.3921H60.7895C62.0777 29.3921 62.7219 28.8841 62.7219 27.8681C62.7219 27.4497 62.5592 27.1077 62.2338 26.8421C61.9018 26.5699 61.4469 26.4337 60.8692 26.4337C60.2184 26.4337 59.7303 26.6064 59.4049 26.9517C59.0729 27.3036 58.9069 27.7652 58.9069 28.3362H55.7494C55.7494 26.8952 56.2242 25.7597 57.1737 24.9297C58.1034 24.0996 59.3551 23.6846 60.9289 23.6846C62.3566 23.6846 63.5486 24.0432 64.5048 24.7603C65.4677 25.4841 65.9492 26.4105 65.9492 27.5394C65.9492 28.2897 65.7732 28.9206 65.4212 29.4319C65.0626 29.9565 64.5912 30.3317 64.0068 30.5575V30.6372C64.6576 30.8297 65.222 31.2248 65.7001 31.8225C66.165 32.4069 66.3974 33.0875 66.3974 33.8644C66.3974 35.1461 65.9558 36.2185 65.0726 37.0818C64.1828 37.9517 62.8414 38.3866 61.0485 38.3866Z" fill="black"/>
<path d="M71.4873 38.2073V27.0911H71.4076L68.1206 29.5415H67.9214V26.5433L71.4674 23.9236H74.6548V38.2073H71.4873Z" fill="black"/>
<path d="M86.4782 36.3945C85.5618 37.7226 84.1607 38.3866 82.2748 38.3866C80.3889 38.3866 78.9878 37.7226 78.0714 36.3945C77.1483 35.0597 76.6868 33.2701 76.6868 31.0256C76.6868 28.8011 77.1483 27.0214 78.0714 25.6867C78.9944 24.3519 80.3955 23.6846 82.2748 23.6846C84.1541 23.6846 85.5552 24.3519 86.4782 25.6867C87.4013 27.0214 87.8628 28.8011 87.8628 31.0256C87.8628 33.2701 87.4013 35.0597 86.4782 36.3945ZM80.442 34.5119C80.794 35.249 81.4049 35.6175 82.2748 35.6175C83.1447 35.6175 83.7623 35.249 84.1275 34.5119C84.4861 33.7748 84.6654 32.6127 84.6654 31.0256C84.6654 29.4585 84.4794 28.303 84.1076 27.5593C83.7423 26.8222 83.1314 26.4537 82.2748 26.4537C81.4182 26.4537 80.8072 26.8222 80.442 27.5593C80.0702 28.303 79.8842 29.4585 79.8842 31.0256C79.8842 32.626 80.0702 33.7881 80.442 34.5119Z" fill="black"/>
<path d="M99.2877 36.3945C98.3713 37.7226 96.9702 38.3866 95.0843 38.3866C93.1984 38.3866 91.7973 37.7226 90.8809 36.3945C89.9578 35.0597 89.4963 33.2701 89.4963 31.0256C89.4963 28.8011 89.9578 27.0214 90.8809 25.6867C91.8039 24.3519 93.205 23.6846 95.0843 23.6846C96.9636 23.6846 98.3647 24.3519 99.2877 25.6867C100.211 27.0214 100.672 28.8011 100.672 31.0256C100.672 33.2701 100.211 35.0597 99.2877 36.3945ZM93.2515 34.5119C93.6035 35.249 94.2144 35.6175 95.0843 35.6175C95.9542 35.6175 96.5718 35.249 96.937 34.5119C97.2956 33.7748 97.4749 32.6127 97.4749 31.0256C97.4749 29.4585 97.2889 28.303 96.9171 27.5593C96.5518 26.8222 95.9409 26.4537 95.0843 26.4537C94.2277 26.4537 93.6168 26.8222 93.2515 27.5593C92.8797 28.303 92.6937 29.4585 92.6937 31.0256C92.6937 32.626 92.8797 33.7881 93.2515 34.5119Z" fill="black"/>
<path d="M112.097 36.3945C111.181 37.7226 109.78 38.3866 107.894 38.3866C106.008 38.3866 104.607 37.7226 103.69 36.3945C102.767 35.0597 102.306 33.2701 102.306 31.0256C102.306 28.8011 102.767 27.0214 103.69 25.6867C104.613 24.3519 106.015 23.6846 107.894 23.6846C109.773 23.6846 111.174 24.3519 112.097 25.6867C113.02 27.0214 113.482 28.8011 113.482 31.0256C113.482 33.2701 113.02 35.0597 112.097 36.3945ZM106.061 34.5119C106.413 35.249 107.024 35.6175 107.894 35.6175C108.764 35.6175 109.381 35.249 109.747 34.5119C110.105 33.7748 110.284 32.6127 110.284 31.0256C110.284 29.4585 110.098 28.303 109.727 27.5593C109.361 26.8222 108.75 26.4537 107.894 26.4537C107.037 26.4537 106.426 26.8222 106.061 27.5593C105.689 28.303 105.503 29.4585 105.503 31.0256C105.503 32.626 105.689 33.7881 106.061 34.5119Z" fill="black"/>
<path d="M61.1485 17.5933C59.6796 17.5933 58.5454 17.1239 57.7459 16.1849C56.9464 15.2599 56.5466 14.0257 56.5466 12.4825C56.5466 10.9392 56.9464 9.69814 57.7459 8.75917C58.5501 7.81556 59.6843 7.34375 61.1485 7.34375C62.3571 7.34375 63.3332 7.68075 64.0769 8.35476C64.816 9.02413 65.2344 9.90499 65.332 10.9973H63.6168C63.547 10.3559 63.3053 9.84223 62.8916 9.45642C62.4826 9.07526 61.9015 8.88468 61.1485 8.88468C60.1723 8.88468 59.4472 9.21238 58.9731 9.8678C58.4989 10.5372 58.2619 11.4087 58.2619 12.4825C58.2619 13.5609 58.4989 14.4278 58.9731 15.0832C59.4472 15.7387 60.1723 16.0664 61.1485 16.0664C61.8597 16.0664 62.4245 15.8851 62.8428 15.5225C63.2565 15.1646 63.5191 14.6695 63.6307 14.0374H65.332C65.2065 15.0879 64.7765 15.9455 64.0421 16.6102C63.3169 17.2656 62.3524 17.5933 61.1485 17.5933Z" fill="black"/>
<path d="M70.6424 17.4678V7.46926H72.3297V17.4678H70.6424Z" fill="black"/>
<path d="M82.242 17.5933C80.7731 17.5933 79.6389 17.1239 78.8394 16.1849C78.0399 15.2599 77.6401 14.0257 77.6401 12.4825C77.6401 10.9392 78.0399 9.69814 78.8394 8.75917C79.6436 7.81556 80.7778 7.34375 82.242 7.34375C83.4506 7.34375 84.4267 7.68075 85.1705 8.35476C85.9095 9.02413 86.3279 9.90499 86.4255 10.9973H84.7103C84.6405 10.3559 84.3988 9.84223 83.9851 9.45642C83.5761 9.07526 82.995 8.88468 82.242 8.88468C81.2659 8.88468 80.5407 9.21238 80.0666 9.8678C79.5924 10.5372 79.3554 11.4087 79.3554 12.4825C79.3554 13.5609 79.5924 14.4278 80.0666 15.0832C80.5407 15.7387 81.2659 16.0664 82.242 16.0664C82.9532 16.0664 83.518 15.8851 83.9363 15.5225C84.35 15.1646 84.6127 14.6695 84.7242 14.0374H86.4255C86.3 15.0879 85.87 15.9455 85.1356 16.6102C84.4105 17.2656 83.4459 17.5933 82.242 17.5933Z" fill="black"/>
<path d="M97.1605 13.5005L99.7194 17.3284V17.4678H97.8229L95.4104 13.6957H93.4093V17.4678H91.7359V7.46926H95.9613C96.9607 7.46926 97.7555 7.76442 98.3459 8.35476C98.9362 8.9451 99.2314 9.67954 99.2314 10.5581C99.2314 11.2739 99.0478 11.8875 98.6805 12.3988C98.3226 12.9148 97.8159 13.282 97.1605 13.5005ZM93.4093 8.98229V12.1827H95.8636C96.4168 12.1827 96.8258 12.0363 97.0908 11.7434C97.3697 11.4506 97.5092 11.0601 97.5092 10.572C97.5092 10.0932 97.3697 9.70743 97.0908 9.41459C96.8026 9.12639 96.3936 8.98229 95.8636 8.98229H93.4093Z" fill="black"/>
<path d="M109.429 7.46926L113.013 17.3284V17.4678H111.187L110.399 15.153H106.32L105.532 17.4678H103.761V17.3284L107.331 7.46926H109.429ZM106.815 13.6818H109.904L108.391 9.22633H108.328L106.815 13.6818Z" fill="black"/>
<path d="M40.1879 19.8033C40.5192 20.2984 40.497 20.9461 40.564 21.5268C40.5414 22.757 40.6497 24.2218 40.43 25.4724C40.3181 25.9915 39.9685 26.5296 39.4174 26.7251C38.5352 27.1123 37.3441 27.0042 36.529 26.552C35.8438 26.0773 35.7584 25.2809 35.6691 24.5252C35.6021 23.0363 35.4904 21.4636 35.9112 20.1031C36.2423 19.2637 37.1469 19.0477 37.9623 18.9827C38.8219 18.9825 39.6593 19.1128 40.1879 19.8033Z" fill="black"/>
<path d="M28.1683 38.6681L28.0155 38.7983C25.719 39.2934 23.155 39.3139 20.8575 38.7537L21.0307 38.5601C23.0492 37.2443 26.1956 37.2443 28.1683 38.6681ZM20.4016 38.173L19.967 38.5173C18.143 38.0428 16.4512 37.2238 14.8879 36.1033V36.0382C15.4099 35.7142 15.9311 35.3699 16.495 35.1337C17.7318 36.3602 19.0122 37.2889 20.4016 38.173ZM34.1575 36.0382C32.9441 37.0078 31.5332 37.6555 30.1 38.1935L29.0803 38.5173C28.909 38.4299 28.7562 38.3033 28.6037 38.173L28.6446 38.1078C30.0367 37.2887 31.2949 36.2968 32.486 35.1113C33.0743 35.3497 33.6364 35.6716 34.1575 36.0382ZM31.8384 34.8098C31.1426 35.6064 30.2527 36.297 29.4265 36.8794C28.9279 37.181 28.4288 37.5049 27.9077 37.7635L26.9733 37.3541L27.0403 37.2034C27.822 36.1463 28.5181 35.0686 29.1249 33.926L29.188 33.8814C30.1225 34.097 31.0123 34.4005 31.8384 34.8098ZM19.9029 33.9034C20.5311 35.0892 21.3127 36.2096 22.0944 37.33C21.7893 37.5049 21.4217 37.613 21.1164 37.784C19.6852 37.0731 18.3172 36.0812 17.1679 34.8956V34.8304C18.0138 34.4212 18.9035 34.1193 19.8145 33.8813L19.9029 33.9034ZM28.4736 33.7099L28.4921 33.7751C27.8893 34.9383 27.1261 36.0587 26.3035 37.1158C25.9351 37.1586 25.5888 37.0079 25.2165 36.9855L24.8516 36.9445C24.8072 35.6715 24.7848 34.5492 24.8516 33.278C26.0875 33.3006 27.3233 33.4289 28.4736 33.7099ZM24.1975 36.9224C23.7433 37.0302 23.2436 37.0302 22.8091 37.1383C21.9185 36.0812 21.1815 34.9384 20.5524 33.7527L20.6612 33.6652C21.7892 33.4514 22.9616 33.2781 24.177 33.2781L24.1975 36.9224ZM19.6413 31.9642C19.4236 31.9642 19.1853 31.9195 19.0336 31.9847L19.5761 33.2557L19.5119 33.3209C18.5339 33.6002 17.5791 33.9465 16.6475 34.3352L16.5591 34.2908C15.9514 33.6244 15.366 32.891 14.8878 32.1561C14.7817 31.7912 14.3472 32.0053 14.1089 31.9644C14.629 32.9117 15.3223 33.7529 16.0184 34.6147C15.4313 34.961 14.846 35.35 14.2382 35.629C12.9363 34.637 11.7201 33.3434 10.81 31.9849C10.5485 31.942 10.3754 31.9644 10.1157 31.9849C11.6763 34.4433 14.1089 36.5987 16.6475 37.8699L16.668 37.8495L16.6913 37.9145C18.4045 38.7541 20.2266 39.359 22.1585 39.6175C28.8195 40.5015 35.1775 37.6336 38.8662 31.9849C38.6726 31.9644 38.3896 31.9644 38.1703 31.9849C37.2618 33.3008 36.1118 34.5736 34.8536 35.5639L34.6375 35.5433C34.0939 35.199 33.506 34.9161 32.9849 34.5736C33.6809 33.7307 34.3546 32.8913 34.8756 31.9644H34.2019C33.6584 32.761 33.0927 33.6004 32.3779 34.3131C31.4213 33.926 30.554 33.5799 29.5787 33.3209L29.471 33.2353C29.6236 32.8035 29.9028 32.3939 29.992 31.9642H29.4077L28.8195 33.1273C27.5391 32.8463 26.1283 32.6956 24.8253 32.61C24.762 32.4164 24.8515 32.1353 24.762 31.9642H24.1971C24.1543 32.221 24.2623 32.4164 24.1338 32.6304C22.7872 32.6956 21.4854 32.8463 20.2263 33.1051L19.6413 31.9642ZM5.88358 15.4035L4.53796 15.4259C4.51657 16.6399 4.51657 17.8541 4.53796 19.0681C5.27677 19.0923 5.97104 19.0681 6.68757 19.1333V26.4663L6.6643 26.766L4.51657 26.8106C4.47278 27.9958 4.47278 29.1821 4.51657 30.3673H14.0857V26.8106C13.3691 26.766 12.567 26.8309 11.8727 26.7455L11.8941 19.178L11.9379 19.1128L14.0857 19.0923C14.1091 17.862 14.1295 16.548 14.0653 15.4257L5.88358 15.4035ZM42.7524 16.6988C39.9309 14.8879 35.6316 14.7576 32.7283 16.3954C31.1425 17.2143 30.1003 18.8335 29.7765 20.4918C29.1884 23.2313 29.341 26.4867 31.4216 28.5359C33.8561 30.6911 37.3923 31.1657 40.5376 30.2816C40.6862 30.2518 41.1629 30.1308 41.4867 29.9558L41.5798 29.9149C42.5551 29.5056 43.4895 28.8354 44.1816 27.9309C45.7898 25.5599 45.8978 22.0012 44.9188 19.3287C44.5316 18.2938 43.7277 17.3669 42.7524 16.6988ZM24.3501 16.0084C21.9623 14.9941 18.6215 14.888 16.4513 16.4606C15.0405 17.4954 14.606 19.3491 14.9755 20.9888C15.2584 22.5409 16.7334 23.6837 18.1432 24.2216C20.0761 24.9123 22.0944 25.4073 24.045 26.0772C24.2423 26.1629 24.5018 26.3563 24.461 26.5947C24.461 26.7882 24.2628 26.8962 24.1102 26.9818C22.0713 27.5422 19.8584 27.112 18.3834 25.5599C18.2104 25.344 18.1015 25.0853 17.9266 24.8693L14.997 24.8917C14.9552 26.6375 14.9318 28.6422 14.997 30.3674L18.2523 30.347L18.2961 29.3103C18.6655 29.4851 19.034 29.6992 19.4035 29.8947C21.66 30.8421 24.5691 31.0561 26.8025 29.8947C28.4292 28.9865 29.3002 27.2408 29.0583 25.3667C28.82 23.5335 27.0852 21.8733 25.3283 21.4192L20.0761 19.8892L19.6852 19.6938C19.5122 19.543 19.4033 19.3495 19.4451 19.1131C19.8582 18.4021 20.814 18.6181 21.5305 18.6386C23.0492 18.8544 24.6098 19.3719 25.4995 20.7733C26.4561 20.7733 27.5616 20.7938 28.6038 20.7529C28.6449 18.9829 28.5814 17.4307 28.5593 15.6403C27.584 15.6198 26.3892 15.6198 25.4139 15.6645C25.3692 15.9231 25.4547 16.2879 25.3467 16.5484L24.3501 16.0084ZM26.1061 8.67713C26.9548 9.75475 27.7774 10.8546 28.3433 12.0402C27.1709 12.3212 25.9795 12.4701 24.7624 12.4701C24.7179 11.3292 24.74 10.0563 24.7624 8.87056C25.1978 8.80562 25.6744 8.74044 26.1061 8.67713ZM24.069 8.85029C24.1342 9.9707 24.0895 11.2643 24.0895 12.4499C23.481 12.5356 22.9402 12.4293 22.3327 12.3847C21.7455 12.299 21.0074 12.2339 20.423 12.0404C21.0521 10.8548 21.7892 9.71208 22.6787 8.65486L24.069 8.85029ZM21.9623 8.44078L21.898 8.61194C21.0726 9.64677 20.423 10.7691 19.7707 11.869L19.6851 11.8895C18.7955 11.653 17.9263 11.372 17.1027 11.0054L17.1465 10.875C18.3396 9.73411 19.5978 8.78498 20.987 8.05167C21.3127 8.18017 21.6365 8.29002 21.9623 8.44078ZM31.7268 10.8994L31.6861 10.9627C30.8375 11.3295 29.9701 11.6738 29.0356 11.8691C28.3656 10.7245 27.6286 9.58359 26.8022 8.48357C27.1072 8.31054 27.4759 8.18017 27.7998 8.00901C29.2105 8.72004 30.5767 9.73435 31.7268 10.8994ZM20.3347 7.6423C18.9899 8.48357 17.6667 9.47549 16.4513 10.6816C15.8659 10.4657 15.3226 10.1437 14.8023 9.77527V9.73423C16.1693 8.71992 17.688 7.9661 19.2942 7.44687L19.4887 7.32025V7.36116C19.6617 7.40583 19.7939 7.2104 19.9447 7.34064L20.3347 7.6423ZM34.0051 9.68969L33.964 9.77539L32.4678 10.6184H32.3559C31.2095 9.45334 29.862 8.44091 28.4921 7.64242L28.909 7.27571C30.7293 7.75027 32.4453 8.56928 34.0051 9.68969ZM28.0381 7.05976V7.10267C26.1508 8.48357 23.091 8.61194 21.0959 7.34089L20.7488 7.05976C23.0492 6.52013 25.76 6.47722 28.0381 7.05976ZM25.8046 6.09011C25.2167 6.02493 24.5019 6.00453 23.8718 6.06772C23.6336 6.04732 23.3517 6.06772 23.0697 6.09011C17.8613 6.49949 13.066 9.19448 10.0722 13.7879C10.289 13.7656 10.5488 13.8512 10.7655 13.7656C11.2867 13.0342 11.873 12.3214 12.5233 11.6309C13.0872 11.0911 13.6093 10.5756 14.217 10.1866C14.7819 10.5534 15.41 10.8548 15.9516 11.1991C15.2788 12.0404 14.5855 12.8816 14.0858 13.788C14.2384 13.8513 14.5204 13.8308 14.7373 13.788C15.2788 12.9896 15.8659 12.1911 16.5593 11.4802C17.4936 11.8245 18.4047 12.1911 19.3594 12.4499L19.445 12.5356L18.9034 13.7881C19.1416 13.8309 19.2942 13.8086 19.5324 13.7881C19.7288 13.4196 19.8795 13.0101 20.0963 12.6453C21.3545 12.9244 22.6787 13.0753 24.0243 13.12C24.1974 13.2687 24.069 13.5945 24.1341 13.7881H24.7175C24.7845 13.5704 24.6991 13.3341 24.7846 13.1404C26.0427 13.0752 27.3641 12.9449 28.5814 12.6453L28.6893 12.6658L29.2737 13.7881C29.471 13.7881 29.7315 13.8309 29.8841 13.7434L29.3406 12.4947L29.3852 12.45C30.383 12.1913 31.3171 11.8041 32.27 11.4152C32.944 12.1262 33.5729 12.9692 34.1388 13.7881C34.377 13.7881 34.6155 13.8086 34.7865 13.7434C34.521 13.2615 34.2094 12.8065 33.8559 12.3848C33.5729 11.9753 33.2678 11.6106 32.8993 11.2216V11.1136L34.4182 10.2296L34.6378 10.144C35.9593 11.1564 37.1318 12.3848 38.0623 13.7434C38.3229 13.7434 38.5425 13.8309 38.7585 13.7229C35.8512 9.32485 31.0568 6.49962 25.8678 6.09011L25.8455 6.1329L25.8046 6.09011ZM0.285156 0.808105H48.6746V45.0072H0.285156V0.808105Z" fill="black"/>
<path fill-rule="evenodd" clip-rule="evenodd" d="M119.532 1.48809H0.975884V44.3272H119.532V1.48809ZM0.295898 0.808105V45.0072H120.212V0.808105H0.295898Z" fill="black"/>
</svg>
