<?xml version="1.0" encoding="utf-8"?>
<!-- Generator: Adobe Illustrator 26.3.1, SVG Export Plug-In . SVG Version: 6.00 Build 0)  -->
<svg version="1.1" id="Layer_1" xmlns="http://www.w3.org/2000/svg" xmlns:xlink="http://www.w3.org/1999/xlink" x="0px" y="0px"
	 viewBox="0 0 100 90" style="enable-background:new 0 0 100 90;" xml:space="preserve">
<style type="text/css">
	.st0{fill-rule:evenodd;clip-rule:evenodd;}
</style>
<g>
	<path class="st0" d="M45.7,49.8c2,0,3.7-1.7,3.7-3.9c0-2.2-1.6-3.9-3.7-3.9c-2,0-3.7,1.7-3.7,3.9C42,48.1,43.7,49.8,45.7,49.8z
		 M45.7,40.6c3,0,5.5,2.4,5.5,5.3c0,2.9-2.5,5.3-5.5,5.3c-3,0-5.5-2.4-5.5-5.3C40.2,43,42.7,40.6,45.7,40.6z M62.3,47.5
		c0-0.2-0.2-0.4-0.3-0.4h-1.1c-0.1,0-0.3,0.1-0.3,0.2l0,0c-0.5,1.4-1.7,2.4-3.5,2.4c-2,0-3.6-1.7-3.6-3.9c0-2.2,1.6-3.9,3.6-3.9
		c1.6,0,2.8,0.9,3.4,2.1h0c0.1,0.1,0.2,0.2,0.3,0.2h1.1c0.2,0,0.3-0.2,0.3-0.4c0-0.1,0-0.2,0-0.2c-1.4-3.1-5.1-3.1-5.1-3.1
		c-3,0-5.4,2.4-5.4,5.3c0,2.9,2.4,5.3,5.4,5.3c0,0,3.7,0.3,5.2-3.5C62.3,47.7,62.3,47.6,62.3,47.5z"/>
	<path class="st0" d="M36.6,49.5c0.8-0.4,1.4-1.4,1.4-2.5l0-0.3v-5.3c0-0.2,0.2-0.4,0.3-0.4h1.1c0.2,0,0.3,0.2,0.3,0.4l0,5.5
		c0,2.5-1.8,4.3-4.1,4.3l-0.7,0c-0.9,0-1.8-0.3-1.8-0.3c-1.5-0.5-2.5-1.9-2.5-3.5v-0.1c0-0.2,0.2-0.4,0.3-0.4h0.9
		c0.3,0,0.3,0.3,0.3,0.3l0,0.1c0,1.3,1.3,2.4,2.9,2.4C35.1,49.8,35.9,49.8,36.6,49.5z M72.4,50.2l-3.9-5.8l2.8-2.9
		c0,0,0.1-0.1,0.1-0.2c0,0,0-0.3-0.2-0.3h-1.4c-0.1,0-0.2,0-0.2,0.1l-4.5,4.6v-4.4c0-0.2-0.2-0.4-0.3-0.4h-0.6c0,0-0.9-0.1-0.9,1.2
		v8.2c0,0.2,0.2,0.4,0.3,0.4h0.6c0,0,0.9,0.1,0.9-1.2v-1.4l2.3-2.4l3.2,4.9c0.1,0.1,0.2,0.2,0.3,0.2h1.4c0.2,0,0.2-0.3,0.2-0.3
		C72.5,50.3,72.4,50.2,72.4,50.2z M79,46.4c0.4,0,0.7-0.3,0.7-0.7c0-0.4-0.3-0.7-0.7-0.7h-4v-2.4h4.6c0.4,0,0.7-0.3,0.7-0.7
		c0-0.4-0.3-0.7-0.7-0.7h-5.7c-0.4,0-0.6,0.3-0.6,0.7V50c0,0.4,0.3,0.7,0.6,0.7h5.7c0.4,0,0.7-0.3,0.7-0.7c0-0.4-0.3-0.7-0.7-0.7
		h-4.6v-2.9H79z M84.2,50c0,0.4,0.3,0.8,0.6,0.8h0.6c0.4,0,0.6-0.3,0.6-0.8l0-2.8l3.7-5.5c0.1-0.2,0.1-0.4,0.1-0.4
		c0-0.2-0.2-0.4-0.3-0.4h-1.2c0,0-0.3,0-0.6,0.4l-2.7,4l-2.3-4C82.5,41,82.1,41,82.1,41H81c-0.2,0-0.3,0.2-0.3,0.4
		c0,0,0,0.1,0.1,0.4l3.4,5.6L84.2,50L84.2,50z"/>
	<path d="M87.3,50.8v-0.8H87v-0.2h0.8v0.2h-0.3v0.8H87.3z M87.9,50.8v-1h0.3l0.2,0.7l0.2-0.7h0.3v1h-0.2V50l-0.2,0.8h-0.2L88.1,50
		v0.8H87.9z M12.7,46.4c1.2,2.2-1,3.3-1,3.3c-0.5-0.8-0.7-1.8-0.7-2.8c0-0.6,0.1-1.1,0.3-1.6C11.3,45.2,12.1,45.3,12.7,46.4z
		 M23.6,51.2c1.2-2.2,3.3-0.8,3.3-0.8c-0.4,0.8-1.1,1.5-2,2.1c-0.5,0.3-1,0.5-1.5,0.6C23.4,53,23,52.3,23.6,51.2z M22,39.5
		c-2.4,0-2.3-2.6-2.3-2.6c0.9,0,1.9,0.2,2.8,0.8c0.5,0.3,0.9,0.7,1.2,1.1C23.7,38.8,23.2,39.5,22,39.5z M19.4,43.5
		c1.3,0,2.3,1.1,2.3,2.4c0,1.3-1,2.4-2.3,2.4c-1.3,0-2.3-1.1-2.3-2.4C17.2,44.5,18.2,43.5,19.4,43.5z M27.5,49.7
		c0,0-0.3-0.2-0.5-0.3c0,0-2.6-1.4-4.2,1.4c-0.6,1.2-0.2,2.2-0.2,2.2c-0.9,0.1-1.9-0.2-2.9-0.7c-1.2-0.6-2.1-1.6-2.5-2.5
		c0,0-0.5-1-0.4-2.2c0.6,0.9,1.5,1.4,2.6,1.4c3,0,5-2.4,5-2.4c0.8-1,1.3-2.5,1.3-4.2c0-1.6-0.4-3-1.1-4l0,0
		c-0.5-0.7-1.3-1.4-2.2-1.9c-0.9-0.5-1.9-0.7-2.8-0.7h-0.2c0,0-0.5,0-0.5,0.6c0,0-0.1,0.4,0,0.6c0,0,0,3.1,3.2,3.2
		c1.4,0,2-0.9,2-0.9c0.5,0.8,0.8,1.9,0.8,3c0,1.4-0.4,2.6-1.1,3.5c0,0-0.6,0.8-1.5,1.3c0.2-0.4,0.4-1,0.4-1.5c0-0.9-0.3-1.6-0.8-2.2
		c-1.5-2.4-4.2-2.9-4.2-2.9c-1.2-0.2-2.7,0.1-4.1,0.9c-1.3,0.8-2.3,1.9-2.7,3l0,0c-0.4,0.8-0.5,1.8-0.5,2.9c0,1.1,0.3,2,0.8,2.8
		l0.1,0.2c0,0,0.2,0.4,0.8,0.2c0,0,0.4-0.1,0.5-0.3c0,0,2.5-1.5,1.1-4.4c-0.7-1.2-1.7-1.4-1.7-1.4c0.4-0.8,1.2-1.6,2.2-2.2
		c1.2-0.7,2.4-0.9,3.4-0.8c0,0,1.2,0.1,2.2,1l0.1,0.1c0,0,0,0-0.1,0c-1.5,0-2.8,1.2-3.1,2.7c-0.9,2.5,0,4.9,0,4.9
		c0.5,1.2,1.5,2.3,3,3.1c1.3,0.7,2.7,0.9,3.9,0.8l0,0c0.8-0.1,1.8-0.5,2.6-1.1c0.8-0.6,1.5-1.4,1.9-2.2l0.1-0.2
		C27.8,50.5,28,50.1,27.5,49.7z"/>
</g>
</svg>
