<svg width="400" height="300" viewBox="0 0 400 300" fill="none" xmlns="http://www.w3.org/2000/svg">
<path fill-rule="evenodd" clip-rule="evenodd" d="M185.366 166.822C192.589 166.822 198.397 160.653 198.397 153.022C198.397 145.29 192.595 139.127 185.366 139.127C178.232 139.127 172.43 145.29 172.43 153.022C172.43 160.653 178.232 166.822 185.366 166.822ZM185.366 134.177C196.088 134.177 204.779 142.596 204.779 152.969C204.779 163.347 196.088 171.766 185.366 171.766C174.727 171.766 166.042 163.353 166.042 152.969C166.042 142.596 174.727 134.177 185.366 134.177ZM244.042 158.593C244.042 157.9 243.504 157.338 242.835 157.338H238.88C238.359 157.338 237.921 157.669 237.743 158.137L237.737 158.143C236.002 163.152 231.835 166.704 225.334 166.704C218.36 166.704 212.765 160.558 212.765 152.945C212.765 145.237 218.36 139.085 225.334 139.085C231.041 139.085 235.168 142.117 237.175 146.456H237.181C237.382 146.865 237.79 147.137 238.264 147.137H242.219C242.894 147.137 243.432 146.581 243.432 145.882C243.432 145.521 243.261 145.177 243.261 145.177C238.471 134.083 225.411 134.16 225.411 134.16C214.914 134.16 206.401 142.572 206.401 152.945C206.401 163.317 214.914 171.724 225.411 171.724C225.411 171.724 238.489 172.636 243.882 159.398C243.876 159.392 244.042 158.99 244.042 158.593Z" fill="black"/>
<path fill-rule="evenodd" clip-rule="evenodd" d="M153.118 165.668C155.954 164.2 158.002 160.855 158.002 156.864L158.008 155.68V136.865C158.008 136.173 158.553 135.61 159.216 135.61H163.177C163.84 135.61 164.39 136.173 164.39 136.865L164.367 156.414C164.367 165.218 157.919 171.641 149.88 171.641L147.5 171.635C144.498 171.635 141.2 170.511 141.2 170.511C136.032 168.817 132.308 163.945 132.308 158.202V158.013C132.308 157.32 132.853 156.758 133.528 156.758H136.719C137.921 156.758 137.873 157.894 137.873 157.894L137.879 158.149C137.879 162.891 142.408 166.739 147.997 166.739C147.997 166.745 150.762 166.881 153.118 165.668ZM279.629 168.142L266.025 147.629L275.728 137.375C275.728 137.375 275.994 137.096 275.994 136.575C275.994 136.575 276.006 135.61 275.177 135.61H270.335C269.997 135.61 269.689 135.752 269.476 135.983L253.681 152.335V136.859C253.681 136.173 253.136 135.604 252.467 135.604H250.507C250.507 135.604 247.299 135.421 247.299 139.855V168.699C247.299 169.392 247.837 169.948 248.512 169.948H250.472C250.472 169.948 253.681 170.132 253.681 165.703V160.659L261.709 152.175L273.093 169.309C273.336 169.664 273.786 169.895 274.124 169.895H279.067C279.896 169.895 279.89 168.936 279.89 168.936C279.896 168.539 279.629 168.142 279.629 168.142ZM302.577 154.561C303.986 154.561 305.122 153.389 305.122 151.933C305.122 150.476 303.986 149.298 302.577 149.298H288.451V140.868H304.53C305.939 140.868 307.076 139.695 307.076 138.239C307.076 136.788 305.939 135.61 304.53 135.61H284.283C283.034 135.61 282.027 136.652 282.027 137.937V167.574C282.027 168.859 283.034 169.901 284.283 169.901H304.53C305.939 169.901 307.076 168.729 307.076 167.272C307.076 165.822 305.939 164.644 304.53 164.644H288.451V154.561H302.577ZM321.149 167.272C321.149 168.758 322.155 169.954 323.404 169.954H325.37C326.613 169.954 327.626 168.758 327.626 167.272L327.62 157.563L340.597 138.162C341.029 137.351 341 136.907 341 136.907C341 136.22 340.455 135.652 339.78 135.652H335.446C335.446 135.652 334.31 135.575 333.451 136.972L324.05 151.074L315.838 136.972C314.98 135.575 313.837 135.652 313.837 135.652H309.953C309.278 135.652 308.74 136.214 308.74 136.907C308.74 136.907 308.716 137.345 309.136 138.162L321.143 157.883V167.272H321.149Z" fill="black"/>
<path d="M332.054 170.108V167.171H331.041V166.579H333.759V167.171H332.741V170.108H332.054ZM334.191 170.108V166.579H335.221L335.843 168.983L336.459 166.579H337.489V170.108H336.843V167.325L336.168 170.108H335.505L334.83 167.325V170.108H334.191ZM68.8421 154.573C72.9982 162.222 65.2248 166.23 65.2248 166.23C63.6204 163.56 62.7264 160.049 62.8922 156.248C62.9751 154.241 63.354 152.347 63.9578 150.63C63.9578 150.63 66.8647 150.926 68.8421 154.573ZM107.407 171.736C111.504 164.063 118.904 168.776 118.904 168.776C117.555 171.594 115.139 174.222 111.924 176.081C110.225 177.07 108.473 177.727 106.744 178.112C106.75 178.112 105.459 175.401 107.407 171.736ZM101.818 130.329C93.2043 130.329 93.6364 121.224 93.6364 121.224C96.715 121.093 100.167 122.017 103.334 124.054C105.015 125.137 106.454 126.416 107.62 127.825C107.614 127.825 105.927 130.329 101.818 130.329ZM92.7365 144.384C97.1827 144.384 100.794 148.108 100.794 152.708C100.794 157.308 97.1827 161.032 92.7365 161.032C88.2904 161.032 84.679 157.308 84.679 152.708C84.679 148.108 88.2844 144.384 92.7365 144.384ZM121.172 166.467C121.172 166.467 120.035 165.685 119.479 165.401C119.479 165.401 110.314 160.552 104.707 170.487C102.475 174.862 103.997 178.302 103.997 178.302C100.818 178.515 97.159 177.739 93.666 175.892C89.4863 173.678 86.4136 170.398 84.9454 167.029C84.9454 167.029 83.264 163.501 83.6015 159.214C85.6025 162.216 88.9475 164.193 92.7425 164.193C103.156 164.193 110.207 155.852 110.207 155.852C113.02 152.388 114.825 147.06 114.825 141.08C114.825 135.551 113.268 130.584 110.811 127.126L110.788 127.103C109.006 124.539 106.371 122.183 103.085 120.472C99.7817 118.749 96.3598 117.944 93.2871 118.003H92.6418C92.6418 118.003 90.9664 118.015 90.7177 120.158C90.7177 120.158 90.5342 121.603 90.5697 122.236C90.5697 122.236 90.5578 133.005 101.907 133.52C106.785 133.52 109.112 130.489 109.112 130.489C110.776 133.331 111.794 137.084 111.788 141.187C111.788 146.101 110.332 150.494 108.041 153.442C108.041 153.442 106.028 156.242 102.582 158.001C103.381 156.42 103.837 154.626 103.837 152.72C103.837 149.7 102.7 146.959 100.853 144.917C95.6434 136.474 85.9578 134.539 85.9578 134.539C81.7188 133.781 76.4142 134.84 71.447 137.812C66.8529 140.559 63.4842 144.396 61.8028 148.28L61.791 148.309C60.5181 151.151 59.855 154.656 60.0267 158.391C60.1984 162.157 61.1871 165.573 62.7264 168.249L63.0343 168.823C63.0343 168.823 63.7388 170.256 65.7635 169.439C65.7635 169.439 67.0187 168.912 67.5574 168.551C67.5574 168.551 76.5149 163.205 71.4352 152.957C69.0612 148.653 65.4201 148.108 65.4201 148.108C66.9713 145.225 69.594 142.478 73.01 140.441C77.0891 138.002 81.4524 137.096 85.0046 137.653C85.0046 137.653 89.1903 138.132 92.6063 141.092L92.9319 141.27C92.8609 141.27 92.8016 141.258 92.7306 141.258C87.2721 141.258 82.7489 145.331 81.8194 150.695C78.6166 159.339 81.9023 167.9 81.9023 167.9C83.566 171.979 87.278 175.993 92.3695 178.675C97.0761 181.167 102.014 182.002 106.081 181.356L106.105 181.351C109.1 180.901 112.309 179.592 115.263 177.425C118.229 175.235 120.473 172.535 121.835 169.753L122.125 169.178C122.131 169.161 122.983 167.722 121.172 166.467Z" fill="black"/>
</svg>
