<?xml version="1.0" encoding="utf-8"?>
<!-- Generator: Adobe Illustrator 26.3.1, SVG Export Plug-In . SVG Version: 6.00 Build 0)  -->
<svg version="1.1" id="Layer_1" xmlns="http://www.w3.org/2000/svg" xmlns:xlink="http://www.w3.org/1999/xlink" x="0px" y="0px"
	 viewBox="0 0 100 90" style="enable-background:new 0 0 100 90;" xml:space="preserve">
<style type="text/css">
	.st0{fill:#F9A71C;}
	.st1{fill:#EE4D9B;}
	.st2{fill:#DA2128;}
</style>
<g>
	<path class="st0" d="M18.2,32.3l1.3-1.1h1.6c1,0.6,1.9,1.4,1.8,2.7c0,1.4-1,2.3-2.7,2.5c-0.1-0.1-0.1-0.2-0.2-0.3
		c0-1.5-0.5-2.7-1.9-3.4c0,0-0.1-0.1-0.1-0.2C18.1,32.4,18.1,32.3,18.2,32.3z"/>
	<path d="M14.3,51.4c-0.4-0.1-0.8-0.3-1-0.6c-0.3-0.3-0.4-0.7-0.5-1.1c0-4.4,0-8.8,0.1-13.3c0-2.7,0-2.7-2.7-2.6v16.9
		c0.8,1.5,1.8,2.7,3.6,2.9c0.4,0,1.1,0.4,1.2-0.3C15,52.7,15.5,51.7,14.3,51.4z"/>
	<path d="M59.4,39.5c2.4-0.3,2.4-0.3,3.2,1.8c1.1,2.9,2.2,5.8,3.4,9c0.8-2.4,1.5-4.5,2.3-6.6c0.3-0.8,0.5-1.6,0.8-2.4
		c0.7-2.1,0.7-2.1,3.2-2c-1.2,3.2-2.3,6.4-3.5,9.6c-0.8,2.1-1.5,4.3-2.3,6.4c-0.4,1-1,1.9-1.9,2.5c-0.9,0.6-1.9,1-2.9,1
		c-0.4,0-0.9,0.1-0.8-0.5c0.1-0.6-0.5-1.4,0.5-1.7c0.3-0.1,0.7-0.1,1-0.2c1.8-0.6,2.4-1.5,2-3.3c-0.3-1.8-1.2-3.4-1.8-5
		C61.7,45.2,60.6,42.4,59.4,39.5z"/>
	<path d="M23,47.6c0-1.6,0-3.2,0-4.8c0-0.8-0.1-1.3-1.1-1.1c-1,0.2-1-0.4-0.9-1.1c0-0.7-0.2-1.4,1-1.2c0.8,0.1,1-0.2,1.1-1
		c0.5-3.3,2.8-4.9,6-4.2c0.4,0.1,1.1,0,0.8,0.7c-0.2,0.5-0.1,1.4-1.2,1.2c-1.9-0.2-3,0.6-3.3,2.3c-0.1,0.7-0.1,1.2,0.8,1
		c0.3,0,0.6,0,0.9,0c1.1-0.2,1.1,0.4,1.1,1.2c0,0.8-0.2,1.2-1.1,1.1c-1.8-0.1-1.8,0-1.8,1.7c0,3.1,0,6.2,0,9.3c0,1-0.4,1.1-1.2,1
		c-0.7-0.1-1.4,0.2-1.4-1C23.1,51,23,49.3,23,47.6z"/>
	<path d="M49.4,42.5c-1-0.6-1.9-1.2-3-1.1c-0.8,0.1-1.7,0.3-1.9,1.2c-0.2,0.9,0.2,1.6,1,2c0.9,0.5,1.9,0.9,2.9,1.4
		c2,1.1,2.8,2.7,2.3,4.7c-0.4,1.7-1.9,2.8-4,3c-1.4,0.1-2.8-0.1-4.1-0.6c-0.6-0.3-0.8-0.5-0.6-1.3c0.4-1.2,0.8-1.6,1.9-0.8
		c0.7,0.5,1.5,0.7,2.3,0.6c0.8-0.1,1.5-0.3,1.8-1.2c0.1-0.4,0.2-0.8,0-1.2c-0.1-0.4-0.3-0.7-0.7-1c-0.9-0.8-1.9-1.1-2.9-1.6
		C43.4,46,42.4,45.3,42,44c-0.7-2,0.5-4,2.6-4.5c1.7-0.4,3.3-0.1,4.9,0.5c0.5,0.2,0.6,0.4,0.5,0.9C49.8,41.3,49.6,41.9,49.4,42.5z"
		/>
	<path d="M55,35.6c0,0.9,0,1.9,0,2.8c0,0.7,0.1,1,0.9,0.9c0.5-0.1,1.1,0.1,1.6,0c1.2-0.2,1.4,0.4,1.3,1.4c0,0.7-0.3,0.8-0.9,0.8
		c-1,0.1-2.3-0.5-2.8,0.3c-0.5,0.7-0.1,1.9-0.1,2.9c0,1.4,0,2.8,0,4.2c0.1,2.3,1.2,3.2,3.4,2.6c0.7-0.2,1.1-0.3,1.2,0.6
		c0,0.7,0.4,1.4-0.8,1.5c-1.1,0.1-2.2,0.3-3.2,0.1c-1.8-0.4-3-1.9-3.1-4.1c-0.1-2.3,0-4.7,0-7c0-0.7,0-1.2-0.9-1.1
		c-0.9,0.1-0.7-0.6-0.7-1.1c0-0.5-0.2-1.2,0.7-1.1c0.9,0.1,0.9-0.4,0.9-1.1C52.6,36.2,52.6,36.2,55,35.6z"/>
	<path d="M73.1,42.4c0-2.5,0.1-5,0-7.5c0-1.2,0.6-1,1.4-1c0.8,0,1.2,0.1,1.2,1.1c-0.1,4.6,0,9.3,0,13.9c0,1.3,0.4,2.2,1.7,2.6
		c1.2,0.3,0.5,1.3,0.5,1.9c0,0.7-0.7,0.4-1.1,0.3c-2.4-0.3-3.6-1.6-3.6-4C73,47.2,73.1,44.8,73.1,42.4z"/>
	<path d="M19.9,46.6c0,2.1-0.1,4.1,0,6.2c0,1-0.5,1.1-1.2,1c-0.7,0-1.4,0.3-1.4-1c0.1-3.4,0-6.8,0.1-10.2c0-0.9-0.2-1.4-1.2-1.2
		c-0.9,0.1-0.8-0.5-0.8-1c0-0.5-0.2-1,0.7-1.1c3.7-0.3,3.7-0.4,3.7,3.3V46.6z"/>
	<path class="st1" d="M18.2,32.3c0,0.1,0,0.1,0,0.2c-0.3,2.1-0.1,2.5,1.9,3.7c0.1,0,0.1,0.1,0.1,0.1c-1.4,1.7-2.5,2.1-3.9,1.5
		c-0.6-0.3-1.2-0.8-1.5-1.4c-0.3-0.6-0.4-1.3-0.2-2C15,33.1,16.2,32.3,18.2,32.3z"/>
	<path class="st2" d="M20.1,36.2c-2.1-0.1-3.1-2-1.9-3.7C20,33.1,20.6,34.2,20.1,36.2z"/>
	<path d="M87.2,40.2c-2.3-1.2-4.7-1.3-6.9,0.1c-3.2,2.1-4.2,7.1-2.1,10.4c1.9,3.1,6.2,4,9.7,2c0.6-0.4,0.9-0.7,0.4-1.3
		c-0.4-0.5-0.4-1.1-1.4-0.5c-3.2,1.9-6.7,0.2-7-3.3c-0.1-0.7,0.1-0.9,0.7-0.9c1.4,0,2.8,0,4.2,0c1.4,0,2.7-0.1,4.1,0
		c0.9,0.1,1.1-0.3,1.2-1.1C90,43.3,89.3,41.3,87.2,40.2z M86.5,45c-0.9-0.1-1.9,0-2.8,0c-1,0-2.1,0-3.1,0c-0.6,0-0.8-0.2-0.6-0.8
		c0.4-1.5,1.9-2.7,3.6-2.8c1.8-0.1,3.2,0.8,3.8,2.4C87.5,44.5,87.5,45,86.5,45z"/>
	<path d="M38,40c-2.5-1.1-5-1.1-7.2,0.7c-2.8,2.3-3.4,7.1-1.4,10.1c1.9,2.9,6,3.7,9.4,1.9c0.5-0.3,1.2-0.5,0.6-1.4
		c-0.4-0.6-0.5-1.1-1.5-0.5c-3.1,1.8-6.5,0.2-7-3.3c-0.1-0.7,0.1-0.9,0.8-0.9c1.3,0,2.7,0,4.1,0c1.4,0,2.8,0,4.2,0
		c0.9,0,1.1-0.3,1.1-1.1C41.2,43.1,40.1,40.9,38,40z M37.6,45.1c-1-0.1-2,0-2.9,0c-1,0-2.1,0-3.1,0c-0.4,0-0.7,0.1-0.6-0.5
		c0.2-1.5,1.9-2.9,3.6-3c1.9-0.1,3.4,1,3.8,2.6C38.6,44.9,38.4,45.1,37.6,45.1z"/>
</g>
</svg>
