<svg width="400" height="300" viewBox="0 0 400 300" fill="none" xmlns="http://www.w3.org/2000/svg">
<path d="M117.029 116.913L120.546 114H124.767C127.392 115.611 129.65 117.518 129.566 120.944C129.474 124.616 127.012 126.903 122.53 127.557C122.314 127.316 122.149 127.033 122.045 126.727C122.045 122.836 120.778 119.692 117.12 117.806C117.016 117.684 116.952 117.533 116.936 117.374C116.92 117.214 116.952 117.053 117.029 116.913Z" fill="#F9A71C"/>
<path d="M106.884 166.702C105.854 166.466 104.921 165.921 104.209 165.141C103.498 164.36 103.041 163.38 102.902 162.333C102.949 150.809 102.993 139.283 103.035 127.754C103.035 120.719 103.035 120.719 96 121V165.077C97.998 169.038 100.664 172.211 105.491 172.555C106.56 172.633 108.46 173.618 108.572 171.782C108.678 170.093 110.176 167.511 106.884 166.702Z" fill="black"/>
<path d="M224.585 135.725C230.917 135.022 230.882 135.022 232.894 140.298C235.772 147.889 238.663 155.473 241.85 163.831C243.961 157.675 245.846 152.209 247.718 146.75C248.421 144.639 249.125 142.571 249.871 140.481C251.791 134.909 251.798 134.916 258.236 135.387C255.196 143.738 252.185 152.012 249.188 160.286C247.162 165.858 245.178 171.444 243.138 177.016C242.199 179.605 240.512 181.856 238.291 183.485C236.07 185.113 233.415 186.045 230.664 186.162C229.651 186.204 228.216 186.542 228.596 184.846C228.926 183.39 227.189 181.244 229.869 180.505C230.77 180.259 231.719 180.189 232.599 179.907C237.284 178.43 238.804 176.052 237.896 171.247C237.024 166.646 234.885 162.46 233.239 158.119C230.432 150.682 227.491 143.225 224.585 135.725Z" fill="black"/>
<path d="M129.72 156.902C129.72 152.681 129.622 148.516 129.763 144.33C129.84 142.219 129.453 140.917 126.949 141.396C124.444 141.874 124.451 140.27 124.521 138.518C124.592 136.767 124.106 134.747 127.026 135.261C129.137 135.641 129.629 134.761 129.917 132.686C131.092 124.18 137.305 119.91 145.642 121.612C146.626 121.816 148.456 121.5 147.752 123.399C147.21 124.743 147.52 126.959 144.614 126.586C139.69 125.939 136.728 128.247 136.073 132.573C135.813 134.311 135.905 135.613 138.24 135.275C139.042 135.162 139.894 135.366 140.689 135.275C143.432 134.846 143.594 136.366 143.629 138.532C143.665 140.699 143.151 141.565 140.745 141.494C136.137 141.361 136.13 141.494 136.13 146.032C136.13 154.067 136.01 162.108 136.2 170.135C136.263 172.71 135.173 172.949 133.14 172.823C131.367 172.689 129.432 173.386 129.622 170.206C129.946 165.766 129.72 161.327 129.72 156.902Z" fill="black"/>
<path d="M198.456 143.493C195.895 141.98 193.531 140.467 190.576 140.678C188.41 140.84 186.257 141.382 185.652 143.795C185.047 146.208 186.299 147.918 188.262 149.008C190.703 150.366 193.341 151.365 195.79 152.709C200.911 155.523 202.987 159.744 201.847 164.831C200.855 169.256 196.972 172.204 191.442 172.689C187.812 173.02 184.155 172.47 180.783 171.085C179.123 170.382 178.595 169.756 179.186 167.729C180.129 164.486 181.255 163.564 184.238 165.717C185.991 166.928 188.12 167.472 190.239 167.251C192.349 167.075 194.221 166.435 194.931 164.254C195.298 163.258 195.34 162.172 195.052 161.151C194.763 160.13 194.16 159.227 193.327 158.569C191.09 156.613 188.248 155.755 185.687 154.39C182.725 152.807 180.171 150.809 179.095 147.489C177.385 142.205 180.375 137.196 185.996 135.725C190.394 134.572 194.544 135.536 198.66 137.027C199.969 137.498 200.271 138.174 199.842 139.384C199.413 140.594 198.963 142.001 198.456 143.493Z" fill="black"/>
<path d="M213.125 125.693C213.125 128.155 213.23 130.568 213.125 132.967C213.026 134.761 213.512 135.585 215.453 135.381C216.861 135.233 218.268 135.535 219.675 135.31C222.834 134.804 223.326 136.302 223.192 139.018C223.087 140.875 222.292 140.981 220.828 141.065C218.324 141.213 214.905 139.834 213.575 141.734C212.358 143.471 213.216 146.658 213.209 149.233C213.209 152.842 213.153 156.466 213.265 160.075C213.448 165.97 216.452 168.313 222.221 166.948C223.917 166.547 225.106 166.041 225.24 168.503C225.331 170.29 226.309 172.112 223.129 172.33C220.315 172.52 217.501 173.083 214.757 172.527C210.064 171.592 206.927 167.469 206.786 161.974C206.631 155.91 206.694 149.845 206.786 143.788C206.786 142.071 206.744 140.756 204.443 141.037C202.143 141.318 202.607 139.51 202.6 138.223C202.593 136.935 202.051 135.127 204.429 135.409C206.694 135.676 206.786 134.396 206.793 132.665C206.716 127.058 206.772 127.058 213.125 125.693Z" fill="black"/>
<path d="M260.086 143.295C260.086 136.78 260.248 130.259 260.015 123.751C259.91 120.669 261.69 121.204 263.533 121.091C265.644 120.965 266.622 121.31 266.594 123.842C266.446 135.943 266.594 148.051 266.502 160.152C266.502 163.423 267.529 165.829 270.885 166.821C273.882 167.708 272.292 170.135 272.292 171.746C272.292 173.533 270.47 172.668 269.513 172.555C263.301 171.852 260.177 168.404 260.093 162.115C260.008 155.825 260.093 149.585 260.086 143.295Z" fill="black"/>
<path d="M121.567 154.2C121.567 159.547 121.391 164.908 121.637 170.248C121.764 172.942 120.441 172.992 118.52 172.865C116.782 172.752 114.876 173.526 114.96 170.311C115.193 161.475 114.96 152.631 115.094 143.788C115.129 141.459 114.672 140.27 112.09 140.699C109.81 141.072 110.106 139.44 110.134 138.047C110.162 136.654 109.726 135.402 112.02 135.233C121.574 134.41 121.567 134.318 121.567 143.76V154.2Z" fill="black"/>
<path d="M117.029 116.913C117.064 117.088 117.092 117.271 117.113 117.447C116.227 122.991 116.775 124.054 122.193 127.205C122.344 127.276 122.462 127.402 122.523 127.557C119.005 131.87 116.001 133.059 112.449 131.567C110.764 130.878 109.38 129.61 108.548 127.991C107.716 126.372 107.49 124.509 107.911 122.738C108.72 118.981 111.893 116.948 117.029 116.913Z" fill="#EE4D9B"/>
<path d="M122.193 127.213C116.747 126.868 114.179 121.943 117.113 117.455C121.897 119.101 123.396 121.978 122.193 127.213Z" fill="#DA2128"/>
<path d="M296.853 137.477C290.936 134.269 284.724 134.065 278.87 137.815C270.541 143.162 267.966 156.268 273.39 164.95C278.413 172.999 289.635 175.327 298.591 170.262C300.23 169.333 300.842 168.524 299.569 166.807C298.577 165.471 298.45 163.895 295.868 165.4C287.468 170.325 278.427 165.872 277.576 156.796C277.407 155.072 277.766 154.517 279.525 154.566C283.141 154.671 286.771 154.566 290.394 154.566C293.912 154.566 297.43 154.411 300.947 154.622C303.368 154.777 303.923 153.757 303.994 151.632C304.12 145.631 302.355 140.46 296.853 137.477ZM295.017 149.979C292.589 149.789 290.092 149.937 287.686 149.937C285.005 149.937 282.325 149.873 279.651 149.937C278.047 149.986 277.59 149.458 277.984 147.896C278.934 144.09 282.972 140.896 287.285 140.65C292.006 140.383 295.727 142.761 297.134 146.848C297.817 148.924 297.81 150.19 295.017 149.979Z" fill="black"/>
<path d="M168.837 137.062C162.294 134.1 155.836 134.248 150.067 138.969C142.82 144.9 141.167 157.521 146.451 165.415C151.509 172.971 161.978 175.145 170.899 170.473C172.306 169.727 174.022 169.129 172.418 166.955C171.356 165.499 171.074 163.987 168.443 165.548C160.275 170.325 151.439 165.963 150.264 157.007C150.011 155.108 150.531 154.552 152.41 154.615C155.927 154.728 159.445 154.615 162.963 154.615C166.586 154.615 170.216 154.489 173.832 154.665C176.055 154.777 176.646 153.834 176.731 151.851C177.097 145.244 174.304 139.539 168.837 137.062ZM167.669 150.268C165.122 150.134 162.562 150.268 160.001 150.268C157.327 150.268 154.654 150.268 151.98 150.268C151.045 150.268 150.165 150.401 150.362 148.86C150.848 145.047 155.252 141.262 159.825 140.939C164.707 140.587 168.781 143.464 169.843 147.784C170.364 149.81 169.703 150.373 167.669 150.268Z" fill="black"/>
</svg>
