<?xml version="1.0" encoding="utf-8"?>
<!-- Generator: Adobe Illustrator 26.3.1, SVG Export Plug-In . SVG Version: 6.00 Build 0)  -->
<svg version="1.1" id="Layer_1" xmlns="http://www.w3.org/2000/svg" xmlns:xlink="http://www.w3.org/1999/xlink" x="0px" y="0px"
	 viewBox="0 0 100 90" style="enable-background:new 0 0 100 90;" xml:space="preserve">
<style type="text/css">
	.st0{fill:#CF381E;}
	.st1{fill:#FFFFFF;}
	.st2{fill:#174880;}
</style>
<g>
	<path class="st0" d="M62.6,57.7c1.5,0,3-0.6,4.1-1.7c1.1-1.1,1.7-2.5,1.7-4.1V38.1c0-1.5-0.6-3-1.7-4.1c-1.1-1.1-2.5-1.7-4.1-1.7
		h-14c-1.5,0-3,0.6-4.1,1.7c-1.1,1.1-1.7,2.6-1.7,4.1V52c0,3.2,2.6,5.7,5.7,5.7"/>
	<path class="st1" d="M58.6,45.8c-0.5,1.8,0.3,3.6,2.2,2.9c-0.5,1.3-1.4,3.2-1.4,5.3c0,0,0,1.4,1,1.7c0,0,1.4,0.3,1.1-0.9
		c-0.2-0.8-0.3-1.6-0.2-2.4c0.3-1.7,0.9-3.3,1.5-4.8c0,0,2.1-4.5,3.4-6.5c0,0,0.5-1.1-0.5-1.1c-0.3,0-0.6,0.2-0.8,0.4l-3,5.4
		c-0.5,0.8-0.9,1.1-1.2,1.1c-0.8,0-0.6-1.2-0.5-1.7c0.3-1.5,0.9-2.9,1.6-4.3c0.5-1.2-0.5-1.3-0.5-1.3c-0.7-0.2-1.2,0.9-1.2,0.9
		l-1.2,2.4c-0.8,1.4-1.6,2.7-2.6,3.9c0,0-0.2,0.2-0.3,0.1c-0.1-0.1-0.1-0.3-0.1-0.3c0.2-1.7,0.5-3.3,1-4.9c0-0.1,0-0.2,0-0.3
		c0-0.2,0-0.4-0.2-0.6c-0.1-0.2-0.3-0.3-0.6-0.3c-0.5-0.1-0.8,0.2-1.3,0.8c-1.1,1.3-2.3,3.3-2.9,4.1c-0.1,0.1-0.2,0.1-0.2-0.1
		c0-0.4,1.4-4.7,1.4-4.7s0.2-0.6-0.3-0.8c0,0-0.7-0.5-1.3,0.4l-2.9,3.9c-0.2,0.3-0.3,0.2-0.3,0.2v-0.3l0.5-2.6
		c0.4-2-0.3-2.1-0.8-2.1c-0.3,0-0.7,0.1-0.9,0.3c-0.9,0.4-1.6,2.2-1.6,2.2s-0.2,0.6,0.2,0.9c0.1,0.1,0.3,0.1,0.5,0.1
		c0.6,0,0.8-1.2,1.2-1.2c0.1,0,0.1,0.1,0.1,0.1L46,48.2c-0.1,0.4,0.1,0.7,0.4,0.9c0.2,0.1,0.4,0.1,0.6,0.1c0.2-0.1,0.4-0.2,0.5-0.4
		l0.5-0.8c0.8-1.4,2.2-3.4,2.4-3.4c0.1,0,0.1,0,0.1,0.1L50,48.3c-0.1,0.3,0.1,0.7,0.4,0.8c0.3,0.1,0.6,0.1,0.8-0.1
		c0.3-0.2,0.6-0.5,0.7-0.9c0.3-0.5,1.7-2.2,2.6-3.7c0.1-0.1,0.1,0,0.1,0.1c-0.2,0.8-0.3,3-0.3,3.5c0,1.1,0.8,1.2,0.8,1.2
		c0.5,0,1.1-0.2,1.4-0.6"/>
	<path class="st2" d="M15.6,48.2H14v-3.6c0-0.4-0.1-0.8-0.2-1.1c-0.2-0.3-0.5-0.4-0.8-0.4c-0.3,0-0.5,0.1-0.8,0.2
		c-0.2,0.2-0.4,0.4-0.6,0.6v4.3H10v-6.5h0.9l0.6,0.9c0.2-0.1,0.3-0.3,0.5-0.4c0.2-0.1,0.3-0.2,0.5-0.3c0.2-0.1,0.4-0.1,0.5-0.2
		c0.2,0,0.4-0.1,0.6-0.1c0.2,0,0.4,0,0.6,0.1c0.2,0.1,0.3,0.1,0.5,0.2c0.1,0.1,0.2,0.2,0.3,0.3c0.1,0.2,0.2,0.3,0.3,0.5
		c0.1-0.1,0.3-0.3,0.4-0.4c0.2-0.1,0.3-0.2,0.5-0.3c0.2-0.1,0.4-0.2,0.6-0.3c0.2-0.1,0.5-0.1,0.7-0.1c0.3,0,0.6,0.1,0.9,0.2
		c0.3,0.2,0.5,0.4,0.6,0.6c0.2,0.3,0.3,0.6,0.3,0.9c0.1,0.4,0.1,0.8,0.1,1.2v3.6H18v-3.6c0-0.4,0-0.8-0.2-1.1
		c-0.2-0.3-0.5-0.4-0.8-0.4c-0.3,0-0.5,0.1-0.8,0.2c-0.2,0.2-0.5,0.4-0.6,0.6"/>
	<path class="st2" d="M24.8,45.2h-1.4c-0.3,0-0.6,0.1-0.8,0.2c-0.2,0.2-0.3,0.4-0.3,0.6c0,0.2,0.1,0.4,0.2,0.6
		c0.2,0.1,0.4,0.2,0.7,0.2c0.2,0,0.4,0,0.5-0.1c0.2,0,0.3-0.1,0.5-0.2c0.1-0.1,0.3-0.2,0.4-0.3c0.1-0.1,0.2-0.2,0.3-0.4 M24.8,47.5
		c-0.2,0.2-0.5,0.4-0.8,0.5c-0.4,0.1-0.8,0.2-1.2,0.2c-0.3,0-0.6,0-0.8-0.1c-0.2-0.1-0.5-0.2-0.7-0.4c-0.2-0.2-0.3-0.4-0.4-0.7
		c-0.1-0.3-0.1-0.5-0.1-0.8c0-1.2,0.9-2,2.4-2h1.6v-0.4c0-0.2-0.1-0.4-0.3-0.5c-0.3-0.1-0.7-0.2-1-0.2c-0.4,0-0.8,0.1-1.2,0.1
		c-0.3,0.1-0.6,0.2-0.9,0.3l-0.2-1.3c0.1-0.1,0.2-0.1,0.4-0.2c0.2-0.1,0.4-0.1,0.5-0.2c0.2,0,0.4-0.1,0.7-0.1c0.2,0,0.5,0,0.8,0
		c0.7-0.1,1.5,0.2,2.1,0.7c0.5,0.5,0.7,1.2,0.7,1.9v3.9h-1.1L24.8,47.5z"/>
	<path class="st2" d="M33.9,41.6l-2.6,3.2l2.9,3.3h-2l-2.7-3.3v3.3h-1.6v-8.9h1.6v5.6l2.4-3.3H33.9z"/>
	<path class="st2" d="M37.4,43.2c-0.2,0-0.4,0-0.6,0.1c-0.2,0-0.3,0.1-0.4,0.2c-0.1,0.1-0.2,0.2-0.3,0.3c-0.1,0.1-0.1,0.3-0.2,0.4
		h2.8c0-0.1,0-0.3-0.1-0.4c0-0.1-0.1-0.2-0.2-0.3c-0.1-0.1-0.3-0.2-0.4-0.2C37.8,43.2,37.6,43.1,37.4,43.2z M37.7,46.8
		c0.2,0,0.5,0,0.7-0.1c0.2,0,0.4-0.1,0.6-0.2c0.2-0.1,0.4-0.1,0.5-0.2c0.1,0,0.2-0.1,0.2-0.2l0.3,1.4c-0.3,0.2-0.7,0.3-1.1,0.5
		c-0.4,0.1-0.9,0.2-1.4,0.2c-0.5,0-1-0.1-1.5-0.2c-0.4-0.1-0.8-0.4-1.1-0.7c-0.3-0.3-0.5-0.6-0.7-1c-0.2-0.4-0.3-0.8-0.3-1.3
		c0-0.4,0.1-0.8,0.2-1.2c0.1-0.4,0.3-0.7,0.6-1.1c0.3-0.3,0.6-0.5,1-0.7c0.9-0.3,1.8-0.3,2.7,0c0.4,0.1,0.7,0.4,0.9,0.7
		c0.2,0.3,0.4,0.6,0.5,0.9c0.1,0.4,0.2,0.7,0.2,1.1c0,0.1,0,0.2,0,0.3c0,0.1,0,0.2-0.1,0.3h-4.4c0,0.2,0.1,0.4,0.2,0.6
		c0.1,0.2,0.2,0.3,0.4,0.5c0.2,0.1,0.3,0.2,0.6,0.3C37.2,46.8,37.4,46.8,37.7,46.8L37.7,46.8L37.7,46.8z"/>
	<path class="st2" d="M69.8,42.6l2.1-2.6h0.5v1.6h1.8v1.4h-1.8v2.7c0,0.1,0,0.3,0.1,0.5c0,0.1,0.1,0.2,0.2,0.3
		c0.1,0.1,0.2,0.1,0.3,0.1c0.1,0,0.2,0.1,0.3,0.1c0.2,0,0.4,0,0.5-0.1c0.2,0,0.3-0.1,0.4-0.1v1.4c-0.2,0.1-0.3,0.1-0.5,0.2
		c-0.6,0.1-1.1,0.1-1.7-0.1c-0.3-0.1-0.5-0.2-0.7-0.4C71.2,47.5,71,47.2,71,47c-0.1-0.3-0.1-0.6-0.1-0.8v-3h-1"/>
	<path class="st2" d="M77,43.1c0.2-0.4,0.5-0.7,0.9-1c0.3-0.2,0.7-0.4,1.1-0.3c0.1,0,0.2,0,0.4,0l0.2,0c0,0,0,0.4-0.3,1.5
		c-0.1,0-0.2,0-0.4,0c-0.3,0-0.5,0-0.8,0.1c-0.2,0.1-0.4,0.3-0.6,0.5c-0.2,0.2-0.3,0.4-0.4,0.7c-0.1,0.3-0.1,0.6-0.1,1v2.7h-1.6
		v-6.5h1"/>
	<path class="st2" d="M86.8,43.1c-0.2,0-0.4,0-0.5,0.1c-0.2,0.1-0.3,0.1-0.4,0.2c-0.1,0.1-0.2,0.2-0.3,0.3c-0.1,0.1-0.2,0.2-0.2,0.4
		V46c0.1,0.1,0.1,0.2,0.2,0.3c0.1,0.1,0.2,0.2,0.3,0.3c0.1,0.1,0.3,0.1,0.4,0.2c0.4,0.1,0.8,0.1,1.2-0.1c0.2-0.1,0.4-0.2,0.5-0.4
		c0.1-0.2,0.2-0.4,0.3-0.6c0.1-0.2,0.1-0.5,0.1-0.8c0-0.2,0-0.5-0.1-0.8c-0.1-0.2-0.2-0.4-0.3-0.6c-0.1-0.2-0.3-0.3-0.5-0.4
		C87.3,43.2,87.1,43.1,86.8,43.1 M87.2,41.7c0.4,0,0.9,0.1,1.2,0.3c0.3,0.2,0.6,0.4,0.9,0.7c0.2,0.3,0.4,0.7,0.5,1.1
		c0.1,0.4,0.2,0.8,0.2,1.2c0,0.4-0.1,0.8-0.2,1.2c-0.1,0.4-0.3,0.7-0.5,1c-0.2,0.3-0.5,0.5-0.9,0.7c-0.4,0.2-0.8,0.3-1.2,0.3
		c-0.4,0-0.8-0.1-1.1-0.2c-0.3-0.1-0.6-0.3-0.8-0.6v3.4h-1.6v-9.1h0.9l0.6,0.8c0.2-0.2,0.5-0.4,0.9-0.6
		C86.5,41.8,86.8,41.7,87.2,41.7L87.2,41.7z"/>
	<path class="st2" d="M81.2,39.1c-0.5,0-0.8,0.4-0.8,0.8c0,0.5,0.4,0.8,0.8,0.8s0.8-0.4,0.8-0.8c0-0.2-0.1-0.4-0.2-0.6
		C81.7,39.1,81.5,39,81.2,39.1 M82,48.2h-1.6v-6.5H82V48.2z"/>
</g>
</svg>
