<svg width="400" height="300" viewBox="0 0 400 300" fill="none" xmlns="http://www.w3.org/2000/svg">
<path d="M235.513 185.917C239.802 185.861 243.869 184.19 246.821 181.181C249.83 178.173 251.501 174.107 251.501 169.873V131.155C251.501 126.866 249.83 122.799 246.877 119.735C243.869 116.727 239.802 115 235.513 115H196.573C192.283 115.056 188.216 116.727 185.264 119.735C182.255 122.799 180.584 126.866 180.584 131.155V169.928C180.64 178.73 187.771 185.861 196.573 185.917" fill="#CF381E"/>
<path d="M224.482 152.659C222.978 157.673 225.429 162.686 230.61 160.681C229.106 164.302 226.599 169.705 226.599 175.332C226.599 175.332 226.599 179.12 229.384 180.067C229.384 180.067 233.284 181.015 232.449 177.561C231.836 175.388 231.669 173.16 231.948 170.932C232.894 166.307 234.343 161.795 236.237 157.45C236.237 157.45 242.198 145.027 245.652 139.233C245.652 139.233 247.1 136.281 244.147 136.281C243.256 136.281 242.42 136.727 241.864 137.45L233.452 152.436C232.17 154.776 230.945 155.5 229.998 155.5C227.881 155.5 228.326 152.102 228.661 150.876C229.608 146.698 231.112 142.688 233.118 138.843C234.622 135.556 231.613 135.278 231.613 135.278C229.719 134.777 228.271 137.897 228.271 137.897L224.928 144.693C222.756 148.481 220.36 152.102 217.798 155.612C217.798 155.612 217.351 156.169 217.018 155.946C216.683 155.667 216.85 155.111 216.85 155.111C217.408 150.486 218.354 145.918 219.636 141.406C219.691 141.127 219.747 140.905 219.747 140.626C219.803 140.013 219.636 139.4 219.246 138.954C218.856 138.453 218.299 138.175 217.686 138.175C216.182 138.008 215.458 138.732 214.121 140.347C211.169 143.969 207.714 149.428 206.043 151.879C205.876 152.157 205.542 152.102 205.542 151.712C205.542 150.597 209.442 138.564 209.442 138.564C209.442 138.564 209.887 136.893 208.55 136.336C208.55 136.336 206.49 135.055 204.818 137.562L196.796 148.481C196.183 149.317 195.849 149.038 195.849 149.038V148.314L197.13 141.183C198.133 135.724 196.239 135.445 195.013 135.223C194.122 135.223 193.175 135.501 192.395 136.003C189.888 137.228 187.994 142.186 187.994 142.186C187.994 142.186 187.437 143.969 188.662 144.693C189.053 144.915 189.498 145.083 189.944 145.027C191.726 144.916 192.061 141.629 193.342 141.629C193.565 141.629 193.565 141.908 193.565 141.963L189.443 159.289C189.164 160.291 189.61 161.35 190.445 161.907C191.003 162.241 191.615 162.297 192.228 162.185C192.785 162.018 193.286 161.628 193.621 161.127L195.125 158.787C197.297 154.943 201.308 149.428 201.698 149.428C201.865 149.428 201.922 149.428 201.922 149.595L200.417 159.79C200.25 160.681 200.751 161.628 201.587 162.018C202.367 162.296 203.203 162.241 203.926 161.851C204.762 161.183 205.487 160.347 205.988 159.4C206.823 158.063 210.834 153.327 213.285 148.982C213.453 148.703 213.62 148.982 213.564 149.15C213.063 151.433 212.672 157.505 212.617 159.01C212.505 161.962 214.789 162.296 214.846 162.296C216.35 162.408 217.798 161.739 218.634 160.514" fill="white"/>
<path d="M104.598 159.399H100.142V149.428C100.197 148.313 99.9742 147.199 99.4732 146.252C98.9717 145.528 98.0805 145.082 97.1891 145.194C96.4091 145.194 95.6849 145.361 95.0722 145.751C94.4034 146.197 93.8466 146.809 93.4568 147.478V159.399H89V141.295H91.5066L93.1781 143.745C93.6237 143.355 94.0693 143.021 94.5149 142.687C94.9605 142.408 95.4061 142.186 95.9076 141.963C96.4088 141.74 96.9105 141.573 97.4117 141.461C97.913 141.35 98.4703 141.295 99.0274 141.295C99.64 141.295 100.253 141.35 100.81 141.517C101.255 141.684 101.701 141.851 102.147 142.13C102.481 142.408 102.815 142.743 103.094 143.077C103.428 143.522 103.651 143.912 103.874 144.358C104.208 144.024 104.598 143.634 105.044 143.3C105.489 142.965 105.991 142.631 106.548 142.353C107.049 142.019 107.606 141.74 108.219 141.517C108.888 141.35 109.556 141.238 110.28 141.238C111.171 141.238 112.007 141.461 112.787 141.851C113.511 142.297 114.124 142.854 114.514 143.522C114.96 144.359 115.294 145.194 115.461 146.141C115.684 147.199 115.795 148.258 115.795 149.372V159.4H111.283V149.428C111.395 148.314 111.172 147.199 110.615 146.252C110.113 145.528 109.278 145.082 108.386 145.194C107.662 145.194 106.938 145.361 106.269 145.751C105.601 146.197 104.988 146.754 104.598 147.478" fill="#174880"/>
<path d="M130.336 151.155H126.38C125.545 151.099 124.765 151.322 124.04 151.768C123.595 152.213 123.316 152.826 123.316 153.495C123.316 154.107 123.539 154.665 123.985 155.11C124.486 155.5 125.155 155.723 125.823 155.667C126.324 155.667 126.826 155.612 127.327 155.444C127.773 155.333 128.218 155.166 128.608 154.943C128.998 154.665 129.333 154.386 129.611 154.107C129.946 153.773 130.168 153.439 130.391 153.105M130.336 157.394C129.723 158.007 128.943 158.508 128.163 158.843C127.105 159.233 125.99 159.455 124.876 159.4C124.096 159.455 123.261 159.288 122.536 159.01C121.868 158.731 121.255 158.342 120.698 157.84C120.196 157.283 119.807 156.67 119.528 156.002C119.25 155.277 119.138 154.498 119.138 153.718C119.138 150.376 121.756 148.203 125.935 148.203H130.391V147.2C130.391 146.531 130.001 145.975 129.444 145.696C128.553 145.306 127.55 145.083 126.547 145.138C125.433 145.138 124.319 145.306 123.261 145.528C122.425 145.752 121.589 146.03 120.754 146.365L120.253 142.632C120.531 142.465 120.921 142.353 121.422 142.186C121.868 142.019 122.425 141.908 122.927 141.74C123.428 141.629 124.096 141.518 124.765 141.406C125.433 141.295 126.157 141.295 126.882 141.295C128.943 141.127 131.06 141.796 132.62 143.133C134.012 144.582 134.681 146.531 134.569 148.481V159.399H131.394L130.336 157.394Z" fill="#174880"/>
<path d="M155.46 141.016L148.273 150.041L156.463 159.344H150.892L143.316 150.152V159.344H138.915V134.553H143.316V150.152L150.056 141.016H155.46Z" fill="#174880"/>
<path d="M165.32 145.305C164.763 145.305 164.206 145.361 163.705 145.528C163.259 145.639 162.814 145.862 162.479 146.141C162.089 146.364 161.811 146.698 161.588 147.088C161.365 147.478 161.198 147.868 161.086 148.313H168.941C168.941 147.923 168.886 147.533 168.718 147.144C168.607 146.809 168.328 146.475 168.05 146.197C167.716 145.918 167.326 145.695 166.936 145.528C166.379 145.361 165.822 145.25 165.32 145.305ZM166.156 155.5C166.824 155.5 167.548 155.444 168.217 155.277C168.83 155.165 169.443 154.999 170 154.776C170.501 154.609 171.002 154.386 171.448 154.107C171.671 153.996 171.894 153.829 172.117 153.662L172.952 157.617C172.005 158.118 171.002 158.564 169.944 158.898C168.718 159.233 167.437 159.399 166.156 159.399C164.763 159.399 163.37 159.177 162.033 158.731C160.975 158.341 159.916 157.728 159.081 156.893C158.245 156.113 157.632 155.11 157.243 154.052C156.741 152.937 156.518 151.712 156.463 150.431C156.463 149.261 156.63 148.09 157.02 146.976C157.41 145.862 157.967 144.915 158.747 144.024C159.471 143.189 160.418 142.52 161.476 142.074C163.872 141.127 166.601 141.127 168.997 142.074C170 142.464 170.835 143.132 171.559 143.912C172.228 144.692 172.729 145.584 173.064 146.531C173.342 147.534 173.509 148.592 173.509 149.651C173.509 149.929 173.509 150.263 173.509 150.597C173.454 150.932 173.398 151.266 173.342 151.544H161.03C161.086 152.157 161.253 152.714 161.532 153.216C161.755 153.717 162.145 154.163 162.59 154.497C163.036 154.887 163.537 155.165 164.15 155.277C164.763 155.5 165.431 155.612 166.155 155.612V155.5H166.156Z" fill="#174880"/>
<path d="M255.846 143.857L261.751 136.726H263.089V141.239H268.158V145.138H263.089V152.603C263.089 152.993 263.144 153.439 263.255 153.884C263.367 154.163 263.534 154.442 263.757 154.72C263.98 154.887 264.258 155.055 264.537 155.111C264.815 155.222 265.094 155.277 265.428 155.277C265.929 155.277 266.431 155.222 266.877 155.055C267.322 154.999 267.712 154.832 268.102 154.665V158.62C267.657 158.843 267.155 159.01 266.598 159.121C265.038 159.455 263.422 159.4 261.918 158.954C261.195 158.731 260.582 158.341 260.024 157.84C259.579 157.339 259.189 156.726 258.966 156.058C258.743 155.333 258.576 154.498 258.631 153.718V145.25H255.735" fill="#174880"/>
<path d="M275.734 145.027C276.403 143.912 277.237 142.966 278.297 142.241C279.188 141.573 280.302 141.238 281.472 141.295C281.807 141.238 282.14 141.238 282.475 141.295L283.088 141.406C283.088 141.406 282.976 142.409 282.307 145.528C281.974 145.473 281.639 145.417 281.305 145.473C280.525 145.417 279.801 145.584 279.077 145.863C278.409 146.141 277.851 146.587 277.406 147.144C276.959 147.701 276.57 148.37 276.346 149.093C276.124 149.985 276.013 150.876 276.013 151.768V159.4H271.556V141.295H274.342" fill="#174880"/>
<path d="M303.087 145.25C302.586 145.194 302.084 145.305 301.638 145.473C301.193 145.64 300.803 145.863 300.412 146.141C300.078 146.364 299.8 146.698 299.521 147.032C299.299 147.367 299.076 147.7 298.964 148.09V153.216C299.131 153.55 299.354 153.829 299.632 154.107C299.911 154.386 300.19 154.609 300.523 154.831C300.913 155.054 301.303 155.221 301.694 155.333C302.807 155.611 303.978 155.556 305.036 155.165C305.537 154.887 306.039 154.553 306.373 154.107C306.763 153.661 307.042 153.104 307.209 152.547C307.375 151.879 307.487 151.154 307.543 150.43C307.543 149.762 307.432 149.038 307.209 148.313C307.042 147.7 306.763 147.143 306.373 146.642C305.983 146.196 305.537 145.806 304.981 145.583C304.423 145.305 303.866 145.193 303.253 145.193M304.312 141.295C305.538 141.239 306.708 141.517 307.767 142.019C308.713 142.52 309.493 143.189 310.161 144.08C310.774 144.971 311.276 145.974 311.554 147.032C311.833 148.147 312 149.316 312 150.431C312 151.6 311.833 152.771 311.499 153.884C311.221 154.943 310.719 155.89 310.051 156.726C309.382 157.561 308.602 158.23 307.655 158.676C306.652 159.177 305.482 159.4 304.368 159.4C303.254 159.4 302.196 159.233 301.193 158.843C300.357 158.452 299.577 157.951 298.964 157.227V166.642H294.508V141.295H297.126L298.853 143.467C299.521 142.799 300.357 142.241 301.303 141.796C302.251 141.461 303.254 141.239 304.257 141.295H304.312Z" fill="#174880"/>
<path d="M287.656 133.885C286.375 133.885 285.372 134.888 285.372 136.169C285.372 137.45 286.375 138.509 287.656 138.509C288.937 138.509 289.94 137.45 289.94 136.169C289.995 135.556 289.717 134.999 289.271 134.554C288.881 134.108 288.269 133.83 287.656 133.83M289.828 159.399H285.372V141.295H289.828V159.399Z" fill="#174880"/>
</svg>
