<svg width="77" height="79" viewBox="0 0 77 79" fill="none" xmlns="http://www.w3.org/2000/svg">
<ellipse cx="40.493" cy="39.2677" rx="24.4163" ry="19.376" transform="rotate(-76.0755 40.493 39.2677)" fill="#911D00"/>
<ellipse cx="36.8346" cy="39.7086" rx="24.4163" ry="19.376" transform="rotate(-76.0755 36.8346 39.7086)" fill="#FEF64B"/>
<path d="M25.7921 30.4523L23.3657 36.4976L19.9294 33.2371C19.8373 33.3967 20.1956 32.0145 20.6483 30.8865C21.1336 29.6774 22.0406 27.8608 22.5154 27.284L25.7921 30.4523Z" fill="white"/>
<path d="M42.951 53.0805L46.9694 47.572L50.5586 52.41C50.716 52.3141 49.4688 54.3338 48.5565 55.5091C47.7577 56.5383 46.5669 57.2985 45.8735 57.5768L42.951 53.0805Z" fill="white"/>
<path d="M23.3446 25.8479L26.5292 29.1758L27.8602 27.239L25.0208 24.05L24.1489 24.8231C23.8002 25.1323 23.3446 25.8479 23.3446 25.8479Z" fill="white"/>
<path d="M52.7019 48.329L49.1047 44.6106L48.0666 46.777L51.4797 50.8145C51.5943 50.7389 51.9836 49.9417 52.2167 49.5381C52.493 49.0595 52.6322 48.5727 52.7019 48.3292L52.7019 48.329Z" fill="white"/>
<ellipse cx="36.2814" cy="39.6013" rx="17.3942" ry="13.8035" transform="rotate(-76.0755 36.2814 39.6013)" fill="#EC7C10"/>
<ellipse cx="36.8402" cy="39.6712" rx="17.3942" ry="13.2634" transform="rotate(-76.0755 36.8402 39.6712)" fill="#FFBA02"/>
<path d="M40.3866 39.1172C40.405 41.2979 38.8051 43.4104 36.7086 43.9029C35.8893 44.0966 35.092 44.0354 34.4132 43.7024L34.4438 47.3368C35.1205 47.4191 35.7967 47.4262 36.5199 47.2996C40.4497 46.6116 43.6282 42.7166 43.5938 38.631L43.5125 28.9811C41.7284 29.2935 40.3186 31.0464 40.334 32.8761L40.3866 39.1172Z" fill="#D8791D"/>
<path d="M36.9318 35.982C37.7511 35.7883 38.5484 35.8496 39.2273 36.1825L39.1966 32.5482C38.5199 32.4658 37.8438 32.4587 37.1205 32.5853C33.1907 33.2733 30.0122 37.1683 30.0466 41.2539L30.1279 50.9038C31.912 50.5915 33.3218 48.8385 33.3064 47.0088L33.2538 40.7677C33.2839 38.6037 34.8595 36.4703 36.9318 35.982Z" fill="#D8791D"/>
<path d="M39.7423 39.1707C39.7607 41.3513 38.1608 43.4639 36.0643 43.9564C35.245 44.1501 34.4477 44.0888 33.7689 43.7558L33.7995 47.3902C34.4762 47.4726 35.1524 47.4797 35.8756 47.3531C39.8054 46.665 42.9839 42.7701 42.9495 38.6845L42.8682 29.0346C41.0841 29.3469 39.6743 31.0998 39.6898 32.9296L39.7423 39.1707Z" fill="white"/>
<path d="M36.2875 36.0355C37.1068 35.8418 37.9041 35.903 38.583 36.236L38.5524 32.6016C37.8756 32.5193 37.1995 32.5122 36.4762 32.6388C32.5464 33.3268 29.368 37.2218 29.4024 41.3074L29.4836 50.9573C31.2677 50.6449 32.6775 48.892 32.6621 47.0623L32.6095 40.8212C32.6396 38.6571 34.2152 36.5238 36.2875 36.0355Z" fill="white"/>
</svg>
