<svg width="77" height="80" viewBox="0 0 77 80" fill="none" xmlns="http://www.w3.org/2000/svg">
<ellipse cx="37.8137" cy="41.5545" rx="24.4163" ry="19.376" transform="rotate(44.2619 37.8137 41.5545)" fill="#911D00"/>
<ellipse cx="39.281" cy="38.1744" rx="24.4163" ry="19.376" transform="rotate(44.2619 39.281 38.1744)" fill="#FEF64B"/>
<path d="M52.8472 33.3193L48.8554 28.1717L53.405 26.8527C53.3138 26.6927 54.3257 27.7 55.0706 28.6605C55.869 29.69 56.9787 31.3904 57.2367 32.0916L52.8472 33.3193Z" fill="white"/>
<path d="M24.6507 36.6993L27.3752 42.9498L21.3869 43.6039C21.3901 43.7881 20.277 41.6916 19.7233 40.3106C19.2386 39.1014 19.1839 37.6897 19.2939 36.9507L24.6507 36.6993Z" fill="white"/>
<path d="M58.0572 33.5326L53.5765 34.6002L54.5759 36.7272L58.7623 35.8874L58.5354 34.7444C58.4447 34.2872 58.0572 33.5326 58.0572 33.5326Z" fill="white"/>
<path d="M23.8265 47.515L28.8527 46.2884L27.5072 44.2983L22.2986 45.2046C22.3061 45.3418 22.7974 46.0804 23.0281 46.4855C23.3015 46.9657 23.6514 47.3317 23.8263 47.5149L23.8265 47.515Z" fill="white"/>
<ellipse cx="39.6531" cy="37.7512" rx="17.3942" ry="13.8035" transform="rotate(44.2619 39.6531 37.7512)" fill="#EC7C10"/>
<ellipse cx="39.3103" cy="38.1984" rx="17.3942" ry="13.2634" transform="rotate(44.2619 39.3103 38.1984)" fill="#FFBA02"/>
<path d="M37.9973 41.5388C36.106 40.4532 35.0908 38.0054 35.7246 35.9472C35.9713 35.1423 36.4268 34.4851 37.0571 34.0674L33.9049 32.2582C33.4921 32.8006 33.1444 33.3806 32.8884 34.0688C31.4973 37.808 33.2535 42.5185 36.797 44.5524L45.1666 49.3563C45.7981 47.6588 44.9973 45.5566 43.4103 44.6458L37.9973 41.5388Z" fill="#D8791D"/>
<path d="M42.4481 40.1408C42.2014 40.9457 41.7458 41.6029 41.1156 42.0206L44.2677 43.8298C44.6806 43.2874 45.0283 42.7074 45.2843 42.0192C46.6754 38.28 44.9192 33.5695 41.3757 31.5356L33.0061 26.7317C32.3746 28.4292 33.1754 30.5314 34.7623 31.4422L40.1754 34.5492C42.0279 35.6682 43.0733 38.1055 42.4481 40.1408Z" fill="#D8791D"/>
<path d="M38.2763 40.9558C36.385 39.8702 35.3699 37.4224 36.0036 35.3642C36.2503 34.5593 36.7059 33.9021 37.3362 33.4844L34.184 31.6752C33.7711 32.2176 33.4234 32.7976 33.1674 33.4858C31.7763 37.225 33.5325 41.9355 37.076 43.9694L45.4456 48.7733C46.0772 47.0758 45.2763 44.9736 43.6894 44.0628L38.2763 40.9558Z" fill="white"/>
<path d="M42.7274 39.5577C42.4807 40.3627 42.0251 41.0199 41.3949 41.4376L44.547 43.2468C44.9599 42.7044 45.3076 42.1244 45.5636 41.4362C46.9547 37.697 45.1985 32.9865 41.655 30.9526L33.2854 26.1487C32.6539 27.8462 33.4547 29.9484 35.0416 30.8592L40.4547 33.9662C42.3072 35.0852 43.3526 37.5225 42.7274 39.5577Z" fill="white"/>
</svg>
