<svg width="59" height="57" viewBox="0 0 59 57" fill="none" xmlns="http://www.w3.org/2000/svg">
<ellipse cx="30.919" cy="28.888" rx="18.6399" ry="14.792" transform="rotate(-39.7577 30.919 28.888)" fill="#911D00"/>
<ellipse cx="28.4693" cy="27.5049" rx="18.6399" ry="14.792" transform="rotate(-39.7577 28.4693 27.5049)" fill="#FEF64B"/>
<path d="M25.8619 16.8183L21.636 19.4398L20.9964 15.8805C20.8676 15.937 21.713 15.2488 22.5015 14.7597C23.3467 14.2354 24.726 13.528 25.2789 13.3879L25.8619 16.8183Z" fill="white"/>
<path d="M26.1853 38.4959L31.1478 36.9244L31.1682 41.5232C31.3083 41.5354 29.628 42.2138 28.5354 42.5243C27.5787 42.7962 26.5025 42.7254 25.9501 42.5831L26.1853 38.4959Z" fill="white"/>
<path d="M26.4383 12.8794L26.8925 16.3664L28.587 15.7768L28.2823 12.5314L27.3965 12.6127C27.0421 12.6453 26.4383 12.8794 26.4383 12.8794Z" fill="white"/>
<path d="M34.3319 39.9819L33.8004 36.0681L32.1823 36.9314L32.4562 40.9581C32.5609 40.9634 33.1608 40.6491 33.4867 40.5062C33.873 40.3367 34.1788 40.1003 34.3318 39.982L34.3319 39.9819Z" fill="white"/>
<ellipse cx="28.1773" cy="27.1888" rx="13.2791" ry="10.5379" transform="rotate(-39.7577 28.1773 27.1888)" fill="#EC7C10"/>
<ellipse cx="28.4898" cy="27.4844" rx="13.2791" ry="10.1255" transform="rotate(-39.7577 28.4898 27.4844)" fill="#FFBA02"/>
<path d="M30.9214 28.7475C29.9468 30.0971 28.0074 30.6732 26.4952 30.0283C25.9037 29.7769 25.4409 29.3788 25.1739 28.867L23.5495 31.1164C23.9285 31.4731 24.3412 31.7832 24.8433 32.0323C27.5717 33.3859 31.288 32.4272 33.1141 29.8985L37.4272 23.9259C36.1886 23.3113 34.5288 23.7522 33.711 24.8846L30.9214 28.7475Z" fill="#D8791D"/>
<path d="M30.2143 25.2567C30.8058 25.5081 31.2685 25.9062 31.5356 26.418L33.16 24.1686C32.781 23.8119 32.3683 23.5018 31.8661 23.2527C29.1377 21.8991 25.4215 22.8578 23.5954 25.3865L19.2822 31.3591C20.5209 31.9737 22.1807 31.5328 22.9985 30.4004L25.788 26.5375C26.785 25.22 28.7187 24.6201 30.2143 25.2567Z" fill="#D8791D"/>
<path d="M30.501 28.4889C29.5264 29.8386 27.587 30.4146 26.0748 29.7697C25.4833 29.5184 25.0205 29.1202 24.7535 28.6085L23.129 30.8579C23.5081 31.2145 23.9208 31.5246 24.4229 31.7738C27.1513 33.1274 30.8675 32.1686 32.6937 29.6399L37.0068 23.6673C35.7682 23.0528 34.1084 23.4936 33.2906 24.6261L30.501 28.4889Z" fill="white"/>
<path d="M29.7939 24.9982C30.3854 25.2495 30.8481 25.6477 31.1152 26.1594L32.7396 23.91C32.3605 23.5534 31.9479 23.2433 31.4457 22.9942C28.7173 21.6405 25.0011 22.5993 23.175 25.128L18.8618 31.1006C20.1005 31.7151 21.7602 31.2743 22.5781 30.1418L25.3676 26.279C26.3646 24.9615 28.2983 24.3616 29.7939 24.9982Z" fill="white"/>
</svg>
