<svg width="61" height="55" viewBox="0 0 61 55" fill="none" xmlns="http://www.w3.org/2000/svg">
<ellipse cx="31.6188" cy="28.6357" rx="24.4163" ry="19.376" transform="rotate(-16.0755 31.6188 28.6357)" fill="#911D00"/>
<ellipse cx="29.4079" cy="25.688" rx="24.4163" ry="19.376" transform="rotate(-16.0755 29.4079 25.688)" fill="#FEF64B"/>
<path d="M31.9027 11.4967L25.4541 12.418L26.5596 7.81185C26.3753 7.81186 27.7515 7.43105 28.9548 7.25914C30.2445 7.07489 32.2712 6.95204 33.0082 7.07487L31.9027 11.4967Z" fill="white"/>
<path d="M20.8856 37.6709L27.6653 38.3966L25.2701 43.924C25.4318 44.0124 23.0592 43.9421 21.5851 43.7397C20.2944 43.5625 19.0407 42.9113 18.453 42.45L20.8856 37.6709Z" fill="white"/>
<path d="M34.6664 7.07495L33.3767 11.4968L35.7195 11.6811L37.0616 7.62763L35.9561 7.25914C35.514 7.11175 34.6664 7.07495 34.6664 7.07495Z" fill="white"/>
<path d="M29.876 43.7399L31.2976 38.7653L28.9024 38.9496L27.1123 43.9241C27.2351 43.9855 28.1202 43.9242 28.5863 43.9242C29.1389 43.9242 29.6301 43.8014 29.8758 43.7399L29.876 43.7399Z" fill="white"/>
<ellipse cx="29.2241" cy="25.1553" rx="17.3942" ry="13.8035" transform="rotate(-16.0755 29.2241 25.1553)" fill="#EC7C10"/>
<ellipse cx="29.4431" cy="25.6741" rx="17.3942" ry="13.2634" transform="rotate(-16.0755 29.4431 25.6741)" fill="#FFBA02"/>
<path d="M31.696 28.4687C29.8167 29.575 27.1872 29.2457 25.7124 27.6764C25.1351 27.0637 24.7895 26.3426 24.7384 25.5882L21.6063 27.4319C21.8733 28.0591 22.2052 28.6482 22.6765 29.2113C25.2372 32.2706 30.1996 33.0757 33.7206 31.0031L42.0371 26.1078C40.8745 24.7189 38.6516 24.3744 37.0747 25.3027L31.696 28.4687Z" fill="#D8791D"/>
<path d="M32.6837 23.909C33.2611 24.5217 33.6067 25.2428 33.6578 25.9971L36.7899 24.1534C36.5229 23.5262 36.191 22.9371 35.7197 22.374C33.159 19.3147 28.1965 18.5096 24.6756 20.5822L16.3591 25.4775C17.5217 26.8664 19.7446 27.2109 21.3215 26.2827L26.7002 23.1166C28.5893 22.0606 31.2247 22.3584 32.6837 23.909Z" fill="#D8791D"/>
<path d="M31.3273 27.9372C29.448 29.0435 26.8186 28.7142 25.3438 27.1449C24.7664 26.5322 24.4208 25.8111 24.3698 25.0567L21.2376 26.9004C21.5047 27.5276 21.8366 28.1167 22.3079 28.6798C24.8686 31.7391 29.831 32.5442 33.352 30.4716L41.6684 25.5763C40.5059 24.1874 38.2829 23.8429 36.706 24.7712L31.3273 27.9372Z" fill="white"/>
<path d="M32.3153 23.3777C32.8927 23.9904 33.2383 24.7115 33.2894 25.4659L36.4215 23.6222C36.1545 22.995 35.8226 22.4058 35.3513 21.8428C32.7905 18.7835 27.8281 17.9784 24.3072 20.0509L15.9907 24.9463C17.1533 26.3352 19.3762 26.6796 20.9531 25.7514L26.3318 22.5853C28.2209 21.5294 30.8563 21.8272 32.3153 23.3777Z" fill="white"/>
</svg>
