<svg width="110" height="35" viewBox="0 0 110 35" fill="none" xmlns="http://www.w3.org/2000/svg">
<g clip-path="url(#clip0_4_88264)">
<path d="M25.0188 33.8525H26.703L29.6916 25.6245H28.324L25.8925 32.5312L23.4301 25.6258H22L25.0188 33.8525ZM34.1707 33.9939C36.0458 33.9939 37.4278 33.129 37.7136 31.4779H36.3948C36.2196 32.4374 35.4737 32.9093 34.1865 32.9093C32.4865 32.9093 31.5764 31.871 31.5159 29.9989H37.7761V29.5739C37.7761 26.6322 35.9648 25.4824 34.0422 25.4824C31.7529 25.4824 30.1497 27.213 30.1497 29.6984V29.8242C30.1497 32.3578 31.8188 33.9939 34.17 33.9939H34.1707ZM31.5606 28.9449C31.7831 27.4822 32.6884 26.5697 34.0402 26.5697C35.4064 26.5697 36.2965 27.2456 36.4236 28.9449H31.5606ZM39.3813 33.8545H40.7001V28.8681C40.6879 28.5659 40.7399 28.2645 40.8527 27.9834C40.9654 27.7023 41.1364 27.4477 41.3547 27.2361C41.5735 27.0244 41.8347 26.8606 42.1215 26.7552C42.4083 26.6497 42.7143 26.6051 43.0196 26.6241C44.3549 26.6241 44.9738 27.2687 44.9738 28.7158V33.8593H46.2926V28.8103C46.2926 26.418 45.0844 25.4912 43.3679 25.4912C42.8301 25.4584 42.2939 25.577 41.8214 25.8332C41.3488 26.0893 40.9591 26.4727 40.6973 26.9389V25.6333H39.382L39.3813 33.8545ZM50.9963 33.9647C51.3798 33.9755 51.762 33.9167 52.1241 33.7913V32.6904C51.7992 32.8124 51.4536 32.8715 51.1062 32.8644C50.4392 32.8644 50.0759 32.4707 50.0759 31.6683V26.7295H52.0142V25.6286H50.0759V23.7524H48.7543V25.6245H47.5653V26.7254H48.7543V31.7907C48.7264 32.0871 48.7657 32.3859 48.8693 32.6653C48.973 32.9447 49.1383 33.1976 49.3533 33.4057C49.5682 33.6139 49.8274 33.7719 50.1118 33.8683C50.3963 33.9646 50.699 33.9969 50.9976 33.9626L50.9963 33.9647ZM56.5098 33.996C57.0424 34.0245 57.5724 33.9038 58.0389 33.6477C58.5055 33.3917 58.8896 33.0106 59.1474 32.5482V33.8538H60.4669V25.6258H59.1481V30.6143C59.1604 30.9144 59.1094 31.2138 58.9985 31.4934C58.8876 31.7729 58.7191 32.0266 58.5038 32.2382C58.2884 32.4497 58.0309 32.6146 57.7477 32.7223C57.4645 32.83 57.1618 32.8782 56.8587 32.8638C55.5537 32.8638 54.9355 32.2191 54.9355 30.7721V25.6286H53.6187V30.8353C53.6187 33.0984 54.8585 33.9946 56.5118 33.9946L56.5098 33.996ZM62.7225 33.8545H64.0413V29.34C64.0413 27.3109 65.106 26.792 66.7758 26.7132V25.4892C66.21 25.4655 65.6495 25.6064 65.1636 25.8943C64.6777 26.1823 64.2876 26.6047 64.0413 27.1096V25.6306H62.7225V33.8545ZM71.4458 33.996C73.321 33.996 74.7029 33.131 74.9887 31.48H73.6699C73.4947 32.4394 72.7488 32.9114 71.4616 32.9114C69.7616 32.9114 68.8515 31.873 68.791 30.001H75.0512V29.576C75.0512 26.6343 73.2399 25.4844 71.3174 25.4844C69.028 25.4844 67.4249 27.215 67.4249 29.7004V29.8262C67.4249 32.3572 69.0946 33.9932 71.4458 33.9932V33.996ZM68.8357 28.947C69.0582 27.4843 69.9635 26.5717 71.3153 26.5717C72.6815 26.5717 73.5717 27.2476 73.6987 28.947H68.8357ZM79.3091 33.9966C81.3264 33.9966 82.3616 32.9896 82.3616 31.4956C82.3616 29.7494 81.1534 29.372 79.4369 29.0578C77.9106 28.7906 77.4985 28.4914 77.4985 27.7522C77.4985 27.0443 78.1167 26.5724 79.0714 26.5724C80.1203 26.5724 80.6286 26.9661 80.8195 27.8644H82.0909C81.8684 26.0869 80.5798 25.4892 79.0879 25.4892C77.7829 25.4892 76.2752 26.2752 76.2752 27.8012C76.2752 29.2326 77.006 29.8303 79.1669 30.2233C80.4541 30.4593 81.1053 30.7428 81.1053 31.6085C81.1053 32.4925 80.5489 32.9141 79.294 32.9141C77.9587 32.9141 77.4346 32.3021 77.3398 31.3249H76.054C76.1337 33.0052 77.3254 33.996 79.3112 33.996L79.3091 33.9966Z" fill="black"/>
<path d="M22.5324 17.3257H25.3355V12.6289C25.3113 12.4548 25.326 12.2775 25.3786 12.1096C25.4312 11.9417 25.5203 11.7873 25.6398 11.6572C25.7592 11.5271 25.9061 11.4245 26.07 11.3567C26.2339 11.2889 26.4109 11.2576 26.5883 11.2649C27.2306 11.2649 27.6372 11.6674 27.6372 12.4889V17.325H30.4087V12.6283C30.3846 12.4541 30.3993 12.2768 30.4518 12.109C30.5044 11.9411 30.5936 11.7866 30.713 11.6565C30.8325 11.5264 30.9793 11.4238 31.1432 11.356C31.3071 11.2882 31.4841 11.2569 31.6616 11.2642C32.3038 11.2642 32.7104 11.6667 32.7104 12.4882V17.3243H35.5135V12.0203C35.5135 9.98987 34.3864 8.99843 32.8347 8.99843C32.3064 8.98793 31.7835 9.10527 31.3114 9.34027C30.8393 9.57526 30.4323 9.92079 30.1257 10.3469C29.9448 9.91925 29.6324 9.55887 29.233 9.31685C28.8335 9.07482 28.3672 8.96341 27.9003 8.99843C27.3787 8.98646 26.8637 9.11589 26.411 9.37274C25.9584 9.62958 25.5853 10.0041 25.332 10.4557V9.21534H22.5289L22.5324 17.3257ZM39.3971 17.5147C39.9256 17.5545 40.4542 17.439 40.9165 17.1825C41.3789 16.926 41.7545 16.5401 41.9962 16.0731V17.3291H44.7993V9.21807H41.9962V13.8842C41.9962 14.9226 41.4467 15.419 40.6026 15.419C39.8037 15.419 39.4438 14.9695 39.4438 14.0549V9.21875H36.6407V14.5064C36.6407 16.5512 37.8146 17.512 39.3964 17.512L39.3971 17.5147ZM46.1285 17.3257H48.9158V5.65283H46.1285V17.3257ZM53.5048 17.5147C54.0297 17.5061 54.5511 17.4279 55.055 17.2822V15.1742C54.8002 15.271 54.5291 15.3185 54.2562 15.3143C54.1411 15.3283 54.0243 15.3156 53.915 15.2773C53.8056 15.2389 53.7068 15.1759 53.6263 15.0933C53.5459 15.0106 53.486 14.9106 53.4513 14.8011C53.4166 14.6915 53.4081 14.5756 53.4265 14.4622V11.1132H55.0392V9.22487H53.4265V7.53507H50.6233V9.22487H49.639V11.1132H50.6254V14.7254C50.6254 16.6294 51.6557 17.5134 53.5054 17.5134L53.5048 17.5147ZM56.0098 17.3257H58.8129V9.21807H56.0098V17.3257ZM57.4034 8.44355C57.6009 8.45526 57.7987 8.42719 57.9849 8.36103C58.1711 8.29488 58.3418 8.19201 58.4866 8.05867C58.6315 7.92529 58.7475 7.76419 58.8277 7.58512C58.9079 7.40606 58.9505 7.21275 58.953 7.01691C58.9505 6.82032 58.908 6.62626 58.828 6.44633C58.7479 6.2664 58.6321 6.10429 58.4873 5.96971C58.3426 5.83517 58.172 5.73091 57.9856 5.66314C57.7993 5.59537 57.601 5.5655 57.4027 5.57531C57.2053 5.56569 57.008 5.59581 56.8226 5.66383C56.6373 5.73185 56.4678 5.83637 56.3244 5.97107C56.181 6.10585 56.0667 6.26803 55.9884 6.44779C55.9102 6.62755 55.8695 6.82116 55.869 7.01691C55.8699 7.21171 55.9109 7.40429 55.9895 7.58291C56.068 7.76154 56.1824 7.92248 56.3257 8.05595C56.4692 8.18949 56.6386 8.29272 56.8236 8.35936C57.0087 8.42599 57.2055 8.45464 57.4021 8.44355H57.4034ZM60.1434 20.0389H62.9465V16.1323C63.1936 16.5768 63.5633 16.9425 64.0124 17.1868C64.4616 17.4311 64.9716 17.5439 65.4831 17.512C67.4063 17.512 68.9594 16.1173 68.9594 13.3266V13.2008C68.9594 10.4257 67.4091 9.00047 65.4989 9.00047C64.9835 8.99146 64.475 9.11912 64.0262 9.37021C63.5774 9.6213 63.2046 9.98668 62.9465 10.4285V9.21943H60.1482L60.1434 20.0389ZM64.4968 15.3884C63.4795 15.3884 62.8682 14.6907 62.8682 13.311V13.1852C62.8682 11.8211 63.4788 11.0928 64.4968 11.0928C65.4831 11.0928 66.1095 11.7728 66.1095 13.2008V13.3266C66.1095 14.6594 65.5449 15.3884 64.4954 15.3884H64.4968ZM69.8832 17.3257H72.6705V5.65283H69.8805L69.8832 17.3257ZM75.2071 20.0382H77.8859L82.2737 9.21739H79.5949L78.0288 13.5422L76.3377 9.21739H73.3004L76.5733 16.5036L75.2071 20.0382Z" fill="black"/>
<path d="M85.5417 9.29832e-05V6.18945H87.0007V9.29832e-05H85.5417Z" fill="#FE6E00"/>
<path d="M80.7488 1.44434L87.0007 1.44434V1.5974e-05L80.7488 1.5974e-05V1.44434Z" fill="#FE6E00"/>
</g>
<defs>
<clipPath id="clip0_4_88264">
<rect width="65" height="34" fill="white" transform="translate(22)"/>
</clipPath>
</defs>
</svg>
