<svg width="400" height="300" viewBox="0 0 400 300" fill="none" xmlns="http://www.w3.org/2000/svg">
<path d="M319.26 140.88C324.196 139.214 329.688 138.134 334.81 139.769C337.741 140.757 339.315 143.873 339.284 146.835C339.346 152.913 339.407 158.991 339.192 165.07C337.433 165.07 335.674 165.07 333.946 165.039C333.73 164.082 333.545 163.126 333.329 162.169C330.059 164.761 325.708 166.612 321.512 165.07C316.761 163.188 316.174 156.06 319.753 152.759C323.363 149.427 328.547 149.396 333.082 148.378C332.805 146.835 332.558 144.86 330.737 144.428C327.097 143.348 323.425 144.984 319.939 145.971C319.661 144.305 319.445 142.608 319.26 140.88ZM325.06 154.98C323.363 156.338 323.271 159.639 325.492 160.503C328.177 161.521 330.768 159.701 332.866 158.251C332.866 156.276 332.866 154.302 332.836 152.327C330.182 152.79 327.189 153.098 325.06 154.98Z" fill="#231F20"/>
<path d="M182.391 128.724C185.322 128.539 188.284 128.539 191.246 128.601C194.732 137.456 196.985 146.805 200.749 155.567C203.865 146.619 206.734 137.61 209.789 128.662C212.72 128.57 215.651 128.57 218.582 128.662C219.446 140.819 220.681 152.975 221.205 165.132C218.922 165.132 216.67 165.132 214.417 165.132C213.615 156.462 213.245 147.73 212.381 139.06C208.894 147.576 206.426 156.524 203.248 165.163C201.119 165.255 198.99 165.224 196.861 165.132C193.807 156.493 191.338 147.607 187.698 139.184C186.957 147.823 186.618 156.524 185.815 165.163C183.779 165.163 181.743 165.163 179.706 165.132C180.293 152.945 181.558 140.85 182.391 128.724Z" fill="#231F20"/>
<path d="M283.191 131.47C285.227 131.038 287.326 130.76 289.393 130.575C289.454 133.506 289.454 136.437 289.454 139.399C291.151 139.43 292.879 139.523 294.607 139.554C294.946 141.22 295.224 142.917 295.471 144.614C293.466 144.706 291.491 144.799 289.516 144.83C289.547 149.273 289.208 153.747 289.67 158.19C290.318 160.349 293.126 159.732 294.823 160.133C295.162 161.83 295.409 163.558 295.594 165.286C292.355 165.625 288.714 166.057 285.814 164.206C283.901 162.941 283.315 160.565 283.222 158.436C282.975 153.932 283.284 149.427 283.099 144.922C281.926 144.799 280.723 144.676 279.55 144.552C279.581 142.917 279.643 141.312 279.705 139.677C280.846 139.585 281.988 139.461 283.16 139.369C283.099 136.715 283.129 134.093 283.191 131.47Z" fill="#231F20"/>
<path d="M225.062 140.079C227.253 139.647 229.475 139.4 231.696 139.276C233.702 145.139 235.46 151.093 237.527 156.925C239.626 151.248 241.261 145.385 243.112 139.616C245.241 139.492 247.339 139.431 249.468 139.461C247.092 147.237 244.007 154.765 241.384 162.479C239.996 166.027 239.132 170.038 236.232 172.722C233.856 174.882 230.431 174.975 227.438 174.45C227.16 172.753 226.883 171.056 226.605 169.39C228.086 169.359 229.567 169.452 231.017 169.205C232.992 168.526 234.72 166.15 233.825 164.052C230.956 156.03 227.808 148.131 225.062 140.079Z" fill="#231F20"/>
<path d="M253.603 139.492C255.392 139.492 257.182 139.523 258.94 139.553C259.187 140.664 259.403 141.775 259.65 142.886C262.396 140.633 265.666 138.443 269.431 139.06C272.701 139.183 275.293 142.145 275.355 145.323C275.509 151.895 275.416 158.498 275.386 165.07C273.349 165.101 271.313 165.132 269.307 165.162C268.721 159.177 269.431 153.16 268.999 147.205C268.721 144.737 265.666 144.12 263.754 145.107C262.118 145.909 259.928 147.051 260.051 149.18C259.928 154.487 260.113 159.794 260.02 165.101C257.86 165.132 255.731 165.132 253.572 165.07C253.603 156.523 253.572 148.007 253.603 139.492Z" fill="#231F20"/>
<path d="M300.377 139.492C302.197 139.492 304.018 139.492 305.838 139.523C306.054 141.004 306.301 142.485 306.548 143.997C308.8 141.652 311.268 139.214 314.724 138.937C315.279 140.973 315.588 143.071 315.65 145.169C312.256 145.94 308.399 147.36 306.887 150.723C306.579 155.505 306.949 160.318 306.764 165.101C304.635 165.132 302.506 165.132 300.377 165.07C300.377 156.523 300.377 148.008 300.377 139.492Z" fill="#231F20"/>
<path d="M82.9479 118.727C85.1077 116.135 87.4526 113.359 90.7848 112.31C94.5182 111.322 97.6961 114.253 100.041 116.753C106.181 123.787 110.655 132.087 114.82 140.418C117.073 135.358 119.88 130.544 122.781 125.854C125.557 121.597 128.427 117.277 132.438 114.037C134.289 112.618 136.85 111.26 139.164 112.464C142.435 114.192 144.903 117.061 147.217 119.869C152.123 126.194 155.98 133.259 159.466 140.448C163.816 149.705 167.581 159.362 169.154 169.513C169.617 174.203 170.049 179.479 167.21 183.583C165.02 186.791 160.855 187.902 157.152 187.254C153.943 186.113 151.135 184.014 149.037 181.361C144.039 175.19 141.077 167.724 138.331 160.349C137.93 159.054 137.436 157.788 137.004 156.523C136.727 157.819 136.356 159.115 135.924 160.38C133.117 167.847 130.124 175.468 124.971 181.67C122.904 184.2 120.189 186.143 117.103 187.254C112.66 188.18 108.372 185.866 105.502 182.595C99.8868 176.486 96.7705 168.587 93.9011 160.905C93.3457 159.331 92.7903 157.758 92.3892 156.122C91.9264 157.758 91.371 159.393 90.7848 160.966C88.1931 168.032 85.2311 175.159 80.5412 181.114C77.9804 184.169 74.6481 187.162 70.4828 187.378C66.626 187.717 62.8927 185.218 61.4117 181.7C59.3136 176.825 59.9307 171.333 60.8563 166.243C62.8618 156.523 66.5643 147.236 70.9456 138.381C74.3087 131.501 78.1346 124.775 82.9479 118.727ZM85.1385 120.887C80.387 126.934 76.5919 133.722 73.198 140.603C68.971 149.52 65.145 158.807 63.5098 168.587C62.9235 171.303 62.9235 174.11 63.2012 176.856C63.5406 179.448 64.5588 182.225 66.9346 183.552C69.2178 184.878 72.1489 184.354 74.2161 182.873C77.9186 180.281 80.387 176.332 82.5159 172.413C87.0823 163.682 90.0752 154.209 92.3275 144.675C94.7341 154.456 97.7578 164.206 102.571 173.123C104.484 176.424 106.49 179.849 109.606 182.132C111.179 183.552 113.247 184.539 115.406 184.292C117.813 184.045 119.819 182.503 121.516 180.867C124.385 177.905 126.483 174.265 128.334 170.624C132.284 162.54 134.999 153.901 137.128 145.2C139.781 155.752 143.083 166.335 148.76 175.715C150.889 178.985 153.388 182.379 157.121 183.922C159.744 185.002 163.076 184.045 164.588 181.608C166.408 178.677 166.563 175.036 166.285 171.704C165.915 166.304 164.341 161.059 162.613 155.937C159.158 146.064 154.622 136.561 149.099 127.706C146.538 123.756 143.885 119.776 140.306 116.629C139.041 115.518 137.159 114.438 135.554 115.549C132.469 117.431 130.34 120.424 128.18 123.263C122.935 130.729 118.615 138.875 115.067 147.267C114.974 147.391 114.728 147.637 114.635 147.761C114.326 146.804 114.018 145.879 113.617 144.953C109.976 137.085 105.934 129.341 100.782 122.368C99.0229 120.054 97.2025 117.709 94.8267 116.012C93.8085 115.302 92.4509 114.654 91.2476 115.272C88.6867 116.444 86.8972 118.758 85.1385 120.887Z" fill="#FEFEFE"/>
<path d="M85.1385 120.887C86.8972 118.758 88.7176 116.475 91.2785 115.303C92.4818 114.686 93.8394 115.303 94.8576 116.043C97.2333 117.74 99.0537 120.116 100.812 122.399C105.934 129.403 110.007 137.116 113.648 144.984C114.08 145.879 114.388 146.836 114.666 147.792C109.914 139.739 105.595 131.378 99.6708 124.096C97.943 122.06 96.1226 119.9 93.6234 118.82C92.2041 118.203 90.754 119.005 89.5815 119.776C85.3237 123.356 82.1765 128.015 79.2145 132.643C72.2415 143.75 66.9963 155.938 63.5406 168.588C65.1759 158.807 68.971 149.52 73.2288 140.603C76.5919 133.723 80.387 126.935 85.1385 120.887Z" fill="#9E242E"/>
<path d="M135.554 115.518C137.158 114.408 139.04 115.487 140.305 116.598C143.885 119.714 146.538 123.695 149.099 127.675C154.622 136.561 159.188 146.033 162.613 155.906C164.341 161.028 165.914 166.242 166.285 171.673C165.698 167.909 164.711 164.206 163.446 160.627C160.175 150.785 155.64 141.343 150.148 132.55C147.741 128.786 145.18 125.052 142.095 121.843C140.861 120.609 139.534 119.313 137.837 118.758C136.51 118.357 135.307 119.283 134.227 119.93C131.358 122.183 129.136 125.083 127.007 128.014C123.243 133.352 119.88 138.967 116.856 144.737C116.363 145.663 115.746 146.527 115.067 147.298C118.615 138.875 122.935 130.76 128.18 123.294C130.34 120.424 132.499 117.4 135.554 115.518Z" fill="#9E242E"/>
<path d="M89.5815 119.776C90.7539 119.005 92.2041 118.203 93.6234 118.82C96.1226 119.9 97.943 122.059 99.6708 124.096C105.595 131.377 109.914 139.739 114.635 147.792C111.673 156.215 108.156 164.669 107.94 173.709C107.785 176.609 108.557 179.448 109.637 182.132C106.52 179.849 104.484 176.424 102.602 173.123C97.8195 164.206 94.765 154.487 92.3584 144.675C90.6305 136.53 89.0261 128.199 89.5815 119.776Z" fill="#FF912E"/>
<path d="M134.258 119.9C135.338 119.252 136.542 118.326 137.868 118.727C139.565 119.282 140.892 120.578 142.126 121.812C145.212 125.052 147.772 128.755 150.179 132.519C155.671 141.312 160.207 150.754 163.477 160.596C164.773 164.175 165.729 167.878 166.316 171.642C166.593 174.974 166.439 178.615 164.619 181.546C163.107 184.014 159.806 184.94 157.152 183.86C153.419 182.348 150.92 178.923 148.791 175.653C143.113 166.304 139.812 155.721 137.159 145.138C135.369 136.9 133.703 128.446 134.258 119.9Z" fill="#F41CB2"/>
<path d="M79.2144 132.642C82.1764 128.014 85.3236 123.355 89.5814 119.776C89.026 128.168 90.6305 136.53 92.3891 144.675C90.1368 154.24 87.1131 163.682 82.5775 172.413C80.4486 176.332 77.9803 180.281 74.2778 182.873C72.2106 184.354 69.2794 184.878 66.9962 183.552C64.6204 182.225 63.6023 179.417 63.2629 176.856C62.9543 174.11 62.9852 171.302 63.5714 168.587C66.9654 155.937 72.2414 143.75 79.2144 132.642Z" fill="#F41CB2"/>
<path d="M127.039 127.983C129.168 125.052 131.389 122.152 134.259 119.9C133.703 128.415 135.37 136.9 137.19 145.169C135.061 153.901 132.315 162.509 128.396 170.593C126.545 174.265 124.447 177.875 121.578 180.837C119.912 182.472 117.875 184.014 115.469 184.261C113.309 184.508 111.242 183.521 109.668 182.102C108.588 179.417 107.817 176.579 107.971 173.678C108.187 164.638 111.704 156.153 114.666 147.761C114.759 147.638 115.006 147.391 115.098 147.267C115.777 146.465 116.394 145.632 116.888 144.706C119.942 138.937 123.275 133.321 127.039 127.983Z" fill="#F25511"/>
</svg>
