<?xml version="1.0" encoding="utf-8"?>
<!-- Generator: Adobe Illustrator 26.3.1, SVG Export Plug-In . SVG Version: 6.00 Build 0)  -->
<svg version="1.1" id="Layer_1" xmlns="http://www.w3.org/2000/svg" xmlns:xlink="http://www.w3.org/1999/xlink" x="0px" y="0px"
	 viewBox="0 0 100 90" style="enable-background:new 0 0 100 90;" xml:space="preserve">
<style type="text/css">
	.st0{fill:#231F20;}
	.st1{fill:#FEFEFE;}
	.st2{fill:#9E242E;}
	.st3{fill:#FF912E;}
	.st4{fill:#F41CB2;}
	.st5{fill:#F25511;}
</style>
<g>
	<path class="st0" d="M84.2,42.5c1.4-0.5,3-0.8,4.4-0.3c0.8,0.3,1.3,1.2,1.3,2c0,1.7,0,3.5,0,5.2c-0.5,0-1,0-1.5,0
		c-0.1-0.3-0.1-0.5-0.2-0.8c-0.9,0.7-2.2,1.3-3.4,0.8c-1.4-0.5-1.5-2.6-0.5-3.5c1-1,2.5-1,3.8-1.3c-0.1-0.4-0.1-1-0.7-1.1
		c-1-0.3-2.1,0.2-3.1,0.4C84.3,43.5,84.2,43,84.2,42.5z M85.8,46.5c-0.5,0.4-0.5,1.3,0.1,1.6c0.8,0.3,1.5-0.2,2.1-0.6
		c0-0.6,0-1.1,0-1.7C87.3,45.9,86.4,46,85.8,46.5z"/>
	<path class="st0" d="M45.1,39c0.8-0.1,1.7-0.1,2.5,0c1,2.5,1.6,5.2,2.7,7.7c0.9-2.6,1.7-5.1,2.6-7.7c0.8,0,1.7,0,2.5,0
		c0.2,3.5,0.6,6.9,0.7,10.4c-0.7,0-1.3,0-1.9,0c-0.2-2.5-0.3-5-0.6-7.4c-1,2.4-1.7,5-2.6,7.5c-0.6,0-1.2,0-1.8,0
		c-0.9-2.5-1.6-5-2.6-7.4c-0.2,2.5-0.3,5-0.5,7.4c-0.6,0-1.2,0-1.7,0C44.5,45.9,44.8,42.5,45.1,39z"/>
	<path class="st0" d="M73.9,39.8c0.6-0.1,1.2-0.2,1.8-0.3c0,0.8,0,1.7,0,2.5c0.5,0,1,0,1.5,0c0.1,0.5,0.2,1,0.2,1.4
		c-0.6,0-1.1,0.1-1.7,0.1c0,1.3-0.1,2.5,0,3.8c0.2,0.6,1,0.4,1.5,0.6c0.1,0.5,0.2,1,0.2,1.5c-0.9,0.1-2,0.2-2.8-0.3
		c-0.5-0.4-0.7-1-0.7-1.6c-0.1-1.3,0-2.6,0-3.9c-0.3,0-0.7-0.1-1-0.1c0-0.5,0-0.9,0-1.4c0.3,0,0.7-0.1,1-0.1
		C73.8,41.3,73.8,40.5,73.9,39.8z"/>
	<path class="st0" d="M57.3,42.2c0.6-0.1,1.3-0.2,1.9-0.2c0.6,1.7,1.1,3.4,1.7,5c0.6-1.6,1.1-3.3,1.6-4.9c0.6,0,1.2-0.1,1.8,0
		c-0.7,2.2-1.6,4.4-2.3,6.6c-0.4,1-0.6,2.2-1.5,2.9c-0.7,0.6-1.7,0.6-2.5,0.5c-0.1-0.5-0.2-1-0.2-1.4c0.4,0,0.8,0,1.3-0.1
		c0.6-0.2,1.1-0.9,0.8-1.5C58.9,46.8,58,44.5,57.3,42.2z"/>
	<path class="st0" d="M65.4,42.1c0.5,0,1,0,1.5,0c0.1,0.3,0.1,0.6,0.2,1c0.8-0.6,1.7-1.3,2.8-1.1c0.9,0,1.7,0.9,1.7,1.8
		c0,1.9,0,3.8,0,5.6c-0.6,0-1.2,0-1.7,0c-0.2-1.7,0-3.4-0.1-5.1c-0.1-0.7-1-0.9-1.5-0.6c-0.5,0.2-1.1,0.6-1.1,1.2c0,1.5,0,3,0,4.5
		c-0.6,0-1.2,0-1.8,0C65.4,46.9,65.4,44.5,65.4,42.1z"/>
	<path class="st0" d="M78.8,42.1c0.5,0,1,0,1.6,0c0.1,0.4,0.1,0.8,0.2,1.3c0.6-0.7,1.3-1.4,2.3-1.4c0.2,0.6,0.2,1.2,0.3,1.8
		c-1,0.2-2.1,0.6-2.5,1.6c-0.1,1.4,0,2.7,0,4.1c-0.6,0-1.2,0-1.8,0C78.8,46.9,78.8,44.5,78.8,42.1z"/>
	<path class="st1" d="M16.7,36.1c0.6-0.7,1.3-1.5,2.2-1.8c1.1-0.3,2,0.6,2.6,1.3c1.8,2,3,4.4,4.2,6.8c0.6-1.4,1.4-2.8,2.3-4.2
		c0.8-1.2,1.6-2.5,2.8-3.4c0.5-0.4,1.3-0.8,1.9-0.4c0.9,0.5,1.6,1.3,2.3,2.1c1.4,1.8,2.5,3.8,3.5,5.9c1.2,2.6,2.3,5.4,2.8,8.3
		c0.1,1.3,0.3,2.8-0.6,4c-0.6,0.9-1.8,1.2-2.9,1c-0.9-0.3-1.7-0.9-2.3-1.7c-1.4-1.8-2.3-3.9-3.1-6c-0.1-0.4-0.3-0.7-0.4-1.1
		c-0.1,0.4-0.2,0.7-0.3,1.1c-0.8,2.1-1.7,4.3-3.1,6.1c-0.6,0.7-1.4,1.3-2.2,1.6c-1.3,0.3-2.5-0.4-3.3-1.3c-1.6-1.7-2.5-4-3.3-6.2
		c-0.2-0.4-0.3-0.9-0.4-1.4c-0.1,0.5-0.3,0.9-0.5,1.4c-0.7,2-1.6,4.1-2.9,5.8c-0.7,0.9-1.7,1.7-2.9,1.8c-1.1,0.1-2.2-0.6-2.6-1.6
		c-0.6-1.4-0.4-3-0.2-4.4c0.6-2.8,1.6-5.4,2.9-8C14.2,39.8,15.3,37.9,16.7,36.1z M17.3,36.8c-1.4,1.7-2.4,3.7-3.4,5.6
		c-1.2,2.5-2.3,5.2-2.8,8c-0.2,0.8-0.2,1.6-0.1,2.4c0.1,0.7,0.4,1.5,1.1,1.9c0.7,0.4,1.5,0.2,2.1-0.2c1.1-0.7,1.8-1.9,2.4-3
		c1.3-2.5,2.2-5.2,2.8-7.9c0.7,2.8,1.6,5.6,2.9,8.1c0.5,0.9,1.1,1.9,2,2.6c0.4,0.4,1,0.7,1.7,0.6c0.7-0.1,1.3-0.5,1.7-1
		c0.8-0.8,1.4-1.9,1.9-2.9c1.1-2.3,1.9-4.8,2.5-7.3c0.8,3,1.7,6,3.3,8.7c0.6,0.9,1.3,1.9,2.4,2.3c0.7,0.3,1.7,0,2.1-0.7
		c0.5-0.8,0.6-1.9,0.5-2.8c-0.1-1.5-0.6-3-1-4.5c-1-2.8-2.3-5.5-3.9-8.1c-0.7-1.1-1.5-2.3-2.5-3.2c-0.4-0.3-0.9-0.6-1.4-0.3
		c-0.9,0.5-1.5,1.4-2.1,2.2c-1.5,2.1-2.7,4.5-3.7,6.9c0,0-0.1,0.1-0.1,0.1c-0.1-0.3-0.2-0.5-0.3-0.8c-1-2.2-2.2-4.5-3.7-6.5
		c-0.5-0.7-1-1.3-1.7-1.8c-0.3-0.2-0.7-0.4-1-0.2C18.3,35.5,17.8,36.2,17.3,36.8z"/>
	<path class="st2" d="M17.3,36.8c0.5-0.6,1-1.3,1.8-1.6c0.3-0.2,0.7,0,1,0.2c0.7,0.5,1.2,1.2,1.7,1.8c1.5,2,2.6,4.2,3.7,6.5
		c0.1,0.3,0.2,0.5,0.3,0.8c-1.4-2.3-2.6-4.7-4.3-6.8c-0.5-0.6-1-1.2-1.7-1.5c-0.4-0.2-0.8,0.1-1.2,0.3c-1.2,1-2.1,2.4-3,3.7
		c-2,3.2-3.5,6.7-4.5,10.3c0.5-2.8,1.6-5.4,2.8-8C14.8,40.4,15.9,38.5,17.3,36.8z"/>
	<path class="st2" d="M31.7,35.2c0.5-0.3,1,0,1.4,0.3c1,0.9,1.8,2,2.5,3.2c1.6,2.5,2.9,5.2,3.9,8.1c0.5,1.5,0.9,3,1,4.5
		c-0.2-1.1-0.4-2.1-0.8-3.2c-0.9-2.8-2.2-5.5-3.8-8c-0.7-1.1-1.4-2.1-2.3-3.1c-0.4-0.4-0.7-0.7-1.2-0.9c-0.4-0.1-0.7,0.2-1,0.3
		c-0.8,0.6-1.5,1.5-2.1,2.3c-1.1,1.5-2,3.1-2.9,4.8c-0.1,0.3-0.3,0.5-0.5,0.7c1-2.4,2.2-4.7,3.7-6.9C30.2,36.6,30.8,35.8,31.7,35.2z
		"/>
	<path class="st3" d="M18.5,36.4c0.3-0.2,0.7-0.4,1.2-0.3c0.7,0.3,1.2,0.9,1.7,1.5c1.7,2.1,2.9,4.5,4.3,6.8
		c-0.8,2.4-1.9,4.8-1.9,7.4c0,0.8,0.2,1.6,0.5,2.4c-0.9-0.7-1.5-1.6-2-2.6c-1.4-2.5-2.2-5.3-2.9-8.1C18.8,41.2,18.4,38.8,18.5,36.4z
		"/>
	<path class="st4" d="M31.3,36.5c0.3-0.2,0.7-0.4,1-0.3c0.5,0.2,0.9,0.5,1.2,0.9c0.9,0.9,1.6,2,2.3,3.1c1.6,2.5,2.9,5.2,3.8,8
		c0.4,1,0.6,2.1,0.8,3.2c0.1,1,0,2-0.5,2.8c-0.4,0.7-1.4,1-2.1,0.7c-1.1-0.4-1.8-1.4-2.4-2.3c-1.6-2.7-2.6-5.7-3.3-8.7
		C31.6,41.3,31.2,38.9,31.3,36.5z"/>
	<path class="st4" d="M15.6,40.1c0.8-1.3,1.7-2.7,3-3.7c-0.2,2.4,0.3,4.8,0.8,7.1c-0.6,2.7-1.5,5.4-2.8,7.9c-0.6,1.1-1.3,2.2-2.4,3
		c-0.6,0.4-1.4,0.6-2.1,0.2c-0.7-0.4-1-1.2-1.1-1.9c-0.1-0.8-0.1-1.6,0.1-2.4C12.1,46.8,13.6,43.3,15.6,40.1z"/>
	<path class="st5" d="M29.2,38.8c0.6-0.8,1.2-1.7,2.1-2.3c-0.2,2.4,0.3,4.9,0.8,7.2c-0.6,2.5-1.4,5-2.5,7.3c-0.5,1-1.1,2.1-1.9,2.9
		c-0.5,0.5-1.1,0.9-1.7,1c-0.6,0.1-1.2-0.2-1.7-0.6c-0.3-0.8-0.5-1.6-0.5-2.4c0.1-2.6,1.1-5,1.9-7.4c0,0,0.1-0.1,0.1-0.1
		c0.2-0.2,0.4-0.5,0.5-0.7C27.2,41.9,28.2,40.3,29.2,38.8z"/>
</g>
</svg>
