<svg width="400" height="300" viewBox="0 0 400 300" fill="none" xmlns="http://www.w3.org/2000/svg">
<path fill-rule="evenodd" clip-rule="evenodd" d="M294.153 147.275L278.529 174.193L265.198 174.245L294.153 123.581L323 174.245H309.458L294.153 147.273V147.275ZM252.081 162.528H267.012L260.08 174.245H240.62L240.673 159.978V123.893H252.137L252.084 162.528H252.081ZM211.134 123.895C225.37 123.948 236.887 135.193 236.834 149.094C236.782 162.945 225.265 174.193 211.026 174.193C196.843 174.14 185.326 162.895 185.326 148.991C185.379 135.141 196.896 123.895 211.134 123.895ZM211.081 162.477C218.705 162.477 224.834 156.488 224.834 149.094C224.89 141.703 218.705 135.661 211.134 135.661C203.561 135.608 197.376 141.65 197.376 149.044C197.323 156.435 203.508 162.477 211.079 162.477H211.081ZM164.105 145.095C163.947 143.01 163.411 140.251 162.611 137.598C160.965 132.118 158.104 127.081 154.24 122.861C152.213 120.675 149.922 118.642 146.506 116.248C143.902 114.963 141.342 113.591 138.83 112.135C137.177 111.198 135.203 110.05 132.592 109.219C129.497 108.488 126.332 108.087 123.153 108.023C120.064 107.917 116.968 108.181 113.982 108.751C110.836 109.271 108.222 110.103 104.756 110.937C96.9164 114.321 90.8398 119.424 85.6132 126.195C67.378 151.655 83.8551 187.322 114.302 191.538C119.314 192.216 124.327 191.955 129.071 190.862L132.431 189.978C132.537 189.925 132.698 189.872 132.803 189.872L136.644 188.415C136.855 188.31 137.016 188.257 137.23 188.154L138.83 187.425C141.899 185.911 144.78 184.041 147.414 181.856C145.017 184.034 142.409 185.97 139.63 187.634L139.788 187.74C140.324 187.581 140.802 187.425 141.335 187.322C141.335 187.322 141.335 188.154 141.229 187.998C140.377 188.624 141.71 188.051 143.415 187.164C145.123 186.28 146.775 185.184 148.267 183.936C150.455 182.114 152.374 180.135 155.093 176.909C157.865 172.065 161.333 167.847 162.933 162.171C163.466 160.661 163.944 158.893 164.266 157.069C164.583 155.247 164.799 153.373 164.799 151.446C164.747 149.519 164.533 147.539 164.105 145.095V145.095ZM124.647 187.895C133.978 186.436 141.815 181.283 148.214 174.253C149.975 171.701 151.361 169.357 153.066 166.807C155.199 161.598 155.04 156.966 155.732 153.687C156.587 147.748 154.56 142.959 152.855 137.857C150.241 131.92 146.775 127.496 140.696 124.059C125.338 114.583 104.437 117.235 94.4668 131.4C94.414 131.4 94.1447 131.764 93.6115 132.493C94.3058 129.579 96.0665 127.86 97.8245 126.192C103.051 121.924 109.13 118.537 116.062 116.874C123.902 116.04 131.684 116.874 138.669 120.258C149.122 126.192 156.054 135.515 157.812 146.549V156.757C155.626 173.472 141.229 186.177 124.647 187.895V187.895ZM162.986 149.883C162.611 125.413 138.244 108.907 114.515 112.241C107.584 113.957 100.01 117.394 94.6252 122.185C92.0119 123.901 90.787 127.079 88.1737 129.629C77.7204 144.886 79.5366 164.412 92.5451 176.286C94.2137 177.936 95.9955 179.467 97.8773 180.868C87.0017 174.356 82.0945 164.513 80.3892 152.542C80.3892 148.271 81.2418 144.052 82.1472 139.784C88.2291 121.089 107.37 107.5 128.221 110.937C131.687 111.771 135.153 112.656 138.674 113.49C143.045 115.205 147.364 117.758 150.83 121.145C154.296 124.526 156.909 128.797 159.523 133.013C161.281 136.4 162.136 140.668 162.988 144.052C163.147 145.979 163.147 147.959 162.988 149.886L162.986 149.883Z" fill="black"/>
<path fill-rule="evenodd" clip-rule="evenodd" d="M141.335 150.247C141.335 160.767 132.484 169.306 121.553 169.306C110.624 169.306 101.771 160.767 101.771 150.247C101.771 139.731 110.622 131.191 121.553 131.191C132.484 131.191 141.335 139.731 141.335 150.25V150.247Z" fill="white"/>
<path fill-rule="evenodd" clip-rule="evenodd" d="M141.443 147.019C141.176 145.562 140.749 144.416 140.324 142.804C138.616 139.261 136.111 136.503 132.803 134.158C120.433 125.986 103.423 133.847 101.612 147.803C100.921 153.323 102.893 158.634 106.411 162.696C105.345 161.601 104.173 160.458 103.373 159.154L103.267 159.26C103.373 159.571 103.801 159.78 103.906 160.091C103.906 160.091 103.479 160.091 103.587 160.038C103.267 159.677 103.534 160.249 104.012 161.028C104.439 161.809 104.973 162.541 105.612 163.216C106.52 164.206 107.478 165.091 109.077 166.289C111.427 167.485 113.504 169.048 116.223 169.776C116.97 169.987 117.823 170.193 118.678 170.349C119.584 170.507 120.436 170.56 121.397 170.56C122.302 170.56 123.263 170.455 124.435 170.243C125.644 170.101 126.839 169.858 128.007 169.517C130.616 168.732 133.02 167.38 135.047 165.558C136.061 164.623 137.502 163.425 138.618 161.862C139.527 160.094 139.632 159.207 140.06 158.425C140.485 157.644 141.018 156.76 141.393 155.561C141.698 154.14 141.877 152.693 141.926 151.24C141.873 149.783 141.768 148.376 141.446 147.022L141.443 147.019ZM128.751 137.337C130.565 138.377 130.831 138.532 129.87 137.857C131.259 138.168 132.112 138.95 132.964 139.731C135.044 142.075 136.75 144.833 137.602 148.009C138.083 151.602 137.708 155.194 136.164 158.373C133.392 163.214 128.965 166.442 123.686 167.326C123.1 167.326 122.461 167.326 121.872 167.379C123.366 167.118 124.327 166.181 127.046 165.191C129.976 164.151 133.284 159.31 134.886 156.496C139.577 148.841 134.031 141.761 128.751 137.337V137.337ZM118.728 167.429C110.624 166.598 104.384 159.985 103.531 152.33C104.276 156.601 106.836 159.88 110.302 162.797C111.53 163.578 113.341 164.671 114.568 165.452C116.648 166.234 117.873 167.068 119.9 167.432H118.728V167.429ZM140.535 153.529C140.165 155.144 139.791 156.704 139.416 158.32C138.616 160.3 137.444 162.33 135.844 163.942C134.244 165.558 132.217 166.806 130.193 168.005C128.593 168.836 126.566 169.253 124.913 169.668C123.952 169.774 122.833 169.356 121.872 169.306C133.711 168.992 141.815 158.008 140.057 147.125C139.202 143.949 137.497 141.188 135.417 138.43C134.564 137.231 132.909 136.503 131.684 135.304C124.272 130.671 114.462 131.609 108.864 137.701C108.079 138.502 107.347 139.353 106.675 140.251C109.663 135.877 114.462 132.807 120.22 131.92C122.247 131.867 124.327 132.234 126.352 132.598C135.311 135.304 141.976 143.949 140.535 153.531V153.529Z" fill="#D7DF23"/>
</svg>
