<?xml version="1.0" encoding="utf-8"?>
<!-- Generator: Adobe Illustrator 26.3.1, SVG Export Plug-In . SVG Version: 6.00 Build 0)  -->
<svg version="1.1" id="Layer_1" xmlns="http://www.w3.org/2000/svg" xmlns:xlink="http://www.w3.org/1999/xlink" x="0px" y="0px"
	 viewBox="0 0 100 90" style="enable-background:new 0 0 100 90;" xml:space="preserve">
<style type="text/css">
	.st0{fill-rule:evenodd;clip-rule:evenodd;}
	.st1{fill-rule:evenodd;clip-rule:evenodd;fill:#FFFFFF;}
	.st2{fill-rule:evenodd;clip-rule:evenodd;fill:#D7DF23;}
</style>
<g>
	<path class="st0" d="M80.4,44.1l-5.1,8.7l-4.3,0l9.4-16.5l9.4,16.5h-4.4L80.4,44.1L80.4,44.1z M66.8,49.1h4.9l-2.3,3.8H63l0-4.6
		V36.5h3.7L66.8,49.1L66.8,49.1z M53.5,36.5c4.6,0,8.4,3.7,8.4,8.2c0,4.5-3.8,8.2-8.4,8.2c-4.6,0-8.4-3.7-8.4-8.2
		C45.1,40.2,48.8,36.5,53.5,36.5z M53.4,49.1c2.5,0,4.5-1.9,4.5-4.3c0-2.4-2-4.4-4.5-4.4c-2.5,0-4.5,1.9-4.5,4.3
		C49,47.1,51,49.1,53.4,49.1L53.4,49.1z M38.2,43.4c-0.1-0.7-0.2-1.6-0.5-2.4c-0.5-1.8-1.5-3.4-2.7-4.8c-0.7-0.7-1.4-1.4-2.5-2.1
		c-0.8-0.4-1.7-0.9-2.5-1.3c-0.5-0.3-1.2-0.7-2-0.9c-1-0.2-2-0.4-3.1-0.4c-1,0-2,0.1-3,0.2c-1,0.2-1.9,0.4-3,0.7
		c-2.5,1.1-4.5,2.8-6.2,5c-5.9,8.3-0.6,19.9,9.3,21.2c1.6,0.2,3.3,0.1,4.8-0.2l1.1-0.3c0,0,0.1,0,0.1,0l1.2-0.5
		c0.1,0,0.1-0.1,0.2-0.1l0.5-0.2c1-0.5,1.9-1.1,2.8-1.8c-0.8,0.7-1.6,1.3-2.5,1.9l0.1,0c0.2-0.1,0.3-0.1,0.5-0.1c0,0,0,0.3,0,0.2
		c-0.3,0.2,0.2,0,0.7-0.3c0.6-0.3,1.1-0.6,1.6-1c0.7-0.6,1.3-1.2,2.2-2.3c0.9-1.6,2-2.9,2.5-4.8c0.2-0.5,0.3-1.1,0.4-1.7
		c0.1-0.6,0.2-1.2,0.2-1.8C38.4,44.9,38.3,44.2,38.2,43.4L38.2,43.4z M25.4,57.3c3-0.5,5.6-2.1,7.7-4.4c0.6-0.8,1-1.6,1.6-2.4
		c0.7-1.7,0.6-3.2,0.9-4.3c0.3-1.9-0.4-3.5-0.9-5.1c-0.8-1.9-2-3.4-4-4.5c-5-3.1-11.8-2.2-15,2.4c0,0-0.1,0.1-0.3,0.4
		c0.2-0.9,0.8-1.5,1.4-2c1.7-1.4,3.7-2.5,5.9-3c2.5-0.3,5.1,0,7.3,1.1c3.4,1.9,5.6,5,6.2,8.5v3.3C35.4,52.6,30.7,56.8,25.4,57.3
		L25.4,57.3z M37.8,45c-0.1-8-8-13.3-15.7-12.2c-2.3,0.6-4.7,1.7-6.5,3.2c-0.8,0.6-1.2,1.6-2.1,2.4c-3.4,5-2.8,11.3,1.4,15.2
		c0.5,0.5,1.1,1,1.7,1.5c-3.5-2.1-5.1-5.3-5.7-9.2c0-1.4,0.3-2.8,0.6-4.1c2-6.1,8.2-10.5,15-9.4c1.1,0.3,2.3,0.6,3.4,0.8
		c1.4,0.6,2.8,1.4,3.9,2.5c1.1,1.1,2,2.5,2.8,3.9c0.6,1.1,0.8,2.5,1.1,3.6C37.9,43.7,37.9,44.4,37.8,45L37.8,45z"/>
	<path class="st1" d="M30.8,45.1c0,3.4-2.9,6.2-6.4,6.2c-3.6,0-6.4-2.8-6.4-6.2c0-3.4,2.9-6.2,6.4-6.2S30.8,41.7,30.8,45.1
		L30.8,45.1z"/>
	<path class="st2" d="M30.8,44c-0.1-0.5-0.2-0.8-0.4-1.4c-0.6-1.2-1.4-2-2.4-2.8c-4-2.7-9.5-0.1-10.1,4.4c-0.2,1.8,0.4,3.5,1.6,4.8
		c-0.3-0.4-0.7-0.7-1-1.2l0,0c0,0.1,0.2,0.2,0.2,0.3c0,0-0.1,0-0.1,0c-0.1-0.1,0,0.1,0.1,0.3c0.1,0.3,0.3,0.5,0.5,0.7
		c0.3,0.3,0.6,0.6,1.1,1c0.8,0.4,1.4,0.9,2.3,1.1c0.2,0.1,0.5,0.1,0.8,0.2c0.3,0.1,0.6,0.1,0.9,0.1c0.3,0,0.6,0,1-0.1
		c0.4,0,0.8-0.1,1.2-0.2c0.8-0.3,1.6-0.7,2.3-1.3c0.3-0.3,0.8-0.7,1.2-1.2c0.3-0.6,0.3-0.9,0.5-1.1c0.1-0.3,0.3-0.5,0.4-0.9
		c0.1-0.5,0.2-0.9,0.2-1.4C31,44.9,30.9,44.5,30.8,44L30.8,44z M26.7,40.9c0.6,0.3,0.7,0.4,0.4,0.2c0.5,0.1,0.7,0.4,1,0.6
		c0.7,0.8,1.2,1.7,1.5,2.7c0.2,1.2,0,2.3-0.5,3.4c-0.9,1.6-2.3,2.6-4.1,2.9c-0.2,0-0.4,0-0.6,0c0.5-0.1,0.8-0.4,1.7-0.7
		c1-0.3,2-1.9,2.5-2.8C30.2,44.6,28.4,42.3,26.7,40.9L26.7,40.9z M23.4,50.7c-2.6-0.3-4.7-2.4-4.9-4.9c0.2,1.4,1.1,2.5,2.2,3.4
		c0.4,0.3,1,0.6,1.4,0.9c0.7,0.3,1.1,0.5,1.7,0.6L23.4,50.7L23.4,50.7z M30.5,46.2c-0.1,0.5-0.2,1-0.4,1.6c-0.3,0.6-0.6,1.3-1.2,1.8
		c-0.5,0.5-1.2,0.9-1.8,1.3c-0.5,0.3-1.2,0.4-1.7,0.5c-0.3,0-0.7-0.1-1-0.1c3.8-0.1,6.5-3.7,5.9-7.2c-0.3-1-0.8-1.9-1.5-2.8
		c-0.3-0.4-0.8-0.6-1.2-1C25.2,38.7,22,39,20.2,41c-0.3,0.3-0.5,0.5-0.7,0.8c1-1.4,2.5-2.4,4.4-2.7c0.7,0,1.3,0.1,2,0.2
		C28.8,40.2,31,43,30.5,46.2L30.5,46.2z"/>
</g>
</svg>
