<svg width="118" height="45" viewBox="0 0 118 45" fill="none" xmlns="http://www.w3.org/2000/svg">
<path fill-rule="evenodd" clip-rule="evenodd" d="M44.4951 1.14128C29.8295 1.97833 0.575525 3.62548 0.374904 3.62548C0.282875 3.62548 0.205566 3.6908 0.205566 3.77051C0.205566 3.98314 15.3332 44.7443 15.4602 44.8741C15.5209 44.9344 19.6695 43.7023 24.6833 42.1359C29.6969 40.5695 36.2512 38.5287 39.2495 37.601C42.2478 36.6732 44.7491 35.8688 44.8098 35.8136C44.8706 35.7584 44.7068 35.3627 44.4454 34.9345C44.184 34.5062 43.8288 33.7108 43.654 33.167L43.3374 32.1781L41.7692 32.1734C39.8697 32.1674 37.8967 31.9023 36.2512 31.4325C33.032 30.5133 30.7111 28.3197 29.9859 25.5131C29.7227 24.4952 29.7117 21.8568 29.9675 20.9075C30.5583 18.7198 32.1081 16.8072 34.2965 15.5687C36.034 14.5854 38.8722 13.9941 41.8373 13.9976C43.93 14 45.0896 14.1265 46.2123 14.4756L46.9486 14.7044V17.0425C46.9486 18.3286 46.9302 19.3807 46.9062 19.3807C46.8823 19.3807 46.5344 19.2241 46.1332 19.0326C43.873 17.9548 40.8324 17.9062 39.082 18.9196C37.1954 20.0127 36.2954 22.2874 36.9175 24.3984C37.466 26.2618 39.4667 27.7183 41.8079 27.9569C43.0134 28.08 45.743 27.6844 46.9835 27.2073C47.3388 27.0703 47.3572 27.0827 47.3572 27.4475C47.3572 27.7899 47.4234 27.8488 47.959 27.9819C48.2903 28.0641 48.964 28.3396 49.4573 28.5937L50.3555 29.0563V21.6599V14.2636H53.7623H57.1692L57.1766 19.7509C57.1839 25.1605 57.1876 25.2336 57.4416 24.9018C57.5833 24.7165 58.7227 23.141 59.9724 21.4005C61.224 19.6602 62.4277 18.0079 62.6504 17.7291L63.0554 17.2221L59.2619 8.8752L55.4686 0.52832L55.0581 0.545147C54.8335 0.554318 50.0794 0.822679 44.4951 1.14128ZM55.4667 5.15456C57.0293 5.87565 57.7288 6.86514 57.8245 8.48845C57.8797 9.43039 57.8466 9.62472 57.5226 10.2792C56.8471 11.6406 55.6581 12.3875 54.0108 12.4847C52.7169 12.5611 51.8132 12.2767 50.9426 11.5199C48.7799 9.63817 49.2714 6.45941 51.9181 5.22241C53.0169 4.7087 54.4415 4.6815 55.4667 5.15456ZM95.2597 7.03925C92.9388 7.63593 91.6522 9.19919 91.8179 11.2246C91.8547 11.6807 91.9798 12.2372 92.0976 12.4613C92.7124 13.6343 94.2971 14.5443 96.8665 15.1992C99.1599 15.7831 99.6881 16.121 99.6881 17.0002C99.6881 17.549 98.9096 18.2954 98.304 18.3277C96.6125 18.4173 95.8413 17.9543 95.464 16.6192L95.2873 15.9995L94.5916 16.0706C94.2088 16.1095 93.2922 16.1795 92.5523 16.2262L91.2086 16.3108L91.2933 16.8343C91.5767 18.582 92.6958 20.0507 94.1462 20.5775C96.3052 21.3618 99.5482 21.2793 101.315 20.3951C103.263 19.4195 104.293 17.2422 103.724 15.306C103.196 13.5163 101.866 12.6396 98.3703 11.7822C96.2279 11.2563 95.7327 11.0064 95.7401 10.4542C95.753 9.56937 97.0819 9.12391 98.258 9.60977C98.7476 9.81162 99.2777 10.509 99.2795 10.9511C99.2795 11.1911 99.3623 11.2016 100.608 11.1201C101.339 11.0723 102.267 11.0328 102.67 11.0324L103.404 11.0318L103.321 10.4266C103.126 9.02318 102.11 7.79724 100.693 7.25793C100.021 7.00194 99.5722 6.94539 97.9157 6.90836C96.5978 6.87887 95.7143 6.92237 95.2597 7.03925ZM109.023 7.03682C107.444 7.43245 106.176 8.4521 105.76 9.65757C105.276 11.0586 105.602 12.4178 106.655 13.39C107.499 14.1719 108.573 14.6579 110.636 15.1948C112.937 15.7934 113.452 16.1233 113.452 17.0002C113.452 17.5486 112.675 18.2954 112.07 18.328C110.406 18.4179 109.653 17.9867 109.285 16.735L109.068 15.9977L108.365 16.0697C107.976 16.1091 107.054 16.1797 106.314 16.2263L104.971 16.3111L105.053 16.9158C105.179 17.8194 105.871 19.1336 106.544 19.7471C108.273 21.3203 112.764 21.6081 115.239 20.3041C117.083 19.3329 118.044 17.1977 117.488 15.306C116.964 13.5236 115.723 12.6958 112.272 11.8234C109.636 11.1574 109.257 10.8991 109.651 10.043C110.087 9.09901 112.141 9.23514 112.767 10.2494C112.918 10.4945 113.043 10.8102 113.043 10.9511C113.043 11.1911 113.126 11.2016 114.372 11.1201C115.103 11.0723 116.023 11.0328 116.417 11.0324C117.08 11.0318 117.131 11.0082 117.131 10.7106C117.131 9.37599 115.922 7.80331 114.473 7.2555C113.783 6.99414 113.351 6.94 111.681 6.90607C110.402 6.88022 109.463 6.9264 109.023 7.03682ZM77.2019 13.9872V20.8619L80.8481 20.8596C84.8071 20.857 85.7698 20.7442 86.9753 20.1413C87.9159 19.6698 89.0994 18.3679 89.4675 17.3991C90.2828 15.2534 90.1835 12.0948 89.2374 10.1149C88.7276 9.04676 87.5625 7.92691 86.5354 7.51958C85.744 7.20502 85.5931 7.19425 81.461 7.15397L77.2019 7.1125V13.9872ZM84.3562 10.5677C85.2397 11.0153 85.5692 11.8217 85.6317 13.6964C85.6851 15.3518 85.5323 16.2314 85.0777 16.8615C84.693 17.3953 84.1685 17.5849 82.7549 17.6998L81.5641 17.7966V13.9965V10.1962L82.6868 10.2439C83.4783 10.2775 83.9734 10.3737 84.3562 10.5677ZM72.5214 12.4697C71.8036 12.5876 69.9924 13.4235 69.1292 14.0341C65.9027 16.3211 62.4093 20.6793 57.8502 28.1066C54.7305 33.1876 54.1378 34.1334 53.9537 34.3234C53.7863 34.4955 53.5967 34.3547 52.4776 33.2321C50.8708 31.6181 49.9487 30.8376 48.9161 30.2167C48.2204 29.7977 48.0253 29.7401 47.5265 29.8045C46.1056 29.9877 45.3141 30.7982 45.3141 32.0708C45.3141 32.7674 45.3675 32.887 46.2123 34.0682C48.3897 37.106 50.7438 39.6768 51.758 40.1196C52.5144 40.4505 54.3256 40.6033 55.082 40.4002C56.1293 40.1196 56.7845 39.1872 60.4418 32.7792C63.3388 27.7013 65.1959 24.6354 66.8856 22.1412C69.9409 17.6292 71.8717 15.4395 74.8847 13.0694C75.1626 12.8509 75.1939 12.7692 75.0522 12.626C74.8736 12.4464 73.265 12.3471 72.5214 12.4697ZM23.0323 14.6415C25.482 15.3048 26.9968 16.3789 27.7754 18.0037C28.1822 18.8509 28.2098 19.0048 28.2098 20.3907C28.2098 21.7132 28.1711 21.9538 27.8472 22.636C26.6876 25.0813 23.8568 26.4131 19.353 26.6332L17.5805 26.7196L17.5437 29.3791L17.5069 32.0387H14.1037H10.6986V23.1419V14.245L16.3197 14.2957C21.5929 14.3433 22.0089 14.3646 23.0323 14.6415ZM17.4793 18.11C17.4222 18.167 17.3762 19.2407 17.3762 20.4961V22.7786L18.7217 22.725C19.9162 22.6776 20.1297 22.6298 20.6414 22.2956C21.6923 21.6087 22.0494 20.0549 21.3702 19.1296C20.9248 18.5224 19.9235 18.1253 18.6812 18.0622C18.0756 18.0316 17.5345 18.0531 17.4793 18.11ZM78.9063 23.2732C78.2124 23.4433 77.8958 23.6776 77.6124 24.2276C77.0602 25.297 77.3621 26.6839 78.2787 27.2893C78.8363 27.6578 79.9959 27.7059 80.6217 27.3863C80.9825 27.2025 81.5604 26.4839 81.5622 26.2199C81.5622 26.1672 81.3082 26.0562 80.9953 25.973C80.5186 25.8461 80.41 25.8551 80.3107 26.0284C79.7161 27.0782 78.702 26.7261 78.702 25.4704C78.702 25.106 78.794 24.6972 78.9137 24.5277C79.1916 24.135 79.8395 24.1262 80.1137 24.5114C80.2831 24.7519 80.3972 24.7805 80.8702 24.7016C81.1812 24.6496 81.426 24.533 81.426 24.4367C81.426 24.2165 80.9291 23.5891 80.6328 23.4353C80.2738 23.2495 79.3536 23.1631 78.9063 23.2732ZM83.4175 23.2836C82.177 23.6737 81.6303 25.1957 82.2635 26.4904C82.9464 27.8836 85.2654 27.9883 86.16 26.666C86.7913 25.7313 86.471 24.0389 85.5618 23.5211C85.0519 23.2298 83.9697 23.1098 83.4175 23.2836ZM87.1502 25.4403V27.5949H87.695H88.2417L88.2527 26.08C88.2656 24.4412 88.2361 24.4148 88.8104 26.5584L89.092 27.6091L89.5779 27.5684L90.062 27.5276L90.4117 26.181L90.7614 24.8343L90.8295 26.181L90.8976 27.5276H91.4424H91.989L92.0259 25.4006L92.0627 23.2732L91.1405 23.3133L90.2166 23.353L89.9442 24.3858C89.6257 25.5947 89.5337 25.7326 89.4196 25.1712C89.3736 24.9441 89.2392 24.427 89.1196 24.0221L88.9024 23.2858H88.0263H87.1502V25.4403ZM92.8744 25.4403V27.5949H93.5554H94.2364V26.8036V26.0124L94.9873 25.9508C96.226 25.8492 96.861 24.9373 96.3604 23.9795C96.0438 23.3749 95.7714 23.2858 94.2456 23.2858H92.8744V25.4403ZM97.2346 25.4445V27.6032L98.9041 27.5653L100.573 27.5276L100.616 27.0226L100.658 26.5176H99.6274H98.5985V24.9018V23.2858H97.9157H97.2346V25.4445ZM101.323 25.4478V27.6096L101.97 27.5686L102.618 27.5276L102.655 25.4068L102.694 23.2858H102.009H101.323V25.4478ZM104.665 23.5153C104.107 24.8826 103.231 27.2594 103.231 27.4074C103.231 27.5402 103.413 27.5949 103.851 27.5949C104.418 27.5949 104.485 27.56 104.615 27.1909C104.75 26.8106 104.799 26.7869 105.48 26.7869C106.161 26.7869 106.211 26.8106 106.345 27.1909C106.474 27.5569 106.544 27.5949 107.085 27.5949C107.415 27.5949 107.717 27.5615 107.759 27.5207C107.799 27.4798 107.479 26.5254 107.045 25.3998L106.257 23.353L105.51 23.3133C104.897 23.2805 104.746 23.3162 104.665 23.5153ZM108.274 25.4403V27.5949H108.882H109.489L109.53 26.4494L109.568 25.3036L110.358 26.4494L111.147 27.5949H111.755H112.362V25.4403V23.2858H111.755H111.146L111.107 24.3968L111.066 25.5076L110.275 24.3968C109.485 23.2901 109.478 23.2858 108.878 23.2858H108.274V25.4403ZM112.933 23.7908C112.975 24.2903 112.983 24.2961 113.618 24.3366L114.262 24.3774L114.3 25.9526L114.337 27.5276L114.985 27.5686L115.633 27.6096V25.9863V24.363H116.314H116.995V23.8245V23.2858H114.943H112.891L112.933 23.7908ZM84.8329 24.4978C85.0299 24.6923 85.1053 24.9446 85.1035 25.4068C85.1016 26.1232 85.0317 26.2747 84.6047 26.4973C84.1795 26.7187 84.0452 26.6937 83.6697 26.3218C83.1764 25.8343 83.25 24.6932 83.7985 24.3315C84.0746 24.1486 84.5587 24.2263 84.8329 24.4978ZM95.1235 24.6323C95.1235 24.9138 95.0499 24.976 94.6799 25.0112C94.2658 25.0507 94.2364 25.0263 94.2364 24.6323C94.2364 24.2385 94.2658 24.2139 94.6799 24.2537C95.0499 24.2888 95.1235 24.351 95.1235 24.6323ZM105.788 25.7862C105.745 25.8294 105.563 25.8449 105.385 25.8208C105.061 25.777 105.061 25.775 105.258 25.1038L105.456 24.4303L105.663 25.0691C105.775 25.4204 105.832 25.7431 105.788 25.7862ZM66.3923 26.5205C65.796 27.3112 64.3585 29.626 64.4247 29.6912C64.4597 29.7264 67.2334 28.8942 68.0322 28.6087C68.1463 28.568 68.0267 28.1626 67.6421 27.2981C67.3347 26.6096 67.0439 26.0013 66.9942 25.9464C66.9426 25.8913 66.6721 26.1497 66.3923 26.5205Z" fill="black"/>
</svg>
