<svg width="400" height="300" viewBox="0 0 400 300" fill="none" xmlns="http://www.w3.org/2000/svg">
<path d="M162.922 123.515H148V178.292H155.661V157.177H162.922C172.211 157.283 179.846 149.862 179.979 140.546C180.113 131.23 172.665 123.622 163.349 123.489C163.216 123.515 163.055 123.515 162.922 123.515ZM162.922 149.542H155.661V131.177H162.922C167.994 131.257 172.025 135.448 171.945 140.52C171.864 145.458 167.86 149.462 162.922 149.542Z" fill="#FFCB05"/>
<path d="M242.497 178.292H252L238.226 156.429C247.115 153.68 252.08 144.257 249.331 135.368C247.142 128.32 240.628 123.489 233.234 123.489H218.312V178.265H225.973V157.15H229.15M226 131.177H233.261C238.333 131.097 242.497 135.127 242.604 140.199C242.684 145.271 238.653 149.435 233.581 149.542C233.474 149.542 233.368 149.542 233.261 149.542H226V131.177Z" fill="#FFCB05"/>
<path d="M205.819 121.86L196.903 155.441L187.988 121.86L178.138 115L196.903 185.579L215.696 115" fill="#FFCB05"/>
</svg>
