<?xml version="1.0" encoding="utf-8"?>
<!-- Generator: Adobe Illustrator 26.3.1, SVG Export Plug-In . SVG Version: 6.00 Build 0)  -->
<svg version="1.1" id="Layer_1" xmlns="http://www.w3.org/2000/svg" xmlns:xlink="http://www.w3.org/1999/xlink" x="0px" y="0px"
	 viewBox="0 0 100 90" style="enable-background:new 0 0 100 90;" xml:space="preserve">
<style type="text/css">
	.st0{fill:#FFCB05;}
</style>
<g>
	<path class="st0" d="M21.7,24.5H10.3v41.8h5.9V50.3h5.5c7.1,0.1,12.9-5.6,13-12.7c0.1-7.1-5.6-12.9-12.7-13
		C21.9,24.5,21.8,24.5,21.7,24.5z M21.7,44.4h-5.5v-14h5.5c3.9,0.1,7,3.3,6.9,7.1C28.5,41.3,25.4,44.4,21.7,44.4z"/>
	<path class="st0" d="M82.5,66.4h7.3L79.2,49.7c6.8-2.1,10.6-9.3,8.5-16.1c-1.7-5.4-6.6-9.1-12.3-9.1H64v41.8h5.9V50.2h2.4
		 M69.9,30.4h5.5c3.9-0.1,7.1,3,7.1,6.9c0.1,3.9-3,7.1-6.9,7.1c-0.1,0-0.2,0-0.2,0h-5.5V30.4z"/>
	<path class="st0" d="M54.4,23.3l-6.8,25.7l-6.8-25.7L33.3,18L47.6,72L62,18"/>
</g>
</svg>
