<svg width="186" height="216" viewBox="0 0 186 216" fill="none" xmlns="http://www.w3.org/2000/svg">
<path d="M92.8955 80.292C87.7941 80.292 83.6455 84.4406 83.6455 89.542V98.792H102.146V89.542C102.146 84.4406 97.9969 80.292 92.8955 80.292Z" fill="#00C197"/>
<path d="M92.8958 124.229C96.7272 124.229 99.8333 121.123 99.8333 117.292C99.8333 113.461 96.7272 110.354 92.8958 110.354C89.0643 110.354 85.9583 113.461 85.9583 117.292C85.9583 121.123 89.0643 124.229 92.8958 124.229Z" fill="#00C197"/>
<path d="M145.686 66.8332L94.8105 43.7082C93.5895 43.1532 92.202 43.1532 90.981 43.7082L40.106 66.8332C38.4549 67.5825 37.3958 69.229 37.3958 71.042V108.042C37.3958 145.241 56.3305 159.393 91.2677 172.501C92.2806 172.88 93.4323 172.903 94.5099 172.501C129.456 159.463 148.396 145.329 148.396 108.042V71.042C148.396 69.229 147.337 67.5825 145.686 66.8332ZM120.646 135.792C120.646 138.345 118.578 140.417 116.021 140.417H69.7708C67.2131 140.417 65.1458 138.345 65.1458 135.792V103.417C65.1458 100.864 67.2131 98.792 69.7708 98.792H74.3958V89.542C74.3958 79.3392 82.693 71.042 92.8958 71.042C103.099 71.042 111.396 79.3392 111.396 89.542V98.792H116.021C118.578 98.792 120.646 100.864 120.646 103.417V135.792Z" fill="#00C197"/>
<g opacity="0.6">
<path d="M151.816 62.0898L151.817 62.09C153.487 62.848 154.559 64.5139 154.559 66.3487V107.791C154.559 128.579 149.283 142.845 139.193 153.735C129.081 164.648 114.087 172.223 94.5288 179.52L94.5287 179.52C93.4379 179.927 92.2726 179.904 91.2478 179.52C71.6948 172.185 56.7044 164.584 46.5948 153.669C36.5066 142.776 31.2324 128.53 31.2324 107.791V66.3487C31.2324 64.5139 32.3043 62.848 33.9747 62.09L33.975 62.0898L90.9579 36.1885C92.1941 35.6266 93.5973 35.6266 94.8334 36.1885L151.816 62.0898Z" stroke="#00C197"/>
</g>
<g opacity="0.5">
<path d="M157.898 57.3428L157.898 57.343C159.758 58.1873 160.952 60.0429 160.952 62.0865V107.791C160.952 130.727 155.131 146.474 143.992 158.495C132.831 170.54 116.286 178.898 94.7146 186.946L94.7145 186.946C93.4996 187.399 92.2015 187.373 91.0601 186.946C69.4947 178.855 52.9528 170.47 41.7947 158.423C30.6582 146.398 24.8386 130.673 24.8386 107.791V62.0865C24.8386 60.0429 26.0325 58.1873 27.8931 57.343L27.8934 57.3428L90.7372 28.7775C92.114 28.1517 93.677 28.1517 95.0538 28.7775L157.898 57.3428Z" stroke="#00C197"/>
</g>
<g opacity="0.4">
<path d="M163.869 52.6809L163.869 52.681C165.917 53.61 167.23 55.6519 167.23 57.9006V107.79C167.23 132.835 160.874 150.036 148.705 163.169C136.515 176.324 118.445 185.451 94.8976 194.236L94.8975 194.236C93.5607 194.735 92.1324 194.706 90.8764 194.236C67.3352 185.404 49.2699 176.248 37.0824 163.089C24.9165 149.953 18.5615 132.776 18.5615 107.79V57.9006C18.5615 55.6519 19.8752 53.61 21.9226 52.681L21.9228 52.6809L90.5211 21.4998C92.036 20.8113 93.7559 20.8113 95.2708 21.4998L163.869 52.6809Z" stroke="#00C197"/>
</g>
<g opacity="0.3">
<path d="M169.771 48.0743L169.771 48.0744C172.003 49.0873 173.435 51.3132 173.435 53.7646V107.791C173.435 134.92 166.549 153.558 153.362 167.788C140.154 182.042 120.579 191.928 95.078 201.442L95.0779 201.442C93.6206 201.986 92.0636 201.955 90.6944 201.442C65.2002 191.878 45.6293 181.96 32.4245 167.702C19.2411 153.468 12.3569 134.855 12.3569 107.791V53.7646C12.3569 51.3132 13.789 49.0873 16.0209 48.0744L16.0212 48.0743L90.3069 14.3081C91.9583 13.5575 93.8334 13.5575 95.4848 14.3081L169.771 48.0743ZM90.5187 201.91C91.9977 202.464 93.6793 202.498 95.2528 201.91H90.5187Z" stroke="#00C197"/>
</g>
<g opacity="0.2">
<path d="M175.183 43.8488L175.183 43.849C177.585 44.9386 179.125 47.3333 179.125 49.9706V107.79C179.125 136.831 171.754 156.787 157.634 172.025C143.493 187.286 122.536 197.868 95.2437 208.051L95.2436 208.051C93.6758 208.636 92.0007 208.602 90.5276 208.051C63.2424 197.814 42.2907 187.198 28.1527 171.933C14.0363 156.691 6.66675 136.762 6.66675 107.79V49.9706C6.66675 47.3333 8.20741 44.9386 10.6086 43.849L10.6089 43.8488L90.1108 7.71161C91.8874 6.90407 93.9047 6.90407 95.6813 7.71161L175.183 43.8488Z" stroke="#00C197"/>
</g>
<g opacity="0.1">
<path d="M180.518 39.6837L180.519 39.6838C183.087 40.8492 184.734 43.4103 184.734 46.2309V107.79C184.734 138.715 176.884 159.97 161.845 176.201C146.783 192.455 124.465 203.724 95.4066 214.565L95.4064 214.565C93.7298 215.191 91.9383 215.155 90.3628 214.566C61.3121 203.667 38.9992 192.361 23.9414 176.103C8.90506 159.868 1.05713 138.641 1.05713 107.79V46.2309C1.05713 43.4103 2.70484 40.8492 5.27295 39.6838L5.27324 39.6837L89.917 1.20925C91.817 0.345616 93.9746 0.345616 95.8746 1.20925L180.518 39.6837Z" stroke="#00C197"/>
</g>
</svg>
