<?xml version="1.0" encoding="utf-8"?>
<!-- Generator: Adobe Illustrator 26.3.1, SVG Export Plug-In . SVG Version: 6.00 Build 0)  -->
<svg version="1.1" id="Layer_1" xmlns="http://www.w3.org/2000/svg" xmlns:xlink="http://www.w3.org/1999/xlink" x="0px" y="0px"
	 viewBox="0 0 100 90" style="enable-background:new 0 0 100 90;" xml:space="preserve">
<style type="text/css">
	.st0{fill:#D51F53;}
	.st1{fill:#FDB913;}
	.st2{fill:#8DC63F;}
	.st3{fill:#0095DB;}
	.st4{fill:#F15A22;}
	.st5{fill:#FFFFFF;}
</style>
<g>
	<path class="st0" d="M23.2,34.8c0.1-0.7,0.3-1.4,0.4-1.9l-3.1-0.1c-3.5-0.1-5.7,0.5-6.1,2.6c-0.3,1.4,0.1,2.5,1.9,4.8l4.7,5.6
		l0.2-1c-0.1-0.1-0.2-0.1-0.3-0.1c-0.5-0.3-0.8-0.9-0.8-1.9c0-0.9,0.3-1.5,0.9-2c0.4-0.3,0.9-0.5,1.4-0.6c-0.1,0-0.1,0-0.2,0.1
		L23.2,34.8z"/>
	<path class="st0" d="M47.8,50.8L27.5,56c3,4.1,4.5,5.4,10.9,1.4l10.9-6.7L47.8,50.8z"/>
	<path class="st0" d="M69.9,32.6l-11.6,0.7l15.8,3.8C75.5,35.6,74.5,32.2,69.9,32.6z"/>
	<path class="st1" d="M16.7,44c-0.7-0.5-1.8-0.4-2.4,0.3c-0.5,0.7-0.4,1.8,0.3,2.4c0.7,0.5,1.8,0.4,2.4-0.3
		C17.6,45.6,17.4,44.6,16.7,44z"/>
	<path class="st2" d="M20.7,30.8c0.6,0,1.2-0.5,1.2-1.2c0-0.6-0.5-1.2-1.2-1.2s-1.2,0.5-1.2,1.2C19.6,30.3,20.1,30.8,20.7,30.8z"/>
	<path class="st0" d="M48.6,29.9c0.6,0,1.1-0.5,1.1-1.1c0-0.6-0.5-1.1-1.1-1.1c-0.6,0-1.1,0.5-1.1,1.1C47.6,29.4,48,29.9,48.6,29.9z
		"/>
	<path class="st3" d="M11.9,41.8c-0.5-0.3-1.2-0.3-1.5,0.2c-0.3,0.5-0.3,1.2,0.2,1.5c0.5,0.3,1.2,0.3,1.5-0.2
		C12.5,42.8,12.4,42.1,11.9,41.8z"/>
	<path class="st4" d="M20.8,45.8c0.4,0.4,0.9,0.7,1.8,0.7c0.6,0,1-0.1,1.2-0.3c0.2-0.2,0.2-0.4,0.1-0.6c-0.1-0.2-0.5-0.3-1.3-0.4
		c-0.1,0-0.3-0.1-0.5-0.1c-0.1,0-0.1-0.1-0.2-0.1c-0.1,0-0.1,0-0.2-0.1c-0.1,0-0.2-0.1-0.3-0.1c0,0-0.1,0-0.1-0.1
		c-0.1-0.1-0.2-0.1-0.3-0.1L20.8,45.8z"/>
	<path class="st4" d="M26,46c0,0.8-0.3,1.4-0.9,1.8c-0.1,0.1-0.3,0.2-0.5,0.3c-0.1,0-0.1,0.1-0.2,0.1c-0.1,0.1-0.2,0.1-0.3,0.1
		c-0.1,0-0.1,0.1-0.2,0.1s-0.2,0.1-0.3,0.1c-0.1,0-0.1,0-0.3,0c-0.1,0-0.3,0-0.5,0c-0.8,0-1.4-0.1-2-0.3c-0.2-0.1-0.3-0.1-0.5-0.3
		l-0.2,1C19,54.1,23,57,27.4,56c-0.1-0.3-1.1-6.8-1.5-9.5C26,46.4,26,46.2,26,46z"/>
	<path class="st4" d="M23.5,32.9l24.2,0.7l0.1-0.1l0.2-0.2c0.4-0.4,0.8-0.7,1.2-0.9l-18-5C27.3,26.4,24.9,26.4,23.5,32.9
		c-0.1,0.5-0.3,1.2-0.4,1.9L22,40.1c0.1,0,0.1,0,0.2-0.1c0.1,0,0.1,0,0.2-0.1c0.1,0,0.3-0.1,0.5-0.1c0.7,0,1.4,0.1,1.8,0.3
		c0.1,0.1,0.1,0.1,0.2,0.1C24.3,37.2,23.6,33.4,23.5,32.9z"/>
	<path class="st4" d="M25.1,42l-0.6,0.7c-0.4-0.5-0.8-0.7-1.4-0.7c-0.5,0-0.9,0.1-1.2,0.3c-0.2,0.2-0.2,0.4,0,0.5
		c0.2,0.1,0.5,0.3,1.2,0.4c0.8,0.1,1.5,0.3,2,0.7c0.3,0.2,0.5,0.5,0.5,0.7c-0.1-0.1-0.1-0.2-0.2-0.3C25.5,43.8,25.4,43,25.1,42z"/>
	<path class="st1" d="M33.7,51.6c-3.5,0.3-3.9-1.3-2.8-2.5c0,0,0-0.1,0.1-0.1l1.2-1.2v-4.1c0-0.5-0.1-0.9-0.4-1.3
		c-0.3-0.3-0.7-0.5-1.2-0.5c-0.5,0-0.9,0.3-1.2,0.7v5.6H27V37.1l2.3-1.4v5.1c0.5-0.5,1.2-0.7,2-0.7c1.1,0,1.8,0.3,2.4,0.9
		c0.5,0.6,0.8,1.4,0.8,2.2v2.5l0.9-0.8c0-0.2-0.1-0.5-0.1-0.7c0-1.2,0.4-2.2,1.2-3c0.7-0.7,1.8-1.2,3-1.2c0.4,0,0.7,0.1,1.1,0.1
		l7.2-6.6l-24.2-0.7c0.1,0.5,0.7,4.3,1.4,7.6c0.1,0.1,0.3,0.2,0.5,0.3c0,0,0,0,0.1,0.1c0.1,0.1,0.3,0.3,0.5,0.4L25.1,42
		c0.2,0.9,0.3,1.8,0.4,2.4c0.1,0.1,0.1,0.2,0.2,0.3c0,0.1,0,0.1,0.1,0.1c0.1,0.1,0.1,0.2,0.1,0.3c0,0.1,0,0.1,0,0.2
		c0,0.2,0.1,0.4,0.1,0.6c0,0.1,0,0.3-0.1,0.5c0.4,2.7,1.4,9.1,1.5,9.5l20.3-5.2L33.7,51.6z"/>
	<path class="st3" d="M87.1,42.7c-0.4-0.4-0.9-0.6-1.6-0.6c-0.6,0-1.2,0.2-1.6,0.6c-0.4,0.4-0.6,0.9-0.6,1.6s0.2,1.2,0.6,1.6
		c0.4,0.4,0.9,0.6,1.6,0.6c0.6,0,1.2-0.2,1.6-0.6c0.4-0.4,0.6-0.9,0.6-1.6C87.7,43.7,87.5,43.1,87.1,42.7z"/>
	<path class="st3" d="M76.7,42c-0.6,0-1.2,0.2-1.6,0.6c-0.4,0.4-0.6,0.9-0.6,1.6c0,0.6,0.2,1.2,0.6,1.6c0.4,0.4,0.9,0.6,1.6,0.6
		c0.6,0,1.2-0.2,1.6-0.6c0.4-0.4,0.6-0.9,0.6-1.6c0-0.6-0.2-1.2-0.6-1.6C77.8,42.3,77.3,42,76.7,42z"/>
	<path class="st3" d="M82.6,47.3c-0.8-0.8-1.2-1.8-1.2-3c0-1.2,0.4-2.2,1.2-3c0.8-0.8,1.8-1.2,3-1.2c0.3,0,0.7,0.1,1,0.1l-12.5-3
		l-15.9-3.9l-3-0.7c-2.7-0.7-4.2-1.4-6.1-0.3c-0.3,0.2-0.7,0.5-1.2,0.9l-0.2,0.2l-0.1,0.1l21.3,4.7c5.4,0.9,4.5,6,0.1,7.4v2.8h-2.3
		v-2.2l-1.2,0.3v1.9h-2.3v-0.7c-0.7,0.5-1.3,0.7-1.8,0.7c-1.1,0-2-0.2-2.5-0.7c0.1,0.1,0.3,0.2,0.4,0.3l-11.7,2.8l1.5-0.1l35.2-2
		c0.7,0,1.4-0.1,1.9-0.3c-0.2,0-0.5,0.1-0.7,0.1C84.3,48.5,83.4,48.1,82.6,47.3z M79.7,47.3c-0.8,0.8-1.8,1.2-3,1.2
		c-1.2,0-2.2-0.4-3-1.2c-0.8-0.8-1.2-1.8-1.2-3c0-1.2,0.4-2.2,1.2-3c0.8-0.8,1.8-1.2,3-1.2c1.2,0,2.2,0.4,3,1.2
		c0.8,0.8,1.2,1.8,1.2,3C81,45.5,80.6,46.5,79.7,47.3z"/>
	<path class="st3" d="M88.6,47.9c-0.5,0-0.9,0.4-0.9,0.9c0,0.1,0,0.2,0.1,0.3c0.1,0.3,0.5,0.6,0.8,0.6c0.4,0,0.8-0.3,0.9-0.7
		c0-0.1,0-0.1,0-0.2C89.5,48.2,89.1,47.9,88.6,47.9z"/>
	<path class="st2" d="M40.7,42.5c-0.3-0.3-0.7-0.4-1.2-0.4c-0.5,0-0.8,0.1-1.2,0.4c-0.3,0.3-0.5,0.6-0.5,1h3.3
		C41.1,43,41,42.7,40.7,42.5z"/>
	<path class="st2" d="M61.8,44.3c-1,0.1-1.5,0.5-1.6,1.2c0.1,0.7,0.6,1,1.6,1.1c0.8,0,1.4-0.2,1.6-0.7V45
		C63.1,44.6,62.6,44.3,61.8,44.3z"/>
	<path class="st2" d="M41.5,40.6c0.1,0.1,0.3,0.2,0.4,0.3L42,41c0.1,0.1,0.3,0.2,0.3,0.3c0.7,0.7,1.1,1.8,1.1,3v0.8h-5.7
		c0.1,0.5,0.3,0.8,0.6,1c0.3,0.3,0.7,0.4,1.2,0.4c0.7,0,1.5-0.2,2.1-0.7l1.4,1.4c-0.6,0.8-1.8,1.2-3.4,1.2c-1.2,0-2.2-0.4-3-1.2
		c-0.1-0.1-0.3-0.3-0.4-0.5l-0.1-0.1c-0.1-0.1-0.2-0.3-0.3-0.5c-0.2-0.4-0.3-0.8-0.3-1.2l-0.9,0.8v2.6h-2.3v-0.5l-1.1,1
		c-0.1,0.1-0.1,0.1-0.2,0.2c-1.1,1.2-0.8,2.8,2.8,2.5l14.1-0.8l11.7-2.8c-0.1-0.1-0.3-0.2-0.4-0.3c-0.5-0.5-0.8-1.2-0.8-2
		c0-0.1,0-0.3,0-0.3c0-0.1,0-0.2,0.1-0.3c0-0.1,0.1-0.1,0.1-0.3c0-0.1,0.1-0.1,0.1-0.3c0.1-0.1,0.1-0.2,0.1-0.3c0,0,0-0.1,0.1-0.1
		c0-0.1,0.1-0.1,0.1-0.1c0.1-0.1,0.2-0.3,0.3-0.5c0.5-0.6,1.4-0.9,2.5-0.9c0.1,0,0.3,0,0.4,0c0.1,0,0.1,0,0.1,0c0.1,0,0.2,0,0.3,0.1
		c0.1,0,0.1,0.1,0.2,0.1c0.1,0,0.1,0.1,0.3,0.1c0.1,0,0.1,0.1,0.2,0.1c0.1,0.1,0.3,0.1,0.4,0.2v-0.3c0-0.3-0.1-0.5-0.3-0.7
		c-0.1-0.1-0.1-0.1-0.2-0.1c0,0,0,0-0.1,0c-0.1,0-0.1-0.1-0.2-0.1c0,0-0.1,0-0.1,0c-0.1,0-0.1,0-0.1,0c-0.1,0-0.2,0-0.3,0
		c-1,0-1.8,0.1-2.3,0.5l-1.2-1.5c1-0.7,2.2-1,3.7-1c1,0,1.8,0.3,2.4,0.8c0.1,0.1,0.3,0.3,0.3,0.5c0.1,0.1,0.1,0.2,0.1,0.3
		c0.2,0.5,0.3,1,0.3,1.7v2.8v0.3l1.2-0.3v-0.4v-4.6v-0.9l2.3-0.3v0.9c0.1-0.1,0.3-0.3,0.4-0.3c0.1,0,0.1-0.1,0.1-0.1
		c0.1-0.1,0.3-0.2,0.4-0.3c0.1,0,0.1,0,0.1-0.1c0.3-0.1,0.7-0.2,1.1-0.2c0.3,0,0.5,0,0.7,0.1l-0.3,2.3c-0.3-0.3-0.7-0.4-1.2-0.4
		c-0.3,0-0.7,0.2-0.9,0.5c-0.1,0.1-0.1,0.1-0.1,0.2c0,0.1-0.1,0.1-0.1,0.1c0,0.1-0.1,0.1-0.1,0.1c-0.1,0.1-0.1,0.2-0.1,0.3v1.2v1.2
		c4.4-1.4,5.2-6.4-0.1-7.4l-21.3-4.7l-7.2,6.6C40.9,40.4,41.2,40.5,41.5,40.6z M44.6,40.4l2.3-0.3v0.7c0.5-0.5,1.2-0.7,2-0.7
		c1,0,1.8,0.3,2.4,0.9c0.6-0.6,1.5-0.9,2.7-0.9c1,0,1.8,0.3,2.4,0.9c0.5,0.6,0.8,1.4,0.8,2.2V46v2.3v0.1h-0.2h-2.1v-1.2v-3.3
		c0-0.5-0.1-0.9-0.4-1.3c-0.3-0.3-0.7-0.5-1.2-0.5c-0.5,0-0.9,0.3-1.2,0.9c0,0.2-0.1,0.3-0.1,0.5v4.9h-2.3v-4.5
		c0-0.5-0.1-0.9-0.4-1.3c-0.3-0.3-0.7-0.5-1.2-0.5c-0.5,0-0.9,0.4-1.3,1v5.3h-2.3v-8.1H44.6z"/>
	<path class="st5" d="M76.7,40.1c-1.2,0-2.2,0.4-3,1.2c-0.8,0.8-1.2,1.8-1.2,3c0,1.2,0.4,2.2,1.2,3c0.8,0.8,1.8,1.2,3,1.2
		c1.2,0,2.2-0.4,3-1.2c0.8-0.8,1.2-1.8,1.2-3c0-1.2-0.4-2.2-1.2-3C78.9,40.5,77.9,40.1,76.7,40.1z M78.2,45.8
		c-0.4,0.4-0.9,0.6-1.6,0.6c-0.6,0-1.2-0.2-1.6-0.6c-0.4-0.4-0.6-0.9-0.6-1.6s0.2-1.2,0.6-1.6c0.4-0.4,0.9-0.6,1.6-0.6
		c0.6,0,1.2,0.2,1.6,0.6c0.4,0.4,0.6,0.9,0.6,1.6C78.8,44.9,78.7,45.4,78.2,45.8z"/>
	<path class="st5" d="M25.1,44c-0.5-0.4-1.2-0.6-2-0.7c-0.5-0.1-0.9-0.3-1.2-0.4c-0.2-0.1-0.2-0.3,0-0.5c0.2-0.2,0.5-0.3,1.2-0.3
		c0.5,0,1,0.2,1.4,0.7l1.3-1.5c-0.4-0.3-0.8-0.7-1.2-0.8c-0.4-0.2-1-0.3-1.8-0.3c-0.7,0-1.4,0.2-2,0.7c-0.6,0.5-0.9,1.1-0.9,2
		c0,0.9,0.3,1.6,0.8,1.9c0.5,0.3,1.2,0.5,1.8,0.6c0.7,0.1,1.2,0.2,1.3,0.4c0.1,0.2,0.1,0.4-0.1,0.6c-0.2,0.2-0.6,0.3-1.2,0.3
		c-0.8-0.1-1.4-0.3-1.8-0.7l-1.2,1.4c0.4,0.4,0.8,0.7,1.4,0.9c0.5,0.2,1.2,0.3,2,0.3s1.6-0.2,2.2-0.7c0.6-0.4,0.9-1,0.9-1.8
		C26,45.1,25.7,44.4,25.1,44z"/>
	<path class="st5" d="M31.3,40.1c-0.7,0-1.4,0.3-2,0.7v-5.1L27,37.1v11.4h2.3v-5.6c0.3-0.5,0.7-0.7,1.2-0.7c0.5,0,0.9,0.2,1.2,0.5
		c0.3,0.3,0.4,0.7,0.4,1.3v4.5h2.3v-5.1c0-0.8-0.3-1.6-0.8-2.2C33.1,40.5,32.3,40.1,31.3,40.1z"/>
	<path class="st5" d="M39.5,40.1c-1.2,0-2.2,0.4-3,1.2c-0.7,0.7-1.2,1.8-1.2,3c0,1.2,0.4,2.2,1.2,3c0.7,0.7,1.8,1.2,3,1.2
		c1.6,0,2.8-0.4,3.4-1.2l-1.4-1.4c-0.6,0.5-1.3,0.7-2.1,0.7c-0.5,0-0.8-0.1-1.2-0.4c-0.3-0.3-0.5-0.6-0.6-1h5.7v-0.8
		c0-1.2-0.3-2.2-1.1-3C41.7,40.6,40.7,40.1,39.5,40.1z M37.8,43.5c0-0.5,0.1-0.8,0.5-1c0.3-0.3,0.7-0.4,1.2-0.4
		c0.5,0,0.8,0.1,1.2,0.4c0.3,0.3,0.5,0.6,0.5,1H37.8z"/>
	<path class="st5" d="M54,40.1c-1.2,0-2.1,0.3-2.7,0.9c-0.5-0.6-1.4-0.9-2.4-0.9c-0.8,0-1.5,0.3-2,0.7v-0.7l-2.3,0.3v8.1H47v-5.3
		c0.3-0.7,0.8-1,1.3-1c0.5,0,0.9,0.2,1.2,0.5c0.3,0.3,0.4,0.7,0.4,1.3v4.5h2.3v-4.9c0-0.2,0-0.3,0.1-0.5c0.3-0.5,0.7-0.9,1.2-0.9
		c0.5,0,0.9,0.2,1.2,0.5c0.3,0.3,0.4,0.7,0.4,1.3v4.5h2.3v-5.1c0-0.8-0.3-1.6-0.8-2.2C55.9,40.5,55.1,40.1,54,40.1z"/>
	<path class="st5" d="M69.2,41v-0.9l-2.3,0.3v8.1h2.3v-5.1c0.4-0.8,0.8-1.2,1.4-1.2c0.5,0,0.9,0.1,1.2,0.4l0.3-2.3
		c-0.3-0.1-0.5-0.1-0.7-0.1C70.5,40.1,69.8,40.4,69.2,41z"/>
	<path class="st5" d="M62.4,40.1c-1.4,0-2.6,0.3-3.7,1l0.9,1.4c0.5-0.3,1.4-0.5,2.3-0.5c0.9,0.1,1.3,0.4,1.4,1v0.3
		c-0.7-0.3-1.3-0.5-1.8-0.5c-1.2,0-2,0.3-2.5,0.9c-0.5,0.6-0.8,1.3-0.8,2.1c0,0.8,0.3,1.5,0.8,2c0.5,0.5,1.4,0.7,2.5,0.7
		c0.5,0,1.2-0.2,1.8-0.7v0.7h2.3v-4.9c0-1.1-0.3-2-0.9-2.5C64.2,40.4,63.4,40.1,62.4,40.1z M63.3,46c-0.2,0.4-0.7,0.7-1.6,0.7
		c-1-0.1-1.5-0.4-1.6-1.1c0.1-0.6,0.5-0.9,1.3-1.2c0.1,0,0.3-0.1,0.5,0c0.7,0.1,1.2,0.3,1.3,0.6V46z"/>
	<path class="st5" d="M88.6,41.3c-0.8-0.8-1.8-1.2-3-1.2c-1.2,0-2.2,0.4-3,1.2c-0.8,0.8-1.2,1.8-1.2,3c0,1.2,0.4,2.2,1.2,3
		c0.8,0.8,1.8,1.2,3,1.2c1.2,0,2.2-0.4,3-1.2c0.8-0.8,1.2-1.8,1.2-3C89.8,43.1,89.4,42,88.6,41.3z M87.1,45.8
		c-0.4,0.4-0.9,0.6-1.6,0.6c-0.6,0-1.2-0.2-1.6-0.6c-0.4-0.4-0.6-0.9-0.6-1.6s0.2-1.2,0.6-1.6c0.4-0.4,0.9-0.6,1.6-0.6
		c0.6,0,1.2,0.2,1.6,0.6c0.4,0.4,0.6,0.9,0.6,1.6C87.7,44.9,87.5,45.4,87.1,45.8z"/>
	<path class="st4" d="M56.4,51.6l22.6-1.4c2.2-0.2,2.4,1.7,1.5,2.3L65,62c-1.9,1.3-3.5,1.6-4.5,0.3c-0.2-0.2-6.2-6.8-6.2-6.8
		c-0.9-1-1.1-1.6-0.9-2.3C53.7,52.1,54.7,51.7,56.4,51.6z"/>
	<path class="st5" d="M65,57.6l0.1-2.4c0-0.4-0.1-0.7-0.1-0.9c-0.1-0.1-0.3-0.2-0.6-0.2c-0.3,0-0.6,0.1-0.7,0.3
		c-0.1,0.1-0.2,0.5-0.2,0.8l-0.1,2.5l-1.7,0.1l0.1-2.4c0-0.4-0.1-0.7-0.1-0.9c-0.1-0.1-0.3-0.2-0.6-0.2c-0.3,0-0.6,0.1-0.7,0.3
		c-0.1,0.1-0.2,0.5-0.2,0.8L60,57.8l-1.6,0.1l0.1-4.7l1.6-0.1v0.4c0.3-0.4,0.8-0.6,1.3-0.6c0.7-0.1,1.2,0.1,1.4,0.5
		c0.4-0.5,0.9-0.7,1.8-0.7c0.7-0.1,1.2,0.1,1.6,0.3c0.3,0.3,0.5,0.7,0.5,1.5l-0.1,2.9L65,57.6z"/>
	<path class="st5" d="M69.9,57.4c-0.8,0.1-1.5-0.1-2-0.5c-0.5-0.4-0.7-1-0.7-1.8s0.3-1.4,0.7-1.9c0.5-0.5,1.2-0.7,2-0.8
		c0.7-0.1,1.4,0.1,1.8,0.5c0.5,0.3,0.7,0.9,0.7,1.6c0,0.3,0,0.5-0.1,0.7l-3.6,0.3c0,0.3,0.1,0.5,0.3,0.7c0.2,0.1,0.5,0.2,0.7,0.2
		c0.5,0,0.9-0.2,1.3-0.6l0.9,0.7C71.5,56.9,70.8,57.3,69.9,57.4z M68.9,54.4l2.1-0.1c-0.1-0.5-0.4-0.7-1-0.7c-0.3,0-0.5,0.1-0.7,0.3
		C69,53.9,68.9,54.1,68.9,54.4z"/>
	<path class="st1" d="M66.1,62.3c0.6,0,1.2-0.5,1.2-1.2c0-0.6-0.5-1.2-1.2-1.2c-0.6,0-1.2,0.5-1.2,1.2
		C64.9,61.8,65.4,62.3,66.1,62.3z"/>
	<path class="st2" d="M54.1,57.8c1,0,1.8-0.8,1.8-1.8c0-1-0.8-1.8-1.8-1.8c-1,0-1.8,0.8-1.8,1.8C52.4,57,53.2,57.8,54.1,57.8z"/>
</g>
</svg>
