<svg width="400" height="300" viewBox="0 0 400 300" fill="none" xmlns="http://www.w3.org/2000/svg">
<path d="M137.229 126.298C137.544 124.567 137.858 123.151 138.173 121.892L130.935 121.735C122.754 121.578 117.719 122.994 116.775 127.714C115.988 130.861 116.932 133.536 121.18 138.885L132.037 151.787L132.509 149.427C132.194 149.27 132.037 149.112 131.722 149.112C130.463 148.326 129.834 146.909 129.834 144.707C129.834 142.661 130.621 141.245 132.037 140.144C132.981 139.357 134.082 139.042 135.184 138.728C135.026 138.728 134.869 138.728 134.712 138.885L137.229 126.298Z" fill="#D51F53"/>
<path d="M194.344 163.43L147.142 175.545C154.222 185.143 157.684 187.975 172.474 178.849L197.806 163.273L194.344 163.43Z" fill="#D51F53"/>
<path d="M245.794 121.263L218.732 122.994L255.549 131.805C258.854 128.186 256.494 120.319 245.794 121.263Z" fill="#D51F53"/>
<path d="M122.124 147.696C120.394 146.438 118.034 146.752 116.618 148.483C115.359 150.214 115.674 152.574 117.404 153.99C119.135 155.249 121.495 154.934 122.911 153.203C124.327 151.315 123.855 148.955 122.124 147.696Z" fill="#FDB913"/>
<path d="M131.565 117.015C132.981 117.015 134.24 115.756 134.24 114.34C134.24 112.924 132.981 111.665 131.565 111.665C130.149 111.665 128.89 112.924 128.89 114.34C128.89 115.756 129.992 117.015 131.565 117.015Z" fill="#8DC63F"/>
<path d="M196.389 114.969C197.805 114.969 198.906 113.868 198.906 112.452C198.906 111.036 197.805 109.935 196.389 109.935C194.973 109.935 193.871 111.036 193.871 112.452C193.871 113.868 194.973 114.969 196.389 114.969Z" fill="#D51F53"/>
<path d="M110.953 142.504C109.852 141.717 108.278 141.875 107.492 142.976C106.705 144.077 106.862 145.651 107.964 146.437C109.065 147.224 110.639 147.067 111.425 145.965C112.369 144.864 112.212 143.291 110.953 142.504Z" fill="#0095DB"/>
<path d="M131.722 151.944C132.666 152.888 133.925 153.518 135.813 153.675C137.229 153.675 138.173 153.361 138.645 152.888C139.117 152.416 139.117 151.944 138.802 151.472C138.488 151 137.544 150.686 135.813 150.528C135.498 150.528 135.183 150.371 134.711 150.371C134.554 150.371 134.397 150.214 134.239 150.214C134.082 150.214 133.925 150.214 133.767 150.056C133.61 150.056 133.295 149.899 133.138 149.899C133.138 149.899 132.981 149.899 132.981 149.742C132.666 149.584 132.509 149.584 132.194 149.427L131.722 151.944Z" fill="#F15A22"/>
<path d="M143.68 152.417C143.68 154.305 142.893 155.721 141.477 156.665C141.163 156.979 140.848 157.137 140.376 157.294C140.218 157.294 140.061 157.451 139.904 157.451C139.589 157.609 139.432 157.609 139.117 157.766C138.96 157.766 138.802 157.923 138.645 157.923C138.488 157.923 138.173 158.081 138.016 158.081C137.858 158.081 137.701 158.081 137.386 158.081C137.072 158.081 136.757 158.081 136.285 158.081C134.397 158.081 132.981 157.766 131.722 157.294C131.25 157.137 130.935 156.979 130.621 156.665L130.149 159.025C127.474 171.14 136.914 177.906 147.141 175.546C146.984 174.759 144.624 159.812 143.68 153.518C143.68 153.203 143.68 152.731 143.68 152.417Z" fill="#F15A22"/>
<path d="M138.016 121.892L194.186 123.466L194.344 123.308L194.816 122.836C195.76 121.892 196.704 121.263 197.491 120.791L155.638 109.148C146.827 106.788 141.163 106.788 138.016 121.892C137.701 123.151 137.387 124.567 137.072 126.298L134.397 138.728C134.554 138.728 134.712 138.728 134.869 138.57C135.026 138.57 135.184 138.57 135.341 138.413C135.656 138.413 135.971 138.256 136.443 138.256C138.173 138.256 139.589 138.413 140.691 138.885C140.848 139.043 141.005 139.043 141.163 139.2C139.747 131.962 138.173 122.994 138.016 121.892Z" fill="#F15A22"/>
<path d="M141.792 142.976L140.376 144.549C139.432 143.448 138.488 142.976 137.072 142.976C135.813 142.976 134.869 143.291 134.397 143.763C133.925 144.235 133.925 144.707 134.397 145.022C134.869 145.336 135.656 145.808 137.072 145.966C138.96 146.123 140.533 146.752 141.792 147.539C142.421 148.011 142.893 148.64 143.051 149.27C142.893 148.955 142.736 148.798 142.579 148.483C142.579 147.224 142.264 145.336 141.792 142.976Z" fill="#F15A22"/>
<path d="M161.617 165.319C153.435 166.105 152.648 162.329 155.166 159.497C155.166 159.497 155.166 159.34 155.323 159.34L158.155 156.665V147.224C158.155 145.966 157.84 145.022 157.211 144.235C156.582 143.606 155.638 143.134 154.379 143.134C153.278 143.134 152.333 143.763 151.547 144.864V157.924H146.197V131.648L151.547 128.501V140.459C152.806 139.357 154.379 138.728 156.11 138.728C158.627 138.728 160.358 139.515 161.617 140.931C162.875 142.347 163.505 144.078 163.505 145.966V151.787L165.55 149.899C165.55 149.427 165.393 148.798 165.393 148.168C165.393 145.336 166.337 142.976 168.068 141.245C169.798 139.515 172.158 138.571 174.991 138.571C175.935 138.571 176.721 138.728 177.508 138.885L194.186 123.466L137.858 121.893C138.015 122.994 139.589 131.805 141.005 139.515C141.32 139.672 141.792 139.987 142.106 140.144C142.106 140.144 142.106 140.144 142.264 140.301C142.578 140.616 142.893 140.931 143.365 141.245L141.792 143.134C142.264 145.336 142.578 147.382 142.736 148.798C142.893 149.112 143.05 149.27 143.208 149.585C143.208 149.742 143.208 149.742 143.365 149.899C143.522 150.214 143.522 150.371 143.522 150.686C143.522 150.843 143.522 151.001 143.522 151.158C143.522 151.63 143.68 152.102 143.68 152.574C143.68 152.889 143.68 153.361 143.522 153.675C144.466 159.969 146.827 174.916 146.984 175.703L194.186 163.588L161.617 165.319Z" fill="#FDB913"/>
<path d="M285.758 144.707C284.814 143.763 283.713 143.291 282.139 143.291C280.723 143.291 279.465 143.763 278.521 144.707C277.577 145.651 277.104 146.909 277.104 148.325C277.104 149.741 277.577 151 278.521 151.944C279.465 152.888 280.566 153.36 282.139 153.36C283.555 153.36 284.814 152.888 285.758 151.944C286.702 151 287.174 149.741 287.174 148.325C287.017 146.909 286.702 145.651 285.758 144.707Z" fill="#0095DB"/>
<path d="M261.528 143.134C260.112 143.134 258.854 143.606 257.909 144.55C256.965 145.494 256.493 146.752 256.493 148.168C256.493 149.585 256.965 150.843 257.909 151.787C258.854 152.731 259.955 153.203 261.528 153.203C262.944 153.203 264.203 152.731 265.147 151.787C266.091 150.843 266.563 149.585 266.563 148.168C266.563 146.752 266.091 145.494 265.147 144.55C264.203 143.763 262.944 143.134 261.528 143.134Z" fill="#0095DB"/>
<path d="M275.217 155.406C273.329 153.518 272.385 151.158 272.385 148.483C272.385 145.651 273.329 143.291 275.217 141.403C277.105 139.514 279.465 138.57 282.297 138.57C283.084 138.57 284.028 138.728 284.657 138.885L255.707 131.962L218.732 122.994L211.809 121.42C205.515 119.847 202.054 118.274 197.648 120.791C196.861 121.263 195.917 122.05 194.973 122.836L194.501 123.308L194.344 123.466L243.906 134.322C256.336 136.525 254.448 148.168 244.221 151.472V157.923H238.871V152.888L236.039 153.518V157.923H230.69V156.35C229.116 157.451 227.7 157.923 226.441 157.923C223.924 157.923 221.878 157.451 220.62 156.35C220.934 156.665 221.249 156.822 221.564 156.979L194.344 163.43L197.805 163.273L279.465 158.71C281.196 158.71 282.612 158.395 283.871 158.081C283.399 158.081 282.769 158.238 282.297 158.238C279.308 158.081 277.105 157.137 275.217 155.406ZM268.609 155.406C266.721 157.294 264.36 158.238 261.528 158.238C258.696 158.238 256.336 157.294 254.448 155.406C252.56 153.518 251.616 151.158 251.616 148.483C251.616 145.651 252.56 143.291 254.448 141.403C256.336 139.514 258.696 138.57 261.528 138.57C264.36 138.57 266.721 139.514 268.609 141.403C270.497 143.291 271.441 145.651 271.441 148.483C271.441 151.158 270.497 153.518 268.609 155.406Z" fill="#0095DB"/>
<path d="M289.22 156.665C288.119 156.665 287.175 157.609 287.175 158.71C287.175 158.867 287.175 159.182 287.332 159.339C287.647 160.126 288.434 160.755 289.22 160.755C290.164 160.755 291.108 160.126 291.266 159.182C291.266 159.025 291.266 158.867 291.266 158.71C291.266 157.451 290.322 156.665 289.22 156.665Z" fill="#0095DB"/>
<path d="M177.823 144.078C177.036 143.448 176.092 143.134 175.148 143.134C174.047 143.134 173.26 143.448 172.473 144.078C171.687 144.707 171.372 145.494 171.372 146.438H179.082C178.924 145.336 178.61 144.55 177.823 144.078Z" fill="#8DC63F"/>
<path d="M226.913 148.483C224.553 148.798 223.452 149.584 223.294 151.158C223.452 152.731 224.71 153.518 226.913 153.675C228.801 153.675 230.06 153.203 230.532 152.102V149.899C229.903 148.955 228.801 148.483 226.913 148.483Z" fill="#8DC63F"/>
<path d="M179.868 139.829C180.183 139.987 180.498 140.301 180.813 140.459L180.97 140.616C181.285 140.931 181.599 141.088 181.757 141.403C183.487 143.133 184.274 145.493 184.274 148.326V150.214H171.057C171.215 151.315 171.687 152.102 172.473 152.574C173.26 153.203 174.204 153.518 175.148 153.518C176.879 153.518 178.61 153.046 180.026 151.944L183.173 155.091C181.757 156.979 179.082 157.923 175.306 157.923C172.473 157.923 170.113 156.979 168.383 155.249C168.068 154.934 167.753 154.619 167.439 154.147L167.281 153.99C166.967 153.675 166.809 153.203 166.652 152.889C166.18 151.944 166.022 151 165.865 150.056L163.82 151.944V158.081H158.47V156.822L155.953 159.182C155.795 159.339 155.638 159.497 155.481 159.654C152.963 162.486 153.593 166.262 161.932 165.476L194.658 163.588L221.878 157.137C221.564 156.979 221.092 156.665 220.934 156.507C219.676 155.406 219.046 153.833 219.046 151.944C219.046 151.63 219.046 151.315 219.046 151.158C219.046 151 219.046 150.686 219.204 150.528C219.204 150.371 219.361 150.214 219.361 149.899C219.361 149.742 219.518 149.584 219.518 149.27C219.676 149.112 219.676 148.798 219.833 148.64C219.833 148.64 219.833 148.483 219.99 148.483C219.99 148.326 220.148 148.326 220.148 148.168C220.305 147.854 220.62 147.539 220.934 147.067C222.193 145.651 224.081 145.021 226.756 145.021C227.071 145.021 227.385 145.021 227.7 145.021C227.857 145.021 227.857 145.021 228.015 145.021C228.172 145.021 228.487 145.021 228.644 145.179C228.801 145.179 228.959 145.336 229.116 145.336C229.273 145.336 229.431 145.493 229.745 145.493C229.903 145.493 230.06 145.651 230.217 145.651C230.532 145.808 230.847 145.966 231.161 146.123V145.493C231.161 144.707 230.847 144.235 230.375 143.763C230.217 143.605 230.06 143.605 229.903 143.605C229.903 143.605 229.903 143.605 229.745 143.605C229.588 143.605 229.431 143.448 229.273 143.448C229.273 143.448 229.116 143.448 228.959 143.448C228.801 143.448 228.801 143.448 228.644 143.448C228.487 143.448 228.172 143.448 228.015 143.448C225.655 143.448 223.924 143.763 222.665 144.549L219.833 141.088C222.193 139.515 225.025 138.728 228.329 138.728C230.689 138.728 232.42 139.357 233.836 140.616C234.151 140.931 234.466 141.245 234.623 141.717C234.78 141.875 234.938 142.189 234.938 142.504C235.41 143.605 235.724 144.864 235.724 146.438V152.889V153.675L238.556 153.046V152.102V141.403V139.357L243.906 138.728V140.931C244.221 140.616 244.535 140.301 244.85 140.144C245.007 140.144 245.007 139.987 245.165 139.987C245.479 139.829 245.794 139.515 246.109 139.357C246.266 139.357 246.266 139.357 246.424 139.2C247.21 138.885 247.997 138.728 248.941 138.728C249.57 138.728 250.2 138.728 250.672 138.885L250.042 144.235C249.413 143.605 248.469 143.291 247.368 143.291C246.581 143.291 245.794 143.763 245.165 144.549C245.007 144.707 245.007 144.864 244.85 145.021C244.85 145.179 244.693 145.179 244.693 145.336C244.693 145.493 244.535 145.493 244.535 145.651C244.378 145.808 244.378 146.123 244.221 146.28V148.955V151.63C254.448 148.326 256.336 136.682 243.906 134.48L194.344 123.466L177.666 138.885C178.452 139.2 179.082 139.515 179.868 139.829ZM186.949 139.2L192.298 138.571V140.301C193.557 139.2 194.973 138.571 196.861 138.571C199.221 138.571 201.109 139.357 202.368 140.773C203.784 139.357 205.83 138.571 208.662 138.571C211.022 138.571 212.91 139.357 214.169 140.773C215.427 142.189 216.057 143.92 216.057 145.808V152.259V157.609V157.766H215.585H210.707V154.934V147.382C210.707 146.123 210.393 145.179 209.763 144.392C209.134 143.763 208.19 143.291 206.931 143.291C205.83 143.291 204.886 144.077 204.099 145.336C204.099 145.808 203.942 146.123 203.942 146.595V157.923H198.592V147.382C198.592 146.123 198.277 145.179 197.648 144.392C197.019 143.763 196.075 143.291 194.816 143.291C193.557 143.291 192.613 144.235 191.826 145.651V157.923H186.477V139.2H186.949Z" fill="#8DC63F"/>
<path d="M261.528 138.57C258.696 138.57 256.336 139.514 254.448 141.402C252.56 143.291 251.616 145.651 251.616 148.483C251.616 151.315 252.56 153.675 254.448 155.406C256.336 157.294 258.696 158.238 261.528 158.238C264.36 158.238 266.72 157.294 268.608 155.406C270.497 153.518 271.441 151.158 271.441 148.325C271.441 145.493 270.497 143.133 268.608 141.245C266.72 139.514 264.36 138.57 261.528 138.57ZM265.147 151.944C264.203 152.888 263.102 153.36 261.528 153.36C260.112 153.36 258.853 152.888 257.909 151.944C256.965 151 256.493 149.741 256.493 148.325C256.493 146.909 256.965 145.651 257.909 144.707C258.853 143.763 259.955 143.291 261.528 143.291C262.944 143.291 264.203 143.763 265.147 144.707C266.091 145.651 266.563 146.909 266.563 148.325C266.406 149.741 266.091 151 265.147 151.944Z" fill="white"/>
<path d="M141.792 147.696C140.533 146.752 138.96 146.28 137.072 146.123C135.813 145.808 134.869 145.493 134.397 145.179C133.925 144.864 133.925 144.392 134.397 143.92C134.869 143.448 135.656 143.133 137.072 143.133C138.331 143.133 139.432 143.605 140.376 144.707L143.365 141.245C142.421 140.459 141.477 139.672 140.533 139.357C139.589 138.885 138.173 138.728 136.285 138.728C134.712 138.728 133.138 139.2 131.722 140.301C130.306 141.403 129.519 142.819 129.519 144.864C129.519 147.067 130.149 148.483 131.408 149.27C132.666 150.056 134.082 150.528 135.656 150.686C137.387 150.843 138.331 151.158 138.645 151.63C138.96 152.102 138.96 152.574 138.488 153.046C138.016 153.518 137.072 153.832 135.656 153.832C133.768 153.675 132.509 153.046 131.565 152.102L128.89 155.249C129.834 156.193 130.778 156.822 132.037 157.294C133.296 157.766 134.712 158.081 136.6 158.081C138.488 158.081 140.219 157.609 141.635 156.507C143.051 155.563 143.837 154.147 143.837 152.259C143.68 150.214 143.051 148.64 141.792 147.696Z" fill="white"/>
<path d="M156.11 138.728C154.379 138.728 152.806 139.357 151.547 140.459V128.501L146.198 131.648V158.081H151.547V145.021C152.334 143.92 153.278 143.448 154.379 143.291C155.638 143.291 156.582 143.763 157.211 144.392C157.841 145.021 158.156 146.123 158.156 147.382V157.923H163.505V145.966C163.505 144.077 162.876 142.347 161.617 140.931C160.358 139.515 158.47 138.728 156.11 138.728Z" fill="white"/>
<path d="M175.148 138.728C172.316 138.728 169.956 139.672 168.225 141.403C166.494 143.133 165.55 145.493 165.55 148.326C165.55 151.158 166.494 153.518 168.225 155.249C169.956 156.979 172.316 157.923 175.148 157.923C178.924 157.923 181.599 156.979 183.015 155.091L179.868 151.944C178.452 153.046 176.879 153.518 174.991 153.518C173.889 153.518 173.103 153.203 172.316 152.574C171.529 151.944 171.057 151.158 170.9 150.214H184.116V148.326C184.116 145.493 183.33 143.133 181.599 141.403C180.183 139.672 177.98 138.728 175.148 138.728ZM171.214 146.437C171.214 145.336 171.529 144.549 172.316 144.077C173.103 143.448 174.047 143.133 174.991 143.133C176.092 143.133 176.879 143.448 177.665 144.077C178.452 144.707 178.767 145.493 178.767 146.437H171.214Z" fill="white"/>
<path d="M208.819 138.728C205.987 138.728 203.942 139.514 202.526 140.931C201.267 139.514 199.379 138.728 197.019 138.728C195.131 138.728 193.557 139.357 192.456 140.459V138.728L187.106 139.357V158.081H192.456V145.808C193.242 144.235 194.344 143.448 195.445 143.448C196.704 143.448 197.648 143.92 198.277 144.549C198.907 145.179 199.221 146.28 199.221 147.539V158.081H204.571V146.752C204.571 146.28 204.571 145.965 204.728 145.493C205.515 144.235 206.459 143.448 207.56 143.448C208.819 143.448 209.763 143.92 210.393 144.549C211.022 145.179 211.337 146.28 211.337 147.539V158.081H216.686V146.123C216.686 144.235 216.057 142.504 214.798 141.088C213.225 139.514 211.337 138.728 208.819 138.728Z" fill="white"/>
<path d="M244.063 140.773V138.57L238.714 139.2V157.923H244.063V146.123C245.007 144.235 245.951 143.291 247.367 143.291C248.469 143.291 249.413 143.605 250.042 144.235L250.829 138.885C250.199 138.728 249.727 138.728 249.098 138.728C247.21 138.728 245.479 139.357 244.063 140.773Z" fill="white"/>
<path d="M228.329 138.728C225.182 138.728 222.35 139.514 219.833 141.088L221.878 144.392C223.137 143.605 225.025 143.291 227.228 143.291C229.273 143.448 230.217 144.235 230.375 145.651V146.28C228.801 145.493 227.385 145.179 226.126 145.179C223.452 145.179 221.406 145.808 220.305 147.224C219.046 148.64 218.417 150.214 218.417 152.102C218.417 153.99 219.046 155.563 220.305 156.665C221.564 157.766 223.452 158.238 226.126 158.238C227.385 158.238 228.801 157.766 230.375 156.665V158.238H235.724V146.752C235.724 144.235 235.095 142.189 233.679 140.931C232.577 139.357 230.689 138.728 228.329 138.728ZM230.532 152.259C230.06 153.203 228.801 153.832 226.913 153.832C224.553 153.675 223.452 152.888 223.294 151.315C223.452 149.899 224.396 149.112 226.284 148.64C226.598 148.64 227.07 148.483 227.542 148.64C229.116 148.798 230.217 149.27 230.532 150.056V152.259Z" fill="white"/>
<path d="M289.22 141.402C287.332 139.514 284.972 138.57 282.14 138.57C279.308 138.57 276.948 139.514 275.06 141.402C273.172 143.291 272.228 145.651 272.228 148.483C272.228 151.315 273.172 153.675 275.06 155.406C276.948 157.294 279.308 158.238 282.14 158.238C284.972 158.238 287.332 157.294 289.22 155.406C291.108 153.518 292.052 151.158 292.052 148.325C292.052 145.493 291.108 143.133 289.22 141.402ZM285.759 151.944C284.815 152.888 283.713 153.36 282.14 153.36C280.724 153.36 279.465 152.888 278.521 151.944C277.577 151 277.105 149.741 277.105 148.325C277.105 146.909 277.577 145.651 278.521 144.707C279.465 143.763 280.567 143.291 282.14 143.291C283.556 143.291 284.815 143.763 285.759 144.707C286.703 145.651 287.175 146.909 287.175 148.325C287.018 149.741 286.703 151 285.759 151.944Z" fill="white"/>
<path d="M214.326 165.318L266.72 162.172C271.912 161.7 272.384 166.105 270.182 167.521L234.465 189.392C230.06 192.381 226.441 193.01 224.081 190.178C223.609 189.706 209.763 174.287 209.763 174.287C207.717 171.927 207.245 170.511 207.56 168.937C208.032 166.577 210.392 165.633 214.326 165.318Z" fill="#F15A22"/>
<path d="M234.308 179.165L234.465 173.5C234.465 172.556 234.308 171.927 234.151 171.455C233.836 171.14 233.364 170.983 232.735 170.983C231.948 170.983 231.318 171.298 231.161 171.612C230.846 171.927 230.689 172.714 230.689 173.5L230.532 179.322L226.598 179.637L226.756 173.973C226.756 173.028 226.598 172.399 226.441 171.927C226.126 171.612 225.654 171.455 225.025 171.455C224.238 171.455 223.609 171.77 223.451 172.084C223.137 172.399 222.979 173.186 222.979 173.973L222.822 179.794L219.203 179.951L219.361 168.938L222.979 168.78V169.724C223.766 168.78 224.867 168.308 225.969 168.308C227.542 168.151 228.644 168.623 229.116 169.567C230.06 168.466 231.318 167.836 233.207 167.836C234.78 167.679 236.039 167.994 236.825 168.623C237.612 169.252 238.084 170.354 238.084 172.084L237.927 178.85L234.308 179.165Z" fill="white"/>
<path d="M245.794 178.693C243.906 178.85 242.332 178.378 241.231 177.434C240.129 176.49 239.657 175.074 239.657 173.343C239.657 171.612 240.287 170.196 241.388 168.938C242.49 167.836 244.063 167.207 245.951 167.049C247.682 166.892 249.098 167.364 250.199 168.151C251.301 168.938 251.773 170.196 251.773 171.927C251.773 172.556 251.773 173.186 251.615 173.5L243.276 174.13C243.276 174.759 243.591 175.388 244.063 175.703C244.535 176.018 245.164 176.175 245.794 176.175C247.052 176.175 247.997 175.703 248.783 174.759L250.829 176.49C249.57 177.749 247.839 178.535 245.794 178.693ZM243.434 171.77L248.311 171.455C248.154 170.196 247.367 169.724 245.951 169.724C245.322 169.724 244.692 170.039 244.378 170.354C243.748 170.668 243.434 171.14 243.434 171.77Z" fill="white"/>
<path d="M236.826 190.178C238.303 190.178 239.5 188.981 239.5 187.504C239.5 186.026 238.303 184.829 236.826 184.829C235.348 184.829 234.151 186.026 234.151 187.504C234.151 188.981 235.348 190.178 236.826 190.178Z" fill="#FDB913"/>
<path d="M209.134 179.637C211.393 179.637 213.224 177.805 213.224 175.546C213.224 173.286 211.393 171.455 209.134 171.455C206.874 171.455 205.043 173.286 205.043 175.546C205.043 177.805 206.874 179.637 209.134 179.637Z" fill="#8DC63F"/>
</svg>
