<?xml version="1.0" encoding="utf-8"?>
<!-- Generator: Adobe Illustrator 26.3.1, SVG Export Plug-In . SVG Version: 6.00 Build 0)  -->
<svg version="1.1" id="Layer_1" xmlns="http://www.w3.org/2000/svg" xmlns:xlink="http://www.w3.org/1999/xlink" x="0px" y="0px"
	 viewBox="0 0 100 90" style="enable-background:new 0 0 100 90;" xml:space="preserve">
<style type="text/css">
	.st0{fill-rule:evenodd;clip-rule:evenodd;fill:#FFFFFF;}
</style>
<g>
	<path d="M89.9,37.4H10.1v15.1h79.8V37.4z"/>
	<path class="st0" d="M23.8,45.8h-2.7V47c0,0.4,0,0.6,0.1,0.7c0,0.1,0.1,0.2,0.1,0.3c0.1,0.1,0.2,0.1,0.5,0.1h0.2v0.2h-2.3v-0.2h0.2
		c0.2,0,0.3,0,0.4-0.1c0.1-0.1,0.2-0.1,0.2-0.2c0.1-0.1,0.1-0.4,0.1-0.8v-2.4c0-0.4,0-0.6-0.1-0.7c0-0.1-0.1-0.2-0.1-0.2
		c-0.1-0.1-0.3-0.1-0.5-0.1h-0.1v-0.2h2.3v0.2h-0.1c-0.2,0-0.4,0-0.5,0.1c-0.1,0-0.2,0.1-0.2,0.2c-0.1,0.1-0.1,0.3-0.1,0.7v1h2.7v-1
		c0-0.4-0.1-0.6-0.1-0.7c0-0.1-0.1-0.2-0.2-0.2c-0.1-0.1-0.2-0.1-0.5-0.1h-0.1v-0.2h2.3v0.2h-0.1c-0.2,0-0.4,0-0.5,0.1
		c-0.1,0-0.1,0.1-0.1,0.2c-0.1,0.1-0.1,0.3-0.1,0.7V47c0,0.4,0,0.6,0.1,0.7c0,0.1,0.1,0.2,0.1,0.3c0.1,0.1,0.2,0.1,0.5,0.1h0.1v0.2
		h-2.3v-0.2h0.2c0.2,0,0.3,0,0.4-0.1c0.1-0.1,0.2-0.1,0.2-0.2c0-0.1,0.1-0.4,0.1-0.8L23.8,45.8L23.8,45.8z"/>
	<path class="st0" d="M29.3,48.2L29.3,48.2c0.6,0,1.1-0.2,1.4-0.6c0.3-0.4,0.5-1,0.5-1.8c0-0.7-0.2-1.4-0.5-1.8
		c-0.3-0.4-0.8-0.6-1.4-0.6v-0.2c0.8,0,1.5,0.2,2,0.7c0.5,0.5,0.8,1.1,0.8,1.9c0,0.7-0.3,1.4-0.8,1.9c-0.5,0.5-1.2,0.7-2,0.7
		L29.3,48.2L29.3,48.2z M27.4,45.8c0,0.8,0.1,1.4,0.5,1.8c0.3,0.4,0.8,0.6,1.4,0.6v0.2c-0.8,0-1.5-0.2-2-0.7
		c-0.5-0.5-0.8-1.1-0.8-1.9c0-0.7,0.3-1.4,0.8-1.8c0.5-0.5,1.2-0.7,2-0.7v0.2c-0.6,0-1.1,0.2-1.4,0.6C27.5,44.5,27.4,45,27.4,45.8z"
		/>
	<path class="st0" d="M35.7,45.8c0.1,0,0.1-0.1,0.2-0.1c0.2-0.1,0.3-0.2,0.5-0.3c0.1-0.2,0.2-0.5,0.2-0.7c0-0.4-0.1-0.7-0.3-0.9
		c-0.1-0.1-0.3-0.2-0.5-0.2v-0.2c0.2,0,0.5,0.1,0.6,0.1c0.3,0.1,0.5,0.2,0.7,0.4c0.2,0.2,0.3,0.5,0.3,0.8c0,0.3-0.1,0.5-0.2,0.7
		c-0.2,0.2-0.3,0.3-0.6,0.5c-0.2,0.1-0.5,0.1-0.9,0.1V45.8z M34.8,45.8h0.3h0.5v0.2C35.6,46,35.5,46,35.4,46h-0.6v1
		c0,0.4,0,0.6,0.1,0.7c0,0.1,0.1,0.2,0.1,0.3c0.1,0.1,0.2,0.1,0.5,0.1h0.2v0.2h-2.3v-0.2h0.2c0.2,0,0.3,0,0.4-0.1
		c0.1-0.1,0.2-0.1,0.2-0.2c0-0.1,0.1-0.4,0.1-0.8v-2.4c0-0.4-0.1-0.6-0.1-0.7c0-0.1-0.1-0.2-0.2-0.2c-0.1-0.1-0.2-0.1-0.5-0.1h-0.1
		v-0.2l0.6-0.1h1.2h0.6v0.2c-0.2-0.1-0.3-0.1-0.5-0.1h-0.4L34.8,45.8L34.8,45.8z"/>
	<path class="st0" d="M40.8,45.8c0.1,0,0.1-0.1,0.2-0.1c0.2-0.1,0.3-0.2,0.4-0.3c0.1-0.2,0.2-0.5,0.2-0.7c0-0.4-0.1-0.7-0.3-0.9
		c-0.1-0.1-0.3-0.2-0.5-0.2v-0.2c0.2,0,0.5,0.1,0.6,0.1c0.3,0.1,0.5,0.2,0.7,0.4c0.2,0.2,0.3,0.5,0.3,0.8c0,0.3-0.1,0.5-0.2,0.7
		c-0.1,0.2-0.3,0.3-0.5,0.5c-0.2,0.1-0.5,0.1-0.9,0.1L40.8,45.8L40.8,45.8z M39.9,45.8h0.3h0.5v0.2C40.7,46,40.6,46,40.5,46h-0.6v1
		c0,0.4,0,0.6,0.1,0.7c0,0.1,0.1,0.2,0.1,0.3c0.1,0.1,0.2,0.1,0.5,0.1h0.2v0.2h-2.3v-0.2h0.2c0.2,0,0.3,0,0.4-0.1
		c0.1-0.1,0.2-0.1,0.2-0.2c0.1-0.1,0.1-0.4,0.1-0.8v-2.4c0-0.4,0-0.6-0.1-0.7c0-0.1-0.1-0.2-0.1-0.2c-0.1-0.1-0.3-0.1-0.5-0.1h-0.1
		v-0.2l0.6-0.1h1.2h0.5v0.2c-0.2-0.1-0.3-0.1-0.5-0.1h-0.4L39.9,45.8L39.9,45.8z"/>
	<path class="st0" d="M47.6,46.7h0.2l-0.1,1.5h-4.2v-0.2h0.1c0.3,0,0.4,0,0.5-0.1c0.1-0.1,0.1-0.2,0.1-0.3V47v-2.4v-0.7
		c0-0.1-0.1-0.2-0.2-0.2c-0.1-0.1-0.2-0.1-0.5-0.1v-0.2h3.6l0.1,1.2h-0.2c-0.1-0.3-0.2-0.6-0.3-0.7c-0.1-0.1-0.2-0.2-0.4-0.2
		c-0.2-0.1-0.4-0.1-0.8-0.1h-0.7v2h0.5c0.2,0,0.4,0,0.5-0.1c0.1-0.1,0.2-0.1,0.2-0.2c0.1-0.1,0.1-0.3,0.1-0.5h0.2v1.7h-0.2
		c0-0.3,0-0.5-0.1-0.6c-0.1-0.1-0.1-0.2-0.2-0.2c-0.1-0.1-0.2-0.1-0.4-0.1h-0.6v1.2c0,0.6,0.1,0.9,0.1,1c0.1,0.1,0.3,0.1,0.6,0.1
		h0.3c0.3,0,0.5,0,0.6-0.1c0.2-0.1,0.3-0.2,0.5-0.4C47.4,47.4,47.6,47.1,47.6,46.7z"/>
	<path class="st0" d="M51.5,45.7c0.1-0.1,0.2-0.1,0.2-0.1c0.2-0.1,0.3-0.1,0.3-0.2c0.1-0.1,0.2-0.2,0.2-0.3c0.1-0.2,0.1-0.3,0.1-0.5
		c0-0.3-0.1-0.6-0.2-0.9c-0.1-0.1-0.3-0.2-0.6-0.3v-0.2c0.3,0,0.5,0.1,0.7,0.1c0.3,0.1,0.5,0.2,0.7,0.4c0.2,0.2,0.3,0.5,0.3,0.7
		c0,0.3-0.1,0.6-0.3,0.8c-0.2,0.2-0.6,0.4-1,0.5c0.2,0.1,0.5,0.5,1,1.1c0.4,0.5,0.7,0.8,0.9,1c0.2,0.2,0.5,0.2,0.8,0.2v0.2h-1.3
		c-0.3-0.1-0.6-0.6-1.1-1.3c-0.2-0.2-0.3-0.5-0.5-0.6L51.5,45.7L51.5,45.7z M50.6,45.8c0.2,0,0.4-0.1,0.6-0.1h0.3v0.7v-0.1
		c-0.2-0.2-0.3-0.3-0.3-0.3c-0.1-0.1-0.2-0.1-0.3-0.1h-0.2V47c0,0.4,0,0.6,0.1,0.7c0,0.1,0.1,0.2,0.1,0.3c0.1,0.1,0.2,0.1,0.5,0.1
		h0.2v0.2h-2.4v-0.2h0.2c0.2,0,0.3,0,0.4-0.1c0.1-0.1,0.2-0.1,0.2-0.2c0.1-0.1,0.1-0.4,0.1-0.8v-2.4c0-0.4,0-0.6-0.1-0.7
		c0-0.1-0.1-0.2-0.1-0.2c-0.1-0.1-0.3-0.1-0.5-0.1h-0.1v-0.2l0.7-0.1c0.5,0,0.9-0.1,1.2-0.1c0.2,0,0.3,0.1,0.5,0.1v0.2H51h-0.3V45.8
		z"/>
	<path class="st0" d="M55.4,48.3v-1.6h0.2c0.2,1,0.7,1.5,1.5,1.5c0.3,0,0.6-0.1,0.8-0.3c0.2-0.2,0.3-0.5,0.3-0.7
		c0-0.2-0.1-0.5-0.3-0.6c-0.2-0.2-0.5-0.3-0.9-0.5c-0.4-0.2-0.7-0.3-0.9-0.5c-0.2-0.1-0.4-0.3-0.5-0.5c-0.1-0.2-0.2-0.4-0.2-0.6
		c0-0.4,0.1-0.7,0.4-0.9c0.2-0.2,0.5-0.3,0.9-0.3c0.2,0,0.4,0.1,0.6,0.1c0.2,0.1,0.4,0.2,0.6,0.4c0.1-0.1,0.2-0.3,0.2-0.4h0.1v1.3
		h-0.1c-0.1-0.3-0.3-0.6-0.5-0.9c-0.2-0.2-0.5-0.3-0.8-0.3c-0.3,0-0.5,0.1-0.7,0.2c-0.1,0.2-0.2,0.3-0.2,0.5c0,0.2,0.1,0.5,0.2,0.6
		c0.2,0.1,0.5,0.3,0.9,0.5c0.5,0.2,0.7,0.3,1,0.5c0.2,0.1,0.3,0.3,0.5,0.5c0.1,0.2,0.2,0.4,0.2,0.7c0,0.4-0.1,0.7-0.4,1
		c-0.3,0.3-0.7,0.4-1.2,0.4c-0.6,0-1-0.2-1.4-0.6c-0.1,0.1-0.2,0.3-0.2,0.5L55.4,48.3L55.4,48.3z"/>
	<path class="st0" d="M69.4,44.5h-0.2v-1.1h4.9v1.1H74c-0.1-0.3-0.1-0.5-0.2-0.7c-0.1-0.1-0.2-0.2-0.3-0.3h-0.6h-0.8V47v0.7
		c0,0.1,0.1,0.2,0.2,0.3c0.1,0.1,0.2,0.1,0.5,0.1h0.2v0.2h-2.5v-0.2h0.2c0.2,0,0.3,0,0.5-0.1c0.1-0.1,0.1-0.1,0.2-0.2V47v-3.5h-0.7
		h-0.6c-0.1,0.1-0.2,0.2-0.3,0.3C69.5,44,69.5,44.2,69.4,44.5z"/>
	<path class="st0" d="M77.9,48.2L77.9,48.2c0.6,0,1.1-0.2,1.4-0.6c0.3-0.4,0.5-1,0.5-1.8c0-0.7-0.2-1.4-0.5-1.8
		c-0.3-0.4-0.8-0.6-1.4-0.6v-0.2c0.8,0,1.5,0.2,2,0.7c0.5,0.5,0.8,1.1,0.8,1.9c0,0.7-0.3,1.4-0.8,1.9c-0.5,0.5-1.2,0.7-2,0.7V48.2z
		 M76.1,45.8c0,0.8,0.2,1.4,0.5,1.8s0.8,0.6,1.4,0.6v0.2c-0.8,0-1.5-0.2-2-0.7c-0.5-0.5-0.8-1.1-0.8-1.9c0-0.7,0.3-1.4,0.8-1.8
		c0.5-0.5,1.2-0.7,1.9-0.7v0.2c-0.6,0-1.1,0.2-1.4,0.6C76.2,44.5,76.1,45,76.1,45.8z"/>
	<path class="st0" d="M84.5,45.8c0.1,0,0.2-0.1,0.2-0.1c0.2-0.1,0.3-0.2,0.5-0.3c0.1-0.2,0.2-0.5,0.2-0.7c0-0.4-0.1-0.7-0.3-0.9
		c-0.2-0.1-0.3-0.2-0.6-0.2v-0.2c0.3,0,0.5,0.1,0.7,0.1c0.3,0.1,0.5,0.2,0.7,0.4c0.2,0.2,0.2,0.5,0.2,0.8c0,0.3-0.1,0.5-0.2,0.7
		c-0.1,0.2-0.3,0.3-0.5,0.5c-0.2,0.1-0.5,0.1-0.9,0.1L84.5,45.8L84.5,45.8z M83.6,45.8H84h0.5v0.2C84.4,46,84.3,46,84.2,46h-0.5v1
		v0.7c0.1,0.1,0.1,0.2,0.2,0.3c0.1,0.1,0.2,0.1,0.5,0.1h0.2v0.2h-2.3v-0.2h0.1c0.2,0,0.3,0,0.5-0.1c0.1-0.1,0.1-0.1,0.2-0.2V47v-2.4
		v-0.7c-0.1-0.1-0.1-0.2-0.2-0.2c-0.1-0.1-0.2-0.1-0.5-0.1h-0.1v-0.2l0.6-0.1h1.2h0.5v0.2c-0.1-0.1-0.3-0.1-0.5-0.1h-0.3L83.6,45.8
		L83.6,45.8z"/>
	<path class="st0" d="M13.9,48.2v-2.1h0.2c0.2,1.4,0.9,2,2,2c0.5,0,0.9-0.1,1.1-0.3c0.3-0.3,0.4-0.6,0.4-0.9s-0.1-0.7-0.3-1
		c-0.2-0.2-0.7-0.5-1.3-0.7c-0.5-0.2-0.9-0.4-1.2-0.6c-0.3-0.2-0.6-0.3-0.7-0.6c-0.2-0.3-0.2-0.6-0.2-0.9c0-0.5,0.2-0.9,0.5-1.1
		c0.3-0.3,0.8-0.5,1.2-0.5c0.3,0,0.6,0,0.8,0.1c0.3,0.1,0.5,0.3,0.8,0.6c0.1-0.2,0.2-0.4,0.2-0.6h0.2v1.7h-0.2
		c-0.1-0.5-0.3-0.9-0.6-1.2c-0.3-0.3-0.7-0.5-1.2-0.5c-0.3,0-0.7,0.1-0.9,0.3c-0.2,0.2-0.3,0.5-0.3,0.7c0,0.3,0.1,0.6,0.3,0.9
		c0.2,0.2,0.6,0.5,1.3,0.7c0.6,0.3,1,0.5,1.3,0.6c0.2,0.2,0.5,0.3,0.6,0.6c0.2,0.3,0.2,0.5,0.2,0.9c0,0.6-0.2,1-0.6,1.4
		c-0.4,0.3-0.9,0.6-1.6,0.6s-1.3-0.3-1.8-0.9c-0.1,0.2-0.2,0.3-0.2,0.6H13.9z"/>
	<path class="st0" d="M63.7,48.2v-2.1h0.2c0.2,1.4,0.9,2,2,2c0.5,0,0.9-0.1,1.1-0.3c0.3-0.3,0.3-0.6,0.3-0.9s0-0.7-0.2-1
		c-0.2-0.2-0.7-0.5-1.3-0.7c-0.5-0.2-0.9-0.4-1.2-0.6c-0.3-0.2-0.6-0.3-0.7-0.6c-0.2-0.3-0.2-0.6-0.2-0.9c0-0.5,0.2-0.9,0.5-1.1
		c0.3-0.3,0.7-0.5,1.3-0.5c0.2,0,0.5,0,0.8,0.1c0.3,0.1,0.5,0.3,0.8,0.6c0.1-0.2,0.2-0.4,0.2-0.6h0.1v1.7h-0.1
		c-0.1-0.5-0.3-0.9-0.6-1.2c-0.3-0.3-0.7-0.5-1.1-0.5c-0.4,0-0.7,0.1-0.9,0.3c-0.2,0.2-0.3,0.5-0.3,0.7c0,0.3,0.1,0.6,0.3,0.9
		c0.2,0.2,0.6,0.5,1.3,0.7c0.6,0.3,1,0.5,1.3,0.6c0.2,0.2,0.4,0.3,0.6,0.6c0.2,0.3,0.2,0.5,0.2,0.9c0,0.6-0.2,1-0.6,1.4
		c-0.3,0.3-0.8,0.6-1.5,0.6c-0.8,0-1.4-0.3-1.9-0.9c-0.1,0.2-0.2,0.3-0.2,0.6H63.7z"/>
</g>
</svg>
