<svg width="400" height="300" viewBox="0 0 400 300" fill="none" xmlns="http://www.w3.org/2000/svg">
<path d="M340 124H61V176.778H340V124Z" fill="black"/>
<path fill-rule="evenodd" clip-rule="evenodd" d="M108.802 153.248H99.5021V157.433C99.5021 158.828 99.5021 159.619 99.7346 160.037C99.7346 160.409 99.9206 160.828 100.153 161.06C100.525 161.246 100.944 161.246 101.781 161.246H102.385V161.851H94.2476V161.246H94.8521C95.4566 161.246 96.0611 161.246 96.2471 161.06C96.6656 160.828 96.8516 160.642 96.8516 160.27C97.0376 159.851 97.0376 158.875 97.0376 157.48V148.924C97.0376 147.529 97.0376 146.738 96.8516 146.32C96.8516 145.948 96.6656 145.529 96.4331 145.529C96.0146 145.343 95.4101 145.343 94.6196 145.343H94.201V144.739H102.292V145.343H101.874C101.037 145.343 100.432 145.343 100.246 145.529C99.8275 145.529 99.6416 145.948 99.6416 146.32C99.4091 146.506 99.4091 147.529 99.4091 148.924V152.318H108.709V148.924C108.709 147.529 108.523 146.738 108.523 146.32C108.523 145.948 108.337 145.529 107.919 145.529C107.733 145.343 107.128 145.343 106.291 145.343H105.873V144.739H113.778V145.343H113.545C112.755 145.343 112.15 145.343 111.732 145.529C111.546 145.529 111.313 145.948 111.313 146.32C111.127 146.506 111.127 147.529 111.127 148.924V157.48C111.127 158.875 111.127 159.665 111.313 160.084C111.313 160.456 111.499 160.874 111.732 161.107C112.15 161.293 112.522 161.293 113.359 161.293H113.778V161.897H105.873V161.246H106.477C107.082 161.246 107.686 161.246 107.872 161.06C108.291 160.828 108.477 160.642 108.477 160.27C108.477 159.851 108.663 158.875 108.663 157.48V153.248H108.802Z" fill="white"/>
<path fill-rule="evenodd" clip-rule="evenodd" d="M128.053 161.618H128.239C130.239 161.618 131.866 160.828 132.889 159.433C134.098 158.038 134.703 156.038 134.703 153.248C134.703 150.644 134.098 148.459 132.889 147.064C131.866 145.669 130.239 144.878 128.007 144.878V144.274C130.843 144.274 133.075 145.064 134.889 146.692C136.702 148.273 137.679 150.505 137.679 153.248C137.679 155.852 136.656 158.038 134.889 159.851C133.261 161.432 130.843 162.223 128.007 162.223V161.618H128.053ZM121.59 153.248C121.59 156.038 122.008 158.038 123.217 159.433C124.24 160.828 126.054 161.618 128.1 161.618V162.223C125.263 162.223 123.031 161.432 121.218 159.851C119.404 158.038 118.567 155.852 118.567 153.062C118.567 150.458 119.59 148.273 121.218 146.692C123.031 145.111 125.449 144.274 128.1 144.274V144.878C126.054 144.878 124.426 145.669 123.217 147.064C122.008 148.505 121.59 150.505 121.59 153.248Z" fill="white"/>
<path fill-rule="evenodd" clip-rule="evenodd" d="M150.559 153.062C150.745 153.062 150.977 152.83 151.163 152.83C151.768 152.644 152.372 152.225 152.791 151.621C153.209 150.83 153.395 150.04 153.395 149.203C153.395 147.808 152.977 146.599 152.372 146.041C151.954 145.622 151.349 145.25 150.559 145.25V144.506C151.396 144.506 152.186 144.692 152.791 144.925C153.814 145.111 154.604 145.715 155.209 146.32C155.813 147.11 156.232 148.133 156.232 149.11C156.232 150.133 156.046 150.923 155.627 151.714C155.023 152.318 154.418 152.923 153.581 153.295C152.977 153.481 151.954 153.713 150.559 153.713V153.062ZM147.49 153.062H148.699H150.559V153.667C150.14 153.853 149.722 153.853 149.536 153.853H147.49V157.433C147.49 158.828 147.49 159.619 147.722 160.037C147.722 160.456 147.908 160.828 148.141 161.06C148.559 161.246 148.931 161.246 149.768 161.246H150.373V161.851H142.282V161.246H142.886C143.491 161.246 144.095 161.246 144.281 161.06C144.7 160.828 144.886 160.642 144.886 160.27C144.886 159.898 145.072 158.875 145.072 157.48V148.924C145.072 147.529 144.886 146.738 144.886 146.32C144.886 145.948 144.653 145.529 144.281 145.529C144.095 145.343 143.491 145.343 142.654 145.343H142.235V144.739L144.467 144.553H148.513H150.559V145.343C149.954 145.157 149.536 145.157 148.931 145.157H147.536V153.062H147.49Z" fill="white"/>
<path fill-rule="evenodd" clip-rule="evenodd" d="M168.368 153.062C168.601 153.062 168.787 152.83 169.205 152.83C169.81 152.644 170.228 152.225 170.647 151.621C171.019 150.83 171.251 150.04 171.251 149.203C171.251 147.808 171.065 146.599 170.228 146.041C169.81 145.622 169.205 145.25 168.415 145.25V144.506C169.252 144.506 170.042 144.692 170.647 144.925C171.67 145.111 172.46 145.715 173.065 146.32C173.669 147.11 174.088 148.133 174.088 149.11C174.088 150.133 173.902 150.923 173.483 151.714C173.065 152.318 172.46 152.923 171.67 153.295C170.879 153.481 169.856 153.713 168.415 153.713V153.062H168.368ZM165.346 153.062H166.555H168.368V153.667C167.95 153.853 167.764 153.853 167.345 153.853H165.299V157.433C165.299 158.828 165.299 159.619 165.532 160.037C165.532 160.456 165.718 160.828 165.904 161.06C166.322 161.246 166.694 161.246 167.531 161.246H168.136V161.851H160.045V161.246H160.649C161.254 161.246 161.858 161.246 162.091 161.06C162.509 160.828 162.695 160.642 162.695 160.27C162.881 159.898 162.881 158.875 162.881 157.48V148.924C162.881 147.529 162.881 146.738 162.695 146.32C162.695 145.948 162.509 145.529 162.277 145.529C161.858 145.343 161.254 145.343 160.463 145.343H160.045V144.739L162.277 144.553H166.555H168.368V145.343C167.764 145.157 167.345 145.157 166.741 145.157H165.299V153.062H165.346Z" fill="white"/>
<path fill-rule="evenodd" clip-rule="evenodd" d="M192.269 156.457H192.874L192.455 161.851H177.854V161.246H178.273C179.296 161.246 179.668 161.246 180.086 161.06C180.272 160.828 180.505 160.456 180.505 160.037V157.433V148.877V146.273C180.505 145.901 180.319 145.669 179.9 145.483C179.714 145.297 179.11 145.297 178.319 145.297V144.692H190.874L191.293 148.877H190.688C190.502 147.668 190.084 146.878 189.665 146.273C189.247 145.901 188.875 145.483 188.27 145.483C187.666 145.297 186.829 145.297 185.62 145.297H183.202V152.458H185.062C185.852 152.458 186.457 152.458 186.875 152.225C187.294 152.039 187.48 151.853 187.48 151.621C187.666 151.249 187.666 150.644 187.666 149.854H188.27V155.806H187.666C187.666 154.829 187.666 154.225 187.48 153.806C187.294 153.434 187.061 153.202 186.689 153.202C186.503 153.016 185.852 153.016 185.294 153.016H183.248V157.201C183.248 159.2 183.434 160.363 183.667 160.781C183.853 161.2 184.69 161.2 185.899 161.2H187.108C188.131 161.2 188.735 161.2 189.34 161.014C189.944 160.781 190.549 160.223 191.153 159.619C191.479 158.828 192.083 157.852 192.269 156.457Z" fill="white"/>
<path fill-rule="evenodd" clip-rule="evenodd" d="M205.662 152.876C206.08 152.69 206.266 152.69 206.499 152.69C207.103 152.504 207.522 152.272 207.708 152.086C208.126 151.667 208.312 151.295 208.545 150.923C208.731 150.319 208.731 149.714 208.731 149.11C208.731 147.947 208.545 146.924 207.894 146.134C207.475 145.715 206.685 145.343 205.662 145.111V144.506C206.685 144.506 207.475 144.692 208.08 144.925C209.103 145.111 209.893 145.715 210.498 146.32C211.288 147.11 211.521 147.901 211.521 148.924C211.521 149.947 211.102 150.923 210.312 151.714C209.475 152.504 208.266 153.109 206.685 153.295C207.289 153.713 208.498 154.876 210.126 157.061C211.521 158.828 212.59 159.851 213.381 160.456C213.985 161.06 215.008 161.246 216.031 161.246V161.851H211.381C210.358 161.432 209.149 159.851 207.522 157.48C206.917 156.689 206.313 155.899 205.708 155.294V152.876H205.662ZM202.639 153.062C203.43 153.062 204.034 152.83 204.685 152.83H205.708V155.248V155.062C205.104 154.457 204.685 154.039 204.499 153.853C204.313 153.667 203.895 153.667 203.476 153.667H202.686V157.433C202.686 158.828 202.686 159.619 202.872 160.037C202.872 160.456 203.058 160.828 203.29 161.06C203.709 161.246 204.081 161.246 204.918 161.246H205.708V161.851H197.338V161.246H197.943C198.547 161.246 199.152 161.246 199.338 161.06C199.756 160.828 199.942 160.642 199.942 160.27C200.128 159.898 200.128 158.875 200.128 157.48V148.924C200.128 147.529 200.128 146.738 199.942 146.32C199.942 145.948 199.756 145.529 199.524 145.529C199.105 145.343 198.501 145.343 197.71 145.343H197.524V144.739L199.942 144.553C201.57 144.553 202.965 144.367 203.988 144.367C204.592 144.367 205.197 144.553 205.615 144.553V145.157H203.848H202.639V153.062Z" fill="white"/>
<path fill-rule="evenodd" clip-rule="evenodd" d="M219.24 161.851V156.271H219.844C220.448 159.898 222.262 161.665 225.099 161.665C226.308 161.665 227.144 161.246 227.935 160.642C228.539 159.851 228.911 159.061 228.911 158.27C228.911 157.48 228.493 156.689 227.935 156.085C227.33 155.527 226.307 154.922 224.68 154.318C223.238 153.713 222.262 153.155 221.657 152.737C220.867 152.318 220.262 151.76 219.844 150.97C219.425 150.365 219.24 149.575 219.24 148.784C219.24 147.389 219.612 146.366 220.635 145.576C221.472 144.785 222.448 144.367 223.89 144.367C224.68 144.367 225.284 144.553 225.935 144.785C226.726 144.971 227.33 145.39 227.981 146.18C228.4 145.762 228.586 145.157 228.772 144.785H229.19V149.156H228.772C228.354 147.994 227.749 146.971 226.959 146.18C226.168 145.39 225.145 144.971 224.122 144.971C223.099 144.971 222.308 145.157 221.704 145.762C221.285 146.366 221.1 146.971 221.1 147.575C221.1 148.366 221.285 149.156 221.89 149.761C222.494 150.133 223.704 150.97 225.099 151.528C226.726 152.132 227.703 152.737 228.54 153.109C229.144 153.481 229.749 154.085 230.167 154.876C230.586 155.48 230.771 156.271 230.771 157.247C230.771 158.642 230.353 159.851 229.376 160.828C228.353 161.851 226.912 162.223 225.331 162.223C223.285 162.223 221.704 161.432 220.449 160.037C220.263 160.456 219.844 161.06 219.844 161.804H219.24V161.851Z" fill="white"/>
<path fill-rule="evenodd" clip-rule="evenodd" d="M268.25 148.691H267.646V144.692H284.851V148.691H284.293C284.107 147.668 283.874 146.878 283.502 146.273C283.084 145.901 282.898 145.483 282.479 145.297H280.433H277.597V157.433V160.037C277.597 160.456 277.783 160.828 278.201 161.06C278.387 161.246 278.992 161.246 279.829 161.246H280.619V161.851H271.924V161.246H272.714C273.505 161.246 273.923 161.246 274.342 161.06C274.528 160.828 274.76 160.642 274.946 160.27V157.48V145.343H272.342H270.11C269.692 145.529 269.32 145.948 269.087 146.32C268.669 146.878 268.483 147.668 268.25 148.691Z" fill="white"/>
<path fill-rule="evenodd" clip-rule="evenodd" d="M298.057 161.618H298.289C300.289 161.618 301.916 160.828 302.939 159.433C304.148 158.038 304.753 156.038 304.753 153.248C304.753 150.644 304.148 148.459 302.939 147.064C301.916 145.669 300.289 144.878 298.057 144.878V144.274C300.893 144.274 303.125 145.064 304.939 146.692C306.752 148.273 307.775 150.505 307.775 153.248C307.775 155.852 306.752 158.038 304.939 159.851C303.311 161.432 300.893 162.223 298.057 162.223V161.618ZM291.593 153.248C291.593 156.038 292.198 158.038 293.221 159.433C294.244 160.828 296.057 161.618 298.103 161.618V162.223C295.267 162.223 293.035 161.432 291.221 159.851C289.408 158.038 288.571 155.852 288.571 153.062C288.571 150.458 289.594 148.273 291.407 146.692C293.035 145.111 295.453 144.274 298.103 144.274V144.878C296.057 144.878 294.43 145.669 293.221 147.064C292.151 148.505 291.593 150.505 291.593 153.248Z" fill="white"/>
<path fill-rule="evenodd" clip-rule="evenodd" d="M320.935 153.062C321.353 153.062 321.539 152.83 321.725 152.83C322.33 152.644 322.934 152.225 323.353 151.621C323.771 150.83 323.957 150.04 323.957 149.203C323.957 147.808 323.539 146.599 322.934 146.041C322.33 145.622 321.725 145.25 320.888 145.25V144.506C321.911 144.506 322.702 144.692 323.306 144.925C324.329 145.111 325.12 145.715 325.724 146.32C326.329 147.11 326.515 148.133 326.515 149.11C326.515 150.133 326.329 150.923 325.91 151.714C325.492 152.318 324.887 152.923 324.097 153.295C323.492 153.481 322.469 153.713 320.842 153.713V153.062H320.935ZM318.098 153.062H319.307H320.935V153.667C320.702 153.853 320.33 153.853 319.912 153.853H318.052V157.433V160.037C318.238 160.456 318.238 160.828 318.656 161.06C318.842 161.246 319.493 161.246 320.284 161.246H320.888V161.851H312.751V161.246H313.169C313.96 161.246 314.378 161.246 314.75 161.06C314.936 160.828 315.169 160.642 315.355 160.27V157.48V148.924V146.32C315.122 145.948 314.936 145.529 314.75 145.529C314.564 145.343 313.96 145.343 313.169 145.343H312.751V144.739L314.983 144.553H319.028H320.842V145.343C320.423 145.157 319.819 145.157 319.214 145.157H318.005V153.062H318.098Z" fill="white"/>
<path fill-rule="evenodd" clip-rule="evenodd" d="M74.1595 161.619V154.272H74.95C75.787 159.061 78.205 161.433 81.832 161.433C83.4595 161.433 84.8545 161.014 85.6915 160.224C86.7145 159.247 87.133 158.224 87.133 157.015C87.133 155.806 86.947 154.411 86.11 153.621C85.273 153.016 83.692 152.04 81.646 151.249C79.8325 150.459 78.391 149.854 77.4145 149.25C76.3915 148.692 75.3685 148.087 74.95 147.064C74.392 146.088 74.1595 145.065 74.1595 144.088C74.1595 142.507 74.764 141.112 75.973 140.089C76.996 138.88 78.6235 138.508 80.251 138.508C81.274 138.508 82.297 138.508 83.0875 138.927C84.1105 139.299 84.901 139.95 85.924 140.926C86.3425 140.322 86.761 139.531 86.761 138.927H87.3655V144.879H86.761C86.3425 143.112 85.552 141.67 84.529 140.694C83.32 139.671 82.111 139.113 80.4835 139.113C79.2745 139.113 78.0655 139.531 77.461 140.322C76.6705 141.112 76.438 141.903 76.438 142.926C76.438 143.902 76.81 145.111 77.647 145.902C78.4375 146.46 79.879 147.483 82.111 148.273C84.157 149.25 85.552 149.854 86.575 150.459C87.3655 151.063 88.156 151.621 88.807 152.644C89.4115 153.621 89.644 154.458 89.644 155.62C89.644 157.62 89.0395 159.201 87.598 160.41C86.1565 161.619 84.529 162.409 82.111 162.409C79.693 162.409 77.461 161.386 75.8335 159.433C75.415 160.038 74.9965 160.596 74.9965 161.619H74.1595Z" fill="white"/>
<path fill-rule="evenodd" clip-rule="evenodd" d="M248.395 161.619V154.272H249.232C250.023 159.061 252.487 161.433 256.114 161.433C257.742 161.433 259.137 161.014 259.974 160.224C261.183 159.247 261.183 158.224 261.183 157.015C261.183 155.806 261.183 154.411 260.346 153.621C259.509 153.016 257.928 152.04 255.882 151.249C254.068 150.459 252.673 149.854 251.604 149.25C250.581 148.692 249.604 148.087 249.186 147.064C248.581 146.088 248.349 145.065 248.349 144.088C248.349 142.507 248.953 141.112 250.209 140.089C251.418 138.88 252.813 138.508 254.673 138.508C255.51 138.508 256.486 138.508 257.323 138.927C258.346 139.299 259.137 139.95 260.16 140.926C260.578 140.322 260.997 139.531 260.997 138.927H261.415V144.879H260.997C260.578 143.112 259.788 141.67 258.765 140.694C257.556 139.671 256.347 139.113 254.905 139.113C253.51 139.113 252.301 139.531 251.65 140.322C250.86 141.112 250.627 141.903 250.627 142.926C250.627 143.902 251.046 145.111 251.836 145.902C252.673 146.46 254.068 147.483 256.3 148.273C258.346 149.25 259.741 149.854 260.764 150.459C261.369 151.063 262.206 151.621 262.81 152.644C263.415 153.621 263.647 154.458 263.647 155.62C263.647 157.62 263.043 159.201 261.601 160.41C260.392 161.619 258.765 162.409 256.533 162.409C253.882 162.409 251.65 161.386 250.023 159.433C249.604 160.038 249.418 160.596 249.232 161.619H248.395Z" fill="white"/>
</svg>
