<?xml version="1.0" encoding="utf-8"?>
<!-- Generator: Adobe Illustrator 26.3.1, SVG Export Plug-In . SVG Version: 6.00 Build 0)  -->
<svg version="1.1" id="Layer_1" xmlns="http://www.w3.org/2000/svg" xmlns:xlink="http://www.w3.org/1999/xlink" x="0px" y="0px"
	 viewBox="0 0 100 90" style="enable-background:new 0 0 100 90;" xml:space="preserve">
<style type="text/css">
	.st0{fill:#062849;}
	.st1{fill:#B2B1B1;}
</style>
<g>
	<path class="st0" d="M25.7,56.3c0.4-0.9-0.2-1.3-1.6-1.3l-2.3,0c-0.5,0-0.6,0-0.5-0.3l0.2-0.4c0.1-0.2,0.3-0.3,0.8-0.3l3.1,0
		c0.6,0,0.9,0.1,1.2,0.2l0.3-1.3l-6.1,0c-1.2,0-2.1,0.5-2.5,1.5L17.5,56c-0.5,1.1-0.1,1.4,1.2,1.4l2.7,0c0.5,0,0.6,0.1,0.5,0.3
		l-0.2,0.4c-0.1,0.2-0.2,0.3-0.7,0.3h-3.2c-0.7,0-0.9-0.1-1.2-0.2l-0.3,1.3l5.9,0c1.6,0,2.3-0.6,2.8-1.6L25.7,56.3 M41.6,56.6
		c0.8,0,1.1,0.1,1.4,0.2l0.7-1.4c-0.4,0.1-0.8,0.2-1.6,0.2l-2.3,0l0.7-1.5l2.7,0c0.8,0,1.1,0.1,1.4,0.2l0.3-1.2l-7.5,0
		c0.1,0.3,0,0.5-0.2,1.1l-1.9,4.3c-0.2,0.4-0.3,0.6-0.5,0.8c-0.2-0.3-0.3-0.7-0.4-1l-1-3.2l2.2-1.3c0.6-0.4,1-0.5,1.4-0.6l-3,0
		c0,0.1,0,0.2-0.1,0.2c-0.1,0.2-0.3,0.4-0.8,0.7l-3.2,2l0.8-1.8c0.3-0.6,0.5-0.9,0.8-1.1l-3.8,0c0.1,0.3,0,0.5-0.2,1.1l-1.9,4.3
		c-0.3,0.6-0.5,0.9-0.8,1.1l3.8,0c0-0.3,0-0.5,0.2-1.1l0.4-1l1.1-0.7l0.7,2.8l11.1,0l0.9-1.3c-0.4,0.1-0.8,0.2-1.6,0.2h-2.9l0.8-1.7
		L41.6,56.6 M51.4,57.9c0,0-1,0.2-2.3,0.2c0,0-1.3,0-1.5,0c-0.3,0-0.4-0.1-0.3-0.4c0.1-0.3,1.4-3,1.4-3c0-0.1,0.2-0.4,0.6-0.4l2.4,0
		c0.6,0,1.1,0.2,1.1,0.2l0.4-1.5l0,0l0,0L48,53c-1.4,0-2.4,0.5-3.1,1.9l-1.2,2.7c-0.6,1.4-0.1,1.9,1.3,1.9l5.3,0L51.4,57.9
		 M60.8,58.3l1.9-4.3c0.3-0.6,0.5-0.9,0.8-1.1l-3.8,0c0,0.3,0,0.5-0.2,1.1l-0.7,1.5l-2.5,0l0.7-1.5c0.3-0.6,0.5-0.9,0.8-1.1L54,53
		c0,0.3,0,0.5-0.2,1.1l-1.9,4.3c-0.3,0.6-0.5,0.9-0.8,1.1l3.8,0c0-0.3,0-0.5,0.2-1.1l0.8-1.7l2.4,0l-0.8,1.7
		c-0.3,0.6-0.5,0.9-0.8,1.1l3.8,0C60.5,59.2,60.5,58.9,60.8,58.3 M67.7,58.4l-2.9,0l0.8-1.7l2.3,0c0.8,0,1.1,0.1,1.4,0.2l0.6-1.4
		c-0.4,0.1-0.8,0.2-1.6,0.2l-2.3,0l0.7-1.5l2.7,0c0.8,0,1.1,0.1,1.4,0.2l0.3-1.2l-7.5,0c0,0.3,0,0.5-0.2,1.1l-1.9,4.3
		c-0.3,0.6-0.5,0.9-0.8,1.1l7.6,0l0.9-1.3C68.9,58.3,68.5,58.4,67.7,58.4z M77.4,54.4L77,55.2c-0.1,0.3-0.3,0.4-0.7,0.4l-1.9,0
		l0.7-1.5l1.8,0C77.4,54,77.5,54.1,77.4,54.4L77.4,54.4z M78.3,56.6c0.7,0,1.4-0.1,1.8-1l0.5-1.2c0.5-1.1-0.1-1.4-1.6-1.4L72,53
		c0.1,0.3,0.1,0.5-0.2,1.1l-1.9,4.3c-0.3,0.6-0.5,0.9-0.8,1.1l3.8,0c0-0.3,0-0.5,0.2-1.1l0.8-1.7l1,0l0.3,2.8l3.7,0
		c-0.2-0.2-0.2-0.6-0.3-1L78.3,56.6 M84.4,54.3c0.1-0.2,0.3-0.3,0.8-0.3l3.1,0c0.6,0,0.9,0.1,1.2,0.2l0.4-1.3l-6.2,0
		c-1.2,0-2.1,0.5-2.5,1.5L80.5,56c-0.5,1.1-0.1,1.4,1.2,1.4l2.7,0c0.5,0,0.6,0.1,0.5,0.3l-0.2,0.4c-0.1,0.2-0.2,0.3-0.8,0.3l-3.2,0
		c-0.6,0-0.9-0.1-1.2-0.2l-0.3,1.3l5.9,0c1.6,0,2.3-0.6,2.8-1.6l0.7-1.6c0.4-0.9-0.2-1.3-1.6-1.3l-2.3,0c-0.5,0-0.6,0-0.5-0.3
		L84.4,54.3 M88.8,59.3H89c0.1,0,0.2,0,0.2-0.1c0-0.1-0.1-0.1-0.2-0.1h-0.2V59.3z M89,59c0.2,0,0.3,0.1,0.3,0.2c0,0.1,0,0.1-0.1,0.1
		l0,0l0,0c0,0,0,0,0,0c0,0,0,0,0,0.1l0,0l0,0l0,0c0,0,0,0,0,0.1h-0.1c0,0,0,0,0-0.1c0-0.1,0-0.2-0.2-0.2h-0.2v0.3h-0.1V59H89
		 M88.4,59.3c0,0.3,0.3,0.6,0.6,0.6c0.1,0,0.3-0.1,0.4-0.2c0.1-0.1,0.2-0.2,0.2-0.4c0-0.3-0.2-0.6-0.6-0.6
		C88.7,58.8,88.4,59,88.4,59.3z M89.7,59.3c0,0.4-0.3,0.7-0.7,0.7c-0.4,0-0.7-0.3-0.7-0.7c0-0.4,0.3-0.7,0.7-0.7
		c0.2,0,0.4,0.1,0.5,0.2C89.6,59,89.7,59.2,89.7,59.3z"/>
	<path class="st1" d="M49.6,37l-0.7,1.3h-2.2c1.1,0.8,1.4,2.1,1.4,2.8c0,0.9-0.3,1.9-0.9,2.9c-2.1,3.8-4.3,5.1-9,5.4l0,0
		c-2.2,0.1-5.6,0.1-9,0.1c-3.4,0-8.5,0-9.6-0.1c-2.2-0.1-4.1-0.4-4.9-1.8c-0.9-1.5-0.2-3.2,0.1-3.9c0.2-0.4,1-1.7,1-1.7h3.3
		c-1.6-1-2.4-3.2-1.2-5.5c1.4-2.7,2.8-4.5,6.3-5.2c2.1-0.4,7-0.4,9.1-0.4l11.1,0c1.5,0,4.6,0.1,5.7,2.3C50.8,34.6,50.2,35.9,49.6,37
		z M53.7,32.3C52.7,30.8,50.5,30,47,30c-3.6,0-11.9,0-14.2,0c-2.4,0-7.7,0-10.5,0.5c-4.2,0.8-6.5,3.1-7.6,5.5
		c-0.8,1.7-1.4,4.4,0.3,6H12c0,0-0.8,1.2-1.3,2c-0.9,1.6-1.1,3.6,0.3,4.8c1,0.9,3.1,1.6,5.9,1.6l20.6,0c7.5,0,10.3-1.6,12.9-5.7
		c0.7-1.1,2.2-4.4-0.7-6.3h2.7l0.9-1.6C54.5,34.8,54.6,33.6,53.7,32.3"/>
	<path class="st0" d="M25.7,43l-0.1,0.3c-0.6,1.4,1.1,1.4,2.4,1.4l6.6-0.1c1.3,0,2.6,0,3.2-1.4c0.6-1.3-0.8-1.4-2.1-1.4
		c0,0-7.5,0-10.6-0.2c-3.7-0.2-4.3-1.6-2.9-4.5c1.1-2.3,2.3-3.9,5.7-4.5c2.3-0.4,6.7-0.5,8.9-0.5l4.1,0c2.4,0,5.1,0,5.6,1.9
		c0.2,0.9-0.3,2-0.7,3h-5.8c0.4-1.2-0.3-1.4-1.6-1.5c-1.9,0-5.3,0-7.4,0.1c-1.1,0-2.3,0.2-2.7,1.2c-0.7,1.5,1.5,1.4,2.8,1.4l7.8,0.1
		c4.5,0,6.9,0.7,5,4.7c-1.8,3.8-4.2,4.5-8.8,4.8c-3.2,0.2-8.5,0.2-11.3,0.1c-3.7-0.2-5.9-0.6-4.2-4.1l0.4-0.9H25.7z"/>
</g>
</svg>
