<svg width="400" height="300" viewBox="0 0 400 300" fill="none" xmlns="http://www.w3.org/2000/svg">
<path d="M131.944 182.137C133.151 179.476 131.494 178.446 127.563 178.446L120.99 178.452C119.561 178.448 119.26 178.335 119.578 177.646L120.051 176.621C120.339 175.957 120.76 175.828 122.192 175.827L130.802 175.823C132.58 175.821 133.331 176.056 134.292 176.426L135.146 172.792L117.97 172.795C114.694 172.793 112.15 174.278 110.849 177.144L109.002 181.233C107.578 184.283 108.601 185.19 112.283 185.191L119.836 185.193C121.281 185.192 121.518 185.335 121.212 185.998L120.636 187.254C120.336 187.935 119.963 188.047 118.526 188.049H109.579C107.736 188.048 107.008 187.708 106.26 187.367L105.339 191.092L122.05 191.088C126.496 191.085 128.576 189.476 129.891 186.608L131.944 182.136M176.776 183.121C178.916 183.12 179.856 183.384 180.743 183.612L182.576 179.62C181.477 179.834 180.306 180.097 178.175 180.095L171.564 180.094L173.537 175.819L181.068 175.814C183.246 175.818 184.185 176.063 185.072 176.3L185.929 172.784L164.901 172.782C165.042 173.505 165.008 174.183 164.221 175.919L158.733 187.929C158.232 189.012 157.804 189.679 157.365 190.21C156.805 189.239 156.391 188.131 156.12 187.334L153.165 178.184L159.298 174.59C161.046 173.552 162.006 173.243 163.313 172.782L154.843 172.786C154.775 173.021 154.723 173.243 154.619 173.471C154.34 174.083 153.889 174.526 152.421 175.454L143.538 180.998L145.853 175.922C146.646 174.181 147.268 173.508 148.052 172.783L137.261 172.79C137.406 173.51 137.39 174.184 136.591 175.922L131.103 187.937C130.311 189.674 129.701 190.349 128.91 191.089L139.679 191.09C139.567 190.35 139.568 189.669 140.354 187.935L141.62 185.19L144.668 183.327L146.551 191.084L177.924 191.077L180.376 187.553C179.32 187.776 178.142 188.036 175.992 188.038H167.933L170.194 183.122L176.775 183.12M204.518 186.634C204.518 186.634 201.588 187.319 197.909 187.318C197.909 187.318 194.316 187.328 193.572 187.317C192.632 187.312 192.344 187.054 192.7 186.155C193.054 185.254 196.633 177.563 196.633 177.563C196.759 177.285 197.207 176.526 198.361 176.526L205.166 176.528C206.858 176.523 208.377 177.096 208.377 177.096L209.459 172.886L209.404 172.891L209.436 172.778L194.854 172.78C190.889 172.78 188.042 174.207 186.233 178.159L182.791 185.7C180.982 189.629 182.543 191.077 186.478 191.077L201.449 191.071L204.518 186.634M231.001 187.914L236.497 175.903C237.283 174.169 237.908 173.492 238.679 172.77L227.902 172.775C228.034 173.494 228.028 174.169 227.227 175.905L225.324 180.089L218.406 180.088L220.327 175.908C221.131 174.166 221.736 173.491 222.53 172.773L211.745 172.779C211.878 173.497 211.865 174.168 211.052 175.91L205.573 187.924C204.77 189.651 204.157 190.34 203.359 191.072L214.146 191.068C214.023 190.337 214.028 189.653 214.84 187.92L217.04 183.115L223.937 183.111L221.744 187.919C220.947 189.65 220.331 190.333 219.546 191.068L230.314 191.067C230.185 190.334 230.201 189.649 231.001 187.913M250.445 188.024L242.411 188.022L244.649 183.109L251.254 183.108C253.37 183.104 254.332 183.366 255.207 183.594L257.038 179.605C255.935 179.823 254.769 180.084 252.654 180.082L246.031 180.081L247.999 175.8L255.545 175.798C257.725 175.8 258.657 176.049 259.545 176.282L260.39 172.767L239.373 172.772C239.496 173.493 239.482 174.168 238.68 175.908L233.203 187.914C232.397 189.65 231.773 190.333 231.002 191.065L252.394 191.061L254.842 187.537C253.805 187.768 252.605 188.028 250.445 188.024ZM277.693 176.817L276.687 179.052C276.282 179.937 275.876 180.078 274.678 180.079L269.446 180.081L271.432 175.8L276.642 175.796C277.828 175.793 278.112 175.928 277.693 176.817H277.693ZM280.364 183.102C282.394 182.999 284.201 182.852 285.438 180.168L286.969 176.799C288.37 173.732 286.766 172.762 282.52 172.762L262.558 172.766C262.913 173.49 262.902 174.16 262.098 175.904L256.614 187.914C255.82 189.648 255.213 190.328 254.405 191.063L265.188 191.06C265.063 190.328 265.071 189.644 265.866 187.912L268.055 183.107L270.91 183.103L271.672 191.059L282.03 191.06C281.533 190.366 281.523 189.417 281.311 188.25L280.364 183.102M297.553 176.588C297.865 175.923 298.266 175.79 299.718 175.786L308.322 175.789C310.111 175.791 310.832 176.025 311.805 176.392L313 172.751L295.471 172.761C292.204 172.76 289.675 174.243 288.359 177.11L286.516 181.199C285.098 184.251 286.124 185.159 289.798 185.159L297.353 185.157C298.786 185.156 299.046 185.298 298.728 185.967L298.152 187.221C297.854 187.9 297.491 188.015 296.024 188.017L287.084 188.019C285.277 188.019 284.512 187.675 283.759 187.335L282.864 191.057L299.555 191.055C304.008 191.052 306.092 189.437 307.412 186.569L309.458 182.101C310.677 179.441 309.024 178.412 305.073 178.414L298.503 178.415C297.055 178.414 296.763 178.305 297.085 177.611L297.553 176.588M309.935 190.639H310.376C310.718 190.639 310.875 190.54 310.875 190.343C310.875 190.139 310.727 190.048 310.416 190.048H309.935V190.639ZM310.473 189.755C310.964 189.755 311.229 189.951 311.229 190.316C311.229 190.493 311.177 190.589 311.014 190.73L311.022 190.826L311.112 190.933C311.13 190.954 311.141 190.992 311.159 191.059C311.178 191.107 311.189 191.158 311.191 191.209L311.209 191.347L311.22 191.474L311.229 191.554C311.229 191.592 311.229 191.601 311.268 191.72H310.916C310.875 191.63 310.866 191.611 310.854 191.396C310.827 190.984 310.767 190.914 310.376 190.914H309.944V191.71H309.57V189.755H310.473M308.805 190.758C308.805 191.622 309.513 192.329 310.386 192.329C310.802 192.327 311.2 192.161 311.494 191.866C311.788 191.572 311.953 191.174 311.955 190.758C311.955 189.882 311.256 189.185 310.386 189.185C309.513 189.185 308.805 189.882 308.805 190.758ZM312.306 190.758C312.306 191.808 311.444 192.662 310.386 192.662C309.316 192.662 308.453 191.808 308.453 190.758C308.453 189.697 309.316 188.84 310.386 188.84C310.895 188.84 311.383 189.042 311.743 189.402C312.103 189.761 312.305 190.249 312.306 190.758Z" fill="#062849"/>
<path d="M199.303 127.679L197.328 131.223H191.189C194.314 133.57 195.156 137.145 195.158 139.243C195.163 141.735 194.329 144.507 192.699 147.496C186.827 158.235 180.681 161.945 167.393 162.757L167.336 162.761C161.067 163.049 151.666 163.049 142.077 163.049C132.487 163.049 118.182 163.029 114.959 162.868C108.635 162.556 103.473 161.689 101.03 157.67C98.498 153.505 100.385 148.645 101.44 146.597C102.037 145.438 104.125 141.672 104.125 141.672H113.408C108.859 138.832 106.777 132.656 110.105 126.102C113.944 118.54 118.077 113.367 127.929 111.522C133.862 110.373 147.631 110.377 153.51 110.377L184.713 110.49C188.987 110.535 197.752 110.696 200.89 117.016C202.826 120.915 200.957 124.802 199.303 127.679ZM210.97 114.574C208.005 110.168 201.819 108.104 192.023 108.104C181.911 108.104 158.508 108.001 151.906 108.001C145.036 108.001 130.219 107.914 122.309 109.331C110.373 111.468 103.96 118.172 100.849 124.836C98.6713 129.5 96.8271 137.149 101.672 141.752H93.4951C93.4951 141.752 91.195 145.057 89.9396 147.442C87.5127 152.056 86.9087 157.494 90.8043 160.959C93.6649 163.502 99.4067 165.386 107.299 165.386L165.448 165.393C186.728 165.393 194.553 160.86 201.78 149.197C203.79 145.956 208.005 136.885 199.921 131.521H207.453L210.087 126.896C213.101 121.64 213.436 118.238 210.971 114.574" fill="#B2B1B1"/>
<path d="M131.951 144.635L131.635 145.387C129.886 149.454 134.811 149.421 138.357 149.442L156.881 149.285C160.649 149.155 164.08 149.18 165.801 145.427C167.424 141.87 163.467 141.542 159.845 141.542C159.845 141.542 138.767 141.662 129.868 141.079C119.367 140.488 117.856 136.602 121.623 128.367C124.609 121.845 128.136 117.369 137.668 115.586C144.087 114.34 156.535 114.271 162.867 114.271L174.487 114.402C181.204 114.468 188.74 114.533 190.302 119.739C190.939 122.303 189.469 125.336 188.287 128.106H171.92C173.178 124.809 171.041 124.084 167.401 123.955C162.181 123.854 152.511 123.899 146.471 124.216C143.449 124.351 140.082 124.874 138.878 127.509C136.915 131.791 143.052 131.324 146.762 131.456L168.729 131.659C181.477 131.659 188.056 133.634 182.839 145.032C177.896 155.831 171.073 157.811 158.044 158.595C148.932 159.099 134.085 159.225 126.232 158.863C115.944 158.39 109.684 157.281 114.266 147.271L115.473 144.635H131.951Z" fill="#062849"/>
</svg>
