<svg width="36" height="38" viewBox="0 0 36 38" fill="none" xmlns="http://www.w3.org/2000/svg">
<circle cx="17.6185" cy="20.3817" r="17.6185" fill="#911D00"/>
<ellipse cx="17.6185" cy="17.6185" rx="17.6185" ry="17.6185" fill="#FEF64B"/>
<mask id="mask0_463_82042" style="mask-type:alpha" maskUnits="userSpaceOnUse" x="0" y="0" width="35" height="35">
<circle cx="17.6198" cy="17.6195" r="16.4503" fill="#FEF64B" stroke="#C82700" stroke-width="0.6"/>
</mask>
<g mask="url(#mask0_463_82042)">
<path d="M22.8032 -0.690918H29.0215L7.25745 34.2006H1.03915L22.8032 -0.690918Z" fill="white"/>
<path d="M28.6724 2.07373H30.7451L8.98109 36.9653H6.90833L28.6724 2.07373Z" fill="white"/>
<ellipse cx="17.6197" cy="17.6187" rx="12.782" ry="12.782" fill="#EC7C10"/>
<mask id="mask1_463_82042" style="mask-type:alpha" maskUnits="userSpaceOnUse" x="4" y="4" width="27" height="27">
<circle cx="17.6152" cy="17.6187" r="12.782" fill="#FFBA02"/>
</mask>
<g mask="url(#mask1_463_82042)">
<circle cx="17.6149" cy="19.0008" r="12.782" fill="#FFBA02"/>
</g>
<path d="M17.908 21.7078C15.8497 21.7078 14.1227 20.1484 14.0044 18.093C13.9571 17.2897 14.1464 16.51 14.5722 15.8485V15.2007L11.1418 15.8485C10.9525 16.51 10.8343 17.1715 10.8343 17.8803C10.8343 21.7314 13.9808 24.8736 17.837 24.8736H26.9453C26.9453 23.1253 25.5258 21.7314 23.7988 21.7314H17.908V21.7078Z" fill="#D77415"/>
<path d="M21.2313 18.5268C21.2535 18.9038 20.727 20.0372 20.727 20.0372C20.727 20.0372 20.727 20.3826 20.6635 20.7713H24.0939C24.2831 20.1098 24.4014 19.4482 24.4014 18.7395C24.4014 14.8884 21.2549 11.7461 17.3987 11.7461L8.29041 11.0552V11.7461C8.29041 13.4945 9.70988 14.8884 11.4369 14.8884H17.3277C19.3623 14.9357 21.113 16.495 21.2313 18.5268Z" fill="#D77415"/>
<path d="M17.908 21.0168C15.8497 21.0168 14.1227 19.4575 14.0044 17.402C13.9571 16.5987 14.1464 15.8191 14.5722 15.1575H11.1418C10.9525 15.8191 10.8343 16.4806 10.8343 17.1894C10.8343 21.0404 13.9808 24.1827 17.837 24.1827H26.9453C26.9453 22.4344 25.5258 21.0404 23.7988 21.0404H17.908V21.0168Z" fill="white"/>
<path d="M21.2313 17.8359C21.2786 18.6391 21.0893 19.4188 20.6635 20.0803H24.0939C24.2831 19.4188 24.4014 18.7573 24.4014 18.0485C24.4014 14.1974 21.2549 11.0552 17.3987 11.0552H8.29041C8.29041 12.8035 9.70988 14.1974 11.4369 14.1974H17.3277C19.3623 14.2447 21.113 15.804 21.2313 17.8359Z" fill="white"/>
</g>
<path d="M35.037 17.6185C35.037 27.2385 27.2385 35.037 17.6185 35.037C7.99853 35.037 0.2 27.2385 0.2 17.6185C0.2 7.99853 7.99853 0.2 17.6185 0.2C27.2385 0.2 35.037 7.99853 35.037 17.6185Z" stroke="#C82700" stroke-width="0.4"/>
</svg>
