<?xml version="1.0" encoding="utf-8"?>
<!-- Generator: Adobe Illustrator 26.3.1, SVG Export Plug-In . SVG Version: 6.00 Build 0)  -->
<svg version="1.1" id="Layer_1" xmlns="http://www.w3.org/2000/svg" xmlns:xlink="http://www.w3.org/1999/xlink" x="0px" y="0px"
	 viewBox="0 0 100 90" style="enable-background:new 0 0 100 90;" xml:space="preserve">
<style type="text/css">
	.st0{fill:#FC8019;}
</style>
<g>
	<path class="st0" d="M18,56.6C18,56.5,18,56.5,18,56.6c-0.3-0.4-2.1-2.5-3.8-5.3c-0.5-0.9-0.9-1.6-0.8-1.7c0.2-0.5,3.2-0.7,4.2-0.3
		c0.3,0.1,0.3,0.3,0.3,0.4c0,0.4,0,1.6,0,1.6c0,0.2,0.2,0.4,0.4,0.4c0.2,0,0.4-0.2,0.4-0.4l0-2.8h0c0-0.2-0.3-0.3-0.3-0.3
		c-0.5,0-1.5,0-2.6,0c-2.4,0-2.9,0.1-3.3-0.2c-0.9-0.6-2.3-4.4-2.3-6.6c0-3,1.8-5.7,4.3-7c1.1-0.5,2.3-0.8,3.5-0.8
		c4,0,7.4,3,7.8,6.9c0,0,0,0,0,0c0.1,0.9-5.1,1.1-6.2,0.9c-0.2,0-0.2-0.2-0.2-0.3c0-0.7,0-2.7,0-2.7c0-0.2-0.2-0.4-0.4-0.4h0
		c-0.2,0-0.4,0.2-0.4,0.4l0,3.7c0,0.2,0.2,0.3,0.3,0.3c0.6,0,2,0,3.2,0c1.7,0,2.5,0.2,2.9,0.6c0.3,0.2,0.4,0.7,0.3,1.3
		C24.4,49.6,18.2,56.3,18,56.6L18,56.6z M34.7,43.9c1.6,0.7,2.5,1.4,2.5,3c0,1.6-1.3,2.7-3.2,2.7c-1.6,0-2.8-0.7-3.5-1.9l-0.1-0.2
		l1.8-1.1l0.1,0.2c0.4,0.7,0.9,1,1.6,1c0.6,0,1-0.3,1-0.6c0-0.4-0.3-0.6-1.2-1l-0.4-0.2c-1.2-0.5-2.3-1.2-2.3-2.9
		c0-1.5,1.2-2.6,2.8-2.6c1.3,0,2.1,0.5,2.7,1.5l0.1,0.2L35,43.2L34.8,43c-0.3-0.5-0.6-0.6-0.9-0.6c-0.4,0-0.6,0.2-0.6,0.5
		c0,0.4,0.2,0.5,1,0.9L34.7,43.9z M47.8,44.3l1.3-3.6h2.2L48,49.8h-0.5l-2-4.3c-0.1-0.2-0.2-0.4-0.3-0.7c-0.1,0.2-0.2,0.5-0.3,0.7
		l-2.1,4.3h-0.5L39,40.6h2.4l1.3,3.6c0.1,0.2,0.2,0.5,0.2,0.8c0.1-0.3,0.2-0.6,0.3-0.8l1.7-3.7h0.5l1.8,3.7c0.1,0.2,0.2,0.5,0.3,0.8
		C47.6,44.8,47.7,44.5,47.8,44.3L47.8,44.3z M53.9,49.5v-9.1h2.3v9.1H53.9z M63.6,46.5v-2h4.2v4.1l-0.1,0.1
		c-0.5,0.4-1.8,1.1-3.5,1.1c-2.9,0-4.9-1.9-4.9-4.7c0-2.7,2-4.7,4.7-4.7c1.5,0,2.6,0.4,3.3,1.3l0.1,0.2l-1.5,1.5l-0.2-0.2
		c-0.4-0.4-0.9-0.7-1.8-0.7c-1.4,0-2.3,1.1-2.3,2.6c0,1.6,1,2.6,2.6,2.6c0.5,0,1.1-0.1,1.5-0.2v-0.9L63.6,46.5z M75,46.5v-2h4.2v4.1
		l-0.1,0.1c-0.5,0.4-1.8,1.1-3.5,1.1c-2.9,0-4.9-1.9-4.9-4.7c0-2.7,2-4.7,4.7-4.7c1.5,0,2.6,0.4,3.3,1.3l0.1,0.2l-1.5,1.5l-0.2-0.2
		c-0.4-0.4-0.9-0.7-1.8-0.7C74,42.4,73,43.5,73,45c0,1.6,1,2.6,2.6,2.6c0.5,0,1.1-0.1,1.5-0.2v-0.9L75,46.5z M87.5,40.4h2.4
		l-3.2,6.1v3h-2.3v-2.9l-3.5-6.2h2.5l1.6,2.9c0.2,0.3,0.4,0.7,0.5,1.1c0.1-0.3,0.3-0.8,0.5-1.1L87.5,40.4z"/>
</g>
</svg>
