<svg width="400" height="300" viewBox="0 0 400 300" fill="none" xmlns="http://www.w3.org/2000/svg">
<path d="M92.5494 189C92.499 188.965 92.4436 188.917 92.3852 188.866C91.4416 187.701 85.6069 180.421 79.6617 171.083C77.8784 168.107 76.7205 165.787 76.9428 165.186C77.5245 163.626 87.8891 162.772 91.081 164.187C92.0517 164.616 92.0272 165.184 92.0272 165.515C92.0272 166.944 91.9562 170.777 91.9562 170.777C91.9569 171.569 92.6034 172.211 93.3993 172.21C94.1967 172.21 94.8405 171.565 94.8378 170.771L94.8227 161.22H94.8201C94.8201 160.391 93.9116 160.184 93.7408 160.152C92.0747 160.142 88.6916 160.132 85.0589 160.132C77.0433 160.132 75.2521 160.46 73.8903 159.573C70.9398 157.651 66.1156 144.699 66.0031 137.412C65.8429 127.131 71.9582 118.231 80.5694 113.821C84.167 112.017 88.2303 111 92.522 111C106.151 111 117.376 121.247 118.869 134.43C118.87 134.441 118.87 134.456 118.873 134.466C119.147 137.653 101.512 138.33 98.0234 137.403C97.4887 137.26 97.3517 136.715 97.3517 136.48C97.3477 134.057 97.3316 127.236 97.3316 127.236C97.3289 126.444 96.6824 125.801 95.8865 125.803H95.8851C95.0904 125.804 94.4453 126.448 94.4453 127.242L94.4755 139.806C94.5007 140.597 95.167 140.811 95.3496 140.846C97.3333 140.847 101.972 140.843 106.293 140.843C112.133 140.843 114.586 141.517 116.219 142.754C117.304 143.579 117.724 145.157 117.357 147.208C114.082 165.453 93.3321 188.057 92.5526 188.999L92.5494 189ZM148.825 146.418C154.06 148.653 157.304 151.133 157.304 156.575C157.304 162.135 153.076 165.727 146.533 165.727C141.232 165.727 136.977 163.335 134.857 159.163L134.514 158.49L140.747 154.893L141.156 155.558C142.559 157.843 144.128 158.817 146.404 158.817C148.366 158.817 149.684 157.951 149.684 156.661C149.684 155.232 148.73 154.696 145.781 153.41L144.282 152.77C140.282 151.072 136.577 148.712 136.577 142.997C136.577 137.861 140.529 134.275 146.189 134.275C150.476 134.275 153.415 135.928 155.438 139.476L155.813 140.135L149.774 144L149.358 143.259C148.348 141.46 147.397 141.099 146.189 141.099C144.926 141.099 144.112 141.793 144.112 142.869C144.112 144.105 144.711 144.648 147.324 145.776L148.825 146.418ZM192.945 147.47L197.345 135.249H204.897L193.704 166.231H192.027L185.237 151.721C184.922 151.057 184.596 150.231 184.315 149.475C184.028 150.232 183.695 151.06 183.379 151.725L176.324 166.231H174.658L163.285 135.249H171.353L175.802 147.47C176.086 148.25 176.377 149.2 176.631 150.082C176.934 149.172 177.297 148.189 177.677 147.397L183.52 134.994H185.136L191.069 147.398C191.448 148.19 191.812 149.173 192.114 150.083C192.369 149.2 192.663 148.25 192.945 147.47V147.47ZM213.705 165.341V134.616H221.327V165.341H213.705ZM246.32 155.018V148.152H260.474V161.922L260.182 162.162C258.562 163.487 254.269 165.727 248.454 165.727C238.643 165.727 231.794 159.252 231.794 149.98C231.794 140.88 238.403 134.275 247.509 134.275C252.517 134.275 256.187 135.681 258.728 138.574L259.224 139.139L254.028 144.263L253.464 143.683C252.013 142.193 250.509 141.27 247.509 141.27C242.844 141.27 239.586 144.851 239.586 149.98C239.586 155.323 243.065 158.776 248.454 158.776C250.241 158.776 252.101 158.469 253.368 157.979V155.019L246.32 155.018ZM284.948 155.018V148.152H299.103V161.922L298.81 162.162C297.189 163.487 292.898 165.727 287.084 165.727C277.273 165.727 270.422 159.252 270.422 149.98C270.422 140.88 277.033 134.275 286.136 134.275C291.146 134.275 294.817 135.681 297.356 138.574L297.854 139.139L292.66 144.263L292.094 143.683C290.642 142.193 289.138 141.27 286.136 141.27C281.473 141.27 278.215 144.851 278.215 149.98C278.215 155.323 281.695 158.776 287.084 158.776C288.871 158.776 290.73 158.469 291.997 157.979V155.019L284.948 155.018ZM327.033 134.616H335L324.064 155.062V165.342H316.401V155.498L304.751 134.616H313.252L318.637 144.413C319.216 145.478 319.82 146.887 320.278 148.031C320.714 146.896 321.292 145.5 321.867 144.422L327.033 134.616Z" fill="#FC8019"/>
</svg>
