<?xml version="1.0" encoding="utf-8"?>
<!-- Generator: Adobe Illustrator 26.3.1, SVG Export Plug-In . SVG Version: 6.00 Build 0)  -->
<svg version="1.1" id="Layer_1" xmlns="http://www.w3.org/2000/svg" xmlns:xlink="http://www.w3.org/1999/xlink" x="0px" y="0px"
	 viewBox="0 0 100 90" style="enable-background:new 0 0 100 90;" xml:space="preserve">
<style type="text/css">
	.st0{fill:#FF1744;}
</style>
<g>
	<path d="M10,21.8v3.7h3.5v9h4.8v-9h3.5v-3.7H10z M25.6,21.8l-4.9,12.6h4.9l2.6-7.7l2.7,7.6h4.9l-4.9-12.6H25.6z M34.8,21.8v3.7h3.4
		v9H43v-9h3.5v-3.7H34.8z M50.3,21.8l-4.9,12.6h4.9l2.7-7.6l2.7,7.6h4.9l-4.9-12.6H50.3z M10,53.4c0-8.5,4.6-12.6,12.7-12.6
		c4.9,0,8.1,1.7,9.8,3.9c0.3,0.4,0.4,0.8,0.4,1.2c0,1-1,1.9-2.2,1.9c-0.6,0-1.1-0.2-1.7-0.7c-1.7-1.6-3.4-2.5-6.4-2.5
		c-5.4,0-7.8,3-7.8,8.9c0,6.3,2.4,8.9,7.8,8.9c3,0,4.6-0.6,6.6-2.4c0.6-0.6,1.2-0.8,1.7-0.8c1.2,0,2.2,0.9,2.2,1.9
		c0,0.4-0.1,0.8-0.4,1.1c-1.9,2.3-5.7,3.9-10.1,3.9C14.6,66.1,10,62.3,10,53.4z M48,62c1.1,0,2,0.8,2,1.9c0,0,0,0.1,0,0.1
		c0,1.2-0.8,2-2,2H37.3c-1.2,0-2.1-0.9-2.1-2.1v-21c0-1.2,0.9-2.1,2.1-2.1c1.2,0,2.1,1,2.1,2.1V62H48z M58.4,63.8
		c0,1.2-0.9,2.2-2.1,2.2c-1.2,0-2.1-1-2.1-2.2V49.3c0-1.2,0.9-2.2,2.1-2.2c1.2,0,2.1,1,2.1,2.2V63.8z M87.8,68.2
		c-0.6,0-1.1-0.2-1.5-0.6l-2.9-2.9l-0.9,0.5c-0.2,0.1-0.4,0.2-0.5,0.3l-0.1,0c-1.3,0.7-2.7,1.1-4.1,1.4c-0.6,0.1-1.3,0.2-2,0.2
		c-1.1,0-2.2-0.1-3.3-0.4c-1.6-0.4-3.2-1.2-4.5-2.2c-1.4-1-2.5-2.3-3.4-3.7c-0.2-0.4-0.4-0.8-0.6-1.1c-0.5-1.1-0.9-2.3-1.1-3.5
		l0-0.1l0-0.1l0-0.2c-0.1-0.6-0.1-1.1-0.1-1.7c0-1.1,0.1-2.2,0.4-3.2c0.4-1.6,1.2-3.2,2.2-4.5c1-1.4,2.3-2.5,3.8-3.4
		c0.6-0.4,1.2-0.7,1.8-0.9c1-0.4,2-0.7,3.1-0.9c1.8-0.3,3.6-0.2,5.3,0.3l0,0c0.1,0,0.3,0.1,0.4,0.1l0,0c2.7,0.9,5.1,2.6,6.8,4.9
		c0.2,0.3,0.4,0.5,0.5,0.8c0.7,1.1,1.2,2.3,1.5,3.5c0.1,0.5,0.2,1,0.3,1.6c0.2,1.6,0.1,3.2-0.3,4.8c-0.3,1.3-0.8,2.5-1.5,3.6
		l-0.5,0.8l2.9,3c0.9,0.9,0.9,2.2,0,3.1C88.9,67.9,88.4,68.2,87.8,68.2z M75.9,44.4c-0.5,0-1,0-1.4,0.1c-1.3,0.2-2.5,0.6-3.6,1.3
		l0,0c-1.1,0.7-2,1.5-2.7,2.5c-0.7,1-1.3,2.1-1.6,3.3c-0.3,1.2-0.4,2.5-0.2,3.7c0.2,1.3,0.6,2.4,1.3,3.5c0.6,1,1.5,2,2.5,2.7
		c2.7,2,6.2,2.5,9.3,1.2c1.6-0.7,3-1.8,4-3.2c0.7-0.9,1.2-2.1,1.5-3.3c0.3-1.3,0.4-2.5,0.2-3.7c-0.4-2.5-1.7-4.7-3.7-6.2
		C79.8,45,77.9,44.4,75.9,44.4z"/>
	<path class="st0" d="M59.8,42.6c1,1,1,2.7,0,3.7c-1,1-2.7,1-3.7,0l-3.2-3.2c-1-1-0.9-2.7,0.1-3.7c1-1,2.6-1,3.6,0L59.8,42.6z"/>
</g>
</svg>
