<?xml version="1.0" encoding="utf-8"?>
<!-- Generator: Adobe Illustrator 26.3.1, SVG Export Plug-In . SVG Version: 6.00 Build 0)  -->
<svg version="1.1" id="Layer_1" xmlns="http://www.w3.org/2000/svg" xmlns:xlink="http://www.w3.org/1999/xlink" x="0px" y="0px"
	 viewBox="0 0 100 90" style="enable-background:new 0 0 100 90;" xml:space="preserve">
<style type="text/css">
	.st0{fill:#486AAE;}
	.st1{fill-rule:evenodd;clip-rule:evenodd;fill:#486AAE;}
</style>
<g>
	<path class="st0" d="M10.1,60h19.2v5.8h-5.5v14.1h-8V65.9h-5.7V60z"/>
	<path class="st0" d="M39,68.1l-4,11.9h-7.7L34.8,60h8.4l7.7,19.9h-7.8L39,68.1z"/>
	<path class="st0" d="M49.1,60h19.2v5.8h-5.5v14.1h-8V65.9h-5.7V60z"/>
	<path class="st0" d="M78,68.1l-4,11.9h-7.7L73.8,60h8.3l7.7,19.9h-7.8L78,68.1z"/>
	<path class="st1" d="M78.3,23.5c-0.7-1.4-1.7-2.8-2.8-4c-2.6-2.9-6.4-5.2-10.8-6.9c-4.4-1.6-9.5-2.5-14.7-2.5
		c-5.2,0-10.2,0.9-14.7,2.5c-4.4,1.6-8.1,4-10.8,6.9c-1.2,1.3-2.1,2.6-2.8,4c5.7-1.4,15.6-3.2,24.7-3.4c0.9,0,1.5,0.3,1.9,0.8
		c0.5,0.6,0.4,2.8,0.4,3.8L48.5,50c0.5,0,1,0,1.5,0c0.5,0,1,0,1.6,0l-0.3-25.4c0-1-0.1-3.2,0.4-3.8c0.4-0.5,1-0.8,1.9-0.8
		C62.8,20.3,72.6,22.1,78.3,23.5z"/>
	<path class="st1" d="M79.5,26.8c-8.4-1.9-14-2.3-19.6-2.6c-4.8-0.3-4.9,1.5-4.4,4.7c0,0.2,0.1,0.5,0.1,0.7c1.6,9.6,3.6,17.8,4,19.2
		C71.4,46.3,79.9,38.8,79.9,30C79.9,28.9,79.8,27.9,79.5,26.8z"/>
	<path class="st1" d="M44.5,29c0.5-3.3,0.4-5-4.4-4.7c-5.5,0.3-11.2,0.7-19.6,2.6c-0.3,1.1-0.4,2.2-0.4,3.3c0,3.8,1.5,7.5,4.5,10.6
		c2.6,2.9,6.4,5.2,10.8,6.9c1.6,0.6,3.3,1.1,5,1.5c0.3-1.3,2.4-9.7,4-19.5C44.4,29.3,44.5,29.1,44.5,29z"/>
</g>
</svg>
