<svg width="400" height="300" viewBox="0 0 400 300" fill="none" xmlns="http://www.w3.org/2000/svg">
<path d="M106 95V103.689H114.163V124.852H125.522V103.689H133.685V95H106ZM142.834 95L131.3 124.852H142.812L149.071 106.775L155.374 124.83H166.864L155.374 95H142.834ZM164.501 95V103.689H172.642V124.852H184.001V103.689H192.164V95H164.501ZM201.313 95L189.757 124.852H201.291L207.572 106.796L213.853 124.852H225.365L213.853 95H201.313ZM106 169.652C106 149.474 116.899 139.778 135.94 139.778C147.495 139.778 155.068 143.871 158.985 148.97C159.751 149.977 160.036 150.831 160.036 151.772C160.036 154.245 157.738 156.28 154.871 156.28C153.536 156.28 152.201 155.777 150.953 154.573C147.036 150.743 142.921 148.62 135.94 148.62C123.224 148.62 117.468 155.602 117.468 169.652C117.468 184.557 123.202 190.597 135.94 190.597C143.009 190.597 146.839 189.153 151.435 184.972C152.967 183.615 154.214 183.112 155.549 183.112C158.416 183.112 160.714 185.147 160.714 187.708C160.714 188.649 160.364 189.547 159.751 190.269C155.155 195.718 146.182 199.461 135.94 199.461C116.899 199.461 106 190.509 106 169.652ZM195.732 189.984C198.292 189.897 200.415 191.91 200.503 194.471C200.503 194.558 200.503 194.624 200.503 194.712C200.503 197.447 198.533 199.461 195.732 199.461H170.541C167.718 199.461 165.682 197.36 165.682 194.558V144.856C165.682 142.054 167.893 139.778 170.629 139.778C173.364 139.778 175.553 142.054 175.553 144.856V189.984H195.732ZM220.397 194.186C220.397 197.097 218.165 199.461 215.429 199.461C212.693 199.461 210.461 197.097 210.461 194.186V159.957C210.461 157.046 212.693 154.682 215.429 154.682C218.186 154.682 220.397 157.046 220.397 159.957V194.186ZM289.84 204.429C288.462 204.429 287.17 203.882 286.207 202.919L279.27 195.959L277.256 197.185C276.84 197.447 276.424 197.688 275.987 197.907L275.812 197.994C272.748 199.57 269.443 200.664 266.029 201.212C264.497 201.452 262.921 201.584 261.367 201.584C258.763 201.584 256.18 201.255 253.663 200.643C249.789 199.614 246.156 197.885 242.917 195.521C239.678 193.18 236.943 190.203 234.863 186.789C234.316 185.913 233.813 185.016 233.353 184.075C232.128 181.493 231.252 178.735 230.793 175.912L230.749 175.627L230.683 175.299L230.618 174.796C230.442 173.439 230.333 172.082 230.333 170.703C230.333 168.142 230.661 165.603 231.296 163.13C232.325 159.257 234.097 155.624 236.505 152.406C238.912 149.189 241.911 146.453 245.369 144.374C246.704 143.543 248.126 142.799 249.614 142.186C251.956 141.223 254.407 140.522 256.924 140.128C261.083 139.494 265.328 139.735 269.399 140.829L269.487 140.851C269.815 140.938 270.121 141.026 270.406 141.113L270.515 141.135C276.972 143.192 282.574 147.285 286.47 152.8C286.951 153.479 287.345 154.092 287.674 154.682C289.271 157.309 290.453 160.132 291.197 163.065C291.504 164.247 291.744 165.494 291.898 166.829C292.335 170.637 292.095 174.489 291.219 178.232C290.475 181.208 289.293 184.053 287.718 186.679L286.514 188.671L293.473 195.653C295.509 197.688 295.509 200.905 293.473 202.941C292.51 203.882 291.197 204.429 289.84 204.429ZM261.63 148.226C260.492 148.226 259.375 148.314 258.237 148.489C255.217 148.948 252.328 149.999 249.724 151.553L249.658 151.597C247.076 153.26 244.996 155.186 243.289 157.484C241.517 159.804 240.225 162.474 239.525 165.297C238.737 168.12 238.562 171.097 239.044 173.986C239.503 177.05 240.51 179.742 242.086 182.259C243.574 184.71 245.609 186.898 247.951 188.584C254.298 193.333 262.68 194.383 270.012 191.341C273.776 189.765 277.015 187.183 279.401 183.856C281.086 181.624 282.312 178.998 283.034 176.087C283.734 173.132 283.887 170.178 283.472 167.289C282.509 161.314 279.423 156.105 274.761 152.603C270.975 149.758 266.379 148.226 261.63 148.226Z" fill="black"/>
<path d="M223.57 144.156C225.978 146.563 225.978 150.481 223.57 152.888C221.163 155.295 217.245 155.295 214.838 152.888L207.287 145.316C204.945 142.842 205.055 138.947 207.528 136.605C209.913 134.351 213.634 134.351 216.02 136.605L223.57 144.156Z" fill="#FF1744"/>
</svg>
