<svg width="400" height="300" viewBox="0 0 400 300" fill="none" xmlns="http://www.w3.org/2000/svg">
<path d="M125 178.652H161.016V189.612H150.684V215.952H135.676V189.612H125V178.652Z" fill="#486AAE"/>
<path d="M179.256 193.723L171.673 215.952H157.26L171.396 178.652H187.048L201.524 215.952H186.934L179.256 193.723Z" fill="#486AAE"/>
<path d="M198.081 178.652H234.095V189.612H223.766V215.952H208.759V189.612H198.081V178.652Z" fill="#486AAE"/>
<path d="M252.342 193.723L244.756 215.952H230.344L244.483 178.652H260.131L274.602 215.952H260.018L252.342 193.723Z" fill="#486AAE"/>
<path fill-rule="evenodd" clip-rule="evenodd" d="M252.873 110.139C251.528 107.495 249.757 104.96 247.554 102.584C242.603 97.2398 235.617 92.793 227.35 89.7261C219.015 86.6354 209.509 85 199.848 85C190.187 85 180.68 86.6354 172.35 89.7261C164.078 92.7934 157.093 97.2401 152.141 102.584C149.94 104.96 148.163 107.498 146.818 110.144C157.581 107.541 175.991 104.105 193.085 103.742C194.733 103.706 195.869 104.235 196.616 105.182C197.527 106.336 197.458 110.448 197.436 112.288L196.95 159.843C197.913 159.875 198.88 159.895 199.848 159.895C200.824 159.895 201.797 159.879 202.759 159.847L202.273 112.288C202.248 110.448 202.178 106.335 203.091 105.182C203.841 104.235 204.972 103.706 206.62 103.742C223.707 104.102 242.113 107.539 252.873 110.139Z" fill="#486AAE"/>
<path fill-rule="evenodd" clip-rule="evenodd" d="M255.171 116.324C239.419 112.763 228.9 112.104 218.52 111.528C209.473 111.025 209.355 114.256 210.258 120.43C210.317 120.807 210.39 121.282 210.476 121.823C213.511 139.798 217.29 155.265 217.939 157.89C239.996 152.849 255.902 138.87 255.902 122.449C255.902 120.381 255.652 118.332 255.171 116.324Z" fill="#486AAE"/>
<path fill-rule="evenodd" clip-rule="evenodd" d="M189.446 120.43C190.35 114.256 190.234 111.025 181.188 111.528C170.805 112.104 160.283 112.762 144.526 116.326C144.044 118.335 143.791 120.381 143.791 122.449C143.791 129.546 146.678 136.413 152.142 142.314C157.093 147.658 164.079 152.104 172.35 155.173C175.343 156.282 178.503 157.19 181.757 157.917C182.367 155.457 186.233 139.668 189.301 121.372C189.358 121.022 189.41 120.698 189.446 120.43Z" fill="#486AAE"/>
</svg>
