<svg width="400" height="300" viewBox="0 0 400 300" fill="none" xmlns="http://www.w3.org/2000/svg">
<path d="M112.435 164.279C113.275 166.508 114.438 168.414 115.924 169.997C117.41 171.58 119.171 172.791 121.206 173.631C123.241 174.471 125.454 174.891 127.844 174.891C130.17 174.891 132.35 174.454 134.386 173.582C136.421 172.71 138.197 171.482 139.716 169.9C141.234 168.317 142.413 166.427 143.253 164.23C144.093 162.034 144.513 159.579 144.513 156.865V115H154.688V182.837H144.61V176.538C142.348 178.928 139.683 180.77 136.615 182.062C133.546 183.354 130.235 184 126.681 184C123.063 184 119.688 183.37 116.554 182.11C113.421 180.85 110.707 179.058 108.414 176.732C106.12 174.406 104.311 171.612 102.987 168.349C101.662 165.086 101 161.452 101 157.447V115H111.176V156.865C111.176 159.579 111.595 162.05 112.435 164.279Z" fill="#010202"/>
<path d="M172.228 115V139.712C174.489 137.451 177.106 135.658 180.078 134.334C183.05 133.009 186.28 132.347 189.769 132.347C193.387 132.347 196.779 133.025 199.944 134.382C203.11 135.739 205.856 137.58 208.182 139.906C210.508 142.232 212.349 144.977 213.706 148.143C215.062 151.309 215.741 154.669 215.741 158.222C215.741 161.775 215.062 165.119 213.706 168.252C212.349 171.385 210.508 174.115 208.182 176.441C205.856 178.767 203.11 180.608 199.944 181.965C196.779 183.322 193.387 184 189.769 184C186.28 184 183.034 183.338 180.029 182.013C177.025 180.689 174.392 178.896 172.131 176.635V182.837H162.44V115H172.228ZM173.343 164.909C174.215 166.976 175.426 168.785 176.977 170.336C178.527 171.886 180.336 173.114 182.404 174.019C184.471 174.923 186.7 175.375 189.091 175.375C191.417 175.375 193.613 174.923 195.68 174.019C197.748 173.114 199.54 171.887 201.059 170.336C202.577 168.785 203.789 166.976 204.693 164.909C205.598 162.841 206.05 160.613 206.05 158.222C206.05 155.831 205.598 153.586 204.693 151.487C203.789 149.387 202.577 147.562 201.059 146.011C199.541 144.461 197.748 143.249 195.68 142.377C193.613 141.505 191.416 141.069 189.091 141.069C186.765 141.069 184.568 141.505 182.501 142.377C180.433 143.25 178.625 144.461 177.074 146.011C175.523 147.562 174.296 149.387 173.391 151.487C172.487 153.586 172.035 155.831 172.035 158.222C172.034 160.613 172.47 162.841 173.343 164.909Z" fill="#010202"/>
<path d="M221.264 148.24C222.556 145.139 224.333 142.41 226.594 140.052C228.855 137.693 231.536 135.836 234.637 134.479C237.738 133.123 241.098 132.444 244.716 132.444C248.269 132.444 251.564 133.09 254.601 134.382C257.637 135.675 260.254 137.467 262.45 139.761C264.647 142.054 266.359 144.768 267.587 147.901C268.814 151.035 269.428 154.443 269.428 158.126V161.324H229.21C229.534 163.327 230.18 165.184 231.149 166.896C232.118 168.608 233.329 170.094 234.783 171.354C236.236 172.614 237.884 173.599 239.725 174.309C241.566 175.02 243.521 175.376 245.588 175.376C251.468 175.376 256.216 172.953 259.834 168.107L266.909 173.34C264.453 176.635 261.417 179.22 257.799 181.093C254.181 182.967 250.111 183.903 245.588 183.903C241.906 183.903 238.466 183.257 235.267 181.965C232.069 180.673 229.291 178.864 226.933 176.538C224.575 174.212 222.718 171.483 221.361 168.349C220.004 165.216 219.326 161.808 219.326 158.125C219.325 154.637 219.972 151.342 221.264 148.24ZM234.88 144.412C232.134 146.706 230.309 149.759 229.404 153.57H259.543C258.703 149.759 256.911 146.706 254.165 144.412C251.419 142.119 248.205 140.972 244.522 140.972C240.84 140.972 237.625 142.119 234.88 144.412Z" fill="#010202"/>
<path d="M287.743 145.527C285.676 147.788 284.642 150.857 284.642 154.733V182.837H274.854V133.413H284.545V139.518C285.773 137.516 287.372 135.933 289.342 134.77C291.313 133.607 293.655 133.025 296.368 133.025H299.76V142.135H295.69C292.46 142.135 289.811 143.265 287.743 145.527Z" fill="#010202"/>
</svg>
