<?xml version="1.0" encoding="utf-8"?>
<!-- Generator: Adobe Illustrator 26.3.1, SVG Export Plug-In . SVG Version: 6.00 Build 0)  -->
<svg version="1.1" id="Layer_1" xmlns="http://www.w3.org/2000/svg" xmlns:xlink="http://www.w3.org/1999/xlink" x="0px" y="0px"
	 viewBox="0 0 100 90" style="enable-background:new 0 0 100 90;" xml:space="preserve">
<style type="text/css">
	.st0{fill:#010202;}
</style>
<g>
	<path class="st0" d="M14.6,51c0.3,0.9,0.8,1.7,1.4,2.3c0.6,0.6,1.3,1.1,2.1,1.5c0.8,0.3,1.7,0.5,2.7,0.5c0.9,0,1.8-0.2,2.6-0.5
		c0.8-0.4,1.5-0.8,2.1-1.5c0.6-0.6,1.1-1.4,1.4-2.3c0.3-0.9,0.5-1.9,0.5-3V31.1h4.1v27.3h-4.1v-2.5c-0.9,1-2,1.7-3.2,2.2
		c-1.2,0.5-2.6,0.8-4,0.8c-1.5,0-2.8-0.3-4.1-0.8C15,57.6,13.9,56.9,13,56c-0.9-0.9-1.7-2.1-2.2-3.4c-0.5-1.3-0.8-2.8-0.8-4.4V31.1
		h4.1V48C14.1,49.1,14.3,50.1,14.6,51z"/>
	<path class="st0" d="M38.7,31.1v10c0.9-0.9,2-1.6,3.2-2.2c1.2-0.5,2.5-0.8,3.9-0.8c1.5,0,2.8,0.3,4.1,0.8c1.3,0.5,2.4,1.3,3.3,2.2
		c0.9,0.9,1.7,2,2.2,3.3c0.5,1.3,0.8,2.6,0.8,4.1s-0.3,2.8-0.8,4c-0.5,1.3-1.3,2.4-2.2,3.3c-0.9,0.9-2,1.7-3.3,2.2
		c-1.3,0.5-2.6,0.8-4.1,0.8c-1.4,0-2.7-0.3-3.9-0.8c-1.2-0.5-2.3-1.3-3.2-2.2v2.5h-3.9V31.1H38.7z M39.1,51.2
		c0.4,0.8,0.8,1.6,1.5,2.2c0.6,0.6,1.4,1.1,2.2,1.5c0.8,0.4,1.7,0.5,2.7,0.5c0.9,0,1.8-0.2,2.7-0.5c0.8-0.4,1.6-0.9,2.2-1.5
		c0.6-0.6,1.1-1.4,1.5-2.2c0.4-0.8,0.5-1.7,0.5-2.7s-0.2-1.9-0.5-2.7c-0.4-0.8-0.9-1.6-1.5-2.2c-0.6-0.6-1.3-1.1-2.2-1.5
		c-0.8-0.4-1.7-0.5-2.7-0.5c-0.9,0-1.8,0.2-2.7,0.5c-0.8,0.4-1.6,0.8-2.2,1.5c-0.6,0.6-1.1,1.4-1.5,2.2c-0.4,0.8-0.5,1.7-0.5,2.7
		C38.6,49.5,38.8,50.4,39.1,51.2z"/>
	<path class="st0" d="M58.4,44.5c0.5-1.2,1.2-2.3,2.1-3.3c0.9-0.9,2-1.7,3.2-2.2c1.2-0.5,2.6-0.8,4.1-0.8c1.4,0,2.8,0.3,4,0.8
		c1.2,0.5,2.3,1.2,3.2,2.2c0.9,0.9,1.6,2,2.1,3.3c0.5,1.3,0.7,2.6,0.7,4.1v1.3H61.6c0.1,0.8,0.4,1.6,0.8,2.2
		c0.4,0.7,0.9,1.3,1.5,1.8c0.6,0.5,1.2,0.9,2,1.2c0.7,0.3,1.5,0.4,2.4,0.4c2.4,0,4.3-1,5.7-2.9l2.8,2.1c-1,1.3-2.2,2.4-3.7,3.1
		c-1.5,0.8-3.1,1.1-4.9,1.1c-1.5,0-2.9-0.3-4.2-0.8c-1.3-0.5-2.4-1.2-3.4-2.2c-0.9-0.9-1.7-2-2.2-3.3c-0.5-1.3-0.8-2.6-0.8-4.1
		C57.6,47.1,57.9,45.7,58.4,44.5z M63.9,43c-1.1,0.9-1.8,2.2-2.2,3.7h12.1c-0.3-1.5-1.1-2.8-2.2-3.7c-1.1-0.9-2.4-1.4-3.9-1.4
		C66.3,41.6,65,42,63.9,43z"/>
	<path class="st0" d="M85.2,43.4c-0.8,0.9-1.2,2.1-1.2,3.7v11.3H80V38.5h3.9V41c0.5-0.8,1.1-1.4,1.9-1.9c0.8-0.5,1.7-0.7,2.8-0.7H90
		V42h-1.6C87.1,42,86,42.5,85.2,43.4z"/>
</g>
</svg>
