<svg width="110" height="35" viewBox="0 0 110 35" fill="none" xmlns="http://www.w3.org/2000/svg">
<path d="M51.5317 21.9917V21.9916V14.3727C51.5317 7.61928 51.5317 6.40723 51.6203 5.02199C51.7085 3.50677 52.062 2.77077 53.2552 2.55436C53.7852 2.46792 54.0506 2.42471 54.3597 2.42471C54.5365 2.42471 54.7133 2.33795 54.7133 2.16475C54.7133 1.90512 54.4923 1.81836 54.0061 1.81836C52.6807 1.81867 49.8968 1.94833 49.6759 1.94833C49.4549 1.94833 46.6711 1.81868 44.6825 1.81868C44.1962 1.81836 43.9754 1.90512 43.9754 2.16475C43.9754 2.33795 44.1522 2.42471 44.3289 2.42471C44.7267 2.42471 45.4779 2.46792 45.8312 2.55436C47.2897 2.85753 47.6433 3.54999 47.7314 5.02199C47.82 6.40723 47.82 7.61928 47.82 14.3727V15.2814C47.82 15.4982 47.6874 15.5414 47.5547 15.5414H28.8182V17.1866H47.5547C47.6874 17.1866 47.82 17.273 47.82 17.4463V21.9916V21.9918C47.82 26.1474 47.82 29.5674 47.5992 31.3855C47.4224 32.641 47.2011 33.5931 46.3175 33.7667C45.9198 33.8531 45.3894 33.9399 44.9917 33.9399C44.7267 33.9399 44.6384 34.0696 44.6384 34.1994C44.6384 34.4591 44.8594 34.5456 45.3452 34.5456C46.6711 34.5456 49.4549 34.4159 49.6759 34.4159C49.8968 34.4159 52.6807 34.5456 55.111 34.5456C55.5973 34.5456 55.8182 34.4159 55.8182 34.1994C55.8182 34.0696 55.73 33.9399 55.4646 33.9399C55.0669 33.9399 54.0947 33.8531 53.4761 33.7667C52.1503 33.5931 51.8853 32.641 51.7526 31.3855C51.5317 29.5674 51.5317 26.1474 51.5317 21.9917Z" fill="#23235F"/>
<path d="M19.1519 28.6203C21.6527 22.7825 27.4303 7.57847 28.3788 4.44178C28.5943 3.7881 28.7668 3.17822 28.7668 2.78645C28.7668 2.43754 28.6374 2.00196 28.2063 1.78417C27.6888 1.60988 27.0422 1.60987 26.5681 1.60987C26.3091 1.60987 26.0936 1.56638 26.0936 1.34859C26.0936 1.08731 26.3522 1 27.0422 1C28.7668 1 30.7502 1.1308 31.2676 1.1308C31.5262 1.1308 33.3803 1 34.6305 1C35.1047 1 35.3636 1.08731 35.3636 1.3051C35.3636 1.52289 35.1911 1.60987 34.846 1.60987C34.5444 1.60987 33.5958 1.60988 32.7764 2.13276C32.2162 2.52485 31.5693 3.26553 30.4051 6.22791C29.931 7.44766 27.7752 12.6755 25.5761 18.0339C22.9462 24.3947 21.006 29.0997 20.0144 31.2341C18.8069 33.8482 18.6347 34.5454 18.2033 34.5454C17.6859 34.5454 17.4702 33.9352 16.6512 31.8443L6.08793 5.13864C5.13932 2.69914 4.4927 2.21975 2.98357 1.78417C2.33663 1.60988 1.6039 1.60987 1.345 1.60987C1.08641 1.60987 1 1.47939 1 1.3051C1 1.04381 1.4314 1 2.12108 1C4.19075 1 6.64846 1.1308 7.16596 1.1308C7.59703 1.1308 9.53695 1 11.1755 1C11.9516 1 12.3396 1.08731 12.3396 1.3051C12.3396 1.52289 12.2102 1.60987 11.9086 1.60987C11.4344 1.60987 10.658 1.65369 10.27 1.82767C9.79584 2.04546 9.70974 2.39404 9.70974 2.69914C9.70974 3.26553 10.2269 4.61608 10.8736 6.3149L19.1519 28.6203Z" fill="#E97124"/>
<path d="M61.7303 15.2446C62.2064 13.9634 63.3072 10.6258 63.4877 9.93704C63.5286 9.79397 63.5616 9.65978 63.5616 9.57369C63.5616 9.49729 63.5368 9.40151 63.4547 9.35382C63.3563 9.31542 63.2329 9.31542 63.1425 9.31542C63.0934 9.31542 63.0525 9.30572 63.0525 9.25843C63.0525 9.20103 63.1016 9.18164 63.2329 9.18164C63.5616 9.18164 63.9395 9.21074 64.0378 9.21074C64.0873 9.21074 64.4403 9.18164 64.6786 9.18164C64.7686 9.18164 64.8182 9.20103 64.8182 9.24873C64.8182 9.29682 64.7852 9.31542 64.7195 9.31542C64.6621 9.31542 64.4813 9.31542 64.3252 9.4302C64.2186 9.51629 64.0956 9.67918 63.8737 10.3291C63.7834 10.5971 63.3729 11.7446 62.9538 12.9206C62.4529 14.317 62.0833 15.3502 61.8946 15.8182C61.6645 16.3925 61.6315 16.5453 61.5494 16.5453C61.4511 16.5453 61.4098 16.4111 61.2537 15.9523L59.2419 10.0902C59.061 9.55469 58.938 9.44961 58.6505 9.35382C58.5271 9.31542 58.3876 9.31542 58.3383 9.31542C58.2892 9.31542 58.2727 9.28712 58.2727 9.24873C58.2727 9.19134 58.3549 9.18164 58.4863 9.18164C58.8805 9.18164 59.3484 9.21074 59.4471 9.21074C59.5293 9.21074 59.8989 9.18164 60.2111 9.18164C60.3585 9.18164 60.4324 9.20103 60.4324 9.24873C60.4324 9.29682 60.408 9.31542 60.3506 9.31542C60.2602 9.31542 60.1124 9.32512 60.0384 9.36352C59.948 9.41121 59.9316 9.48759 59.9316 9.55469C59.9316 9.67918 60.0302 9.97584 60.1533 10.3485L61.7303 15.2446Z" fill="#000054"/>
<path d="M66.4398 12.0428C66.4398 10.5446 66.4399 10.276 66.4213 9.96885C66.4027 9.64261 66.3288 9.48881 66.0243 9.42145C65.9503 9.40278 65.7931 9.39305 65.7103 9.39305C65.6732 9.39305 65.6365 9.37358 65.6365 9.33502C65.6365 9.2774 65.6825 9.25834 65.7841 9.25834C65.9964 9.25834 66.2457 9.25834 66.449 9.26807L66.8275 9.28715C66.8925 9.28715 68.73 9.28715 68.9426 9.27741C69.1181 9.26807 69.2658 9.24859 69.3393 9.22953C69.3857 9.22019 69.4228 9.18164 69.4687 9.18164C69.4966 9.18164 69.5059 9.22019 69.5059 9.26807C69.5059 9.33502 69.4594 9.45026 69.4317 9.71929C69.4228 9.81547 69.4042 10.2379 69.3857 10.3531C69.3764 10.401 69.3578 10.4582 69.3211 10.4582C69.2658 10.4582 69.2473 10.4107 69.2473 10.3336C69.2473 10.2667 69.238 10.1032 69.1916 9.98832C69.127 9.83453 69.035 9.71929 68.536 9.66167C68.3794 9.64261 67.3723 9.63286 67.2707 9.63286C67.2339 9.63286 67.2153 9.66167 67.2153 9.72904V12.3787C67.2153 12.4457 67.2246 12.4749 67.2707 12.4749C67.3909 12.4749 68.527 12.4749 68.7393 12.4555C68.9612 12.4364 69.0903 12.4173 69.1735 12.3207C69.238 12.244 69.2747 12.1961 69.3118 12.1961C69.3393 12.1961 69.3578 12.2157 69.3578 12.2729C69.3578 12.3305 69.3118 12.494 69.284 12.8109C69.2658 13.0024 69.2473 13.3583 69.2473 13.4253C69.2473 13.5019 69.2473 13.6079 69.1828 13.6079C69.1363 13.6079 69.1181 13.5693 69.1181 13.5215C69.1181 13.4253 69.1181 13.3291 69.0811 13.2045C69.044 13.0702 68.9612 12.9067 68.6005 12.8682C68.3515 12.8398 67.4372 12.8207 67.2803 12.8207C67.2339 12.8207 67.2153 12.8491 67.2153 12.8876V13.7324C67.2153 14.059 67.206 15.1725 67.2153 15.3742C67.2432 16.0364 67.3816 16.1614 68.287 16.1614C68.527 16.1614 68.9333 16.1614 69.1735 16.0559C69.4135 15.95 69.5245 15.7584 69.589 15.3644C69.6075 15.2589 69.6258 15.2207 69.6722 15.2207C69.7274 15.2207 69.7274 15.2975 69.7274 15.3644C69.7274 15.4412 69.6536 16.0945 69.6075 16.2957C69.5427 16.5453 69.4687 16.5453 69.1088 16.5453C68.4161 16.5453 67.9081 16.5266 67.5482 16.5169C67.1879 16.4974 66.9663 16.4881 66.8275 16.4881C66.8089 16.4881 66.652 16.488 66.4583 16.4974C66.2736 16.4974 66.0609 16.5169 65.9226 16.5169C65.8209 16.5169 65.7749 16.4974 65.7749 16.4401C65.7749 16.4109 65.7931 16.3821 65.8487 16.3821C65.9319 16.3821 66.0428 16.3635 66.1259 16.344C66.3107 16.3055 66.3567 16.0945 66.3935 15.816C66.4398 15.4128 66.4398 14.654 66.4398 13.7324V12.0428Z" fill="#000054"/>
<path d="M73.3132 15.1899C73.3296 15.9665 73.4111 16.2132 73.6309 16.2893C73.7856 16.337 73.9644 16.3458 74.0377 16.3458C74.0787 16.3458 74.1029 16.365 74.1029 16.4031C74.1029 16.46 74.0541 16.4788 73.9562 16.4788C73.4924 16.4788 73.1667 16.4503 73.0934 16.4503C73.0201 16.4503 72.6783 16.4788 72.3119 16.4788C72.2304 16.4788 72.1818 16.4692 72.1818 16.4031C72.1818 16.365 72.206 16.3458 72.2468 16.3458C72.3119 16.3458 72.4585 16.337 72.5808 16.2893C72.7839 16.2228 72.8249 15.9481 72.8249 15.0858L72.833 9.65546C72.833 9.28578 72.8572 9.18164 72.9223 9.18164C72.9877 9.18164 73.1261 9.38991 73.2075 9.48483C73.3296 9.64585 74.5428 11.1718 75.7963 12.7355C76.6023 13.74 77.4898 14.8959 77.7501 15.2087L77.6608 10.3944C77.6526 9.77882 77.5958 9.57014 77.3433 9.49445C77.1967 9.45639 77.0096 9.44679 76.9444 9.44679C76.8873 9.44679 76.8791 9.41875 76.8791 9.3807C76.8791 9.32383 76.9444 9.31421 77.042 9.31421C77.4082 9.31421 77.7992 9.34266 77.8885 9.34266C77.9781 9.34266 78.247 9.31421 78.5807 9.31421C78.6703 9.31421 78.7272 9.32383 78.7272 9.3807C78.7272 9.41875 78.6945 9.44679 78.6375 9.44679C78.5971 9.44679 78.5398 9.44679 78.4423 9.47522C78.1737 9.54171 78.141 9.75038 78.141 10.3187L78.1247 15.8724C78.1247 16.4976 78.1087 16.5453 78.0514 16.5453C77.9863 16.5453 77.8884 16.4408 77.457 15.9385C77.3675 15.8435 76.1954 14.4505 75.3322 13.3704C74.3878 12.1856 73.4679 10.9916 73.2075 10.6504L73.3132 15.1899Z" fill="#000054"/>
<path d="M83.6695 13.7718C83.6695 14.6896 83.6695 15.4451 83.7149 15.8472C83.7417 16.1241 83.7959 16.3346 84.067 16.373C84.1936 16.392 84.3922 16.4111 84.4736 16.4111C84.5276 16.4111 84.5458 16.4402 84.5458 16.4688C84.5458 16.5165 84.5008 16.5453 84.4013 16.5453C83.9043 16.5453 83.3352 16.5165 83.2903 16.5165C83.2448 16.5165 82.6757 16.5453 82.405 16.5453C82.3055 16.5453 82.2605 16.5262 82.2605 16.4688C82.2605 16.4402 82.2783 16.4111 82.3327 16.4111C82.414 16.4111 82.5222 16.392 82.6035 16.373C82.7843 16.3346 82.8297 16.1241 82.8656 15.8472C82.911 15.4451 82.911 14.6896 82.911 13.7718V9.72647L81.5737 9.74586C81.0137 9.75556 80.797 9.82225 80.6525 10.0518C80.5531 10.2143 80.5259 10.2814 80.4986 10.3485C80.4714 10.4249 80.4446 10.4439 80.4082 10.4439C80.3814 10.4439 80.3633 10.4152 80.3633 10.3578C80.3633 10.2624 80.544 9.4395 80.5622 9.36352C80.5799 9.30572 80.6163 9.18164 80.6525 9.18164C80.7157 9.18164 80.8061 9.27743 81.0496 9.29643C81.3116 9.32512 81.655 9.34452 81.7632 9.34452H85.1512C85.4401 9.34452 85.6481 9.32512 85.7926 9.29643C85.9279 9.27743 86.0092 9.24873 86.0456 9.24873C86.0905 9.24873 86.0905 9.30572 86.0905 9.36352C86.0905 9.65007 86.0634 10.3101 86.0634 10.4152C86.0634 10.5013 86.0365 10.5397 86.0001 10.5397C85.9548 10.5397 85.937 10.511 85.9279 10.3768L85.9188 10.2717C85.8917 9.98472 85.6749 9.76527 84.8079 9.74586L83.6695 9.72647V13.7718Z" fill="#000054"/>
<path d="M87.6679 11.9551C87.6679 10.4629 87.6679 10.1953 87.6505 9.88935C87.6328 9.56439 87.5635 9.4112 87.2755 9.34411C87.2057 9.32512 87.0571 9.31582 86.9786 9.31582C86.9435 9.31582 86.9088 9.29643 86.9088 9.25802C86.9088 9.20063 86.9523 9.18164 87.0486 9.18164C87.441 9.18164 87.9733 9.21034 88.0518 9.21034C88.1304 9.21034 88.6545 9.18164 88.9161 9.18164C89.012 9.18164 89.0555 9.20063 89.0555 9.25802C89.0555 9.29643 89.0208 9.31582 88.9857 9.31582C88.9249 9.31582 88.8725 9.32512 88.7678 9.34411C88.5321 9.38251 88.4624 9.55469 88.4446 9.88935C88.4274 10.1953 88.4274 10.4629 88.4274 11.9551V13.2938C88.4274 14.6707 88.7065 15.2637 89.0821 15.6561C89.5095 16.0958 89.902 16.182 90.3995 16.182C90.9317 16.182 91.4559 15.9046 91.7693 15.4937C92.1714 14.9484 92.2758 14.1352 92.2758 13.1503V11.9551C92.2758 10.4629 92.2758 10.1953 92.2585 9.88935C92.2408 9.56439 92.1714 9.4112 91.8833 9.34411C91.8132 9.32512 91.6649 9.31582 91.5864 9.31582C91.5514 9.31582 91.5167 9.29643 91.5167 9.25802C91.5167 9.20063 91.5603 9.18164 91.6562 9.18164C92.049 9.18164 92.5291 9.21034 92.5812 9.21034C92.6424 9.21034 93.0525 9.18164 93.3144 9.18164C93.4106 9.18164 93.4543 9.20063 93.4543 9.25802C93.4543 9.29643 93.4188 9.31582 93.3841 9.31582C93.3233 9.31582 93.2705 9.32512 93.1658 9.34411C92.9305 9.40191 92.8608 9.55469 92.8434 9.88935C92.8257 10.1953 92.8257 10.4629 92.8257 11.9551V12.9785C92.8257 14.0112 92.7213 15.1586 92.0227 15.8371C91.3943 16.4495 90.7399 16.5453 90.225 16.5453C89.9284 16.5453 89.0466 16.5073 88.4274 15.8662C87.9998 15.4172 87.6679 14.7471 87.6679 13.3515V11.9551Z" fill="#000054"/>
<path d="M96.7173 12.8536C96.7173 12.9021 96.7367 12.9412 96.7857 12.9709C96.9314 13.0582 97.3798 13.1265 97.8086 13.1265C98.0421 13.1265 98.3146 13.0973 98.539 12.9412C98.8799 12.7079 99.133 12.1817 99.133 11.4412C99.133 10.2239 98.4904 9.49367 97.4477 9.49367C97.1558 9.49367 96.8927 9.52248 96.7952 9.55212C96.7465 9.57147 96.7173 9.61016 96.7173 9.66903V12.8536ZM95.938 12.0064C95.938 10.487 95.938 10.2141 95.9187 9.90244C95.8989 9.57147 95.8211 9.41545 95.5001 9.34712C95.4217 9.32778 95.2563 9.31789 95.1687 9.31789C95.1295 9.31789 95.0908 9.29895 95.0908 9.25943C95.0908 9.20139 95.1394 9.18164 95.2469 9.18164C95.6849 9.18164 96.2986 9.21128 96.3473 9.21128C96.4543 9.21128 97.1949 9.18164 97.4966 9.18164C98.1105 9.18164 98.7625 9.2401 99.2792 9.61016C99.5229 9.78553 99.9514 10.263 99.9514 10.9349C99.9514 11.6556 99.6493 12.3765 98.7725 13.1849C99.5715 14.2079 100.234 15.0744 100.799 15.6784C101.325 16.2333 101.743 16.3407 101.987 16.3798C102.172 16.4086 102.309 16.4086 102.367 16.4086C102.416 16.4086 102.454 16.4382 102.454 16.4674C102.454 16.5259 102.396 16.5453 102.221 16.5453H101.529C100.984 16.5453 100.74 16.4962 100.487 16.3604C100.068 16.136 99.7271 15.659 99.1721 14.9283C98.7625 14.3923 98.3052 13.7403 98.1105 13.4871C98.0714 13.448 98.0421 13.4287 97.9836 13.4287L96.7857 13.4089C96.7367 13.4089 96.7173 13.4385 96.7173 13.4871V13.7205C96.7173 14.6554 96.7173 15.4247 96.7659 15.8343C96.7952 16.1163 96.8535 16.3307 97.1458 16.3698C97.2825 16.3897 97.4966 16.4086 97.5843 16.4086C97.6428 16.4086 97.6621 16.4382 97.6621 16.4674C97.6621 16.516 97.6136 16.5453 97.5065 16.5453C96.9705 16.5453 96.3571 16.516 96.3085 16.516C96.2986 16.516 95.6849 16.5453 95.3926 16.5453C95.2855 16.5453 95.237 16.5259 95.237 16.4674C95.237 16.4382 95.2563 16.4086 95.3147 16.4086C95.4025 16.4086 95.5193 16.3897 95.607 16.3698C95.8018 16.3307 95.8504 16.1163 95.8895 15.8343C95.938 15.4247 95.938 14.6554 95.938 13.7205V12.0064Z" fill="#000054"/>
<path d="M103.258 12.0428C103.258 10.5446 103.258 10.276 103.239 9.96885C103.221 9.64261 103.147 9.48881 102.842 9.42145C102.769 9.40278 102.611 9.39305 102.528 9.39305C102.491 9.39305 102.455 9.37358 102.455 9.33502C102.455 9.2774 102.501 9.25834 102.602 9.25834C102.814 9.25834 103.064 9.25834 103.267 9.26807L103.646 9.28715C103.711 9.28715 105.548 9.28715 105.761 9.27741C105.936 9.26807 106.084 9.24859 106.158 9.22953C106.204 9.22019 106.241 9.18164 106.287 9.18164C106.314 9.18164 106.324 9.22019 106.324 9.26807C106.324 9.33502 106.277 9.45026 106.25 9.71929C106.241 9.81547 106.222 10.2379 106.204 10.3531C106.194 10.401 106.176 10.4582 106.139 10.4582C106.084 10.4582 106.065 10.4107 106.065 10.3336C106.065 10.2667 106.056 10.1032 106.01 9.98832C105.945 9.83453 105.853 9.71929 105.354 9.66167C105.197 9.64261 104.191 9.63286 104.089 9.63286C104.052 9.63286 104.033 9.66167 104.033 9.72904V12.3787C104.033 12.4457 104.043 12.4749 104.089 12.4749C104.209 12.4749 105.345 12.4749 105.557 12.4555C105.779 12.4364 105.908 12.4173 105.991 12.3207C106.056 12.244 106.093 12.1961 106.13 12.1961C106.158 12.1961 106.176 12.2157 106.176 12.2729C106.176 12.3305 106.13 12.494 106.102 12.8109C106.084 13.0024 106.065 13.3583 106.065 13.4253C106.065 13.5019 106.065 13.6079 106 13.6079C105.954 13.6079 105.936 13.5693 105.936 13.5215C105.936 13.4253 105.936 13.3291 105.899 13.2045C105.862 13.0702 105.779 12.9067 105.419 12.8682C105.169 12.8398 104.255 12.8207 104.098 12.8207C104.052 12.8207 104.033 12.8491 104.033 12.8876V13.7324C104.033 14.059 104.025 15.1725 104.033 15.3742C104.061 16.0364 104.2 16.1614 105.105 16.1614C105.345 16.1614 105.751 16.1614 105.991 16.0559C106.231 15.95 106.343 15.7584 106.407 15.3644C106.425 15.2589 106.444 15.2207 106.489 15.2207C106.545 15.2207 106.545 15.2975 106.545 15.3644C106.545 15.4412 106.472 16.0945 106.425 16.2957C106.36 16.5453 106.287 16.5453 105.927 16.5453C105.234 16.5453 104.726 16.5266 104.366 16.5169C104.006 16.4974 103.785 16.4881 103.646 16.4881C103.627 16.4881 103.47 16.488 103.276 16.4974C103.092 16.4974 102.88 16.5169 102.741 16.5169C102.639 16.5169 102.593 16.4974 102.593 16.4401C102.593 16.4109 102.611 16.3821 102.667 16.3821C102.75 16.3821 102.861 16.3635 102.944 16.344C103.129 16.3055 103.175 16.0945 103.212 15.816C103.258 15.4128 103.258 14.654 103.258 13.7324V12.0428Z" fill="#000054"/>
<path d="M63.1944 23.0347C63.1944 23.8658 63.1944 24.5501 63.2361 24.9137C63.2608 25.1648 63.3109 25.355 63.5598 25.3897C63.6763 25.407 63.8589 25.4239 63.9336 25.4239C63.9834 25.4239 64 25.4505 64 25.4765C64 25.5193 63.9587 25.5457 63.8672 25.5457C63.4103 25.5457 62.887 25.5193 62.8456 25.5193C62.8039 25.5193 62.2805 25.5457 62.0316 25.5457C61.9401 25.5457 61.8987 25.5285 61.8987 25.4765C61.8987 25.4505 61.915 25.4239 61.9651 25.4239C62.0399 25.4239 62.1393 25.407 62.214 25.3897C62.3803 25.355 62.422 25.1648 62.455 24.9137C62.4968 24.5501 62.4968 23.8658 62.4968 23.0347V22.1258C62.4968 22.0911 62.4718 22.0739 62.4467 22.0739H58.9248C58.8997 22.0739 58.8748 22.0823 58.8748 22.1258V23.0347C58.8748 23.8658 58.8748 24.5501 58.9165 24.9137C58.9411 25.1648 58.9908 25.355 59.2402 25.3897C59.3568 25.407 59.5392 25.4239 59.614 25.4239C59.6638 25.4239 59.6805 25.4505 59.6805 25.4765C59.6805 25.5193 59.6391 25.5457 59.5476 25.5457C59.0907 25.5457 58.5673 25.5193 58.5259 25.5193C58.4842 25.5193 57.9612 25.5457 57.7119 25.5457C57.6204 25.5457 57.5791 25.5285 57.5791 25.4765C57.5791 25.4505 57.5958 25.4239 57.6455 25.4239C57.7203 25.4239 57.8196 25.407 57.8945 25.3897C58.0606 25.355 58.1025 25.1648 58.1354 24.9137C58.1772 24.5501 58.1772 23.8658 58.1772 23.0347V21.5111C58.1772 20.1601 58.1772 19.918 58.1605 19.6405C58.1438 19.3467 58.0774 19.2081 57.8033 19.1473C57.7366 19.1305 57.5957 19.1213 57.521 19.1213C57.4876 19.1213 57.4546 19.1045 57.4546 19.0701C57.4546 19.0178 57.4959 19.0002 57.5874 19.0002C57.9612 19.0002 58.4842 19.0262 58.5259 19.0262C58.5673 19.0262 59.0907 19.0002 59.34 19.0002C59.4314 19.0002 59.4728 19.0178 59.4728 19.0701C59.4728 19.1045 59.4398 19.1213 59.4064 19.1213C59.3484 19.1213 59.2986 19.1305 59.1989 19.1473C58.9745 19.1908 58.9081 19.338 58.8915 19.6405C58.8748 19.918 58.8748 20.1601 58.8748 21.5111V21.693C58.8748 21.7358 58.8997 21.745 58.9248 21.745H62.4467C62.4718 21.745 62.4968 21.7358 62.4968 21.693V21.5111C62.4968 20.1601 62.4967 19.918 62.4801 19.6405C62.4634 19.3467 62.397 19.2081 62.1226 19.1473C62.0562 19.1305 61.915 19.1213 61.8406 19.1213C61.8072 19.1213 61.7738 19.1045 61.7738 19.0701C61.7738 19.0178 61.8155 19.0002 61.907 19.0002C62.2805 19.0002 62.8039 19.0262 62.8456 19.0262C62.887 19.0262 63.4103 19.0002 63.6597 19.0002C63.7511 19.0002 63.7925 19.0178 63.7925 19.0701C63.7925 19.1045 63.7594 19.1213 63.726 19.1213C63.6679 19.1213 63.6179 19.1305 63.5184 19.1473C63.2941 19.1908 63.2277 19.338 63.211 19.6405C63.1944 19.918 63.1944 20.1601 63.1944 21.5111V23.0347Z" fill="#000054"/>
<path d="M67.9788 23.0347C67.9788 23.8658 67.9788 24.5501 68.027 24.9137C68.0555 25.1648 68.1129 25.355 68.4007 25.3897C68.5352 25.407 68.7458 25.4239 68.8321 25.4239C68.8896 25.4239 68.9089 25.4505 68.9089 25.4765C68.9089 25.5193 68.8611 25.5457 68.7555 25.5457C68.2281 25.5457 67.624 25.5193 67.5762 25.5193C67.528 25.5193 66.924 25.5457 66.6366 25.5457C66.531 25.5457 66.4833 25.5285 66.4833 25.4765C66.4833 25.4505 66.5025 25.4239 66.5599 25.4239C66.6462 25.4239 66.761 25.407 66.8473 25.3897C67.0392 25.355 67.0874 25.1648 67.1254 24.9137C67.1737 24.5501 67.1737 23.8658 67.1737 23.0347V21.5111C67.1737 20.1601 67.1737 19.918 67.1544 19.6405C67.1351 19.3467 67.0392 19.1992 66.828 19.1561C66.7229 19.1305 66.598 19.1213 66.531 19.1213C66.493 19.1213 66.4543 19.1045 66.4543 19.0701C66.4543 19.0178 66.5025 19.0002 66.6076 19.0002C66.924 19.0002 67.528 19.0262 67.5762 19.0262C67.624 19.0262 68.2281 19.0002 68.5159 19.0002C68.6214 19.0002 68.6692 19.0178 68.6692 19.0701C68.6692 19.1045 68.631 19.1213 68.5926 19.1213C68.5256 19.1213 68.4681 19.1305 68.353 19.1473C68.094 19.1908 68.0173 19.338 67.9981 19.6405C67.9788 19.918 67.9788 20.1601 67.9788 21.5111V23.0347Z" fill="#000054"/>
<path d="M75.0731 23.2997C75.0731 22.6234 75.0349 22.532 74.7272 22.4399C74.6658 22.4236 74.5351 22.4148 74.4659 22.4148C74.4354 22.4148 74.4044 22.3983 74.4044 22.3651C74.4044 22.3146 74.4431 22.298 74.5274 22.298C74.8733 22.298 75.3576 22.323 75.396 22.323C75.4346 22.323 75.9189 22.298 76.1497 22.298C76.2339 22.298 76.2726 22.3146 76.2726 22.3651C76.2726 22.3983 76.2417 22.4148 76.2111 22.4148C76.1574 22.4148 76.111 22.4236 76.0186 22.4399C75.8111 22.4818 75.7496 22.6234 75.7345 22.9155C75.7191 23.183 75.7191 23.4331 75.7191 23.7843V24.719C75.7191 25.0951 75.7113 25.1117 75.6193 25.1699C75.1272 25.4536 74.4354 25.5457 73.9893 25.5457C73.4052 25.5457 72.3133 25.462 71.4602 24.6522C70.9913 24.2098 70.5453 23.3168 70.5453 22.2733C70.5453 20.937 71.1448 19.9939 71.829 19.526C72.5209 19.0589 73.2819 19.0002 73.8741 19.0002C74.3584 19.0002 74.9042 19.1086 75.0503 19.1421C75.2115 19.184 75.4805 19.2177 75.673 19.2258C75.7496 19.2342 75.7651 19.2674 75.7651 19.3009C75.7651 19.4177 75.7113 19.6513 75.7113 20.4865C75.7113 20.6199 75.6958 20.6618 75.6421 20.6618C75.6038 20.6618 75.5962 20.6118 75.5884 20.5362C75.5807 20.4198 75.5421 20.1859 75.4268 19.9854C75.2347 19.6682 74.612 19.3093 73.6201 19.3093C73.1358 19.3093 72.5595 19.3591 71.9751 19.8602C71.5294 20.2441 71.2139 21.0041 71.2139 21.9808C71.2139 23.158 71.7598 24.0094 72.0292 24.2938C72.6364 24.936 73.336 25.1868 74.043 25.1868C74.3198 25.1868 74.7195 25.1364 74.9193 25.0111C75.0194 24.9529 75.0731 24.8608 75.0731 24.719V23.2997Z" fill="#000054"/>
<path d="M84.467 23.0347C84.467 23.8658 84.467 24.5501 84.5088 24.9137C84.5334 25.1648 84.5832 25.355 84.8325 25.3897C84.949 25.407 85.1316 25.4239 85.2063 25.4239C85.256 25.4239 85.2727 25.4505 85.2727 25.4765C85.2727 25.5193 85.2313 25.5457 85.1399 25.5457C84.683 25.5457 84.1596 25.5193 84.1183 25.5193C84.0765 25.5193 83.5531 25.5457 83.3042 25.5457C83.2128 25.5457 83.1714 25.5285 83.1714 25.4765C83.1714 25.4505 83.1881 25.4239 83.2378 25.4239C83.3125 25.4239 83.412 25.407 83.4867 25.3897C83.653 25.355 83.6947 25.1648 83.7277 24.9137C83.7695 24.5501 83.7695 23.8658 83.7695 23.0347V22.1258C83.7695 22.0911 83.7445 22.0739 83.7194 22.0739H80.1971C80.1724 22.0739 80.1474 22.0823 80.1474 22.1258V23.0347C80.1474 23.8658 80.1474 24.5501 80.1892 24.9137C80.2139 25.1648 80.2639 25.355 80.5129 25.3897C80.6294 25.407 80.8119 25.4239 80.8867 25.4239C80.9364 25.4239 80.9531 25.4505 80.9531 25.4765C80.9531 25.5193 80.9117 25.5457 80.8203 25.5457C80.3634 25.5457 79.8401 25.5193 79.7986 25.5193C79.7572 25.5193 79.2339 25.5457 78.9845 25.5457C78.8931 25.5457 78.8517 25.5285 78.8517 25.4765C78.8517 25.4505 78.8681 25.4239 78.9181 25.4239C78.9929 25.4239 79.0923 25.407 79.1675 25.3897C79.3333 25.355 79.3751 25.1648 79.4081 24.9137C79.4498 24.5501 79.4498 23.8658 79.4498 23.0347V21.5111C79.4498 20.1601 79.4498 19.918 79.4332 19.6405C79.4165 19.3467 79.3501 19.2081 79.076 19.1473C79.0092 19.1305 78.8681 19.1213 78.7937 19.1213C78.7603 19.1213 78.7273 19.1045 78.7273 19.0701C78.7273 19.0178 78.7686 19.0002 78.8601 19.0002C79.2339 19.0002 79.7572 19.0262 79.7986 19.0262C79.8401 19.0262 80.3634 19.0002 80.6127 19.0002C80.7041 19.0002 80.7456 19.0178 80.7456 19.0701C80.7456 19.1045 80.7125 19.1213 80.6792 19.1213C80.621 19.1213 80.5713 19.1305 80.4715 19.1473C80.2472 19.1908 80.1808 19.338 80.1641 19.6405C80.1474 19.918 80.1474 20.1601 80.1474 21.5111V21.693C80.1474 21.7358 80.1724 21.745 80.1971 21.745H83.7194C83.7445 21.745 83.7695 21.7358 83.7695 21.693V21.5111C83.7695 20.1601 83.7695 19.918 83.7527 19.6405C83.7361 19.3467 83.6697 19.2081 83.3953 19.1473C83.3288 19.1305 83.1881 19.1213 83.1132 19.1213C83.0799 19.1213 83.0469 19.1045 83.0469 19.0701C83.0469 19.0178 83.0882 19.0002 83.1797 19.0002C83.5531 19.0002 84.0765 19.0262 84.1183 19.0262C84.1596 19.0262 84.683 19.0002 84.9323 19.0002C85.0238 19.0002 85.0651 19.0178 85.0651 19.0701C85.0651 19.1045 85.0321 19.1213 84.9987 19.1213C84.9407 19.1213 84.8906 19.1305 84.7911 19.1473C84.5668 19.1908 84.5004 19.338 84.4837 19.6405C84.467 19.918 84.467 20.1601 84.467 21.5111V23.0347Z" fill="#000054"/>
<path d="M93.9628 24.2531H93.9978C94.2332 23.4713 95.0352 21.0066 95.3403 19.9184C95.4277 19.6038 95.4361 19.4848 95.4361 19.3745C95.4361 19.2215 95.3403 19.1194 94.9394 19.1194C94.8958 19.1194 94.8605 19.0937 94.8605 19.0598C94.8605 19.017 94.9044 19.0002 95.0094 19.0002C95.4538 19.0002 95.82 19.0257 95.8982 19.0257C95.9597 19.0257 96.3345 19.0002 96.6046 19.0002C96.6831 19.0002 96.727 19.017 96.727 19.0509C96.727 19.0937 96.7004 19.1194 96.6485 19.1194C96.6135 19.1194 96.4477 19.1278 96.3519 19.1619C96.0902 19.2553 95.9508 19.6123 95.785 20.0797C95.4014 21.1592 94.5207 23.8622 94.1806 24.8146C93.9539 25.4433 93.9105 25.5457 93.8146 25.5457C93.7273 25.5457 93.6749 25.4347 93.553 25.1031L91.8443 20.3775H91.8269C91.5126 21.1934 90.3182 24.3045 90.0043 25.0951C89.8649 25.4519 89.8212 25.5457 89.7169 25.5457C89.6295 25.5457 89.5856 25.4519 89.4118 24.8739L87.8596 19.8333C87.7199 19.3832 87.6064 19.2553 87.3802 19.1705C87.2666 19.1278 87.0485 19.1194 86.9873 19.1194C86.9438 19.1194 86.9088 19.1109 86.9088 19.0598C86.9088 19.017 86.9615 19.0002 87.0485 19.0002C87.5021 19.0002 87.9815 19.0257 88.0778 19.0257C88.1562 19.0257 88.5395 19.0002 88.9754 19.0002C89.0978 19.0002 89.1324 19.0257 89.1324 19.0598C89.1324 19.1109 89.0889 19.1194 89.045 19.1194C88.9754 19.1194 88.8096 19.1194 88.7053 19.1705C88.653 19.1956 88.5918 19.2636 88.5918 19.3745C88.5918 19.4848 88.6703 19.7822 88.7577 20.1566C88.8881 20.7006 89.7954 23.8198 89.9257 24.2707H89.9435L91.7919 19.4252C91.9228 19.0767 91.9573 19.0344 92.0097 19.0344C92.0705 19.0344 92.1232 19.1446 92.2274 19.4338L93.9628 24.2531Z" fill="#000054"/>
<path d="M100.287 22.7319C100.335 22.7319 100.335 22.7064 100.325 22.6726L99.4074 20.3773C99.3592 20.2495 99.3106 20.2495 99.2624 20.3773L98.412 22.6726C98.3925 22.7147 98.412 22.7319 98.4406 22.7319H100.287ZM99.282 19.3318C99.3975 19.0509 99.4363 19.0002 99.494 19.0002C99.5519 19.0002 99.5907 19.0426 99.7063 19.3064C99.8517 19.6293 101.369 23.1401 101.958 24.4316C102.306 25.1882 102.586 25.325 102.789 25.3754C102.934 25.4177 103.079 25.4264 103.176 25.4264C103.233 25.4264 103.273 25.435 103.273 25.4777C103.273 25.5284 103.186 25.5457 103.079 25.5457C102.934 25.5457 102.229 25.5457 101.562 25.5284C101.378 25.5198 101.273 25.5198 101.273 25.4692C101.273 25.435 101.301 25.4177 101.34 25.4095C101.398 25.3926 101.456 25.3161 101.398 25.1799L100.499 23.089C100.48 23.0549 100.461 23.038 100.412 23.038H98.3345C98.2863 23.038 98.2573 23.0635 98.2376 23.1059L97.6582 24.6105C97.5712 24.8228 97.5229 25.0273 97.5229 25.1799C97.5229 25.3502 97.7259 25.4264 97.8901 25.4264H97.9869C98.0543 25.4264 98.0833 25.4436 98.0833 25.4777C98.0833 25.5284 98.0253 25.5457 97.9383 25.5457C97.7067 25.5457 97.2906 25.5198 97.1848 25.5198C97.0782 25.5198 96.5469 25.5457 96.0927 25.5457C95.9673 25.5457 95.9089 25.5284 95.9089 25.4777C95.9089 25.4436 95.9477 25.4264 95.9959 25.4264C96.0637 25.4264 96.1989 25.4177 96.276 25.4095C96.7208 25.3585 96.914 25.0351 97.0881 24.6105L99.282 19.3318Z" fill="#000054"/>
<path d="M105.356 23.303C105.356 22.836 105.265 22.6454 105.147 22.3945C105.084 22.2553 103.869 20.3508 103.552 19.901C103.325 19.5801 103.099 19.3639 102.935 19.2604C102.799 19.1736 102.627 19.1213 102.545 19.1213C102.5 19.1213 102.455 19.1045 102.455 19.0609C102.455 19.0262 102.491 19.0002 102.573 19.0002C102.745 19.0002 103.425 19.0262 103.47 19.0262C103.533 19.0262 103.878 19.0002 104.232 19.0002C104.331 19.0002 104.35 19.0262 104.35 19.0609C104.35 19.0957 104.295 19.1045 104.213 19.1389C104.141 19.1736 104.096 19.2256 104.096 19.2948C104.096 19.3987 104.141 19.5026 104.213 19.6325C104.359 19.8832 105.718 22.117 105.881 22.3681C106.054 22.0043 107.206 20.1085 107.387 19.8228C107.505 19.6405 107.541 19.4938 107.541 19.3814C107.541 19.2604 107.505 19.1652 107.396 19.1389C107.313 19.1129 107.259 19.0957 107.259 19.0521C107.259 19.0178 107.313 19.0002 107.405 19.0002C107.641 19.0002 107.93 19.0262 108.003 19.0262C108.058 19.0262 108.71 19.0002 108.882 19.0002C108.945 19.0002 109 19.0178 109 19.0521C109 19.0957 108.955 19.1213 108.882 19.1213C108.782 19.1213 108.611 19.1561 108.466 19.2428C108.284 19.3467 108.184 19.4503 107.985 19.6845C107.686 20.0306 106.417 22.0655 106.254 22.4376C106.117 22.749 106.117 23.0176 106.117 23.303V24.048C106.117 24.1863 106.117 24.5501 106.144 24.9137C106.162 25.1648 106.244 25.355 106.516 25.3897C106.644 25.407 106.843 25.4239 106.924 25.4239C106.979 25.4239 106.997 25.4505 106.997 25.4765C106.997 25.5193 106.95 25.5457 106.851 25.5457C106.353 25.5457 105.782 25.5193 105.737 25.5193C105.691 25.5193 105.12 25.5457 104.848 25.5457C104.749 25.5457 104.703 25.5285 104.703 25.4765C104.703 25.4505 104.721 25.4239 104.775 25.4239C104.857 25.4239 104.966 25.407 105.048 25.3897C105.229 25.355 105.311 25.1648 105.329 24.9137C105.356 24.5501 105.356 24.1863 105.356 24.048V23.303Z" fill="#000054"/>
</svg>
