<?xml version="1.0" encoding="utf-8"?>
<!-- Generator: Adobe Illustrator 26.3.1, SVG Export Plug-In . SVG Version: 6.00 Build 0)  -->
<svg version="1.1" id="Layer_1" xmlns="http://www.w3.org/2000/svg" xmlns:xlink="http://www.w3.org/1999/xlink" x="0px" y="0px"
	 viewBox="0 0 100 90" style="enable-background:new 0 0 100 90;" xml:space="preserve">
<style type="text/css">
	.st0{fill:#EA2330;}
	.st1{opacity:0.7;}
	.st2{fill:url(#SVGID_1_);}
	.st3{fill:url(#SVGID_00000057128011677660678470000002426916625028913282_);}
	.st4{fill:url(#SVGID_00000134219295809032812300000004884916990408915634_);}
	.st5{fill:url(#SVGID_00000112592037709241236050000003579443332910286212_);}
	.st6{fill:url(#SVGID_00000153672648530532118460000017195992590943502218_);}
</style>
<g>
	<path class="st0" d="M59.1,52c0.8-0.1,1.6,0.6,1.8,1.6c0.2,1-0.3,2-1.1,2.1h0c-0.9,0.2-1.7,0.2-2.6,0.3c-1.8,0-3.2-0.4-4.4-1.3
		c-1.4-1.1-2.2-2.9-2.2-5V29.3c0-0.8,0.8-1.5,1.9-1.5c1,0,1.9,0.7,1.9,1.5v20.3c0,1,0.3,1.7,0.7,2.1C55.4,52,56.5,52.4,59.1,52
		L59.1,52z"/>
	<path class="st0" d="M21.2,54.2c-0.7,0-1.3-1-1.6-1.6c-1.7-3.4-3.1-6.1-4.1-8.3c-2.2-4.4-3.3-6.5-4.3-7.3c-1-0.8-1.2-1.7-0.7-2.6
		c0.5-0.9,1.6-1.2,2.5-0.7c0,0,0,0,0,0c2.1,1.2,3.2,3.4,5.9,8.9c1,2.1,2.4,4.8,4.1,8.1c0.4,0.8,0.7,2.5,0,3L21.2,54.2z"/>
	<path class="st0" d="M65,46.1c0-4.9-4-8.9-8.9-8.9h-7.9c-0.8,0-1.5-0.8-1.5-1.9c0-1,0.7-1.9,1.5-1.9h7.9c7,0,12.7,5.7,12.7,12.7
		v8.3c0,0.8-0.8,1.5-1.9,1.5c-1,0-1.9-0.7-1.9-1.5V46.1z"/>
	<path class="st0" d="M42.6,48.5v0.2c0,2.1-1.7,3.5-4.5,3.5c-2.7,0-4.5-1.4-4.5-3.5c0-2.1,1.8-3.5,4.5-3.5h0.2c2.8,0,7.7,1.3,8,1.4
		V43c-1.8-0.6-4.7-1.6-8-1.6h-0.2c-5,0-8.2,3.3-8.2,7.3c0,4,3.2,7.3,8.2,7.3s8.2-3.2,8.2-7.3v-0.2l0-7.8c0-4-3.9-7.3-8.2-7.3l-0.7,0
		c-5.7,0-10.2,1.5-13.4,9.1c-0.3,0.6-0.5,1.2-0.8,1.8l0,0.1c-0.8,1.9-1.2,3.3-2.4,6c-2.1,4.9-4,7.7-6.9,7.9
		c-1.6,0.1-1.9,1.1-1.8,2.2c0.2,1,0.9,1.7,1.8,1.7c4.7,0,7.6-4.3,10.4-10.5l0-0.1c0.4-1,0.8-2,1.3-3.1c0.6-1.4,1.1-3,1.8-4.4
		c2.5-5.8,5.3-6.8,10-6.8h0.7c2,0,4.5,1.4,4.5,3.5L42.6,48.5"/>
	<path class="st0" d="M86.1,48.5v0.2c0,2.1-1.8,3.5-4.5,3.5s-4.5-1.4-4.5-3.5c0-2.1,1.8-3.5,4.5-3.5h0.2c2.8,0,7.7,1.3,8,1.4V43
		c-1.8-0.6-4.7-1.6-8-1.6h-0.2c-5,0-8.2,3.3-8.2,7.3c0,4,3.2,7.3,8.2,7.3s8.2-3.2,8.2-7.3v-0.2l0-7.8c0-4-3.9-7.2-8.2-7.2
		c0,0-1.3,0-1.6,0c-9.2,0-15,6-15,14.3h3.7c0-6.2,4.1-10.6,11.2-10.6c0.3,0,1.4,0,1.4,0c2.7,0,4.7,1.4,4.7,3.5L86.1,48.5z"/>
	<g class="st1">
		
			<linearGradient id="SVGID_1_" gradientUnits="userSpaceOnUse" x1="42.0696" y1="35.7539" x2="43.9305" y2="46.3098" gradientTransform="matrix(1 0 0 -1 0 92)">
			<stop  offset="2.000000e-02" style="stop-color:#FFFFFF;stop-opacity:0"/>
			<stop  offset="0.65" style="stop-color:#FFFFFF;stop-opacity:0"/>
			<stop  offset="0.71" style="stop-color:#DFDFE0;stop-opacity:0.17"/>
			<stop  offset="0.89" style="stop-color:#88898A;stop-opacity:0.62"/>
			<stop  offset="0.99" style="stop-color:#666769;stop-opacity:0.8"/>
		</linearGradient>
		<path class="st2" d="M42.6,45.7v3c0,1.7-1.1,2.9-2.8,3.3v3.8c4.1-0.6,6.6-3.6,6.6-7.1v-0.2v-1.9C45.9,46.5,43.6,46,42.6,45.7z"/>
		
			<linearGradient id="SVGID_00000135677779402909864950000017942651885334733697_" gradientUnits="userSpaceOnUse" x1="85.5963" y1="35.756" x2="87.4625" y2="46.3481" gradientTransform="matrix(1 0 0 -1 0 92)">
			<stop  offset="2.000000e-02" style="stop-color:#FFFFFF;stop-opacity:0"/>
			<stop  offset="0.65" style="stop-color:#FFFFFF;stop-opacity:0"/>
			<stop  offset="0.71" style="stop-color:#DFDFE0;stop-opacity:0.17"/>
			<stop  offset="0.91" style="stop-color:#88898A;stop-opacity:0.62"/>
			<stop  offset="1" style="stop-color:#666769;stop-opacity:0.8"/>
		</linearGradient>
		<path style="fill:url(#SVGID_00000135677779402909864950000017942651885334733697_);" d="M86.1,45.7v3c0,1.7-1.1,2.9-2.8,3.3v3.8
			c4.1-0.6,6.6-3.6,6.6-7.1v-0.2v-1.9C89.4,46.5,87.2,46,86.1,45.7z"/>
		
			<linearGradient id="SVGID_00000116208740185358710120000013285047722169676444_" gradientUnits="userSpaceOnUse" x1="55.6004" y1="53.924" x2="66.9233" y2="50.2452" gradientTransform="matrix(1 0 0 -1 0 92)">
			<stop  offset="2.000000e-02" style="stop-color:#FFFFFF;stop-opacity:0"/>
			<stop  offset="0.65" style="stop-color:#FFFFFF;stop-opacity:0"/>
			<stop  offset="0.71" style="stop-color:#DFDFE0;stop-opacity:0.17"/>
			<stop  offset="0.91" style="stop-color:#88898A;stop-opacity:0.62"/>
			<stop  offset="1" style="stop-color:#666769;stop-opacity:0.8"/>
		</linearGradient>
		<path style="fill:url(#SVGID_00000116208740185358710120000013285047722169676444_);" d="M57.1,33.5v3.8c4.5,0.5,8,4.3,8,8.9v0.5
			h0.1c0.1-2.4,0.9-4.7,2.1-6.7C65.1,36.2,61.3,33.8,57.1,33.5z"/>
		
			<linearGradient id="SVGID_00000139263707146937555080000015337952275333164161_" gradientUnits="userSpaceOnUse" x1="52.4057" y1="45.2696" x2="52.4057" y2="54.7716" gradientTransform="matrix(1 0 0 -1 0 92)">
			<stop  offset="2.000000e-02" style="stop-color:#FFFFFF;stop-opacity:0"/>
			<stop  offset="0.65" style="stop-color:#FFFFFF;stop-opacity:0"/>
			<stop  offset="0.71" style="stop-color:#DFDFE0;stop-opacity:0.17"/>
			<stop  offset="0.91" style="stop-color:#88898A;stop-opacity:0.62"/>
			<stop  offset="1" style="stop-color:#666769;stop-opacity:0.8"/>
		</linearGradient>
		<path style="fill:url(#SVGID_00000139263707146937555080000015337952275333164161_);" d="M54.3,37.2h-3.7v9.5h3.7V37.2z"/>
		
			<linearGradient id="SVGID_00000163044578688195763870000009053508485286780575_" gradientUnits="userSpaceOnUse" x1="15.4453" y1="50.588" x2="21.124" y2="41.0916" gradientTransform="matrix(1 0 0 -1 0 92)">
			<stop  offset="2.000000e-02" style="stop-color:#FFFFFF;stop-opacity:0"/>
			<stop  offset="0.5" style="stop-color:#FFFFFF;stop-opacity:0"/>
			<stop  offset="0.54" style="stop-color:#F0F0F1;stop-opacity:7.000000e-02"/>
			<stop  offset="0.85" style="stop-color:#8D8D8F;stop-opacity:0.52"/>
			<stop  offset="1" style="stop-color:#666769;stop-opacity:0.7"/>
		</linearGradient>
		<path style="fill:url(#SVGID_00000163044578688195763870000009053508485286780575_);" d="M15.4,44.3c1.1,2.2,2.4,4.9,4.1,8.3
			c0.1,0.1,0.1,0.2,0.2,0.3c0.4-0.7,0.7-1.5,1.1-2.4c0.3-0.8,0.6-1.4,0.8-2c-1.1-2.3-2.1-4.2-2.9-5.8L15.4,44.3z"/>
	</g>
</g>
</svg>
