<svg width="400" height="300" viewBox="0 0 400 300" fill="none" xmlns="http://www.w3.org/2000/svg">
<path d="M216.277 162.07C217.69 161.816 219.08 163.067 219.381 164.827C219.682 166.611 218.802 168.256 217.389 168.511H217.343C215.86 168.789 214.377 168.928 212.871 168.951C209.744 168.951 207.219 168.209 205.25 166.68C202.725 164.758 201.404 161.7 201.404 157.9V122.595C201.404 121.158 202.864 120 204.671 120C206.478 120 207.937 121.158 207.937 122.595V157.9C207.937 159.638 208.377 160.843 209.234 161.514C209.999 162.117 211.898 162.858 216.207 162.094L216.277 162.07Z" fill="#EA2330"/>
<path d="M150.252 165.87C149.071 165.87 147.959 164.132 147.38 162.997C144.345 157.089 142.028 152.387 140.175 148.611C136.399 140.896 134.36 137.213 132.646 135.892C130.955 134.572 130.607 132.88 131.418 131.375C132.275 129.846 134.221 129.29 135.75 130.147C135.773 130.147 135.773 130.17 135.797 130.17C139.434 132.232 141.333 136.101 146.059 145.738C147.889 149.468 150.16 154.124 153.148 159.916C153.89 161.352 154.399 164.248 153.125 165.198L150.252 165.87Z" fill="#EA2330"/>
<path d="M226.725 151.877C226.725 143.305 219.775 136.355 211.203 136.355H197.466C196.029 136.355 194.871 134.896 194.871 133.089C194.871 131.282 196.029 129.823 197.466 129.823H211.203C223.389 129.823 233.258 139.691 233.258 151.877V166.402C233.258 167.839 231.798 168.997 229.991 168.997C228.185 168.997 226.725 167.839 226.725 166.402V151.877Z" fill="#EA2330"/>
<path d="M187.574 155.977V156.325C187.574 160.055 184.562 162.464 179.813 162.464C175.064 162.464 172.029 160.055 172.029 156.348C172.029 152.618 175.087 150.209 179.813 150.209H180.091C185.025 150.209 193.527 152.479 194.107 152.665V146.456C190.956 145.344 185.929 143.676 180.091 143.676H179.813C171.056 143.676 165.496 149.352 165.496 156.348C165.496 163.344 171.056 168.997 179.813 168.997C188.57 168.997 194.13 163.344 194.13 156.348V156.024L194.107 142.471C194.107 135.475 187.365 129.822 179.813 129.822L178.562 129.799C168.6 129.799 160.816 132.487 155.117 145.645C154.654 146.711 154.214 147.777 153.774 148.842L153.727 148.981C152.361 152.34 151.573 154.819 149.604 159.36C145.92 167.862 142.631 172.819 137.604 173.097C134.893 173.26 134.221 175.067 134.546 176.874C134.87 178.681 136.028 179.793 137.604 179.793C145.781 179.793 150.901 172.263 155.789 161.537L155.859 161.398C156.6 159.661 157.318 157.854 158.06 155.954C159.033 153.429 160.052 150.811 161.164 148.24C165.519 138.186 170.454 136.332 178.585 136.332H179.836C183.334 136.332 187.597 138.742 187.597 142.448V155.908" fill="#EA2330"/>
<path d="M263.467 155.977V156.325C263.467 160.055 260.409 162.464 255.683 162.464C250.957 162.464 247.899 160.055 247.899 156.348C247.899 152.618 250.957 150.209 255.683 150.209H255.961C260.896 150.209 269.398 152.479 269.977 152.665V146.456C266.826 145.344 261.776 143.676 255.961 143.676H255.683C246.926 143.676 241.366 149.352 241.366 156.348C241.366 163.344 246.926 168.997 255.683 168.997C264.44 168.997 270 163.344 270 156.348V156.024L269.977 142.471C269.977 135.475 263.235 129.846 255.683 129.846C255.683 129.846 253.343 129.823 252.857 129.823C236.779 129.823 226.748 140.317 226.748 154.819H233.281C233.281 143.931 240.393 136.355 252.857 136.355C253.436 136.355 255.243 136.379 255.243 136.379C259.923 136.379 263.49 138.765 263.49 142.471L263.467 155.977Z" fill="#EA2330"/>
<g opacity="0.7">
<path d="M187.574 151.136V156.348C187.574 159.267 185.72 161.375 182.639 162.14V168.789C189.751 167.7 194.13 162.557 194.13 156.348V156.024V152.665C193.388 152.479 189.427 151.576 187.574 151.136Z" fill="url(#paint0_linear_12_87079)"/>
<path d="M263.467 151.136V156.348C263.467 159.267 261.59 161.375 258.509 162.163V168.812C265.621 167.723 270 162.58 270 156.371V156.047V152.688C269.235 152.479 265.32 151.576 263.467 151.136Z" fill="url(#paint1_linear_12_87079)"/>
<path d="M212.848 129.869V136.425C220.748 137.282 226.725 143.931 226.748 151.854V152.642H226.841C227.072 148.541 228.323 144.533 230.455 141.012C226.818 134.618 220.215 130.425 212.848 129.869Z" fill="url(#paint2_linear_12_87079)"/>
<path d="M207.96 136.332H201.427V152.896H207.96V136.332Z" fill="url(#paint3_linear_12_87079)"/>
<path d="M140.175 148.634C142.028 152.41 144.345 157.136 147.38 163.02C147.472 163.182 147.565 163.368 147.681 163.553C148.306 162.279 148.955 160.889 149.604 159.383C150.183 158.062 150.646 156.927 151.063 155.885C149.071 151.923 147.426 148.587 146.036 145.784L140.175 148.634Z" fill="url(#paint4_linear_12_87079)"/>
</g>
<defs>
<linearGradient id="paint0_linear_12_87079" x1="186.681" y1="169.493" x2="189.925" y2="151.092" gradientUnits="userSpaceOnUse">
<stop offset="0.02" stop-color="white" stop-opacity="0"/>
<stop offset="0.65" stop-color="white" stop-opacity="0"/>
<stop offset="0.71" stop-color="#DFDFE0" stop-opacity="0.17"/>
<stop offset="0.89" stop-color="#88898A" stop-opacity="0.62"/>
<stop offset="0.99" stop-color="#666769" stop-opacity="0.8"/>
</linearGradient>
<linearGradient id="paint1_linear_12_87079" x1="262.546" y1="169.496" x2="265.799" y2="151.032" gradientUnits="userSpaceOnUse">
<stop offset="0.02" stop-color="white" stop-opacity="0"/>
<stop offset="0.65" stop-color="white" stop-opacity="0"/>
<stop offset="0.71" stop-color="#DFDFE0" stop-opacity="0.17"/>
<stop offset="0.91" stop-color="#88898A" stop-opacity="0.62"/>
<stop offset="1" stop-color="#666769" stop-opacity="0.8"/>
</linearGradient>
<linearGradient id="paint2_linear_12_87079" x1="210.259" y1="137.846" x2="229.997" y2="144.259" gradientUnits="userSpaceOnUse">
<stop offset="0.02" stop-color="white" stop-opacity="0"/>
<stop offset="0.65" stop-color="white" stop-opacity="0"/>
<stop offset="0.71" stop-color="#DFDFE0" stop-opacity="0.17"/>
<stop offset="0.91" stop-color="#88898A" stop-opacity="0.62"/>
<stop offset="1" stop-color="#666769" stop-opacity="0.8"/>
</linearGradient>
<linearGradient id="paint3_linear_12_87079" x1="204.696" y1="152.913" x2="204.696" y2="136.343" gradientUnits="userSpaceOnUse">
<stop offset="0.02" stop-color="white" stop-opacity="0"/>
<stop offset="0.65" stop-color="white" stop-opacity="0"/>
<stop offset="0.71" stop-color="#DFDFE0" stop-opacity="0.17"/>
<stop offset="0.91" stop-color="#88898A" stop-opacity="0.62"/>
<stop offset="1" stop-color="#666769" stop-opacity="0.8"/>
</linearGradient>
<linearGradient id="paint4_linear_12_87079" x1="140.271" y1="143.638" x2="150.17" y2="160.192" gradientUnits="userSpaceOnUse">
<stop offset="0.02" stop-color="white" stop-opacity="0"/>
<stop offset="0.5" stop-color="white" stop-opacity="0"/>
<stop offset="0.54" stop-color="#F0F0F1" stop-opacity="0.07"/>
<stop offset="0.85" stop-color="#8D8D8F" stop-opacity="0.52"/>
<stop offset="1" stop-color="#666769" stop-opacity="0.7"/>
</linearGradient>
</defs>
</svg>
