<svg width="400" height="300" viewBox="0 0 400 300" fill="none" xmlns="http://www.w3.org/2000/svg">
<path fill-rule="evenodd" clip-rule="evenodd" d="M199.998 100.498V97C170.728 96.9989 147 120.57 147 149.646C147 178.723 170.728 202.293 199.998 202.293V198.795C180.996 198.779 162.884 187.824 154.74 169.437C143.739 144.597 155.089 115.6 180.094 104.671C186.369 101.919 193.146 100.498 199.998 100.498Z" fill="#22BBBE"/>
<path fill-rule="evenodd" clip-rule="evenodd" d="M181.501 107.888L180.08 104.678C155.073 115.607 143.723 144.603 154.725 169.442C165.728 194.282 194.918 205.559 219.923 194.629L218.5 191.419C205.57 197.058 190.203 196.72 177.036 189.167C155.067 176.568 147.54 148.664 160.224 126.84C165.111 118.413 172.567 111.772 181.501 107.888Z" fill="#7DAD41"/>
<path fill-rule="evenodd" clip-rule="evenodd" d="M221.208 113.156L222.964 110.132C200.995 97.5322 172.904 105.011 160.22 126.833C147.536 148.656 155.065 176.562 177.033 189.161L178.795 186.13C175.274 184.103 172.064 181.58 169.262 178.639C153.143 161.766 153.847 135.108 170.831 119.096C184.777 105.949 205.364 104.069 221.208 113.157" fill="#F4B719"/>
<path fill-rule="evenodd" clip-rule="evenodd" d="M173.242 121.639L170.821 119.104C153.835 135.117 153.125 161.766 169.244 178.638C185.363 195.512 212.198 196.209 229.182 180.197L226.753 177.654C217.697 186.176 204.681 190.223 191.587 187.339C170.63 182.724 157.409 162.107 162.055 141.291C163.725 133.765 167.624 126.917 173.242 121.639Z" fill="#E55824"/>
<path fill-rule="evenodd" clip-rule="evenodd" d="M207.645 115.383L208.41 111.954C187.454 107.34 166.7 120.473 162.053 141.291C157.408 162.107 170.631 182.724 191.586 187.339L192.351 183.915L192.345 183.914C173.292 179.716 161.272 160.974 165.496 142.05C169.719 123.126 188.587 111.186 207.637 115.381L207.645 115.383Z" fill="#B52C80"/>
<path fill-rule="evenodd" clip-rule="evenodd" d="M225.951 154.991H234.898C235.088 153.753 235.213 152.494 235.27 151.218L225.95 151.263L225.951 154.991ZM225.951 144.188V147.79L235.254 147.744C235.19 146.553 235.065 145.366 234.88 144.188H225.951Z" fill="#FEFEFE"/>
<path fill-rule="evenodd" clip-rule="evenodd" d="M222.046 158.464V140.715H234.15C230.171 125.657 216.379 114.55 199.972 114.55C180.459 114.55 164.64 130.264 164.64 149.646C164.64 169.03 180.459 184.745 199.971 184.745C216.419 184.745 230.241 173.58 234.178 158.464H222.044H222.046ZM239.876 156.039L241.81 153.789C243.234 155.102 244.735 155.911 246.388 155.911C248.524 155.911 249.923 154.699 249.923 152.854V152.804C249.923 151.01 248.397 149.873 246.235 149.873C244.962 149.873 243.87 150.227 242.954 150.656L241.07 149.417L241.58 140.751H252.212V143.505H244.276L243.996 147.649C244.836 147.346 245.625 147.143 246.82 147.143C250.278 147.143 253 148.963 253 152.702V152.753C253 156.366 250.355 158.742 246.413 158.742C243.691 158.742 241.555 157.655 239.875 156.038" fill="#FEFEFE"/>
<path fill-rule="evenodd" clip-rule="evenodd" d="M217.314 144.189H207.614V147.79H217.314V151.263H207.614V154.991H217.314V158.465H203.707V140.715H217.313L217.314 144.189ZM199.599 143.682L189.771 155.041H199.599V158.466H184.716V155.498L194.544 144.139H185.024V140.715H199.599V143.682ZM235.256 147.744H235.126L225.95 147.789V144.189H234.883C234.699 143.019 234.455 141.859 234.152 140.714H222.047V158.465H234.183C234.48 157.329 234.719 156.171 234.901 154.991H225.952V151.263L235.147 151.219L235.271 151.218C235.323 150.061 235.319 148.902 235.257 147.745" fill="#020303"/>
</svg>
