<?xml version="1.0" encoding="utf-8"?>
<!-- Generator: Adobe Illustrator 26.3.1, SVG Export Plug-In . SVG Version: 6.00 Build 0)  -->
<svg version="1.1" id="Layer_1" xmlns="http://www.w3.org/2000/svg" xmlns:xlink="http://www.w3.org/1999/xlink" x="0px" y="0px"
	 viewBox="0 0 100 90" style="enable-background:new 0 0 100 90;" xml:space="preserve">
<style type="text/css">
	.st0{fill-rule:evenodd;clip-rule:evenodd;fill:#22BBBE;}
	.st1{fill-rule:evenodd;clip-rule:evenodd;fill:#7DAD41;}
	.st2{fill-rule:evenodd;clip-rule:evenodd;fill:#F4B719;}
	.st3{fill-rule:evenodd;clip-rule:evenodd;fill:#E55824;}
	.st4{fill-rule:evenodd;clip-rule:evenodd;fill:#B52C80;}
	.st5{fill-rule:evenodd;clip-rule:evenodd;fill:#FEFEFE;}
	.st6{fill-rule:evenodd;clip-rule:evenodd;fill:#020303;}
</style>
<g>
	<path class="st0" d="M50,12.5v-2.3c-19.4,0-35.1,15.6-35.1,34.9c0,19.3,15.7,34.9,35.1,34.9v-2.3c-12.6,0-24.6-7.3-30-19.4
		c-7.3-16.4,0.2-35.7,16.8-42.9C41,13.4,45.5,12.5,50,12.5z"/>
	<path class="st1" d="M37.7,17.3l-0.9-2.1C20.2,22.5,12.7,41.7,20,58.1C27.3,74.6,46.6,82,63.2,74.8l-0.9-2.1
		c-8.6,3.7-18.7,3.5-27.5-1.5c-14.5-8.3-19.5-26.8-11.1-41.3C26.9,24.3,31.8,19.9,37.7,17.3z"/>
	<path class="st2" d="M64,20.8l1.2-2c-14.5-8.3-33.2-3.4-41.6,11.1c-8.4,14.5-3.4,32.9,11.1,41.3l1.2-2c-2.3-1.3-4.5-3-6.3-5
		C19,53,19.4,35.4,30.7,24.8C39.9,16.1,53.6,14.8,64,20.8"/>
	<path class="st3" d="M32.3,26.5l-1.6-1.7C19.4,35.4,19,53,29.6,64.2c10.7,11.2,28.4,11.6,39.7,1l-1.6-1.7c-6,5.6-14.6,8.3-23.3,6.4
		c-13.9-3.1-22.6-16.7-19.6-30.5C26,34.5,28.6,29.9,32.3,26.5z"/>
	<path class="st4" d="M55.1,22.3l0.5-2.3C41.7,17,27.9,25.7,24.9,39.5C21.8,53.3,30.6,66.9,44.4,70l0.5-2.3l0,0
		C32.3,64.9,24.4,52.5,27.2,40C29.9,27.4,42.4,19.5,55.1,22.3L55.1,22.3z"/>
	<path class="st5" d="M67.2,48.5h5.9c0.1-0.8,0.2-1.7,0.2-2.5l-6.2,0L67.2,48.5z M67.2,41.4v2.4l6.2,0c0-0.8-0.1-1.6-0.2-2.4H67.2z"
		/>
	<path class="st5" d="M64.6,50.8V39.1h8C70,29.1,60.8,21.8,50,21.8c-12.9,0-23.4,10.4-23.4,23.2c0,12.8,10.5,23.2,23.4,23.2
		c10.9,0,20-7.4,22.7-17.4H64.6L64.6,50.8z M76.4,49.2l1.3-1.5c0.9,0.9,1.9,1.4,3,1.4c1.4,0,2.3-0.8,2.3-2v0c0-1.2-1-1.9-2.4-1.9
		c-0.8,0-1.6,0.2-2.2,0.5l-1.2-0.8l0.3-5.7h7v1.8h-5.3l-0.2,2.7c0.6-0.2,1.1-0.3,1.9-0.3c2.3,0,4.1,1.2,4.1,3.7v0c0,2.4-1.8,4-4.4,4
		C78.9,51,77.5,50.3,76.4,49.2"/>
	<path class="st6" d="M61.5,41.4H55v2.4h6.4v2.3H55v2.5h6.4v2.3h-9V39.1h9L61.5,41.4z M49.7,41.1l-6.5,7.5h6.5v2.3h-9.9v-2l6.5-7.5
		h-6.3v-2.3h9.7V41.1z M73.3,43.7L73.3,43.7l-6.2,0v-2.4h5.9c-0.1-0.8-0.3-1.5-0.5-2.3h-8v11.8h8c0.2-0.8,0.4-1.5,0.5-2.3h-5.9v-2.5
		l6.1,0l0.1,0C73.4,45.3,73.4,44.5,73.3,43.7"/>
</g>
</svg>
