<?xml version="1.0" encoding="utf-8"?>
<!-- Generator: Adobe Illustrator 26.3.1, SVG Export Plug-In . SVG Version: 6.00 Build 0)  -->
<svg version="1.1" id="Layer_1" xmlns="http://www.w3.org/2000/svg" xmlns:xlink="http://www.w3.org/1999/xlink" x="0px" y="0px"
	 viewBox="0 0 100 90" style="enable-background:new 0 0 100 90;" xml:space="preserve">
<style type="text/css">
	.st0{fill:#E23744;}
</style>
<g>
	<path class="st0" d="M22.1,40.9l-0.1,2.3l-6,6.6c2.5,0,4.1,0,5.1-0.1c-0.3,1.2-0.5,2.3-0.7,3.8c-1.2-0.1-3.1-0.1-5-0.1
		c-2.1,0-4,0-5.4,0.1l0-2.3l6-6.5c-2.6,0-3.6,0-4.7,0.1c0.2-1.2,0.4-2.5,0.6-3.8c1.9,0.1,2.7,0.1,5.2,0.1
		C19.4,41,20.7,40.9,22.1,40.9L22.1,40.9z M29,40.2c-3.9,0-6.9,3.5-6.9,7.7c0,3.2,1.8,5.6,5.4,5.6c4,0,6.9-3.5,6.9-7.7
		C34.4,42.6,32.6,40.2,29,40.2L29,40.2z M27.8,50.1c-0.9,0-1.4-0.8-1.4-2.3c0-2.3,0.9-4.2,2.1-4.2c0.8,0,1.4,0.8,1.4,2.3
		C29.9,48.2,29,50.1,27.8,50.1L27.8,50.1z M84.6,40c-4,0-7,3.6-7,7.8c0,3.2,1.8,5.7,5.4,5.7c4,0,7-3.6,7-7.8
		C90.1,42.4,88.3,40,84.6,40L84.6,40z M83.3,50.1c-0.9,0-1.4-0.8-1.4-2.3c0-2.3,0.9-4.2,2.1-4.2c0.8,0,1.4,0.8,1.4,2.3
		C85.4,48.2,84.5,50.1,83.3,50.1L83.3,50.1z M54.8,44.8c0.3-2.2,0.1-4.1-2.3-4.1c-1.7,0-3.6,1.5-5,3.9c0.3-2,0.1-3.9-2.3-3.9
		c-1.8,0-3.7,1.6-5.1,4.1c0.3-1.7,0.3-3.6,0.2-4c-1.4,0.2-2.6,0.4-4.3,0.4c0,1.2,0,2.7-0.2,4.2l-0.6,3.8c-0.2,1.5-0.5,3.2-0.7,4.3
		h4.5c0-0.7,0.2-1.7,0.3-2.6l0.4-2.6c0.3-1.7,1.7-3.7,2.7-3.7c0.6,0,0.6,0.6,0.4,1.7l-0.4,3c-0.2,1.5-0.5,3.2-0.7,4.3h4.6
		c0-0.7,0.2-1.7,0.3-2.6l0.4-2.6c0.3-1.7,1.7-3.7,2.7-3.7c0.6,0,0.6,0.6,0.5,1.3l-1.1,7.6h4.2L54.8,44.8z M76.6,49.5l-0.5,3
		c-0.8,0.4-2.2,1-3.8,1c-2.8,0-3.3-1.5-2.9-4.6l0.7-5h-1.4l0.4-3.3l1.5-0.1l0.6-2.4l4.2-1.6l-0.5,3.9h2.9c-0.1,0.4-0.4,2.7-0.5,3.3
		h-2.8l-0.6,4.7c-0.2,1.2-0.1,1.6,0.8,1.6C75.2,50.1,76.1,49.8,76.6,49.5L76.6,49.5z M60.7,51.1c1.5-0.2,2.6-1.7,2.8-3.1l0-0.4
		c-0.7-0.1-1.6-0.3-2.5-0.1c-0.9,0.1-1.6,0.5-2,1c-0.3,0.4-0.4,0.8-0.4,1.4C58.8,50.6,59.7,51.2,60.7,51.1L60.7,51.1z M59.4,53.4
		c-2.2,0.3-3.6-0.6-4-2.5c-0.3-1.2,0.1-2.6,0.8-3.5c0.9-1.1,2.3-1.8,4-2c1.4-0.2,2.6-0.1,3.7,0.1l0-0.2c0-0.3,0.1-0.6,0-1
		c-0.1-0.9-0.8-1.5-2.6-1.3c-1.2,0.1-2.4,0.6-3.3,1.1l-0.9-2.6c1.2-0.7,2.7-1.2,4.5-1.4c3.3-0.4,5.7,0.7,6,3.1c0.1,0.7,0.1,1.3,0,2
		c-0.4,3-0.7,5.3-0.8,6.8c0,0.2,0,0.6,0,1.2l-4.2,0c0.1-0.2,0.2-0.6,0.2-1c0-0.3,0.1-0.6,0.1-1C62.1,52.5,60.9,53.2,59.4,53.4
		L59.4,53.4z"/>
</g>
</svg>
