<svg width="400" height="300" viewBox="0 0 400 300" fill="none" xmlns="http://www.w3.org/2000/svg">
<path d="M103.522 135.082L103.271 143.155L82.2208 166.044C91.0138 166.044 96.5894 165.958 99.8046 165.779C98.8727 170.123 98.115 173.674 97.3516 178.998C93.1231 178.641 86.5308 178.551 79.9352 178.551C72.583 178.551 66.1571 178.639 61 178.998L61.1719 170.833L82.2208 148.036C73.006 148.036 69.6234 148.123 65.8211 148.212C66.6637 144.131 67.2563 139.609 67.8478 135.082C74.526 135.348 77.1464 135.435 85.8545 135.435C93.8864 135.436 98.4486 135.348 103.522 135.082V135.082ZM127.448 132.684C113.749 132.684 103.271 144.927 103.271 159.57C103.271 170.569 109.61 178.998 121.952 178.998C135.732 178.998 146.13 166.753 146.13 152.023C146.131 141.117 139.957 132.684 127.448 132.684V132.684ZM123.304 167.23C120.26 167.23 118.487 164.476 118.487 159.065C118.487 150.992 121.783 144.517 125.843 144.517C128.8 144.517 130.575 147.181 130.575 152.678C130.574 160.662 127.364 167.23 123.304 167.23V167.23ZM321.071 132.077C307.197 132.077 296.578 144.481 296.578 159.309C296.578 170.458 303.001 178.998 315.505 178.998C329.465 178.998 340 166.592 340 151.672C340.001 140.618 333.751 132.077 321.071 132.077V132.077ZM316.613 167.183C313.567 167.183 311.795 164.429 311.795 159.019C311.795 150.945 315.093 144.471 319.152 144.471C322.107 144.471 323.886 147.133 323.886 152.631C323.884 160.618 320.671 167.183 316.613 167.183V167.183ZM217.224 148.655C218.324 141.117 217.733 134.284 209.365 134.284C203.277 134.284 196.684 139.43 192.035 148.036C193.05 140.936 192.456 134.284 184.172 134.284C177.917 134.284 171.154 139.695 166.503 148.655C167.687 142.8 167.434 136.145 167.095 134.726C162.277 135.525 158.052 135.967 152.133 136.145C152.303 140.227 152.048 145.546 151.287 150.608L149.343 163.914C148.582 169.15 147.736 175.183 146.89 178.999H162.614C162.7 176.689 163.293 173.053 163.715 169.859L165.067 160.723C166.166 154.775 170.899 147.77 174.533 147.77C176.647 147.77 176.564 149.81 175.972 153.624L174.45 163.913C173.686 169.149 172.844 175.182 171.997 178.998H187.89C187.976 176.688 188.482 173.052 188.904 169.858L190.256 160.722C191.356 154.774 196.092 147.769 199.725 147.769C201.841 147.769 201.757 149.718 201.416 152.382L197.619 178.997H212.124L217.224 148.655ZM293.169 165.069L291.478 175.539C288.857 176.958 283.953 179 278.289 179C268.652 179 266.71 173.854 268.229 162.941L270.682 145.375H265.939L267.278 134.003L272.456 133.753L274.401 125.502L289.024 120L287.166 133.752H297.227C296.89 135.171 295.702 142.981 295.37 145.373H285.558L283.359 161.61C282.768 165.779 283.108 167.288 285.979 167.288C288.097 167.286 291.222 166.044 293.169 165.069V165.069ZM237.699 170.725C243.021 170.065 246.684 164.933 247.565 159.812L247.713 158.44C245.426 157.929 242.121 157.539 238.916 157.931C235.863 158.303 233.323 159.572 231.957 161.41C230.927 162.729 230.409 164.308 230.639 166.19C230.986 169.009 234.103 171.163 237.699 170.725V170.725ZM233.169 178.834C225.658 179.757 220.71 176.774 219.225 169.99C218.293 165.721 219.586 160.858 221.849 157.957C224.879 154.162 229.816 151.727 235.841 150.991C240.69 150.389 244.776 150.686 248.597 151.41L248.755 150.754C248.865 149.706 248.975 148.66 248.822 147.407C248.426 144.191 245.891 142.276 239.63 143.046C235.406 143.565 231.387 145.091 228.267 146.828L225.231 137.653C229.461 135.224 234.792 133.375 240.893 132.626C252.548 131.196 260.737 134.913 261.786 143.46C262.064 145.733 262.097 148.142 261.81 150.328C260.314 160.895 259.355 168.847 258.935 174.176C258.866 175.001 258.872 176.419 258.946 178.428L244.483 178.415C244.791 177.582 245.067 176.452 245.313 175.036C245.476 174.104 245.592 172.928 245.664 171.504C242.607 175.699 238.406 178.191 233.169 178.834V178.834Z" fill="#E23744"/>
</svg>
