<svg width="110" height="35" viewBox="0 0 110 35" fill="none" xmlns="http://www.w3.org/2000/svg">
<path d="M26.0234 2H1V7.84885H26.0234V2Z" fill="#1D1D1D"/>
<path fill-rule="evenodd" clip-rule="evenodd" d="M4.76025 2V33.0576L10.5945 27.1471V2H4.76025Z" fill="#1D1D1D"/>
<path fill-rule="evenodd" clip-rule="evenodd" d="M16.2976 2V21.4922L22.1361 15.5823V2H16.2976Z" fill="#1D1D1D"/>
<path fill-rule="evenodd" clip-rule="evenodd" d="M47.585 28.6276C47.1569 28.6348 46.7317 28.5542 46.3358 28.3906C45.9399 28.227 45.5815 27.984 45.2828 27.6764C44.6503 27.0419 44.3341 26.2006 44.3341 25.1525C44.3341 24.1044 44.6694 23.272 45.34 22.6554C46.0094 22.0392 46.8164 21.7263 47.7608 21.7263C48.9421 21.7263 49.9268 22.1582 50.7215 23.1447L52.2813 21.4364C51.0378 20.0272 49.4928 19.3225 47.6464 19.3225C45.9948 19.3225 44.5978 19.8818 43.4553 21.0003C42.3128 22.1187 41.7418 23.5134 41.7422 25.1842C41.7422 26.8575 42.3031 28.2418 43.4249 29.3371C44.5466 30.4323 45.9729 30.98 47.7037 30.98C49.4344 30.98 50.9384 30.2591 52.2155 28.8173L50.6071 27.1572C49.8251 28.1389 48.8149 28.6276 47.585 28.6276Z" fill="#1D1D1D"/>
<path fill-rule="evenodd" clip-rule="evenodd" d="M59.9163 19.3652H57.4297L52.4523 30.9129H55.1908L56.2625 28.4201H61.0905L62.1624 30.9129H64.9013L59.9163 19.3652ZM57.2325 26.1506L58.6821 22.8L60.114 26.1506H57.2325Z" fill="#1D1D1D"/>
<path fill-rule="evenodd" clip-rule="evenodd" d="M73.8778 20.3957C73.0696 19.7087 71.7809 19.3652 70.0116 19.3652H65.9388V30.9129H68.5091V27.6935H70.0426C71.7464 27.6935 73.0131 27.363 73.8426 26.7021C74.6716 26.0412 75.0861 24.9975 75.0855 23.5712C75.0855 22.1442 74.6871 21.0869 73.8778 20.3957ZM71.9911 24.9408C71.6833 25.2885 71.0991 25.4606 70.2427 25.4606H68.5115V21.5805H69.9789C70.8269 21.5805 71.4462 21.7214 71.8506 22.0032C72.2544 22.2851 72.4527 22.7561 72.4527 23.4259C72.4497 24.0861 72.2961 24.593 71.9888 24.9408H71.9911Z" fill="#1D1D1D"/>
<path d="M78.9432 19.3652H76.3735V30.9129H78.9432V19.3652Z" fill="#1D1D1D"/>
<path fill-rule="evenodd" clip-rule="evenodd" d="M80.7312 19.3652V21.5939H83.9953V30.9129H86.5655V21.5939H89.8296V19.3652H80.7312Z" fill="#1D1D1D"/>
<path fill-rule="evenodd" clip-rule="evenodd" d="M95.4304 19.3652H92.944L87.9661 30.9129H90.7049L91.7774 28.4201H96.6047L97.6767 30.9129H100.415L95.4304 19.3652ZM92.7457 26.1506L94.1958 22.7988L95.6275 26.1506H92.7457Z" fill="#1D1D1D"/>
<path fill-rule="evenodd" clip-rule="evenodd" d="M104.089 28.6135V19.3652H101.518V30.9129H109V28.6135H104.089Z" fill="#1D1D1D"/>
<path d="M46.5877 8.52271L49.1795 5.92006V4.02148H42.3223V5.93715H45.9633L43.257 8.7826V10.7294C43.9118 10.5219 44.8697 10.4823 45.23 10.4823C45.9061 10.4823 46.5171 10.5658 46.9431 10.8349C47.3429 11.0857 47.5139 11.4907 47.5139 11.9623C47.5139 12.4339 47.3471 12.7987 47.0179 13.0501C46.6887 13.3015 46.1349 13.4906 45.6182 13.4906C44.7705 13.4906 44.0147 13.332 43.5053 12.8653L41.7478 14.5692C43.044 15.4636 44.2563 15.6527 45.5209 15.6527C46.7855 15.6527 47.9502 15.3135 48.759 14.6309C49.5678 13.9482 49.9761 13.0105 49.9761 11.808C49.9761 11.0021 49.7327 10.2828 49.2252 9.67267C48.6087 8.93208 47.6247 8.65933 46.5877 8.52271ZM73.3331 11.6451L67.7953 4.01904H65.3483V15.6527H67.8966V8.81309L73.2033 15.6527H75.8807V4.02575H73.3325V11.6451H73.3331ZM80.8944 10.899H85.9385V8.72096H80.8944V6.36482H86.509V4.02575H78.217V15.6576H86.5543V13.2703H80.8873V10.899H80.8944ZM96.7276 10.7769V8.84846H94.2151V10.7769H91.4334C91.4334 10.7769 94.1317 8.03766 96.0993 6.0427V4.02575H94.601L88.3968 10.2621V13.2484H94.2133V15.6576H96.7264V13.2484H98.5975V10.7769H96.7276Z" fill="#1D1D1D"/>
<path d="M57.7372 6.38422C58.4165 6.38458 59.0804 6.58681 59.645 6.96535C60.2097 7.34388 60.6499 7.88171 60.9095 8.51094C61.1692 9.14011 61.2371 9.83235 61.1049 10.5002C60.9721 11.1681 60.6451 11.7816 60.1647 12.2632C59.6845 12.7447 59.0726 13.0727 58.4064 13.2057C57.7402 13.3387 57.0497 13.2708 56.422 13.0104C55.7944 12.7501 55.2578 12.3091 54.8801 11.7431C54.5024 11.1771 54.3006 10.5115 54.3001 9.83056C54.3008 8.91691 54.6632 8.0409 55.3076 7.39474C55.9521 6.74862 56.8258 6.38519 57.7372 6.38422ZM57.7372 4.01465C56.5903 4.01465 55.4691 4.3556 54.5155 4.9944C53.5619 5.6332 52.8186 6.54114 52.3797 7.60341C51.9407 8.66572 51.8259 9.83461 52.0497 10.9623C52.2735 12.09 52.8257 13.1259 53.6367 13.9389C54.4477 14.752 55.481 15.3056 56.6059 15.53C57.7308 15.7542 58.8968 15.6391 59.9564 15.1991C61.0161 14.7591 61.9219 14.014 62.5591 13.0579C63.1964 12.1019 63.5364 10.978 63.5364 9.82812C63.5358 8.28673 62.9242 6.80867 61.8368 5.71896C60.7493 4.62925 59.2748 4.01709 57.7372 4.01709V4.01465Z" fill="#1D1D1D"/>
<path d="M34.2468 2H33.5968V32.9874H34.2468V2Z" fill="#1D1D1D"/>
</svg>
